<?xml version="1.0" standalone="no"?>
<!DOCTYPE svg PUBLIC "-//W3C//DTD SVG 1.1//EN" "http://www.w3.org/Graphics/SVG/1.1/DTD/svg11.dtd" >
<svg>
<metadata>
Created by FontForge 20110222 at Tue Aug 12 19:59:14 2014
 By Orthosie Webhosting
Copyright (c) 2012 by Miguel Hernandez. All rights reserved.
</metadata>
<defs>
<font id="LolitaBold" horiz-adv-x="531" >
  <font-face 
    font-family="Lolita Bold"
    font-weight="700"
    font-stretch="normal"
    units-per-em="1000"
    panose-1="2 0 0 0 0 0 0 0 0 0"
    ascent="750"
    descent="-250"
    x-height="500"
    cap-height="651"
    bbox="-39 -204 1513 887"
    underline-thickness="50"
    underline-position="-50"
    unicode-range="U+0020-FB04"
  />
<missing-glyph horiz-adv-x="255" 
 />
    <glyph glyph-name=".notdef" horiz-adv-x="255" 
 />
    <glyph glyph-name="Aacute" unicode="&#xc1;" 
d="M123 26l45 156h186l52 -182h77c25 0 35 9 35 26c0 8 -2 16 -7 35l-176 560c-7 21 -21 30 -69 30c-25 0 -46 -5 -64 -12l-194 -626c13 -11 44 -18 69 -18c30 0 41 9 46 31zM334 259h-146l74 256zM270 812c6 14 18 25 45 25c48 0 58 -9 59 -9l-59 -121
c-7 -14 -18 -21 -41 -21c-28 0 -43 4 -55 11z" />
    <glyph glyph-name="acute" unicode="&#xb4;" horiz-adv-x="430" 
d="M227 812c6 14 18 25 45 25c48 0 58 -9 59 -9l-59 -121c-7 -14 -18 -21 -41 -21c-28 0 -43 4 -55 11z" />
    <glyph glyph-name="Abreve" unicode="&#x102;" 
d="M123 26l45 156h186l52 -182h77c25 0 35 9 35 26c0 8 -2 16 -7 35l-176 560c-7 21 -21 30 -69 30c-25 0 -46 -5 -64 -12l-194 -626c13 -11 44 -18 69 -18c30 0 41 9 46 31zM334 259h-146l74 256zM340 850c7 2 17 3 35 3c33 0 42 -5 42 -14v-14c0 -79 -46 -139 -152 -139
c-104 0 -152 60 -152 139v14c0 9 9 14 42 14c18 0 28 -1 35 -3v-27c0 -39 22 -68 75 -68c54 0 75 29 75 68v27z" />
    <glyph glyph-name="breve" unicode="&#x2d8;" horiz-adv-x="524" 
d="M336 727c7 2 17 3 35 3c33 0 42 -5 42 -14v-14c0 -79 -46 -139 -152 -139c-104 0 -152 60 -152 139v14c0 9 9 14 42 14c18 0 28 -1 35 -3v-27c0 -39 22 -68 75 -68c54 0 75 29 75 68v27z" />
    <glyph glyph-name="Acircumflex" unicode="&#xc2;" 
d="M220 833c0 0 23 4 47 4c27 0 41 -4 50 -17l68 -99c5 -7 7 -13 7 -18c0 -9 -5 -17 -36 -17h-44l-49 101l-44 -88c-4 -10 -14 -16 -39 -16c-23 0 -39 6 -48 15zM123 26l45 156h186l52 -182h77c25 0 35 9 35 26c0 8 -2 16 -7 35l-176 560c-7 21 -21 30 -69 30
c-25 0 -46 -5 -64 -12l-194 -626c13 -11 44 -18 69 -18c30 0 41 9 46 31zM334 259h-146l74 256z" />
    <glyph glyph-name="circumflex" unicode="&#x2c6;" horiz-adv-x="466" 
d="M192 833c0 0 23 4 47 4c27 0 41 -4 50 -17l68 -99c5 -7 7 -13 7 -18c0 -9 -5 -17 -36 -17h-44l-49 101l-44 -88c-4 -10 -14 -16 -39 -16c-23 0 -39 6 -48 15z" />
    <glyph glyph-name="Adieresis" unicode="&#xc4;" 
d="M176 801c31 0 57 -26 57 -58c0 -30 -26 -56 -57 -56s-57 26 -57 56c0 32 26 58 57 58zM351 801c32 0 58 -26 58 -58c0 -30 -26 -56 -58 -56c-30 0 -56 26 -56 56c0 32 26 58 56 58zM123 26l45 156h186l52 -182h77c25 0 35 9 35 26c0 8 -2 16 -7 35l-176 560
c-7 21 -21 30 -69 30c-25 0 -46 -5 -64 -12l-194 -626c13 -11 44 -18 69 -18c30 0 41 9 46 31zM334 259h-146l74 256z" />
    <glyph glyph-name="dieresis" unicode="&#xa8;" horiz-adv-x="460" 
d="M142 810c31 0 57 -26 57 -58c0 -30 -26 -56 -57 -56s-57 26 -57 56c0 32 26 58 57 58zM317 810c32 0 58 -26 58 -58c0 -30 -26 -56 -58 -56c-30 0 -56 26 -56 56c0 32 26 58 56 58z" />
    <glyph glyph-name="Agrave" unicode="&#xc0;" 
d="M123 26l45 156h186l52 -182h77c25 0 35 9 35 26c0 8 -2 16 -7 35l-176 560c-7 21 -21 30 -69 30c-25 0 -46 -5 -64 -12l-194 -626c13 -11 44 -18 69 -18c30 0 41 9 46 31zM334 259h-146l74 256zM152 828c1 0 11 9 59 9c26 0 39 -11 45 -25l50 -115
c-11 -7 -26 -11 -54 -11c-23 0 -34 7 -42 21z" />
    <glyph glyph-name="grave" unicode="`" horiz-adv-x="430" 
d="M99 828c1 0 11 9 59 9c26 0 39 -11 45 -25l50 -115c-11 -7 -26 -11 -54 -11c-23 0 -34 7 -42 21z" />
    <glyph glyph-name="Amacron" unicode="&#x100;" 
d="M168 182l-45 -156c-5 -22 -16 -31 -46 -31c-25 0 -56 7 -69 18l194 626c18 7 39 12 64 12c48 0 62 -9 69 -30l176 -560c5 -19 7 -27 7 -35c0 -17 -10 -26 -35 -26h-77l-52 182h-186zM188 259h146l-72 256zM360 686h-220c-3 9 -6 27 -6 37c0 38 8 47 32 47h221
c2 -9 5 -27 5 -38c0 -37 -8 -46 -32 -46z" />
    <glyph glyph-name="macron" unicode="&#xaf;" horiz-adv-x="410" 
d="M302 580h-220c-3 9 -6 27 -6 37c0 38 8 47 32 47h221c2 -9 5 -27 5 -38c0 -37 -8 -46 -32 -46z" />
    <glyph glyph-name="Aogonek" unicode="&#x104;" 
d="M168 182l-45 -156c-5 -22 -16 -31 -46 -31c-25 0 -56 7 -69 18l194 626c18 7 39 12 64 12c48 0 62 -9 69 -30l176 -560c5 -19 7 -27 7 -35c0 -17 -10 -26 -35 -26h-51c-16 -24 -27 -48 -27 -70s14 -41 57 -41c34 0 48 9 59 13c6 -4 13 -16 13 -29c0 -25 -27 -35 -86 -35
c-77 0 -108 38 -108 83c0 51 30 92 61 95l-47 166h-186zM188 259h146l-72 256z" />
    <glyph glyph-name="ogonek" unicode="&#x2db;" horiz-adv-x="451" 
d="M236 3c-17 -25 -29 -50 -29 -73c0 -22 14 -41 57 -41c34 0 48 9 59 13c6 -4 13 -16 13 -29c0 -25 -27 -35 -86 -35c-77 0 -108 38 -108 83c0 53 32 95 65 95c18 0 25 -6 29 -13z" />
    <glyph glyph-name="Aring" unicode="&#xc5;" 
d="M358 703c0 -31 -11 -55 -28 -71c2 -3 3 -7 5 -11l176 -560c5 -19 7 -27 7 -35c0 -17 -10 -26 -35 -26h-77l-52 182h-186l-45 -156c-5 -22 -16 -31 -46 -31c-25 0 -56 7 -69 18l192 621c-16 16 -26 40 -26 69c0 61 41 96 92 96c52 0 92 -35 92 -96zM188 259h146l-72 256z
M234 703c0 -25 12 -40 32 -40s33 15 33 40c0 28 -13 40 -33 40s-32 -12 -32 -40z" />
    <glyph glyph-name="ring" unicode="&#x2da;" horiz-adv-x="472" 
d="M328 674c0 -59 -40 -95 -92 -95c-51 0 -92 36 -92 95c0 61 41 96 92 96c52 0 92 -35 92 -96zM204 674c0 -25 12 -40 32 -40s33 15 33 40c0 28 -13 40 -33 40s-32 -12 -32 -40z" />
    <glyph glyph-name="Atilde" unicode="&#xc3;" 
d="M123 26l45 156h186l52 -182h77c25 0 35 9 35 26c0 8 -2 16 -7 35l-176 560c-7 21 -21 30 -69 30c-25 0 -46 -5 -64 -12l-194 -626c13 -11 44 -18 69 -18c30 0 41 9 46 31zM334 259h-146l74 256zM110 709c0 90 41 120 90 120c61 0 90 -68 128 -68c23 0 35 15 38 64h29
c14 0 22 -8 22 -24c0 -92 -41 -120 -90 -120c-63 0 -91 69 -129 69c-23 0 -34 -17 -37 -65h-29c-14 0 -22 9 -22 24z" />
    <glyph glyph-name="tilde" unicode="&#x2dc;" horiz-adv-x="475" 
d="M84 598c0 90 41 120 90 120c61 0 90 -68 128 -68c23 0 35 15 38 64h29c14 0 22 -8 22 -24c0 -92 -41 -120 -90 -120c-63 0 -91 69 -129 69c-23 0 -34 -17 -37 -65h-29c-14 0 -22 9 -22 24z" />
    <glyph glyph-name="AE" unicode="&#xc6;" horiz-adv-x="772" 
d="M321 639c22 8 45 12 72 12h331c4 -10 7 -31 7 -43c0 -42 -10 -52 -35 -52h-210v-198h207c2 -9 5 -26 5 -37c0 -37 -9 -46 -30 -46h-182v-183h242c4 -10 6 -29 6 -41c0 -41 -9 -51 -33 -51h-274c-42 0 -60 11 -60 31v136h-182l-73 -142c-11 -22 -17 -30 -47 -30
c-26 0 -59 9 -73 19zM367 244v280l-143 -280h143z" />
    <glyph glyph-name="AEacute" unicode="&#x1fc;" horiz-adv-x="772" 
d="M398 812c6 14 18 25 45 25c48 0 58 -9 59 -9l-59 -121c-7 -14 -18 -21 -41 -21c-28 0 -43 4 -55 11zM321 639c22 8 45 12 72 12h331c4 -10 7 -31 7 -43c0 -42 -10 -52 -35 -52h-210v-198h207c2 -9 5 -26 5 -37c0 -37 -9 -46 -30 -46h-182v-183h242c4 -10 6 -29 6 -41
c0 -41 -9 -51 -33 -51h-274c-42 0 -60 11 -60 31v136h-182l-73 -142c-11 -22 -17 -30 -47 -30c-26 0 -59 9 -73 19zM367 244v280l-143 -280h143z" />
    <glyph glyph-name="B" unicode="B" horiz-adv-x="548" 
d="M497 460c0 -60 -24 -103 -63 -138c51 -30 77 -80 77 -144c0 -112 -78 -182 -255 -182c-151 0 -191 19 -191 60v548c0 30 11 49 181 49c182 0 251 -83 251 -193zM265 85c79 0 126 37 126 102c0 61 -40 94 -126 94c-38 0 -64 -1 -81 -3v-185c22 -7 41 -8 81 -8zM373 450
c0 71 -40 111 -122 111c-30 0 -52 -2 -67 -4v-203c17 2 47 4 89 4c23 0 44 -1 64 -4c22 23 36 52 36 96z" />
    <glyph glyph-name="C" unicode="C" horiz-adv-x="475" 
d="M316 92c64 0 112 14 112 14c7 -10 13 -34 13 -58c0 -32 -41 -54 -143 -54c-171 0 -257 113 -257 331c0 237 115 332 269 332c55 0 100 -6 127 -6c3 -10 7 -30 7 -42c0 -38 -6 -54 -35 -54c-25 0 -62 4 -88 4c-102 0 -154 -63 -154 -237c0 -171 52 -230 149 -230z" />
    <glyph glyph-name="Cacute" unicode="&#x106;" horiz-adv-x="475" 
d="M281 812c6 14 18 25 45 25c48 0 58 -9 59 -9l-59 -121c-7 -14 -18 -21 -41 -21c-28 0 -43 4 -55 11zM316 92c64 0 112 14 112 14c7 -10 13 -34 13 -58c0 -32 -41 -54 -143 -54c-171 0 -257 113 -257 331c0 237 115 332 269 332c55 0 100 -6 127 -6c3 -10 7 -30 7 -42
c0 -38 -6 -54 -35 -54c-25 0 -62 4 -88 4c-102 0 -154 -63 -154 -237c0 -171 52 -230 149 -230z" />
    <glyph glyph-name="Ccaron" unicode="&#x10c;" horiz-adv-x="475" 
d="M143 825c8 9 24 15 47 15c26 0 35 -5 40 -15l44 -88l49 100h43c31 0 37 -8 37 -17c0 -5 -3 -11 -8 -18l-67 -99c-9 -12 -24 -17 -51 -17c-23 0 -47 5 -47 5zM316 92c64 0 112 14 112 14c7 -10 13 -34 13 -58c0 -32 -41 -54 -143 -54c-171 0 -257 113 -257 331
c0 237 115 332 269 332c55 0 100 -6 127 -6c3 -10 7 -30 7 -42c0 -38 -6 -54 -35 -54c-25 0 -62 4 -88 4c-102 0 -154 -63 -154 -237c0 -171 52 -230 149 -230z" />
    <glyph glyph-name="caron" unicode="&#x2c7;" horiz-adv-x="466" 
d="M105 822c8 9 24 15 47 15c26 0 35 -5 40 -15l44 -88l49 100h43c31 0 37 -8 37 -17c0 -5 -3 -11 -8 -18l-67 -99c-9 -12 -24 -17 -51 -17c-23 0 -47 5 -47 5z" />
    <glyph glyph-name="Ccedilla" unicode="&#xc7;" horiz-adv-x="475" 
d="M256 -12l4 8c-146 16 -219 127 -219 329c0 237 115 332 269 332c55 0 100 -6 127 -6c3 -10 7 -30 7 -42c0 -38 -6 -54 -35 -54c-25 0 -62 4 -88 4c-102 0 -154 -63 -154 -237c0 -171 52 -230 149 -230c64 0 112 14 112 14c7 -10 13 -34 13 -58c0 -31 -38 -52 -132 -54
l-16 -34c10 1 22 1 34 1c49 0 78 -19 78 -61c0 -40 -28 -70 -103 -70c-71 0 -95 15 -95 36c0 12 7 20 14 24c0 0 24 -14 70 -14c44 0 55 10 55 24c0 16 -11 24 -44 24h-44c-14 0 -21 11 -21 22z" />
    <glyph glyph-name="cedilla" unicode="&#xb8;" horiz-adv-x="484" 
d="M211 -12c6 14 16 21 33 21c13 0 20 -3 23 -8l-19 -41c10 1 22 1 34 1c49 0 78 -19 78 -61c0 -40 -28 -70 -103 -70c-71 0 -95 15 -95 36c0 12 7 20 14 24c0 0 24 -14 70 -14c44 0 55 10 55 24c0 16 -11 24 -44 24h-44c-14 0 -21 11 -21 22z" />
    <glyph glyph-name="Ccircumflex" unicode="&#x108;" horiz-adv-x="475" 
d="M225 833c0 0 23 4 47 4c27 0 41 -4 50 -17l68 -99c5 -7 7 -13 7 -18c0 -9 -5 -17 -36 -17h-44l-49 101l-44 -88c-4 -10 -14 -16 -39 -16c-23 0 -39 6 -48 15zM316 92c64 0 112 14 112 14c7 -10 13 -34 13 -58c0 -32 -41 -54 -143 -54c-171 0 -257 113 -257 331
c0 237 115 332 269 332c55 0 100 -6 127 -6c3 -10 7 -30 7 -42c0 -38 -6 -54 -35 -54c-25 0 -62 4 -88 4c-102 0 -154 -63 -154 -237c0 -171 52 -230 149 -230z" />
    <glyph glyph-name="Cdotaccent" unicode="&#x10a;" horiz-adv-x="475" 
d="M316 92c64 0 112 14 112 14c7 -10 13 -34 13 -58c0 -32 -41 -54 -143 -54c-171 0 -257 113 -257 331c0 237 115 332 269 332c55 0 100 -6 127 -6c3 -10 7 -30 7 -42c0 -38 -6 -54 -35 -54c-25 0 -62 4 -88 4c-102 0 -154 -63 -154 -237c0 -171 52 -230 149 -230zM278 814
c35 0 64 -29 64 -64c0 -34 -29 -63 -64 -63c-34 0 -63 29 -63 63c0 35 29 64 63 64z" />
    <glyph glyph-name="dotaccent" unicode="&#x2d9;" horiz-adv-x="271" 
d="M135 823c35 0 64 -29 64 -64c0 -34 -29 -63 -64 -63c-34 0 -63 29 -63 63c0 35 29 64 63 64z" />
    <glyph glyph-name="D" unicode="D" horiz-adv-x="580" 
d="M65 604c0 33 17 49 167 49c193 0 308 -112 308 -325c0 -219 -114 -332 -300 -332c-144 0 -175 23 -175 60v548zM414 328c0 171 -76 232 -170 232c-27 0 -46 -1 -60 -4v-463c17 -4 35 -6 69 -6c87 0 161 59 161 241z" />
    <glyph glyph-name="Eth" unicode="&#xd0;" horiz-adv-x="590" 
d="M19 267c-8 8 -14 23 -14 40c0 26 7 43 28 43h41v254c0 33 18 49 167 49c194 0 309 -112 309 -325c0 -219 -114 -332 -300 -332c-145 0 -176 23 -176 60v211h-55zM194 95c9 -2 22 -9 67 -9c87 0 163 60 163 242c0 171 -76 233 -171 233c-44 0 -54 -4 -59 -6v-205h98
c7 -9 14 -24 14 -40c0 -27 -7 -43 -28 -43h-84v-172z" />
    <glyph glyph-name="Dcaron" unicode="&#x10e;" horiz-adv-x="580" 
d="M131 825c8 9 24 15 47 15c26 0 35 -5 40 -15l44 -88l49 100h43c31 0 37 -8 37 -17c0 -5 -3 -11 -8 -18l-67 -99c-9 -12 -24 -17 -51 -17c-23 0 -47 5 -47 5zM65 604c0 33 17 49 167 49c193 0 308 -112 308 -325c0 -219 -114 -332 -300 -332c-144 0 -175 23 -175 60v548z
M414 328c0 171 -76 232 -170 232c-27 0 -46 -1 -60 -4v-463c17 -4 35 -6 69 -6c87 0 161 59 161 241z" />
    <glyph glyph-name="Dcroat" unicode="&#x110;" horiz-adv-x="590" 
d="M16 279c-2 7 -4 21 -4 31c0 31 7 38 25 38h38v256c0 33 17 49 167 49c194 0 308 -112 308 -325c0 -219 -113 -332 -299 -332c-145 0 -176 23 -176 60v223h-59zM194 95c9 -2 23 -9 68 -9c87 0 163 60 163 242c0 171 -76 233 -171 233c-44 0 -54 -4 -60 -6v-207h114
s4 -9 4 -31c0 -31 -6 -38 -25 -38h-93v-184z" />
    <glyph glyph-name="E" unicode="E" horiz-adv-x="472" 
d="M401 0h-274c-42 0 -60 11 -60 31v594c0 15 6 26 57 26h294c3 -10 6 -30 6 -42c0 -43 -10 -53 -34 -53h-204v-198h205c3 -8 5 -26 5 -37c0 -37 -8 -46 -30 -46h-180v-183h242c3 -9 6 -28 6 -41c0 -41 -9 -51 -33 -51z" />
    <glyph glyph-name="Eacute" unicode="&#xc9;" horiz-adv-x="472" 
d="M245 812c6 14 18 25 45 25c48 0 58 -9 59 -9l-59 -121c-7 -14 -18 -21 -41 -21c-28 0 -43 4 -55 11zM401 0c24 0 33 10 33 51c0 13 -3 32 -6 41h-242v183h180c22 0 30 9 30 46c0 11 -2 29 -5 37h-205v198h204c24 0 34 10 34 53c0 12 -3 32 -6 42h-294
c-51 0 -57 -11 -57 -26v-594c0 -20 18 -31 60 -31h274z" />
    <glyph glyph-name="Ebreve" unicode="&#x114;" horiz-adv-x="472" 
d="M401 0c24 0 33 10 33 51c0 13 -3 32 -6 41h-242v183h180c22 0 30 9 30 46c0 11 -2 29 -5 37h-205v198h204c24 0 34 10 34 53c0 12 -3 32 -6 42h-294c-51 0 -57 -11 -57 -26v-594c0 -20 18 -31 60 -31h274zM312 850c7 2 17 3 35 3c33 0 42 -5 42 -14v-14
c0 -79 -46 -139 -152 -139c-104 0 -152 60 -152 139v14c0 9 9 14 42 14c18 0 28 -1 35 -3v-27c0 -39 22 -68 75 -68c54 0 75 29 75 68v27z" />
    <glyph glyph-name="Ecaron" unicode="&#x11a;" horiz-adv-x="472" 
d="M113 825c8 9 24 15 47 15c26 0 35 -5 40 -15l44 -88l49 100h43c31 0 37 -8 37 -17c0 -5 -3 -11 -8 -18l-67 -99c-9 -12 -24 -17 -51 -17c-23 0 -47 5 -47 5zM401 0c24 0 33 10 33 51c0 13 -3 32 -6 41h-242v183h180c22 0 30 9 30 46c0 11 -2 29 -5 37h-205v198h204
c24 0 34 10 34 53c0 12 -3 32 -6 42h-294c-51 0 -57 -11 -57 -26v-594c0 -20 18 -31 60 -31h274z" />
    <glyph glyph-name="Ecircumflex" unicode="&#xca;" horiz-adv-x="472" 
d="M199 833c0 0 23 4 47 4c27 0 41 -4 50 -17l68 -99c5 -7 7 -13 7 -18c0 -9 -5 -17 -36 -17h-44l-49 101l-44 -88c-4 -10 -14 -16 -39 -16c-23 0 -39 6 -48 15zM401 0c24 0 33 10 33 51c0 13 -3 32 -6 41h-242v183h180c22 0 30 9 30 46c0 11 -2 29 -5 37h-205v198h204
c24 0 34 10 34 53c0 12 -3 32 -6 42h-294c-51 0 -57 -11 -57 -26v-594c0 -20 18 -31 60 -31h274z" />
    <glyph glyph-name="Edieresis" unicode="&#xcb;" horiz-adv-x="472" 
d="M157 801c31 0 57 -26 57 -58c0 -30 -26 -56 -57 -56s-57 26 -57 56c0 32 26 58 57 58zM332 801c32 0 58 -26 58 -58c0 -30 -26 -56 -58 -56c-30 0 -56 26 -56 56c0 32 26 58 56 58zM401 0c24 0 33 10 33 51c0 13 -3 32 -6 41h-242v183h180c22 0 30 9 30 46
c0 11 -2 29 -5 37h-205v198h204c24 0 34 10 34 53c0 12 -3 32 -6 42h-294c-51 0 -57 -11 -57 -26v-594c0 -20 18 -31 60 -31h274z" />
    <glyph glyph-name="Edotaccent" unicode="&#x116;" horiz-adv-x="472" 
d="M401 0c24 0 33 10 33 51c0 13 -3 32 -6 41h-242v183h180c22 0 30 9 30 46c0 11 -2 29 -5 37h-205v198h204c24 0 34 10 34 53c0 12 -3 32 -6 42h-294c-51 0 -57 -11 -57 -26v-594c0 -20 18 -31 60 -31h274zM242 814c35 0 64 -29 64 -64c0 -34 -29 -63 -64 -63
c-34 0 -63 29 -63 63c0 35 29 64 63 64z" />
    <glyph glyph-name="Egrave" unicode="&#xc8;" horiz-adv-x="472" 
d="M401 0c24 0 33 10 33 51c0 13 -3 32 -6 41h-242v183h180c22 0 30 9 30 46c0 11 -2 29 -5 37h-205v198h204c24 0 34 10 34 53c0 12 -3 32 -6 42h-294c-51 0 -57 -11 -57 -26v-594c0 -20 18 -31 60 -31h274zM138 828c1 0 11 9 59 9c26 0 39 -11 45 -25l50 -115
c-11 -7 -26 -11 -54 -11c-23 0 -34 7 -42 21z" />
    <glyph glyph-name="Emacron" unicode="&#x112;" horiz-adv-x="472" 
d="M342 686h-220c-3 9 -6 27 -6 37c0 38 8 47 32 47h221c2 -9 5 -27 5 -38c0 -37 -8 -46 -32 -46zM401 0h-274c-42 0 -60 11 -60 31v594c0 15 6 26 57 26h294c3 -10 6 -30 6 -42c0 -43 -10 -53 -34 -53h-204v-198h205c3 -8 5 -26 5 -37c0 -37 -8 -46 -30 -46h-180v-183h242
c3 -9 6 -28 6 -41c0 -41 -9 -51 -33 -51z" />
    <glyph glyph-name="Eogonek" unicode="&#x118;" horiz-adv-x="472" 
d="M401 0h-132c-16 -24 -27 -48 -27 -70s14 -41 57 -41c34 0 48 9 59 13c6 -4 13 -16 13 -29c0 -25 -27 -35 -86 -35c-77 0 -108 38 -108 83c0 33 12 62 30 79h-80c-42 0 -60 11 -60 31v594c0 15 6 26 57 26h294c3 -10 6 -30 6 -42c0 -43 -10 -53 -34 -53h-204v-198h205
c3 -8 5 -26 5 -37c0 -37 -8 -46 -30 -46h-180v-183h242c3 -9 6 -28 6 -41c0 -41 -9 -51 -33 -51z" />
    <glyph glyph-name="F" unicode="F" horiz-adv-x="450" 
d="M124 651h297c3 -10 6 -30 6 -42c0 -43 -9 -53 -34 -53h-207v-204h205c3 -9 6 -26 6 -38c0 -37 -8 -46 -30 -46h-181v-248c0 -11 -8 -20 -60 -20s-59 9 -59 20v605c0 15 6 26 57 26z" />
    <glyph glyph-name="G" unicode="G" horiz-adv-x="545" 
d="M294 248c-2 8 -6 26 -6 37c0 37 9 46 31 46h151c29 0 45 -17 45 -92c0 -173 -88 -245 -221 -245c-160 0 -253 113 -253 331c0 237 110 332 265 332c55 0 122 -6 149 -6c3 -10 7 -30 7 -42c0 -38 -6 -54 -35 -54c-25 0 -85 4 -111 4c-93 0 -149 -60 -149 -237
c0 -165 54 -235 136 -235c65 0 107 41 107 130c0 17 -1 25 -2 31h-114z" />
    <glyph glyph-name="Gbreve" unicode="&#x11e;" horiz-adv-x="545" 
d="M294 248c-2 8 -6 26 -6 37c0 37 9 46 31 46h151c29 0 45 -17 45 -92c0 -173 -88 -245 -221 -245c-160 0 -253 113 -253 331c0 237 110 332 265 332c55 0 122 -6 149 -6c3 -10 7 -30 7 -42c0 -38 -6 -54 -35 -54c-25 0 -85 4 -111 4c-93 0 -149 -60 -149 -237
c0 -165 54 -235 136 -235c65 0 107 41 107 130c0 17 -1 25 -2 31h-114zM347 850c7 2 17 3 35 3c33 0 42 -5 42 -14v-14c0 -79 -46 -139 -152 -139c-104 0 -152 60 -152 139v14c0 9 9 14 42 14c18 0 28 -1 35 -3v-27c0 -39 22 -68 75 -68c54 0 75 29 75 68v27z" />
    <glyph glyph-name="Gcircumflex" unicode="&#x11c;" horiz-adv-x="545" 
d="M234 833c0 0 23 4 47 4c27 0 41 -4 50 -17l68 -99c5 -7 7 -13 7 -18c0 -9 -5 -17 -36 -17h-44l-49 101l-44 -88c-4 -10 -14 -16 -39 -16c-23 0 -39 6 -48 15zM294 248c-2 8 -6 26 -6 37c0 37 9 46 31 46h151c29 0 45 -17 45 -92c0 -173 -88 -245 -221 -245
c-160 0 -253 113 -253 331c0 237 110 332 265 332c55 0 122 -6 149 -6c3 -10 7 -30 7 -42c0 -38 -6 -54 -35 -54c-25 0 -85 4 -111 4c-93 0 -149 -60 -149 -237c0 -165 54 -235 136 -235c65 0 107 41 107 130c0 17 -1 25 -2 31h-114z" />
    <glyph glyph-name="Gcommaaccent" unicode="&#x122;" horiz-adv-x="545" 
d="M294 248c-2 8 -6 26 -6 37c0 37 9 46 31 46h151c29 0 45 -17 45 -92c0 -173 -88 -245 -221 -245c-160 0 -253 113 -253 331c0 237 110 332 265 332c55 0 122 -6 149 -6c3 -10 7 -30 7 -42c0 -38 -6 -54 -35 -54c-25 0 -85 4 -111 4c-93 0 -149 -60 -149 -237
c0 -165 54 -235 136 -235c65 0 107 41 107 130c0 17 -1 25 -2 31h-114zM245 -188c9 -8 22 -12 34 -12c11 0 18 5 24 15c28 53 39 79 39 100c0 29 -21 51 -51 51s-51 -22 -51 -51c0 -21 13 -35 31 -40z" />
    <glyph glyph-name="commaaccentcomb" unicode="&#x326;" horiz-adv-x="268" 
d="M87 -188l26 63c-18 5 -31 19 -31 40c0 29 21 51 51 51s51 -22 51 -51c0 -21 -11 -47 -39 -100c-6 -10 -13 -15 -24 -15c-12 0 -25 4 -34 12z" />
    <glyph glyph-name="Gdotaccent" unicode="&#x120;" horiz-adv-x="545" 
d="M277 814c35 0 64 -29 64 -64c0 -34 -29 -63 -64 -63c-34 0 -63 29 -63 63c0 35 29 64 63 64zM294 248c-2 8 -6 26 -6 37c0 37 9 46 31 46h151c29 0 45 -17 45 -92c0 -173 -88 -245 -221 -245c-160 0 -253 113 -253 331c0 237 110 332 265 332c55 0 122 -6 149 -6
c3 -10 7 -30 7 -42c0 -38 -6 -54 -35 -54c-25 0 -85 4 -111 4c-93 0 -149 -60 -149 -237c0 -165 54 -235 136 -235c65 0 107 41 107 130c0 17 -1 25 -2 31h-114z" />
    <glyph glyph-name="H" unicode="H" horiz-adv-x="601" 
d="M67 631c0 12 8 20 60 20c51 0 60 -8 60 -20v-275h227v275c0 12 8 20 60 20c51 0 60 -8 60 -20v-611c0 -11 -8 -20 -60 -20c-53 0 -60 9 -60 20v253h-227v-253c0 -11 -8 -20 -60 -20c-53 0 -60 9 -60 20v611z" />
    <glyph glyph-name="Hbar" unicode="&#x126;" horiz-adv-x="639" 
d="M434 356v121h-228v-121h228zM434 20v253h-228v-253c0 -11 -7 -20 -60 -20c-52 0 -59 9 -59 20v457h-67c-2 5 -4 17 -4 26c0 23 5 30 20 30h51v98c0 12 8 20 59 20s60 -8 60 -20v-98h228v98c0 12 8 20 59 20s60 -8 60 -20v-98h67c2 -6 4 -18 4 -26c0 -24 -5 -30 -20 -30
h-51v-457c0 -11 -7 -20 -60 -20c-52 0 -59 9 -59 20z" />
    <glyph glyph-name="Hcircumflex" unicode="&#x124;" horiz-adv-x="601" 
d="M257 833c0 0 23 4 47 4c27 0 41 -4 50 -17l68 -99c5 -7 7 -13 7 -18c0 -9 -5 -17 -36 -17h-44l-49 101l-44 -88c-4 -10 -14 -16 -39 -16c-23 0 -39 6 -48 15zM67 631c0 12 8 20 60 20c51 0 60 -8 60 -20v-275h227v275c0 12 8 20 60 20c51 0 60 -8 60 -20v-611
c0 -11 -8 -20 -60 -20c-53 0 -60 9 -60 20v253h-227v-253c0 -11 -8 -20 -60 -20c-53 0 -60 9 -60 20v611z" />
    <glyph glyph-name="I" unicode="I" horiz-adv-x="254" 
d="M67 20v611c0 12 8 20 60 20c51 0 60 -8 60 -20v-611c0 -11 -8 -20 -60 -20c-53 0 -60 9 -60 20z" />
    <glyph glyph-name="IJ" unicode="&#x132;" horiz-adv-x="506" 
d="M67 20v611c0 12 8 20 60 20c51 0 60 -8 60 -20v-611c0 -11 -8 -20 -60 -20c-53 0 -60 9 -60 20zM441 135c0 -160 -56 -233 -94 -233c-35 0 -64 21 -78 37c33 48 53 104 53 174v518c0 12 7 20 59 20c51 0 60 -8 60 -20v-496z" />
    <glyph glyph-name="J" unicode="J" horiz-adv-x="253" 
d="M188 135c0 -160 -56 -233 -94 -233c-35 0 -64 21 -78 37c33 48 53 104 53 174v518c0 12 7 20 59 20c51 0 60 -8 60 -20v-496z" />
    <glyph glyph-name="Iacute" unicode="&#xcd;" horiz-adv-x="254" 
d="M67 20c0 -11 7 -20 60 -20c52 0 60 9 60 20v611c0 12 -9 20 -60 20c-52 0 -60 -8 -60 -20v-611zM133 812c6 14 18 25 45 25c48 0 58 -9 59 -9l-59 -121c-7 -14 -18 -21 -41 -21c-28 0 -43 4 -55 11z" />
    <glyph glyph-name="Ibreve" unicode="&#x12c;" horiz-adv-x="254" 
d="M67 20c0 -11 7 -20 60 -20c52 0 60 9 60 20v611c0 12 -9 20 -60 20c-52 0 -60 -8 -60 -20v-611zM201 850c7 2 17 3 35 3c33 0 42 -5 42 -14v-14c0 -79 -46 -139 -152 -139c-104 0 -152 60 -152 139v14c0 9 9 14 42 14c18 0 28 -1 35 -3v-27c0 -39 22 -68 75 -68
c54 0 75 29 75 68v27z" />
    <glyph glyph-name="Icircumflex" unicode="&#xce;" horiz-adv-x="254" 
d="M82 833c0 0 23 4 47 4c27 0 41 -4 50 -17l68 -99c5 -7 7 -13 7 -18c0 -9 -5 -17 -36 -17h-44l-49 101l-44 -88c-4 -10 -14 -16 -39 -16c-23 0 -39 6 -48 15zM67 20c0 -11 7 -20 60 -20c52 0 60 9 60 20v611c0 12 -9 20 -60 20c-52 0 -60 -8 -60 -20v-611z" />
    <glyph glyph-name="Idieresis" unicode="&#xcf;" horiz-adv-x="254" 
d="M40 801c31 0 57 -26 57 -58c0 -30 -26 -56 -57 -56s-57 26 -57 56c0 32 26 58 57 58zM215 801c32 0 58 -26 58 -58c0 -30 -26 -56 -58 -56c-30 0 -56 26 -56 56c0 32 26 58 56 58zM67 20c0 -11 7 -20 60 -20c52 0 60 9 60 20v611c0 12 -9 20 -60 20c-52 0 -60 -8 -60 -20
v-611z" />
    <glyph glyph-name="Idotaccent" unicode="&#x130;" horiz-adv-x="254" 
d="M67 20c0 -11 7 -20 60 -20c52 0 60 9 60 20v611c0 12 -9 20 -60 20c-52 0 -60 -8 -60 -20v-611zM128 814c35 0 64 -29 64 -64c0 -34 -29 -63 -64 -63c-34 0 -63 29 -63 63c0 35 29 64 63 64z" />
    <glyph glyph-name="Igrave" unicode="&#xcc;" horiz-adv-x="254" 
d="M67 20c0 -11 7 -20 60 -20c52 0 60 9 60 20v611c0 12 -9 20 -60 20c-52 0 -60 -8 -60 -20v-611zM16 828c1 0 11 9 59 9c26 0 39 -11 45 -25l50 -115c-11 -7 -26 -11 -54 -11c-23 0 -34 7 -42 21z" />
    <glyph glyph-name="Imacron" unicode="&#x12a;" horiz-adv-x="254" 
d="M67 20v611c0 12 8 20 60 20c51 0 60 -8 60 -20v-611c0 -11 -8 -20 -60 -20c-53 0 -60 9 -60 20zM225 686h-220c-3 9 -6 27 -6 37c0 38 8 47 32 47h221c2 -9 5 -27 5 -38c0 -37 -8 -46 -32 -46z" />
    <glyph glyph-name="Iogonek" unicode="&#x12e;" horiz-adv-x="254" 
d="M67 20v611c0 12 8 20 60 20c51 0 60 -8 60 -20v-611c0 -10 -7 -18 -44 -20c-16 -23 -27 -48 -27 -70s14 -41 57 -41c34 0 48 9 59 13c6 -4 13 -16 13 -29c0 -25 -27 -35 -86 -35c-77 0 -108 38 -108 83c0 36 14 66 33 82c-15 4 -17 10 -17 17z" />
    <glyph glyph-name="Itilde" unicode="&#x128;" horiz-adv-x="254" 
d="M67 20c0 -11 7 -20 60 -20c52 0 60 9 60 20v611c0 12 -9 20 -60 20c-52 0 -60 -8 -60 -20v-611zM-26 709c0 90 41 120 90 120c61 0 90 -68 128 -68c23 0 35 15 38 64h29c14 0 22 -8 22 -24c0 -92 -41 -120 -90 -120c-63 0 -91 69 -129 69c-23 0 -34 -17 -37 -65h-29
c-14 0 -22 9 -22 24z" />
    <glyph glyph-name="Jcircumflex" unicode="&#x134;" horiz-adv-x="253" 
d="M83 833c0 0 23 4 47 4c27 0 41 -4 50 -17l68 -99c5 -7 7 -13 7 -18c0 -9 -5 -17 -36 -17h-44l-49 101l-44 -88c-4 -10 -14 -16 -39 -16c-23 0 -39 6 -48 15zM188 135c0 -160 -56 -233 -94 -233c-35 0 -64 21 -78 37c33 48 53 104 53 174v518c0 12 7 20 59 20
c51 0 60 -8 60 -20v-496z" />
    <glyph glyph-name="K" unicode="K" horiz-adv-x="555" 
d="M427 651h76c20 0 26 -9 26 -20c0 -10 -1 -19 -12 -34l-179 -260l195 -312c-16 -16 -55 -30 -85 -30c-24 0 -37 6 -53 36l-180 305zM67 631c0 12 8 20 60 20c51 0 60 -8 60 -20v-611c0 -11 -8 -20 -60 -20c-53 0 -60 9 -60 20v611z" />
    <glyph glyph-name="Kcommaaccent" unicode="&#x136;" horiz-adv-x="555" 
d="M427 651h76c20 0 26 -9 26 -20c0 -10 -1 -19 -12 -34l-179 -260l195 -312c-16 -16 -55 -30 -85 -30c-24 0 -37 6 -53 36l-180 305zM67 631c0 12 8 20 60 20c51 0 60 -8 60 -20v-611c0 -11 -8 -20 -60 -20c-53 0 -60 9 -60 20v611zM234 -188c9 -8 22 -12 34 -12
c11 0 18 5 24 15c28 53 39 79 39 100c0 29 -21 51 -51 51s-51 -22 -51 -51c0 -21 13 -35 31 -40z" />
    <glyph glyph-name="L" unicode="L" horiz-adv-x="429" 
d="M127 0c-42 0 -60 11 -60 31v600c0 12 7 20 59 20c51 0 60 -8 60 -20v-539h220c3 -9 7 -28 7 -41c0 -41 -10 -51 -33 -51h-253z" />
    <glyph glyph-name="Lacute" unicode="&#x139;" horiz-adv-x="429" 
d="M133 812c6 14 18 25 45 25c48 0 58 -9 59 -9l-59 -121c-7 -14 -18 -21 -41 -21c-28 0 -43 4 -55 11zM127 0c-42 0 -60 11 -60 31v600c0 12 7 20 59 20c51 0 60 -8 60 -20v-539h220c3 -9 7 -28 7 -41c0 -41 -10 -51 -33 -51h-253z" />
    <glyph glyph-name="Lcaron" unicode="&#x13d;" horiz-adv-x="429" 
d="M-4 825c8 9 24 15 47 15c26 0 35 -5 40 -15l44 -88l49 100h43c31 0 37 -8 37 -17c0 -5 -3 -11 -8 -18l-67 -99c-9 -12 -24 -17 -51 -17c-23 0 -47 5 -47 5zM127 0c-42 0 -60 11 -60 31v600c0 12 7 20 59 20c51 0 60 -8 60 -20v-539h220c3 -9 7 -28 7 -41
c0 -41 -10 -51 -33 -51h-253z" />
    <glyph glyph-name="Lcommaaccent" unicode="&#x13b;" horiz-adv-x="429" 
d="M127 0c-42 0 -60 11 -60 31v600c0 12 7 20 59 20c51 0 60 -8 60 -20v-539h220c3 -9 7 -28 7 -41c0 -41 -10 -51 -33 -51h-253zM184 -188c9 -8 22 -12 34 -12c11 0 18 5 24 15c28 53 39 79 39 100c0 29 -21 51 -51 51s-51 -22 -51 -51c0 -21 13 -35 31 -40z" />
    <glyph glyph-name="Ldot" unicode="&#x13f;" horiz-adv-x="429" 
d="M127 0c-42 0 -60 11 -60 31v600c0 12 7 20 59 20c51 0 60 -8 60 -20v-539h220c3 -9 7 -28 7 -41c0 -41 -10 -51 -33 -51h-253zM337 414c35 0 64 -29 64 -64c0 -34 -29 -63 -64 -63c-34 0 -63 29 -63 63c0 35 29 64 63 64z" />
    <glyph glyph-name="Lslash" unicode="&#x141;" horiz-adv-x="457" 
d="M155 0c-42 0 -60 11 -60 31v208l-77 -33s-11 10 -11 48c0 26 11 45 32 54l56 24v299c0 12 7 20 59 20c51 0 60 -8 60 -20v-248l113 48s11 -10 11 -47c0 -27 -10 -46 -31 -55l-93 -40v-197h225c5 -10 8 -27 8 -43c0 -34 -15 -49 -42 -49h-250z" />
    <glyph glyph-name="M" unicode="M" horiz-adv-x="752" 
d="M504 612c7 30 11 39 82 39c73 0 80 -9 82 -41l30 -590c0 -11 -7 -20 -60 -20c-50 0 -57 9 -58 20l-23 485l-118 -432c-7 -33 -24 -44 -67 -44c-46 0 -61 9 -69 44l-121 432l-23 -485c-1 -11 -8 -20 -53 -20c-46 0 -52 9 -52 20l30 590c2 31 10 41 82 41s79 -9 86 -39
l125 -475z" />
    <glyph glyph-name="N" unicode="N" horiz-adv-x="592" 
d="M171 20c0 -11 -7 -20 -52 -20c-46 0 -52 9 -52 20v591c0 31 10 40 69 40c52 0 64 -6 79 -40l206 -444v464c0 12 7 20 52 20s53 -8 53 -20v-591c0 -31 -11 -40 -68 -40c-51 0 -60 9 -76 41l-211 456v-477z" />
    <glyph glyph-name="Nacute" unicode="&#x143;" horiz-adv-x="592" 
d="M301 812c6 14 18 25 45 25c48 0 58 -9 59 -9l-59 -121c-7 -14 -18 -21 -41 -21c-28 0 -43 4 -55 11zM171 20c0 -11 -7 -20 -52 -20c-46 0 -52 9 -52 20v591c0 31 10 40 69 40c52 0 64 -6 79 -40l206 -444v464c0 12 7 20 52 20s53 -8 53 -20v-591c0 -31 -11 -40 -68 -40
c-51 0 -60 9 -76 41l-211 456v-477z" />
    <glyph glyph-name="Ncaron" unicode="&#x147;" horiz-adv-x="592" 
d="M166 825c8 9 24 15 47 15c26 0 35 -5 40 -15l44 -88l49 100h43c31 0 37 -8 37 -17c0 -5 -3 -11 -8 -18l-67 -99c-9 -12 -24 -17 -51 -17c-23 0 -47 5 -47 5zM171 20c0 -11 -7 -20 -52 -20c-46 0 -52 9 -52 20v591c0 31 10 40 69 40c52 0 64 -6 79 -40l206 -444v464
c0 12 7 20 52 20s53 -8 53 -20v-591c0 -31 -11 -40 -68 -40c-51 0 -60 9 -76 41l-211 456v-477z" />
    <glyph glyph-name="Ncommaaccent" unicode="&#x145;" horiz-adv-x="592" 
d="M171 20c0 -11 -7 -20 -52 -20c-46 0 -52 9 -52 20v591c0 31 10 40 69 40c52 0 64 -6 79 -40l206 -444v464c0 12 7 20 52 20s53 -8 53 -20v-591c0 -31 -11 -40 -68 -40c-51 0 -60 9 -76 41l-211 456v-477zM254 -188c9 -8 22 -12 34 -12c11 0 18 5 24 15
c28 53 39 79 39 100c0 29 -21 51 -51 51s-51 -22 -51 -51c0 -21 13 -35 31 -40z" />
    <glyph glyph-name="Eng" unicode="&#x14a;" horiz-adv-x="593" 
d="M421 631c0 12 7 20 52 20s53 -8 53 -20v-583c0 -145 -51 -212 -84 -212s-57 18 -70 32c28 42 45 85 48 139c-16 3 -30 12 -40 37l-209 453v-477c0 -11 -7 -20 -52 -20c-46 0 -52 9 -52 20v591c0 31 10 40 69 40c52 0 64 -6 79 -40l206 -444v464z" />
    <glyph glyph-name="Ntilde" unicode="&#xd1;" horiz-adv-x="592" 
d="M143 709c0 90 41 120 90 120c61 0 90 -68 128 -68c23 0 35 15 38 64h29c14 0 22 -8 22 -24c0 -92 -41 -120 -90 -120c-63 0 -91 69 -129 69c-23 0 -34 -17 -37 -65h-29c-14 0 -22 9 -22 24zM171 20c0 -11 -7 -20 -52 -20c-46 0 -52 9 -52 20v591c0 31 10 40 69 40
c52 0 64 -6 79 -40l206 -444v464c0 12 7 20 52 20s53 -8 53 -20v-591c0 -31 -11 -40 -68 -40c-51 0 -60 9 -76 41l-211 456v-477z" />
    <glyph glyph-name="O" unicode="O" horiz-adv-x="600" 
d="M166 329c0 -179 57 -242 133 -242s134 63 134 242c0 177 -58 235 -134 235s-133 -58 -133 -235zM299 657c161 0 260 -117 260 -328c0 -213 -99 -335 -260 -335s-258 122 -258 335c0 211 97 328 258 328z" />
    <glyph glyph-name="Oacute" unicode="&#xd3;" horiz-adv-x="600" 
d="M296 812c6 14 18 25 45 25c48 0 58 -9 59 -9l-59 -121c-7 -14 -18 -21 -41 -21c-28 0 -43 4 -55 11zM166 329c0 177 57 235 133 235s134 -58 134 -235c0 -179 -58 -242 -134 -242s-133 63 -133 242zM299 657c-161 0 -258 -117 -258 -328c0 -213 97 -335 258 -335
s260 122 260 335c0 211 -99 328 -260 328z" />
    <glyph glyph-name="Obreve" unicode="&#x14e;" horiz-adv-x="600" 
d="M166 329c0 177 57 235 133 235s134 -58 134 -235c0 -179 -58 -242 -134 -242s-133 63 -133 242zM299 657c-161 0 -258 -117 -258 -328c0 -213 97 -335 258 -335s260 122 260 335c0 211 -99 328 -260 328zM375 850c7 2 17 3 35 3c33 0 42 -5 42 -14v-14
c0 -79 -46 -139 -152 -139c-104 0 -152 60 -152 139v14c0 9 9 14 42 14c18 0 28 -1 35 -3v-27c0 -39 22 -68 75 -68c54 0 75 29 75 68v27z" />
    <glyph glyph-name="Ocircumflex" unicode="&#xd4;" horiz-adv-x="600" 
d="M258 833c0 0 23 4 47 4c27 0 41 -4 50 -17l68 -99c5 -7 7 -13 7 -18c0 -9 -5 -17 -36 -17h-44l-49 101l-44 -88c-4 -10 -14 -16 -39 -16c-23 0 -39 6 -48 15zM166 329c0 177 57 235 133 235s134 -58 134 -235c0 -179 -58 -242 -134 -242s-133 63 -133 242zM299 657
c-161 0 -258 -117 -258 -328c0 -213 97 -335 258 -335s260 122 260 335c0 211 -99 328 -260 328z" />
    <glyph glyph-name="Odieresis" unicode="&#xd6;" horiz-adv-x="600" 
d="M212 801c31 0 57 -26 57 -58c0 -30 -26 -56 -57 -56s-57 26 -57 56c0 32 26 58 57 58zM387 801c32 0 58 -26 58 -58c0 -30 -26 -56 -58 -56c-30 0 -56 26 -56 56c0 32 26 58 56 58zM166 329c0 177 57 235 133 235s134 -58 134 -235c0 -179 -58 -242 -134 -242
s-133 63 -133 242zM299 657c-161 0 -258 -117 -258 -328c0 -213 97 -335 258 -335s260 122 260 335c0 211 -99 328 -260 328z" />
    <glyph glyph-name="Ograve" unicode="&#xd2;" horiz-adv-x="600" 
d="M191 828c1 0 11 9 59 9c26 0 39 -11 45 -25l50 -115c-11 -7 -26 -11 -54 -11c-23 0 -34 7 -42 21zM166 329c0 177 57 235 133 235s134 -58 134 -235c0 -179 -58 -242 -134 -242s-133 63 -133 242zM299 657c-161 0 -258 -117 -258 -328c0 -213 97 -335 258 -335
s260 122 260 335c0 211 -99 328 -260 328z" />
    <glyph glyph-name="Ohungarumlaut" unicode="&#x150;" horiz-adv-x="600" 
d="M390 812c6 14 18 25 45 25c48 0 58 -9 59 -9l-59 -121c-7 -14 -18 -21 -41 -21c-28 0 -43 4 -55 11zM219 812c6 14 19 25 46 25c41 0 57 -9 58 -9l-58 -121c-8 -14 -19 -21 -41 -21c-28 0 -43 4 -56 11zM166 329c0 177 57 235 133 235s134 -58 134 -235
c0 -179 -58 -242 -134 -242s-133 63 -133 242zM299 657c-161 0 -258 -117 -258 -328c0 -213 97 -335 258 -335s260 122 260 335c0 211 -99 328 -260 328z" />
    <glyph glyph-name="hungarumlaut" unicode="&#x2dd;" horiz-adv-x="619" 
d="M395 812c6 14 18 25 45 25c48 0 58 -9 59 -9l-59 -121c-7 -14 -18 -21 -41 -21c-28 0 -43 4 -55 11zM224 812c6 14 19 25 46 25c41 0 57 -9 58 -9l-58 -121c-8 -14 -19 -21 -41 -21c-28 0 -43 4 -56 11z" />
    <glyph glyph-name="Omacron" unicode="&#x14c;" horiz-adv-x="600" 
d="M392 686h-220c-3 9 -6 27 -6 37c0 38 8 47 32 47h221c2 -9 5 -27 5 -38c0 -37 -8 -46 -32 -46zM166 329c0 -179 57 -242 133 -242s134 63 134 242c0 177 -58 235 -134 235s-133 -58 -133 -235zM299 657c161 0 260 -117 260 -328c0 -213 -99 -335 -260 -335
s-258 122 -258 335c0 211 97 328 258 328z" />
    <glyph glyph-name="Oslash" unicode="&#xd8;" horiz-adv-x="599" 
d="M41 329c0 211 97 328 258 328c51 0 97 -12 134 -36l45 78c9 16 18 22 29 22c18 0 30 -10 43 -26l-66 -117c48 -55 75 -140 75 -249c0 -213 -99 -335 -260 -335c-49 0 -92 11 -129 33l-51 -90c-9 -15 -18 -22 -29 -22c-18 0 -30 10 -43 26l73 128c-51 57 -79 145 -79 260z
M166 329c0 -62 7 -109 19 -146l196 346c-22 25 -51 35 -82 35c-76 0 -133 -58 -133 -235zM433 329c0 55 -6 98 -16 132l-195 -343c21 -22 48 -31 77 -31c76 0 134 63 134 242z" />
    <glyph glyph-name="Oslashacute" unicode="&#x1fe;" horiz-adv-x="599" 
d="M41 329c0 211 97 328 258 328c51 0 97 -12 134 -36l45 78c9 16 18 22 29 22c18 0 30 -10 43 -26l-66 -117c48 -55 75 -140 75 -249c0 -213 -99 -335 -260 -335c-49 0 -92 11 -129 33l-51 -90c-9 -15 -18 -22 -29 -22c-18 0 -30 10 -43 26l73 128c-51 57 -79 145 -79 260z
M166 329c0 -62 7 -109 19 -146l196 346c-22 25 -51 35 -82 35c-76 0 -133 -58 -133 -235zM433 329c0 55 -6 98 -16 132l-195 -343c21 -22 48 -31 77 -31c76 0 134 63 134 242zM296 812c6 14 18 25 45 25c48 0 58 -9 59 -9l-59 -121c-7 -14 -18 -21 -41 -21
c-28 0 -43 4 -55 11z" />
    <glyph glyph-name="Otilde" unicode="&#xd5;" horiz-adv-x="600" 
d="M166 329c0 177 57 235 133 235s134 -58 134 -235c0 -179 -58 -242 -134 -242s-133 63 -133 242zM299 657c-161 0 -258 -117 -258 -328c0 -213 97 -335 258 -335s260 122 260 335c0 211 -99 328 -260 328zM142 709c0 90 41 120 90 120c61 0 90 -68 128 -68
c23 0 35 15 38 64h29c14 0 22 -8 22 -24c0 -92 -41 -120 -90 -120c-63 0 -91 69 -129 69c-23 0 -34 -17 -37 -65h-29c-14 0 -22 9 -22 24z" />
    <glyph glyph-name="OE" unicode="&#x152;" horiz-adv-x="839" 
d="M446 13v62c-32 -58 -92 -81 -147 -81c-161 0 -258 122 -258 335c0 211 97 328 258 328c55 0 115 -22 147 -77v60c0 7 8 11 45 11h300c4 -10 7 -30 7 -42c0 -43 -9 -53 -35 -53h-206v-201h202c3 -9 6 -26 6 -37c0 -37 -8 -46 -30 -46h-178v-180h238c3 -9 7 -28 7 -41
c0 -41 -10 -51 -33 -51h-276c-37 0 -47 5 -47 13zM166 329c0 -179 57 -242 133 -242c67 0 134 52 134 242c0 178 -60 235 -134 235c-76 0 -133 -58 -133 -235z" />
    <glyph glyph-name="P" unicode="P" horiz-adv-x="524" 
d="M66 20v581c0 32 27 52 179 52c188 0 256 -86 256 -213c0 -114 -68 -206 -237 -206c-42 0 -63 4 -79 8v-222c0 -11 -8 -20 -60 -20s-59 9 -59 20zM248 561c-41 0 -56 -4 -63 -5v-230c11 -4 29 -8 69 -8c89 0 122 48 122 120c0 79 -35 123 -128 123z" />
    <glyph glyph-name="Thorn" unicode="&#xde;" horiz-adv-x="525" 
d="M67 20v611c0 12 7 20 60 20c52 0 60 -8 60 -20v-104c13 2 32 3 60 3c187 0 256 -86 256 -213c0 -114 -69 -207 -237 -207c-43 0 -64 5 -79 9v-99c0 -11 -8 -20 -60 -20c-53 0 -60 9 -60 20zM249 438c-41 0 -55 -4 -62 -6v-230c11 -3 28 -7 69 -7c88 0 122 48 122 119
c0 79 -35 124 -129 124z" />
    <glyph glyph-name="Q" unicode="Q" horiz-adv-x="600" 
d="M41 329c0 211 97 328 258 328s260 -117 260 -328c0 -136 -40 -234 -111 -288l75 -145c-15 -15 -54 -29 -84 -29c-24 0 -36 5 -50 35l-44 96c-15 -3 -30 -4 -46 -4c-161 0 -258 122 -258 335zM433 329c0 177 -58 235 -134 235s-133 -58 -133 -235c0 -179 57 -242 133 -242
s134 63 134 242z" />
    <glyph glyph-name="R" unicode="R" horiz-adv-x="547" 
d="M525 25c-16 -16 -55 -30 -84 -30c-25 0 -37 6 -50 36l-99 204c-12 -1 -25 -1 -39 -1c-37 0 -63 5 -67 7v-221c0 -11 -8 -20 -60 -20c-53 0 -60 9 -60 20v584c0 29 11 49 180 49c187 0 256 -86 256 -213c0 -79 -28 -144 -101 -179zM377 438c0 79 -35 123 -129 123
c-52 0 -62 -6 -62 -6v-231c2 -1 22 -6 69 -6c88 0 122 48 122 120z" />
    <glyph glyph-name="Racute" unicode="&#x154;" horiz-adv-x="547" 
d="M525 25c-16 -16 -55 -30 -84 -30c-25 0 -37 6 -50 36l-99 204c-12 -1 -25 -1 -39 -1c-37 0 -63 5 -67 7v-221c0 -11 -8 -20 -60 -20c-53 0 -60 9 -60 20v584c0 29 11 49 180 49c187 0 256 -86 256 -213c0 -79 -28 -144 -101 -179zM377 438c0 79 -35 123 -129 123
c-52 0 -62 -6 -62 -6v-231c2 -1 22 -6 69 -6c88 0 122 48 122 120zM257 812c6 14 18 25 45 25c48 0 58 -9 59 -9l-59 -121c-7 -14 -18 -21 -41 -21c-28 0 -43 4 -55 11z" />
    <glyph glyph-name="Rcaron" unicode="&#x158;" horiz-adv-x="547" 
d="M525 25c-16 -16 -55 -30 -84 -30c-25 0 -37 6 -50 36l-99 204c-12 -1 -25 -1 -39 -1c-37 0 -63 5 -67 7v-221c0 -11 -8 -20 -60 -20c-53 0 -60 9 -60 20v584c0 29 11 49 180 49c187 0 256 -86 256 -213c0 -79 -28 -144 -101 -179zM377 438c0 79 -35 123 -129 123
c-52 0 -62 -6 -62 -6v-231c2 -1 22 -6 69 -6c88 0 122 48 122 120zM135 825c8 9 24 15 47 15c26 0 35 -5 40 -15l44 -88l49 100h43c31 0 37 -8 37 -17c0 -5 -3 -11 -8 -18l-67 -99c-9 -12 -24 -17 -51 -17c-23 0 -47 5 -47 5z" />
    <glyph glyph-name="Rcommaaccent" unicode="&#x156;" horiz-adv-x="547" 
d="M525 25c-16 -16 -55 -30 -84 -30c-25 0 -37 6 -50 36l-99 204c-12 -1 -25 -1 -39 -1c-37 0 -63 5 -67 7v-221c0 -11 -8 -20 -60 -20c-53 0 -60 9 -60 20v584c0 29 11 49 180 49c187 0 256 -86 256 -213c0 -79 -28 -144 -101 -179zM377 438c0 79 -35 123 -129 123
c-52 0 -62 -6 -62 -6v-231c2 -1 22 -6 69 -6c88 0 122 48 122 120zM231 -188c9 -8 22 -12 34 -12c11 0 18 5 24 15c28 53 39 79 39 100c0 29 -21 51 -51 51s-51 -22 -51 -51c0 -21 13 -35 31 -40z" />
    <glyph glyph-name="S" unicode="S" horiz-adv-x="465" 
d="M201 92c71 0 99 31 99 82c0 119 -255 84 -255 293c0 118 66 190 215 190c55 0 111 -6 138 -6c4 -10 6 -30 6 -42c0 -38 -5 -54 -34 -54c-26 0 -74 4 -101 4c-68 0 -98 -34 -98 -88c0 -124 254 -84 254 -287c0 -115 -63 -190 -217 -190c-123 0 -163 21 -163 54
c0 23 7 50 15 59c0 0 55 -15 141 -15z" />
    <glyph glyph-name="Sacute" unicode="&#x15a;" horiz-adv-x="465" 
d="M223 812c6 14 18 25 45 25c48 0 58 -9 59 -9l-59 -121c-7 -14 -18 -21 -41 -21c-28 0 -43 4 -55 11zM201 92c71 0 99 31 99 82c0 119 -255 84 -255 293c0 118 66 190 215 190c55 0 111 -6 138 -6c4 -10 6 -30 6 -42c0 -38 -5 -54 -34 -54c-26 0 -74 4 -101 4
c-68 0 -98 -34 -98 -88c0 -124 254 -84 254 -287c0 -115 -63 -190 -217 -190c-123 0 -163 21 -163 54c0 23 7 50 15 59c0 0 55 -15 141 -15z" />
    <glyph glyph-name="Scaron" unicode="&#x160;" horiz-adv-x="465" 
d="M104 825c8 9 24 15 47 15c26 0 35 -5 40 -15l44 -88l49 100h43c31 0 37 -8 37 -17c0 -5 -3 -11 -8 -18l-67 -99c-9 -12 -24 -17 -51 -17c-23 0 -47 5 -47 5zM201 92c71 0 99 31 99 82c0 119 -255 84 -255 293c0 118 66 190 215 190c55 0 111 -6 138 -6c4 -10 6 -30 6 -42
c0 -38 -5 -54 -34 -54c-26 0 -74 4 -101 4c-68 0 -98 -34 -98 -88c0 -124 254 -84 254 -287c0 -115 -63 -190 -217 -190c-123 0 -163 21 -163 54c0 23 7 50 15 59c0 0 55 -15 141 -15z" />
    <glyph glyph-name="Scedilla" unicode="&#x15e;" horiz-adv-x="465" 
d="M184 -12l3 6c-107 3 -142 23 -142 54c0 23 7 50 15 59c0 0 55 -15 141 -15c71 0 99 31 99 82c0 119 -255 84 -255 293c0 118 66 190 215 190c55 0 111 -6 138 -6c4 -10 6 -30 6 -42c0 -38 -5 -54 -34 -54c-26 0 -74 4 -101 4c-68 0 -98 -34 -98 -88
c0 -124 254 -84 254 -287c0 -108 -55 -180 -188 -189l-16 -35c10 1 22 1 34 1c49 0 78 -19 78 -61c0 -40 -28 -70 -103 -70c-71 0 -95 15 -95 36c0 12 7 20 14 24c0 0 24 -14 70 -14c44 0 55 10 55 24c0 16 -11 24 -44 24h-44c-14 0 -21 11 -21 22z" />
    <glyph glyph-name="Scircumflex" unicode="&#x15c;" horiz-adv-x="465" 
d="M192 833c0 0 23 4 47 4c27 0 41 -4 50 -17l68 -99c5 -7 7 -13 7 -18c0 -9 -5 -17 -36 -17h-44l-49 101l-44 -88c-4 -10 -14 -16 -39 -16c-23 0 -39 6 -48 15zM201 92c71 0 99 31 99 82c0 119 -255 84 -255 293c0 118 66 190 215 190c55 0 111 -6 138 -6
c4 -10 6 -30 6 -42c0 -38 -5 -54 -34 -54c-26 0 -74 4 -101 4c-68 0 -98 -34 -98 -88c0 -124 254 -84 254 -287c0 -115 -63 -190 -217 -190c-123 0 -163 21 -163 54c0 23 7 50 15 59c0 0 55 -15 141 -15z" />
    <glyph glyph-name="Scommaaccent" unicode="&#x218;" horiz-adv-x="465" 
d="M201 92c71 0 99 31 99 82c0 119 -255 84 -255 293c0 118 66 190 215 190c55 0 111 -6 138 -6c4 -10 6 -30 6 -42c0 -38 -5 -54 -34 -54c-26 0 -74 4 -101 4c-68 0 -98 -34 -98 -88c0 -124 254 -84 254 -287c0 -115 -63 -190 -217 -190c-123 0 -163 21 -163 54
c0 23 7 50 15 59c0 0 55 -15 141 -15zM190 -188c9 -8 22 -12 34 -12c11 0 18 5 24 15c28 53 39 79 39 100c0 29 -21 51 -51 51s-51 -22 -51 -51c0 -21 13 -35 31 -40z" />
    <glyph glyph-name="commaaccentcomb.cap" horiz-adv-x="268" 
d="M87 -188l26 63c-18 5 -31 19 -31 40c0 29 21 51 51 51s51 -22 51 -51c0 -21 -11 -47 -39 -100c-6 -10 -13 -15 -24 -15c-12 0 -25 4 -34 12z" />
    <glyph glyph-name="T" unicode="T" horiz-adv-x="461" 
d="M46 651h398c3 -10 6 -30 6 -42c0 -43 -9 -53 -34 -53h-125v-536c0 -11 -7 -20 -60 -20c-52 0 -59 9 -59 20v536h-154c-4 10 -7 30 -7 43c0 42 9 52 35 52z" />
    <glyph glyph-name="Tbar" unicode="&#x166;" horiz-adv-x="482" 
d="M301 20c0 -11 -7 -20 -60 -20c-52 0 -59 9 -59 20v335h-119c-1 6 -3 17 -3 26c0 24 6 31 21 31h101v144h-155c-3 10 -6 30 -6 43c0 42 10 52 34 52h399c3 -10 6 -30 6 -42c0 -43 -9 -53 -34 -53h-125v-144h120c3 -7 4 -18 4 -26c0 -25 -5 -31 -20 -31h-104v-335z" />
    <glyph glyph-name="Tcaron" unicode="&#x164;" horiz-adv-x="461" 
d="M99 825c8 9 24 15 47 15c26 0 35 -5 40 -15l44 -88l49 100h43c31 0 37 -8 37 -17c0 -5 -3 -11 -8 -18l-67 -99c-9 -12 -24 -17 -51 -17c-23 0 -47 5 -47 5zM46 651h398c3 -10 6 -30 6 -42c0 -43 -9 -53 -34 -53h-125v-536c0 -11 -7 -20 -60 -20c-52 0 -59 9 -59 20v536
h-154c-4 10 -7 30 -7 43c0 42 9 52 35 52z" />
    <glyph glyph-name="Tcedilla" horiz-adv-x="461" 
d="M46 651h398c3 -10 6 -30 6 -42c0 -43 -9 -53 -34 -53h-125v-536c0 -10 -6 -18 -43 -20l-16 -35c10 1 22 1 34 1c49 0 78 -19 78 -61c0 -40 -28 -70 -103 -70c-71 0 -95 15 -95 36c0 12 7 20 14 24c0 0 24 -14 70 -14c44 0 55 10 55 24c0 16 -11 24 -44 24h-44
c-14 0 -21 11 -21 22l19 42c1 3 2 6 4 8c-23 3 -27 11 -27 19v536h-154c-4 10 -7 30 -7 43c0 42 9 52 35 52z" />
    <glyph glyph-name="Tcommaaccent" unicode="&#x162;" horiz-adv-x="461" 
d="M46 651h398c3 -10 6 -30 6 -42c0 -43 -9 -53 -34 -53h-125v-536c0 -11 -7 -20 -60 -20c-52 0 -59 9 -59 20v536h-154c-4 10 -7 30 -7 43c0 42 9 52 35 52zM181 -188c9 -8 22 -12 34 -12c11 0 18 5 24 15c28 53 39 79 39 100c0 29 -21 51 -51 51s-51 -22 -51 -51
c0 -21 13 -35 31 -40z" />
    <glyph glyph-name="U" unicode="U" horiz-adv-x="584" 
d="M403 215v416c0 12 8 20 59 20c52 0 60 -8 60 -20v-413c0 -150 -86 -224 -231 -224c-146 0 -228 74 -228 224v413c0 12 7 20 59 20c51 0 60 -8 60 -20v-415c0 -86 41 -129 109 -129c66 0 112 43 112 128z" />
    <glyph glyph-name="Uacute" unicode="&#xda;" horiz-adv-x="584" 
d="M294 812c6 14 18 25 45 25c48 0 58 -9 59 -9l-59 -121c-7 -14 -18 -21 -41 -21c-28 0 -43 4 -55 11zM403 215c0 -85 -46 -128 -112 -128c-68 0 -109 43 -109 129v415c0 12 -9 20 -60 20c-52 0 -59 -8 -59 -20v-413c0 -150 82 -224 228 -224c145 0 231 74 231 224v413
c0 12 -8 20 -60 20c-51 0 -59 -8 -59 -20v-416z" />
    <glyph glyph-name="Ubreve" unicode="&#x16c;" horiz-adv-x="584" 
d="M403 215c0 -85 -46 -128 -112 -128c-68 0 -109 43 -109 129v415c0 12 -9 20 -60 20c-52 0 -59 -8 -59 -20v-413c0 -150 82 -224 228 -224c145 0 231 74 231 224v413c0 12 -8 20 -60 20c-51 0 -59 -8 -59 -20v-416zM367 850c7 2 17 3 35 3c33 0 42 -5 42 -14v-14
c0 -79 -46 -139 -152 -139c-104 0 -152 60 -152 139v14c0 9 9 14 42 14c18 0 28 -1 35 -3v-27c0 -39 22 -68 75 -68c54 0 75 29 75 68v27z" />
    <glyph glyph-name="Ucircumflex" unicode="&#xdb;" horiz-adv-x="584" 
d="M250 833c0 0 23 4 47 4c27 0 41 -4 50 -17l68 -99c5 -7 7 -13 7 -18c0 -9 -5 -17 -36 -17h-44l-49 101l-44 -88c-4 -10 -14 -16 -39 -16c-23 0 -39 6 -48 15zM403 215c0 -85 -46 -128 -112 -128c-68 0 -109 43 -109 129v415c0 12 -9 20 -60 20c-52 0 -59 -8 -59 -20v-413
c0 -150 82 -224 228 -224c145 0 231 74 231 224v413c0 12 -8 20 -60 20c-51 0 -59 -8 -59 -20v-416z" />
    <glyph glyph-name="Udieresis" unicode="&#xdc;" horiz-adv-x="584" 
d="M204 801c31 0 57 -26 57 -58c0 -30 -26 -56 -57 -56s-57 26 -57 56c0 32 26 58 57 58zM379 801c32 0 58 -26 58 -58c0 -30 -26 -56 -58 -56c-30 0 -56 26 -56 56c0 32 26 58 56 58zM403 215c0 -85 -46 -128 -112 -128c-68 0 -109 43 -109 129v415c0 12 -9 20 -60 20
c-52 0 -59 -8 -59 -20v-413c0 -150 82 -224 228 -224c145 0 231 74 231 224v413c0 12 -8 20 -60 20c-51 0 -59 -8 -59 -20v-416z" />
    <glyph glyph-name="Ugrave" unicode="&#xd9;" horiz-adv-x="584" 
d="M403 215c0 -85 -46 -128 -112 -128c-68 0 -109 43 -109 129v415c0 12 -9 20 -60 20c-52 0 -59 -8 -59 -20v-413c0 -150 82 -224 228 -224c145 0 231 74 231 224v413c0 12 -8 20 -60 20c-51 0 -59 -8 -59 -20v-416zM184 828c1 0 11 9 59 9c26 0 39 -11 45 -25l50 -115
c-11 -7 -26 -11 -54 -11c-23 0 -34 7 -42 21z" />
    <glyph glyph-name="Uhungarumlaut" unicode="&#x170;" horiz-adv-x="584" 
d="M403 215c0 -85 -46 -128 -112 -128c-68 0 -109 43 -109 129v415c0 12 -9 20 -60 20c-52 0 -59 -8 -59 -20v-413c0 -150 82 -224 228 -224c145 0 231 74 231 224v413c0 12 -8 20 -60 20c-51 0 -59 -8 -59 -20v-416zM381 812c6 14 18 25 45 25c48 0 58 -9 59 -9l-59 -121
c-7 -14 -18 -21 -41 -21c-28 0 -43 4 -55 11zM210 812c6 14 19 25 46 25c41 0 57 -9 58 -9l-58 -121c-8 -14 -19 -21 -41 -21c-28 0 -43 4 -56 11z" />
    <glyph glyph-name="Umacron" unicode="&#x16a;" horiz-adv-x="584" 
d="M391 686h-220c-3 9 -6 27 -6 37c0 38 8 47 32 47h221c2 -9 5 -27 5 -38c0 -37 -8 -46 -32 -46zM403 215v416c0 12 8 20 59 20c52 0 60 -8 60 -20v-413c0 -150 -86 -224 -231 -224c-146 0 -228 74 -228 224v413c0 12 7 20 59 20c51 0 60 -8 60 -20v-415
c0 -86 41 -129 109 -129c66 0 112 43 112 128z" />
    <glyph glyph-name="Uogonek" unicode="&#x172;" horiz-adv-x="584" 
d="M403 215v416c0 12 8 20 59 20c52 0 60 -8 60 -20v-413c0 -143 -78 -217 -210 -223c-14 -22 -23 -44 -23 -65c0 -22 14 -41 57 -41c34 0 48 9 59 13c6 -4 13 -16 13 -29c0 -25 -27 -35 -86 -35c-77 0 -108 38 -108 83c0 31 10 58 26 75c-121 13 -187 86 -187 222v413
c0 12 7 20 59 20c51 0 60 -8 60 -20v-415c0 -86 41 -129 109 -129c66 0 112 43 112 128z" />
    <glyph glyph-name="Uring" unicode="&#x16e;" horiz-adv-x="584" 
d="M383 774c0 -59 -40 -95 -92 -95c-51 0 -92 36 -92 95c0 61 41 96 92 96c52 0 92 -35 92 -96zM259 774c0 -25 12 -40 32 -40s33 15 33 40c0 28 -13 40 -33 40s-32 -12 -32 -40zM403 215v416c0 12 8 20 59 20c52 0 60 -8 60 -20v-413c0 -150 -86 -224 -231 -224
c-146 0 -228 74 -228 224v413c0 12 7 20 59 20c51 0 60 -8 60 -20v-415c0 -86 41 -129 109 -129c66 0 112 43 112 128z" />
    <glyph glyph-name="Utilde" unicode="&#x168;" horiz-adv-x="584" 
d="M403 215c0 -85 -46 -128 -112 -128c-68 0 -109 43 -109 129v415c0 12 -9 20 -60 20c-52 0 -59 -8 -59 -20v-413c0 -150 82 -224 228 -224c145 0 231 74 231 224v413c0 12 -8 20 -60 20c-51 0 -59 -8 -59 -20v-416zM139 709c0 90 41 120 90 120c61 0 90 -68 128 -68
c23 0 35 15 38 64h29c14 0 22 -8 22 -24c0 -92 -41 -120 -90 -120c-63 0 -91 69 -129 69c-23 0 -34 -17 -37 -65h-29c-14 0 -22 9 -22 24z" />
    <glyph glyph-name="V" unicode="V" horiz-adv-x="529" 
d="M206 0l-198 637c21 11 51 15 76 15c28 0 43 -9 51 -37l135 -479l145 515h67c25 0 34 -8 34 -25c0 -8 -1 -19 -8 -39l-178 -556c-7 -22 -25 -31 -66 -31h-58z" />
    <glyph glyph-name="W" unicode="W" horiz-adv-x="765" 
d="M637 651h62c30 0 38 -9 38 -31c0 -10 -3 -34 -9 -65l-87 -499c-5 -32 -25 -56 -82 -56h-76l-105 478l-92 -423c-6 -33 -25 -55 -81 -55h-72l-109 640c16 5 43 11 67 11c27 0 40 -10 43 -37l75 -512l114 502c14 5 35 10 63 10c44 0 61 -11 66 -36l105 -475z" />
    <glyph glyph-name="Wacute" unicode="&#x1e82;" horiz-adv-x="765" 
d="M387 801c6 14 18 25 45 25c48 0 58 -9 59 -9l-59 -121c-7 -14 -18 -21 -41 -21c-28 0 -43 4 -55 11zM637 651h62c30 0 38 -9 38 -31c0 -10 -3 -34 -9 -65l-87 -499c-5 -32 -25 -56 -82 -56h-76l-105 478l-92 -423c-6 -33 -25 -55 -81 -55h-72l-109 640c16 5 43 11 67 11
c27 0 40 -10 43 -37l75 -512l114 502c14 5 35 10 63 10c44 0 61 -11 66 -36l105 -475z" />
    <glyph glyph-name="Wcircumflex" unicode="&#x174;" horiz-adv-x="765" 
d="M339 815c0 0 23 4 47 4c27 0 41 -4 50 -17l68 -99c5 -7 7 -13 7 -18c0 -9 -5 -17 -36 -17h-44l-49 101l-44 -88c-4 -10 -14 -16 -39 -16c-23 0 -39 6 -48 15zM637 651h62c30 0 38 -9 38 -31c0 -10 -3 -34 -9 -65l-87 -499c-5 -32 -25 -56 -82 -56h-76l-105 478l-92 -423
c-6 -33 -25 -55 -81 -55h-72l-109 640c16 5 43 11 67 11c27 0 40 -10 43 -37l75 -512l114 502c14 5 35 10 63 10c44 0 61 -11 66 -36l105 -475z" />
    <glyph glyph-name="Wdieresis" unicode="&#x1e84;" horiz-adv-x="765" 
d="M294 801c31 0 57 -26 57 -58c0 -30 -26 -56 -57 -56s-57 26 -57 56c0 32 26 58 57 58zM469 801c32 0 58 -26 58 -58c0 -30 -26 -56 -58 -56c-30 0 -56 26 -56 56c0 32 26 58 56 58zM637 651h62c30 0 38 -9 38 -31c0 -10 -3 -34 -9 -65l-87 -499c-5 -32 -25 -56 -82 -56
h-76l-105 478l-92 -423c-6 -33 -25 -55 -81 -55h-72l-109 640c16 5 43 11 67 11c27 0 40 -10 43 -37l75 -512l114 502c14 5 35 10 63 10c44 0 61 -11 66 -36l105 -475z" />
    <glyph glyph-name="Wgrave" unicode="&#x1e80;" horiz-adv-x="765" 
d="M270 813c1 0 11 9 59 9c26 0 39 -11 45 -25l50 -115c-11 -7 -26 -11 -54 -11c-23 0 -34 7 -42 21zM637 651h62c30 0 38 -9 38 -31c0 -10 -3 -34 -9 -65l-87 -499c-5 -32 -25 -56 -82 -56h-76l-105 478l-92 -423c-6 -33 -25 -55 -81 -55h-72l-109 640c16 5 43 11 67 11
c27 0 40 -10 43 -37l75 -512l114 502c14 5 35 10 63 10c44 0 61 -11 66 -36l105 -475z" />
    <glyph glyph-name="X" unicode="X" horiz-adv-x="510" 
d="M23 637c23 10 55 16 83 16c31 0 43 -10 56 -41l103 -216l108 255h70c23 0 35 -6 35 -25c0 -13 -7 -30 -17 -49l-128 -237l144 -279c9 -16 12 -27 12 -37c0 -14 -9 -24 -31 -24h-86l-122 274l-112 -246c-11 -26 -20 -32 -50 -32c-26 0 -54 8 -72 21l165 320z" />
    <glyph glyph-name="Y" unicode="Y" horiz-adv-x="490" 
d="M253 329l128 322h61c24 0 33 -8 33 -25c0 -13 -4 -23 -15 -47l-154 -335v-224c0 -11 -7 -20 -60 -20c-52 0 -60 9 -60 20v221l-184 395c19 10 44 16 78 16c28 0 42 -9 52 -36z" />
    <glyph glyph-name="Yacute" unicode="&#xdd;" horiz-adv-x="490" 
d="M253 329l128 322h61c24 0 33 -8 33 -25c0 -13 -4 -23 -15 -47l-154 -335v-224c0 -11 -7 -20 -60 -20c-52 0 -60 9 -60 20v221l-184 395c19 10 44 16 78 16c28 0 42 -9 52 -36zM248 807c6 14 18 25 45 25c48 0 58 -9 59 -9l-59 -121c-7 -14 -18 -21 -41 -21
c-28 0 -43 4 -55 11z" />
    <glyph glyph-name="Ycircumflex" unicode="&#x176;" horiz-adv-x="490" 
d="M202 828c0 0 23 4 47 4c27 0 41 -4 50 -17l68 -99c5 -7 7 -13 7 -18c0 -9 -5 -17 -36 -17h-44l-49 101l-44 -88c-4 -10 -14 -16 -39 -16c-23 0 -39 6 -48 15zM253 329l128 322h61c24 0 33 -8 33 -25c0 -13 -4 -23 -15 -47l-154 -335v-224c0 -11 -7 -20 -60 -20
c-52 0 -60 9 -60 20v221l-184 395c19 10 44 16 78 16c28 0 42 -9 52 -36z" />
    <glyph glyph-name="Ydieresis" unicode="&#x178;" horiz-adv-x="490" 
d="M155 801c31 0 57 -26 57 -58c0 -30 -26 -56 -57 -56s-57 26 -57 56c0 32 26 58 57 58zM330 801c32 0 58 -26 58 -58c0 -30 -26 -56 -58 -56c-30 0 -56 26 -56 56c0 32 26 58 56 58zM253 329l128 322h61c24 0 33 -8 33 -25c0 -13 -4 -23 -15 -47l-154 -335v-224
c0 -11 -7 -20 -60 -20c-52 0 -60 9 -60 20v221l-184 395c19 10 44 16 78 16c28 0 42 -9 52 -36z" />
    <glyph glyph-name="Ygrave" unicode="&#x1ef2;" horiz-adv-x="490" 
d="M253 329l128 322h61c24 0 33 -8 33 -25c0 -13 -4 -23 -15 -47l-154 -335v-224c0 -11 -7 -20 -60 -20c-52 0 -60 9 -60 20v221l-184 395c19 10 44 16 78 16c28 0 42 -9 52 -36zM138 823c1 0 11 9 59 9c26 0 39 -11 45 -25l50 -115c-11 -7 -26 -11 -54 -11
c-23 0 -34 7 -42 21z" />
    <glyph glyph-name="Z" unicode="Z" horiz-adv-x="487" 
d="M75 651h366c5 -11 10 -30 10 -51c0 -35 -13 -67 -37 -104l-235 -366c-8 -12 -9 -20 -9 -25c0 -8 4 -13 12 -13h268c3 -9 6 -28 6 -41c0 -41 -9 -51 -33 -51h-330c-41 0 -63 25 -63 66c0 31 8 52 28 81l241 371c10 15 13 26 13 33v5h-265c-3 10 -6 30 -6 43
c0 42 9 52 34 52z" />
    <glyph glyph-name="Zacute" unicode="&#x179;" horiz-adv-x="487" 
d="M244 812c6 14 18 25 45 25c48 0 58 -9 59 -9l-59 -121c-7 -14 -18 -21 -41 -21c-28 0 -43 4 -55 11zM75 651h366c5 -11 10 -30 10 -51c0 -35 -13 -67 -37 -104l-235 -366c-8 -12 -9 -20 -9 -25c0 -8 4 -13 12 -13h268c3 -9 6 -28 6 -41c0 -41 -9 -51 -33 -51h-330
c-41 0 -63 25 -63 66c0 31 8 52 28 81l241 371c10 15 13 26 13 33v5h-265c-3 10 -6 30 -6 43c0 42 9 52 34 52z" />
    <glyph glyph-name="Zcaron" unicode="&#x17d;" horiz-adv-x="487" 
d="M114 825c8 9 24 15 47 15c26 0 35 -5 40 -15l44 -88l49 100h43c31 0 37 -8 37 -17c0 -5 -3 -11 -8 -18l-67 -99c-9 -12 -24 -17 -51 -17c-23 0 -47 5 -47 5zM75 651h366c5 -11 10 -30 10 -51c0 -35 -13 -67 -37 -104l-235 -366c-8 -12 -9 -20 -9 -25c0 -8 4 -13 12 -13
h268c3 -9 6 -28 6 -41c0 -41 -9 -51 -33 -51h-330c-41 0 -63 25 -63 66c0 31 8 52 28 81l241 371c10 15 13 26 13 33v5h-265c-3 10 -6 30 -6 43c0 42 9 52 34 52z" />
    <glyph glyph-name="Zdotaccent" unicode="&#x17b;" horiz-adv-x="487" 
d="M75 651h366c5 -11 10 -30 10 -51c0 -35 -13 -67 -37 -104l-235 -366c-8 -12 -9 -20 -9 -25c0 -8 4 -13 12 -13h268c3 -9 6 -28 6 -41c0 -41 -9 -51 -33 -51h-330c-41 0 -63 25 -63 66c0 31 8 52 28 81l241 371c10 15 13 26 13 33v5h-265c-3 10 -6 30 -6 43
c0 42 9 52 34 52zM241 814c35 0 64 -29 64 -64c0 -34 -29 -63 -64 -63c-34 0 -63 29 -63 63c0 35 29 64 63 64z" />
    <glyph glyph-name="uni021A" unicode="&#x21a;" horiz-adv-x="461" 
d="M46 651h398c3 -10 6 -30 6 -42c0 -43 -9 -53 -34 -53h-125v-536c0 -11 -7 -20 -60 -20c-52 0 -59 9 -59 20v536h-154c-4 10 -7 30 -7 43c0 42 9 52 35 52zM187 -188c9 -8 22 -12 34 -12c11 0 18 5 24 15c28 53 39 79 39 100c0 29 -21 51 -51 51s-51 -22 -51 -51
c0 -21 13 -35 31 -40z" />
    <glyph glyph-name="a" unicode="a" horiz-adv-x="466" 
d="M409 356v-336c0 -11 -6 -20 -50 -20c-43 0 -49 9 -49 20v31c-41 -42 -71 -61 -137 -61c-82 0 -139 46 -139 126c0 87 52 136 170 136c36 0 65 -3 96 -7v109c0 46 -18 63 -74 63c-36 0 -88 -4 -120 -4c-28 0 -33 16 -33 49c0 12 3 28 6 38c15 0 99 8 160 8
c123 0 170 -41 170 -152zM143 128c0 -39 23 -59 63 -59c37 0 60 14 94 44v75c-21 3 -40 5 -71 5c-67 0 -86 -24 -86 -65z" />
    <glyph glyph-name="aacute" unicode="&#xe1;" horiz-adv-x="466" 
d="M409 356c0 111 -47 152 -170 152c-61 0 -145 -8 -160 -8c-3 -10 -6 -26 -6 -38c0 -33 5 -49 33 -49c32 0 84 4 120 4c56 0 74 -17 74 -63v-109c-31 4 -60 7 -96 7c-118 0 -170 -49 -170 -136c0 -80 57 -126 139 -126c66 0 96 19 137 61v-31c0 -11 6 -20 49 -20
c44 0 50 9 50 20v336zM143 128c0 41 19 65 86 65c31 0 50 -2 71 -5v-75c-34 -30 -57 -44 -94 -44c-40 0 -63 20 -63 59zM229 682c6 14 18 25 45 25c48 0 58 -9 59 -9l-59 -121c-7 -14 -18 -21 -41 -21c-28 0 -43 4 -55 11z" />
    <glyph glyph-name="abreve" unicode="&#x103;" horiz-adv-x="466" 
d="M409 356c0 111 -47 152 -170 152c-61 0 -145 -8 -160 -8c-3 -10 -6 -26 -6 -38c0 -33 5 -49 33 -49c32 0 84 4 120 4c56 0 74 -17 74 -63v-109c-31 4 -60 7 -96 7c-118 0 -170 -49 -170 -136c0 -80 57 -126 139 -126c66 0 96 19 137 61v-31c0 -11 6 -20 49 -20
c44 0 50 9 50 20v336zM143 128c0 41 19 65 86 65c31 0 50 -2 71 -5v-75c-34 -30 -57 -44 -94 -44c-40 0 -63 20 -63 59zM307 720c7 2 17 3 35 3c33 0 42 -5 42 -14v-14c0 -79 -46 -139 -152 -139c-104 0 -152 60 -152 139v14c0 9 9 14 42 14c18 0 28 -1 35 -3v-27
c0 -39 22 -68 75 -68c54 0 75 29 75 68v27z" />
    <glyph glyph-name="acircumflex" unicode="&#xe2;" horiz-adv-x="466" 
d="M189 703c0 0 23 4 47 4c27 0 41 -4 50 -17l68 -99c5 -7 7 -13 7 -18c0 -9 -5 -17 -36 -17h-44l-49 101l-44 -88c-4 -10 -14 -16 -39 -16c-23 0 -39 6 -48 15zM409 356c0 111 -47 152 -170 152c-61 0 -145 -8 -160 -8c-3 -10 -6 -26 -6 -38c0 -33 5 -49 33 -49
c32 0 84 4 120 4c56 0 74 -17 74 -63v-109c-31 4 -60 7 -96 7c-118 0 -170 -49 -170 -136c0 -80 57 -126 139 -126c66 0 96 19 137 61v-31c0 -11 6 -20 49 -20c44 0 50 9 50 20v336zM143 128c0 41 19 65 86 65c31 0 50 -2 71 -5v-75c-34 -30 -57 -44 -94 -44
c-40 0 -63 20 -63 59z" />
    <glyph glyph-name="adieresis" unicode="&#xe4;" horiz-adv-x="466" 
d="M143 671c31 0 57 -26 57 -58c0 -30 -26 -56 -57 -56s-57 26 -57 56c0 32 26 58 57 58zM318 671c32 0 58 -26 58 -58c0 -30 -26 -56 -58 -56c-30 0 -56 26 -56 56c0 32 26 58 56 58zM409 356c0 111 -47 152 -170 152c-61 0 -145 -8 -160 -8c-3 -10 -6 -26 -6 -38
c0 -33 5 -49 33 -49c32 0 84 4 120 4c56 0 74 -17 74 -63v-109c-31 4 -60 7 -96 7c-118 0 -170 -49 -170 -136c0 -80 57 -126 139 -126c66 0 96 19 137 61v-31c0 -11 6 -20 49 -20c44 0 50 9 50 20v336zM143 128c0 41 19 65 86 65c31 0 50 -2 71 -5v-75
c-34 -30 -57 -44 -94 -44c-40 0 -63 20 -63 59z" />
    <glyph glyph-name="agrave" unicode="&#xe0;" horiz-adv-x="466" 
d="M409 356c0 111 -47 152 -170 152c-61 0 -145 -8 -160 -8c-3 -10 -6 -26 -6 -38c0 -33 5 -49 33 -49c32 0 84 4 120 4c56 0 74 -17 74 -63v-109c-31 4 -60 7 -96 7c-118 0 -170 -49 -170 -136c0 -80 57 -126 139 -126c66 0 96 19 137 61v-31c0 -11 6 -20 49 -20
c44 0 50 9 50 20v336zM143 128c0 41 19 65 86 65c31 0 50 -2 71 -5v-75c-34 -30 -57 -44 -94 -44c-40 0 -63 20 -63 59zM120 698c1 0 11 9 59 9c26 0 39 -11 45 -25l50 -115c-11 -7 -26 -11 -54 -11c-23 0 -34 7 -42 21z" />
    <glyph glyph-name="amacron" unicode="&#x101;" horiz-adv-x="466" 
d="M409 356v-336c0 -11 -6 -20 -50 -20c-43 0 -49 9 -49 20v31c-41 -42 -71 -61 -137 -61c-82 0 -139 46 -139 126c0 87 52 136 170 136c36 0 65 -3 96 -7v109c0 46 -18 63 -74 63c-36 0 -88 -4 -120 -4c-28 0 -33 16 -33 49c0 12 3 28 6 38c15 0 99 8 160 8
c123 0 170 -41 170 -152zM143 128c0 -39 23 -59 63 -59c37 0 60 14 94 44v75c-21 3 -40 5 -71 5c-67 0 -86 -24 -86 -65zM325 557h-220c-3 9 -6 27 -6 37c0 38 8 47 32 47h221c2 -9 5 -27 5 -38c0 -37 -8 -46 -32 -46z" />
    <glyph glyph-name="aogonek" unicode="&#x105;" horiz-adv-x="466" 
d="M409 356v-336c0 -10 -5 -18 -36 -20c-16 -23 -27 -48 -27 -70s14 -41 57 -41c34 0 48 9 59 13c6 -4 13 -16 13 -29c0 -25 -27 -35 -86 -35c-77 0 -108 38 -108 83c0 38 16 70 37 85c-7 3 -8 8 -8 14v31c-41 -42 -71 -61 -137 -61c-82 0 -139 46 -139 126
c0 87 52 136 170 136c36 0 65 -3 96 -7v109c0 46 -18 63 -74 63c-36 0 -88 -4 -120 -4c-28 0 -33 16 -33 49c0 12 3 28 6 38c15 0 99 8 160 8c123 0 170 -41 170 -152zM143 128c0 -39 23 -59 63 -59c37 0 60 14 94 44v75c-21 3 -40 5 -71 5c-67 0 -86 -24 -86 -65z" />
    <glyph glyph-name="aring" unicode="&#xe5;" horiz-adv-x="466" 
d="M409 356v-336c0 -11 -6 -20 -50 -20c-43 0 -49 9 -49 20v31c-41 -42 -71 -61 -137 -61c-82 0 -139 46 -139 126c0 87 52 136 170 136c36 0 65 -3 96 -7v109c0 46 -18 63 -74 63c-36 0 -88 -4 -120 -4c-28 0 -33 16 -33 49c0 12 3 28 6 38c15 0 99 8 160 8
c123 0 170 -41 170 -152zM143 128c0 -39 23 -59 63 -59c37 0 60 14 94 44v75c-21 3 -40 5 -71 5c-67 0 -86 -24 -86 -65zM319 651c0 -59 -40 -95 -92 -95c-51 0 -92 36 -92 95c0 61 41 96 92 96c52 0 92 -35 92 -96zM195 651c0 -25 12 -40 32 -40s33 15 33 40
c0 28 -13 40 -33 40s-32 -12 -32 -40z" />
    <glyph glyph-name="atilde" unicode="&#xe3;" horiz-adv-x="466" 
d="M409 356c0 111 -47 152 -170 152c-61 0 -145 -8 -160 -8c-3 -10 -6 -26 -6 -38c0 -33 5 -49 33 -49c32 0 84 4 120 4c56 0 74 -17 74 -63v-109c-31 4 -60 7 -96 7c-118 0 -170 -49 -170 -136c0 -80 57 -126 139 -126c66 0 96 19 137 61v-31c0 -11 6 -20 49 -20
c44 0 50 9 50 20v336zM143 128c0 41 19 65 86 65c31 0 50 -2 71 -5v-75c-34 -30 -57 -44 -94 -44c-40 0 -63 20 -63 59zM76 580c0 90 41 120 90 120c61 0 90 -68 128 -68c23 0 35 15 38 64h29c14 0 22 -8 22 -24c0 -92 -41 -120 -90 -120c-63 0 -91 69 -129 69
c-23 0 -34 -17 -37 -65h-29c-14 0 -22 9 -22 24z" />
    <glyph glyph-name="ae" unicode="&#xe6;" horiz-adv-x="727" 
d="M79 500c19 0 99 8 160 8c69 0 113 -13 137 -45c34 30 78 46 131 46c125 0 184 -80 184 -232v-50h-282c2 -105 41 -151 122 -151c71 0 108 23 108 23c13 -11 20 -27 20 -49c0 -33 -43 -60 -142 -60c-74 0 -130 25 -166 71c-65 -59 -105 -71 -175 -71
c-93 0 -145 51 -145 129c0 88 55 137 170 137c32 0 62 -3 99 -9v3v12v94c0 51 -26 62 -74 62c-45 0 -95 -4 -120 -4c-28 0 -33 15 -33 48c0 11 3 30 6 38zM592 295c0 84 -30 127 -86 127s-91 -45 -97 -127h183zM317 126c-6 19 -10 40 -13 62c-24 4 -52 7 -76 7
c-62 0 -87 -22 -87 -66c0 -37 21 -60 64 -60s77 20 112 57z" />
    <glyph glyph-name="aeacute" unicode="&#x1fd;" horiz-adv-x="727" 
d="M79 500c19 0 99 8 160 8c69 0 113 -13 137 -45c34 30 78 46 131 46c125 0 184 -80 184 -232v-50h-282c2 -105 41 -151 122 -151c71 0 108 23 108 23c13 -11 20 -27 20 -49c0 -33 -43 -60 -142 -60c-74 0 -130 25 -166 71c-65 -59 -105 -71 -175 -71
c-93 0 -145 51 -145 129c0 88 55 137 170 137c32 0 62 -3 99 -9v109c0 51 -26 62 -74 62c-45 0 -95 -4 -120 -4c-28 0 -33 15 -33 48c0 11 3 30 6 38zM592 295c0 84 -30 127 -86 127s-91 -45 -97 -127h183zM317 126c-6 19 -10 40 -13 62c-24 4 -52 7 -76 7
c-62 0 -87 -22 -87 -66c0 -37 21 -60 64 -60s77 20 112 57zM370 682c6 14 18 25 45 25c48 0 58 -9 59 -9l-59 -121c-7 -14 -18 -21 -41 -21c-28 0 -43 4 -55 11z" />
    <glyph glyph-name="b" unicode="b" horiz-adv-x="509" 
d="M60 698c0 12 7 20 54 20c48 0 55 -8 55 -20v-241c30 32 73 52 118 52c110 0 184 -80 184 -254c0 -179 -93 -265 -202 -265c-50 0 -88 15 -119 50l-5 -23c-4 -12 -12 -17 -30 -17h-55v698zM358 245c0 138 -46 177 -103 177c-28 0 -55 -15 -86 -51v-258
c22 -25 50 -38 83 -38c59 0 106 46 106 170z" />
    <glyph glyph-name="c" unicode="c" horiz-adv-x="407" 
d="M374 40c0 -31 -41 -50 -128 -50c-133 0 -208 79 -208 256c0 182 76 263 212 263c32 0 100 -8 116 -9c3 -8 7 -26 7 -37c0 -33 -5 -46 -31 -46c-21 0 -61 5 -86 5c-68 0 -111 -56 -111 -177s45 -169 123 -169c56 0 91 14 91 14c7 -6 15 -28 15 -50z" />
    <glyph glyph-name="cacute" unicode="&#x107;" horiz-adv-x="407" 
d="M212 682c6 14 18 25 45 25c48 0 58 -9 59 -9l-59 -121c-7 -14 -18 -21 -41 -21c-28 0 -43 4 -55 11zM374 40c0 -31 -41 -50 -128 -50c-133 0 -208 79 -208 256c0 182 76 263 212 263c32 0 100 -8 116 -9c3 -8 7 -26 7 -37c0 -33 -5 -46 -31 -46c-21 0 -61 5 -86 5
c-68 0 -111 -56 -111 -177s45 -169 123 -169c56 0 91 14 91 14c7 -6 15 -28 15 -50z" />
    <glyph glyph-name="ccaron" unicode="&#x10d;" horiz-adv-x="407" 
d="M84 695c8 9 24 15 47 15c26 0 35 -5 40 -15l44 -88l49 100h43c31 0 37 -8 37 -17c0 -5 -3 -11 -8 -18l-67 -99c-9 -12 -24 -17 -51 -17c-23 0 -47 5 -47 5zM374 40c0 -31 -41 -50 -128 -50c-133 0 -208 79 -208 256c0 182 76 263 212 263c32 0 100 -8 116 -9
c3 -8 7 -26 7 -37c0 -33 -5 -46 -31 -46c-21 0 -61 5 -86 5c-68 0 -111 -56 -111 -177s45 -169 123 -169c56 0 91 14 91 14c7 -6 15 -28 15 -50z" />
    <glyph glyph-name="ccedilla" unicode="&#xe7;" horiz-adv-x="407" 
d="M210 -12c0 2 1 3 2 4c-112 13 -174 92 -174 254c0 182 76 263 212 263c32 0 100 -8 116 -9c3 -8 7 -26 7 -37c0 -33 -5 -46 -31 -46c-21 0 -61 5 -86 5c-68 0 -111 -56 -111 -177s45 -169 123 -169c56 0 91 14 91 14c7 -6 15 -28 15 -50c0 -29 -37 -48 -113 -50l-14 -30
c10 1 22 1 34 1c49 0 78 -19 78 -61c0 -40 -28 -70 -103 -70c-71 0 -95 15 -95 36c0 12 7 20 14 24c0 0 24 -14 70 -14c44 0 55 10 55 24c0 16 -11 24 -44 24h-44c-14 0 -21 11 -21 22z" />
    <glyph glyph-name="ccircumflex" unicode="&#x109;" horiz-adv-x="407" 
d="M181 703c0 0 23 4 47 4c27 0 41 -4 50 -17l68 -99c5 -7 7 -13 7 -18c0 -9 -5 -17 -36 -17h-44l-49 101l-44 -88c-4 -10 -14 -16 -39 -16c-23 0 -39 6 -48 15zM374 40c0 -31 -41 -50 -128 -50c-133 0 -208 79 -208 256c0 182 76 263 212 263c32 0 100 -8 116 -9
c3 -8 7 -26 7 -37c0 -33 -5 -46 -31 -46c-21 0 -61 5 -86 5c-68 0 -111 -56 -111 -177s45 -169 123 -169c56 0 91 14 91 14c7 -6 15 -28 15 -50z" />
    <glyph glyph-name="cdotaccent" unicode="&#x10b;" horiz-adv-x="407" 
d="M374 40c0 -31 -41 -50 -128 -50c-133 0 -208 79 -208 256c0 182 76 263 212 263c32 0 100 -8 116 -9c3 -8 7 -26 7 -37c0 -33 -5 -46 -31 -46c-21 0 -61 5 -86 5c-68 0 -111 -56 -111 -177s45 -169 123 -169c56 0 91 14 91 14c7 -6 15 -28 15 -50zM212 684
c35 0 64 -29 64 -64c0 -34 -29 -63 -64 -63c-34 0 -63 29 -63 63c0 35 29 64 63 64z" />
    <glyph glyph-name="d" unicode="d" horiz-adv-x="508" 
d="M340 698c0 12 6 20 53 20c48 0 56 -8 56 -20v-678c0 -11 -7 -20 -50 -20s-49 9 -49 20v39c-28 -39 -73 -69 -130 -69c-105 0 -182 78 -182 253c0 166 74 266 220 266c37 0 68 -17 82 -30v219zM340 388c-4 5 -29 34 -79 34c-67 0 -111 -46 -111 -177
c0 -132 48 -168 105 -168c30 0 56 16 85 50v261z" />
    <glyph glyph-name="eth" unicode="&#xf0;" horiz-adv-x="518" 
d="M71 650c30 0 90 7 149 7c183 0 256 -95 256 -311c0 -252 -84 -349 -230 -349s-219 89 -219 211c0 116 59 191 195 191c53 0 99 -11 132 -22c-6 151 -48 182 -142 182c-34 0 -62 -5 -95 -5c-38 0 -53 20 -53 53c0 16 4 32 7 43zM246 85c67 0 104 42 108 218
c-22 9 -60 22 -109 22c-70 0 -102 -38 -102 -117c0 -81 35 -123 103 -123z" />
    <glyph glyph-name="dcaron" unicode="&#x10f;" horiz-adv-x="508" 
d="M520 595l-26 -62c9 -8 22 -13 34 -13c11 0 17 6 23 15c28 53 40 79 40 100c0 30 -21 51 -51 51c-31 0 -51 -21 -51 -51c0 -21 12 -35 31 -40zM340 698c0 12 6 20 53 20c48 0 56 -8 56 -20v-678c0 -11 -7 -20 -50 -20s-49 9 -49 20v39c-28 -39 -73 -69 -130 -69
c-105 0 -182 78 -182 253c0 166 74 266 220 266c37 0 68 -17 82 -30v219zM340 388c-4 5 -29 34 -79 34c-67 0 -111 -46 -111 -177c0 -132 48 -168 105 -168c30 0 56 16 85 50v261z" />
    <glyph glyph-name="dcroat" unicode="&#x111;" horiz-adv-x="508" 
d="M38 243c0 166 74 266 220 266c37 0 68 -17 82 -30v90h-89c-2 7 -4 21 -4 31c0 30 6 38 25 38h68v60c0 12 6 20 53 20c48 0 56 -8 56 -20v-60h66c2 -7 5 -21 5 -32c0 -30 -7 -37 -25 -37h-46v-549c0 -11 -7 -20 -54 -20c-48 0 -55 9 -55 20v31c-25 -31 -64 -61 -120 -61
c-105 0 -182 78 -182 253zM260 76c40 0 67 29 80 41v271c-4 5 -29 34 -79 34c-67 0 -111 -46 -111 -177c0 -132 46 -169 110 -169z" />
    <glyph glyph-name="e" unicode="e" horiz-adv-x="465" 
d="M428 285c0 -32 -5 -52 -5 -52h-276c0 -107 40 -157 123 -157c73 0 109 19 109 19c12 -12 16 -30 16 -52c0 -28 -39 -53 -139 -53c-142 0 -218 91 -218 260c0 170 82 259 205 259c124 0 185 -75 185 -224zM148 295h178c0 86 -29 127 -84 127c-57 0 -90 -47 -94 -127z" />
    <glyph glyph-name="eacute" unicode="&#xe9;" horiz-adv-x="465" 
d="M230 682c6 14 18 25 45 25c48 0 58 -9 59 -9l-59 -121c-7 -14 -18 -21 -41 -21c-28 0 -43 4 -55 11zM428 285c0 149 -61 224 -185 224c-123 0 -205 -89 -205 -259c0 -169 76 -260 218 -260c100 0 139 25 139 53c0 22 -4 40 -16 52c0 0 -36 -19 -109 -19
c-83 0 -123 50 -123 157h276s5 20 5 52zM148 295c4 80 37 127 94 127c55 0 84 -41 84 -127h-178z" />
    <glyph glyph-name="ebreve" unicode="&#x115;" horiz-adv-x="465" 
d="M428 285c0 149 -61 224 -185 224c-123 0 -205 -89 -205 -259c0 -169 76 -260 218 -260c100 0 139 25 139 53c0 22 -4 40 -16 52c0 0 -36 -19 -109 -19c-83 0 -123 50 -123 157h276s5 20 5 52zM148 295c4 80 37 127 94 127c55 0 84 -41 84 -127h-178zM309 720
c7 2 17 3 35 3c33 0 42 -5 42 -14v-14c0 -79 -46 -139 -152 -139c-104 0 -152 60 -152 139v14c0 9 9 14 42 14c18 0 28 -1 35 -3v-27c0 -39 22 -68 75 -68c54 0 75 29 75 68v27z" />
    <glyph glyph-name="ecaron" unicode="&#x11b;" horiz-adv-x="465" 
d="M99 693c8 9 24 15 47 15c26 0 35 -5 40 -15l44 -88l49 100h43c31 0 37 -8 37 -17c0 -5 -3 -11 -8 -18l-67 -99c-9 -12 -24 -17 -51 -17c-23 0 -47 5 -47 5zM428 285c0 149 -61 224 -185 224c-123 0 -205 -89 -205 -259c0 -169 76 -260 218 -260c100 0 139 25 139 53
c0 22 -4 40 -16 52c0 0 -36 -19 -109 -19c-83 0 -123 50 -123 157h276s5 20 5 52zM148 295c4 80 37 127 94 127c55 0 84 -41 84 -127h-178z" />
    <glyph glyph-name="ecircumflex" unicode="&#xea;" horiz-adv-x="465" 
d="M190 703c0 0 23 4 47 4c27 0 41 -4 50 -17l68 -99c5 -7 7 -13 7 -18c0 -9 -5 -17 -36 -17h-44l-49 101l-44 -88c-4 -10 -14 -16 -39 -16c-23 0 -39 6 -48 15zM428 285c0 149 -61 224 -185 224c-123 0 -205 -89 -205 -259c0 -169 76 -260 218 -260c100 0 139 25 139 53
c0 22 -4 40 -16 52c0 0 -36 -19 -109 -19c-83 0 -123 50 -123 157h276s5 20 5 52zM148 295c4 80 37 127 94 127c55 0 84 -41 84 -127h-178z" />
    <glyph glyph-name="edieresis" unicode="&#xeb;" horiz-adv-x="465" 
d="M144 671c31 0 57 -26 57 -58c0 -30 -26 -56 -57 -56s-57 26 -57 56c0 32 26 58 57 58zM319 671c32 0 58 -26 58 -58c0 -30 -26 -56 -58 -56c-30 0 -56 26 -56 56c0 32 26 58 56 58zM428 285c0 149 -61 224 -185 224c-123 0 -205 -89 -205 -259c0 -169 76 -260 218 -260
c100 0 139 25 139 53c0 22 -4 40 -16 52c0 0 -36 -19 -109 -19c-83 0 -123 50 -123 157h276s5 20 5 52zM148 295c4 80 37 127 94 127c55 0 84 -41 84 -127h-178z" />
    <glyph glyph-name="edotaccent" unicode="&#x117;" horiz-adv-x="465" 
d="M428 285c0 149 -61 224 -185 224c-123 0 -205 -89 -205 -259c0 -169 76 -260 218 -260c100 0 139 25 139 53c0 22 -4 40 -16 52c0 0 -36 -19 -109 -19c-83 0 -123 50 -123 157h276s5 20 5 52zM148 295c4 80 37 127 94 127c55 0 84 -41 84 -127h-178zM231 684
c35 0 64 -29 64 -64c0 -34 -29 -63 -64 -63c-34 0 -63 29 -63 63c0 35 29 64 63 64z" />
    <glyph glyph-name="egrave" unicode="&#xe8;" horiz-adv-x="465" 
d="M428 285c0 149 -61 224 -185 224c-123 0 -205 -89 -205 -259c0 -169 76 -260 218 -260c100 0 139 25 139 53c0 22 -4 40 -16 52c0 0 -36 -19 -109 -19c-83 0 -123 50 -123 157h276s5 20 5 52zM148 295c4 80 37 127 94 127c55 0 84 -41 84 -127h-178zM126 698
c1 0 11 9 59 9c26 0 39 -11 45 -25l50 -115c-11 -7 -26 -11 -54 -11c-23 0 -34 7 -42 21z" />
    <glyph glyph-name="emacron" unicode="&#x113;" horiz-adv-x="465" 
d="M330 557h-220c-3 9 -6 27 -6 37c0 38 8 47 32 47h221c2 -9 5 -27 5 -38c0 -37 -8 -46 -32 -46zM428 285c0 -32 -5 -52 -5 -52h-276c0 -107 40 -157 123 -157c73 0 109 19 109 19c12 -12 16 -30 16 -52c0 -28 -39 -53 -139 -53c-142 0 -218 91 -218 260
c0 170 82 259 205 259c124 0 185 -75 185 -224zM148 295h178c0 86 -29 127 -84 127c-57 0 -90 -47 -94 -127z" />
    <glyph glyph-name="eogonek" unicode="&#x119;" horiz-adv-x="465" 
d="M428 285c0 -32 -5 -52 -5 -52h-276c0 -107 40 -157 123 -157c73 0 109 19 109 19c12 -12 16 -30 16 -52c0 -27 -36 -51 -128 -53c-12 -20 -20 -41 -20 -60c0 -22 14 -41 57 -41c34 0 48 9 59 13c6 -4 13 -16 13 -29c0 -25 -27 -35 -86 -35c-77 0 -108 38 -108 83
c0 30 10 56 24 73c-110 19 -168 108 -168 256c0 170 82 259 205 259c124 0 185 -75 185 -224zM148 295h178c0 86 -29 127 -84 127c-57 0 -90 -47 -94 -127z" />
    <glyph glyph-name="f" unicode="f" horiz-adv-x="340" 
d="M98 588c0 82 39 129 136 129c23 0 79 -3 88 -3c3 -8 6 -26 6 -38c0 -33 -4 -46 -30 -46c-15 0 -30 2 -47 2c-26 0 -44 -14 -44 -43v-89h107c3 -8 5 -25 5 -37c0 -35 -8 -44 -29 -44h-83v-399c0 -11 -7 -20 -55 -20c-47 0 -54 9 -54 20v399h-75c-3 8 -5 25 -5 37
c0 35 7 44 29 44h51v88z" />
    <glyph glyph-name="g" unicode="g" horiz-adv-x="500" 
d="M415 500h58s6 -19 6 -39c0 -27 -8 -42 -29 -42h-27c11 -23 16 -50 16 -78c0 -88 -51 -164 -195 -164c-23 0 -44 2 -63 5c-13 -21 -17 -37 -17 -50c0 -21 10 -36 43 -36h133c79 0 131 -44 131 -130c0 -91 -70 -160 -232 -160c-153 0 -199 58 -199 122c0 40 15 71 60 104
c-19 17 -28 40 -28 66c0 35 15 68 44 108c-49 30 -68 79 -68 135c0 92 51 167 196 167c42 0 77 -7 104 -18c18 6 39 10 67 10zM333 337c0 61 -35 94 -89 94c-60 0 -91 -37 -91 -94c0 -56 32 -91 91 -91c57 0 89 37 89 91zM174 9h-10c-23 -25 -27 -42 -27 -66
c0 -38 28 -66 112 -66c85 0 121 32 121 75c0 39 -23 57 -61 57h-135z" />
    <glyph glyph-name="gbreve" unicode="&#x11f;" horiz-adv-x="500" 
d="M415 500h58s6 -19 6 -39c0 -27 -8 -42 -29 -42h-27c11 -23 16 -50 16 -78c0 -88 -51 -164 -195 -164c-23 0 -44 2 -63 5c-13 -21 -17 -37 -17 -50c0 -21 10 -36 43 -36h133c79 0 131 -44 131 -130c0 -91 -70 -160 -232 -160c-153 0 -199 58 -199 122c0 40 15 71 60 104
c-19 17 -28 40 -28 66c0 35 15 68 44 108c-49 30 -68 79 -68 135c0 92 51 167 196 167c42 0 77 -7 104 -18c18 6 39 10 67 10zM319 717c7 2 17 3 35 3c33 0 42 -5 42 -14v-14c0 -79 -46 -139 -152 -139c-104 0 -152 60 -152 139v14c0 9 9 14 42 14c18 0 28 -1 35 -3v-27
c0 -39 22 -68 75 -68c54 0 75 29 75 68v27zM333 337c0 61 -35 94 -89 94c-60 0 -91 -37 -91 -94c0 -56 32 -91 91 -91c57 0 89 37 89 91zM174 9h-10c-23 -25 -27 -42 -27 -66c0 -38 28 -66 112 -66c85 0 121 32 121 75c0 39 -23 57 -61 57h-135z" />
    <glyph glyph-name="gcircumflex" unicode="&#x11d;" horiz-adv-x="500" 
d="M415 500h58s6 -19 6 -39c0 -27 -8 -42 -29 -42h-27c11 -23 16 -50 16 -78c0 -88 -51 -164 -195 -164c-23 0 -44 2 -63 5c-13 -21 -17 -37 -17 -50c0 -21 10 -36 43 -36h133c79 0 131 -44 131 -130c0 -91 -70 -160 -232 -160c-153 0 -199 58 -199 122c0 40 15 71 60 104
c-19 17 -28 40 -28 66c0 35 15 68 44 108c-49 30 -68 79 -68 135c0 92 51 167 196 167c42 0 77 -7 104 -18c18 6 39 10 67 10zM333 337c0 61 -35 94 -89 94c-60 0 -91 -37 -91 -94c0 -56 32 -91 91 -91c57 0 89 37 89 91zM174 9h-10c-23 -25 -27 -42 -27 -66
c0 -38 28 -66 112 -66c85 0 121 32 121 75c0 39 -23 57 -61 57h-135zM199 703c0 0 23 4 47 4c27 0 41 -4 50 -17l68 -99c5 -7 7 -13 7 -18c0 -9 -5 -17 -36 -17h-44l-49 101l-44 -88c-4 -10 -14 -16 -39 -16c-23 0 -39 6 -48 15z" />
    <glyph glyph-name="gcommaaccent" unicode="&#x123;" horiz-adv-x="500" 
d="M415 500h58s6 -19 6 -39c0 -27 -8 -42 -29 -42h-27c11 -23 16 -50 16 -78c0 -88 -51 -164 -195 -164c-23 0 -44 2 -63 5c-13 -21 -17 -37 -17 -50c0 -21 10 -36 43 -36h133c79 0 131 -44 131 -130c0 -91 -70 -160 -232 -160c-153 0 -199 58 -199 122c0 40 15 71 60 104
c-19 17 -28 40 -28 66c0 35 15 68 44 108c-49 30 -68 79 -68 135c0 92 51 167 196 167c42 0 77 -7 104 -18c18 6 39 10 67 10zM333 337c0 61 -35 94 -89 94c-60 0 -91 -37 -91 -94c0 -56 32 -91 91 -91c57 0 89 37 89 91zM174 9h-10c-23 -25 -27 -42 -27 -66
c0 -38 28 -66 112 -66c85 0 121 32 121 75c0 39 -23 57 -61 57h-135zM230 705c6 10 13 15 23 15c13 0 26 -4 34 -12l-26 -63c18 -5 31 -19 31 -40c0 -29 -20 -51 -50 -51c-31 0 -52 22 -52 51c0 21 12 47 40 100z" />
    <glyph glyph-name="gdotaccent" unicode="&#x121;" horiz-adv-x="500" 
d="M415 500h58s6 -19 6 -39c0 -27 -8 -42 -29 -42h-27c11 -23 16 -50 16 -78c0 -88 -51 -164 -195 -164c-23 0 -44 2 -63 5c-13 -21 -17 -37 -17 -50c0 -21 10 -36 43 -36h133c79 0 131 -44 131 -130c0 -91 -70 -160 -232 -160c-153 0 -199 58 -199 122c0 40 15 71 60 104
c-19 17 -28 40 -28 66c0 35 15 68 44 108c-49 30 -68 79 -68 135c0 92 51 167 196 167c42 0 77 -7 104 -18c18 6 39 10 67 10zM333 337c0 61 -35 94 -89 94c-60 0 -91 -37 -91 -94c0 -56 32 -91 91 -91c57 0 89 37 89 91zM174 9h-10c-23 -25 -27 -42 -27 -66
c0 -38 28 -66 112 -66c85 0 121 32 121 75c0 39 -23 57 -61 57h-135zM242 684c35 0 64 -29 64 -64c0 -34 -29 -63 -64 -63c-34 0 -63 29 -63 63c0 35 29 64 63 64z" />
    <glyph glyph-name="h" unicode="h" horiz-adv-x="513" 
d="M277 422c-35 0 -65 -20 -108 -76v-326c0 -11 -7 -20 -56 -20c-47 0 -53 9 -53 20v678c0 12 6 20 53 20c49 0 56 -8 56 -20v-264c39 47 85 75 142 75c93 0 145 -44 145 -157v-332c0 -11 -7 -20 -55 -20c-47 0 -54 9 -54 20v317c0 57 -25 85 -70 85z" />
    <glyph glyph-name="hbar" unicode="&#x127;" horiz-adv-x="513" 
d="M315 631c2 -6 4 -18 4 -26c0 -25 -6 -31 -21 -31h-129v-142c36 40 84 77 142 77c93 0 145 -44 145 -157v-332c0 -11 -7 -20 -55 -20c-47 0 -54 9 -54 20v317c0 57 -25 85 -75 85c-56 0 -88 -52 -103 -64v-338c0 -11 -7 -20 -56 -20c-47 0 -53 9 -53 20v554h-68
c-2 7 -4 18 -4 26c0 25 6 31 21 31h51v67c0 12 6 20 53 20c49 0 56 -8 56 -20v-67h146z" />
    <glyph glyph-name="hcircumflex" unicode="&#x125;" horiz-adv-x="513" 
d="M283 833c0 0 23 4 47 4c27 0 41 -4 50 -17l68 -99c5 -7 7 -13 7 -18c0 -9 -5 -17 -36 -17h-44l-49 101l-44 -88c-4 -10 -14 -16 -39 -16c-23 0 -39 6 -48 15zM277 422c45 0 70 -28 70 -85v-317c0 -11 7 -20 54 -20c48 0 55 9 55 20v332c0 113 -52 157 -145 157
c-57 0 -103 -28 -142 -75v264c0 12 -7 20 -56 20c-47 0 -53 -8 -53 -20v-678c0 -11 6 -20 53 -20c49 0 56 9 56 20v326c43 56 73 76 108 76z" />
    <glyph glyph-name="i" unicode="i" horiz-adv-x="227" 
d="M169 20v460c0 12 -8 20 -56 20c-47 0 -54 -8 -54 -20v-460c0 -11 7 -20 54 -20c48 0 56 9 56 20zM50 660c0 35 29 64 63 64c35 0 64 -29 64 -64c0 -34 -29 -63 -64 -63c-34 0 -63 29 -63 63z" />
    <glyph glyph-name="dotlessi" unicode="&#x131;" horiz-adv-x="227" 
d="M59 480c0 12 7 20 54 20c48 0 56 -8 56 -20v-460c0 -11 -8 -20 -56 -20c-47 0 -54 9 -54 20v460z" />
    <glyph glyph-name="iacute" unicode="&#xed;" horiz-adv-x="227" 
d="M120 682c6 14 18 25 45 25c48 0 58 -9 59 -9l-59 -121c-7 -14 -18 -21 -41 -21c-28 0 -43 4 -55 11zM59 480c0 12 7 20 54 20c48 0 56 -8 56 -20v-460c0 -11 -8 -20 -56 -20c-47 0 -54 9 -54 20v460z" />
    <glyph glyph-name="icircumflex" unicode="&#xee;" horiz-adv-x="227" 
d="M71 703c0 0 23 4 47 4c27 0 41 -4 50 -17l68 -99c5 -7 7 -13 7 -18c0 -9 -5 -17 -36 -17h-44l-49 101l-44 -88c-4 -10 -14 -16 -39 -16c-23 0 -39 6 -48 15zM59 480c0 12 7 20 54 20c48 0 56 -8 56 -20v-460c0 -11 -8 -20 -56 -20c-47 0 -54 9 -54 20v460z" />
    <glyph glyph-name="idieresis" unicode="&#xef;" horiz-adv-x="227" 
d="M27 671c31 0 57 -26 57 -58c0 -30 -26 -56 -57 -56s-57 26 -57 56c0 32 26 58 57 58zM202 671c32 0 58 -26 58 -58c0 -30 -26 -56 -58 -56c-30 0 -56 26 -56 56c0 32 26 58 56 58zM59 480c0 12 7 20 54 20c48 0 56 -8 56 -20v-460c0 -11 -8 -20 -56 -20
c-47 0 -54 9 -54 20v460z" />
    <glyph glyph-name="igrave" unicode="&#xec;" horiz-adv-x="227" 
d="M59 480c0 12 7 20 54 20c48 0 56 -8 56 -20v-460c0 -11 -8 -20 -56 -20c-47 0 -54 9 -54 20v460zM6 698c1 0 11 9 59 9c26 0 39 -11 45 -25l50 -115c-11 -7 -26 -11 -54 -11c-23 0 -34 7 -42 21z" />
    <glyph glyph-name="ij" unicode="&#x133;" horiz-adv-x="456" 
d="M169 20v460c0 12 -8 20 -56 20c-47 0 -54 -8 -54 -20v-460c0 -11 7 -20 54 -20c48 0 56 9 56 20zM50 660c0 35 29 64 63 64c35 0 64 -29 64 -64c0 -34 -29 -63 -64 -63c-34 0 -63 29 -63 63zM287 -32c0 -55 -13 -85 -40 -126c13 -17 40 -35 71 -35c33 0 78 50 78 179v494
c0 12 -7 20 -55 20c-47 0 -54 -8 -54 -20v-512zM279 660c0 35 28 64 63 64s64 -29 64 -64c0 -34 -29 -63 -64 -63s-63 29 -63 63z" />
    <glyph glyph-name="imacron" unicode="&#x12b;" horiz-adv-x="227" 
d="M59 480c0 12 7 20 54 20c48 0 56 -8 56 -20v-460c0 -11 -8 -20 -56 -20c-47 0 -54 9 -54 20v460zM211 557h-220c-3 9 -6 27 -6 37c0 38 8 47 32 47h221c2 -9 5 -27 5 -38c0 -37 -8 -46 -32 -46z" />
    <glyph glyph-name="iogonek" unicode="&#x12f;" horiz-adv-x="227" 
d="M169 20v460c0 12 -8 20 -56 20c-47 0 -54 -8 -54 -20v-460c0 -8 3 -14 20 -18c-19 -16 -32 -46 -32 -81c0 -45 31 -83 108 -83c59 0 86 10 86 35c0 13 -7 25 -13 29c-11 -4 -25 -13 -59 -13c-43 0 -57 19 -57 41c0 23 11 47 27 71c25 3 30 10 30 19zM50 660
c0 35 29 64 63 64c35 0 64 -29 64 -64c0 -34 -29 -63 -64 -63c-34 0 -63 29 -63 63z" />
    <glyph glyph-name="itilde" unicode="&#x129;" horiz-adv-x="227" 
d="M59 480c0 12 7 20 54 20c48 0 56 -8 56 -20v-460c0 -11 -8 -20 -56 -20c-47 0 -54 9 -54 20v460zM-39 580c0 90 41 120 90 120c61 0 90 -68 128 -68c23 0 35 15 38 64h29c14 0 22 -8 22 -24c0 -92 -41 -120 -90 -120c-63 0 -91 69 -129 69c-23 0 -34 -17 -37 -65h-29
c-14 0 -22 9 -22 24z" />
    <glyph glyph-name="j" unicode="j" horiz-adv-x="229" 
d="M60 -32c0 -55 -13 -85 -41 -126c13 -17 40 -35 72 -35c33 0 78 50 78 179v494c0 12 -7 20 -55 20c-47 0 -54 -8 -54 -20v-512zM51 660c0 35 29 64 63 64c36 0 64 -29 64 -64c0 -34 -28 -63 -64 -63c-34 0 -63 29 -63 63z" />
    <glyph glyph-name="dotlessj" unicode="&#x237;" horiz-adv-x="229" 
d="M60 480c0 12 7 20 54 20c48 0 55 -8 55 -20v-494c0 -129 -45 -179 -78 -179c-32 0 -59 18 -72 35c28 41 41 71 41 126v512z" />
    <glyph glyph-name="jcircumflex" unicode="&#x135;" horiz-adv-x="229" 
d="M70 703c0 0 23 4 47 4c27 0 41 -4 50 -17l68 -99c5 -7 7 -13 7 -18c0 -9 -5 -17 -36 -17h-44l-49 101l-44 -88c-4 -10 -14 -16 -39 -16c-23 0 -39 6 -48 15zM60 480c0 12 7 20 54 20c48 0 55 -8 55 -20v-494c0 -129 -45 -179 -78 -179c-32 0 -59 18 -72 35
c28 41 41 71 41 126v512z" />
    <glyph glyph-name="k" unicode="k" horiz-adv-x="466" 
d="M333 500h72c18 0 24 -7 24 -18c0 -8 -4 -19 -14 -38l-118 -170l153 -252c-13 -14 -47 -27 -74 -27c-21 0 -32 7 -44 32l-145 245zM60 698c0 12 6 20 53 20c49 0 56 -8 56 -20v-678c0 -11 -7 -20 -56 -20c-47 0 -53 9 -53 20v678z" />
    <glyph glyph-name="kcommaaccent" unicode="&#x137;" horiz-adv-x="466" 
d="M333 500h72c18 0 24 -7 24 -18c0 -8 -4 -19 -14 -38l-118 -170l153 -252c-13 -14 -47 -27 -74 -27c-21 0 -32 7 -44 32l-145 245zM60 698c0 12 6 20 53 20c49 0 56 -8 56 -20v-678c0 -11 -7 -20 -56 -20c-47 0 -53 9 -53 20v678zM190 -188c9 -8 22 -12 34 -12
c11 0 18 5 24 15c28 53 39 79 39 100c0 29 -21 51 -51 51s-51 -22 -51 -51c0 -21 13 -35 31 -40z" />
    <glyph glyph-name="kgreenlandic" unicode="&#x138;" horiz-adv-x="483" 
d="M288 426c24 40 56 76 117 76c40 0 53 -13 53 -46c0 -27 -9 -41 -9 -41h-12c-27 0 -48 -11 -65 -37l-75 -104l153 -251c-13 -13 -47 -27 -75 -27c-20 0 -32 6 -44 31l-144 245zM59 480c0 12 7 20 54 20c48 0 56 -8 56 -20v-460c0 -11 -8 -20 -56 -20c-47 0 -54 9 -54 20
v460z" />
    <glyph glyph-name="l" unicode="l" horiz-adv-x="249" 
d="M60 698c0 12 6 20 53 20c49 0 56 -8 56 -20v-598c0 -17 5 -23 20 -23c10 0 20 1 20 1c1 -5 5 -22 5 -46s-17 -38 -62 -38c-77 0 -92 30 -92 99v605z" />
    <glyph glyph-name="lacute" unicode="&#x13a;" horiz-adv-x="249" 
d="M119 862c6 14 18 25 45 25c48 0 58 -9 59 -9l-59 -121c-7 -14 -18 -21 -41 -21c-28 0 -43 4 -55 11zM60 698c0 12 6 20 53 20c49 0 56 -8 56 -20v-598c0 -17 5 -23 20 -23c10 0 20 1 20 1c1 -5 5 -22 5 -46s-17 -38 -62 -38c-77 0 -92 30 -92 99v605z" />
    <glyph glyph-name="lcaron" unicode="&#x13e;" horiz-adv-x="249" 
d="M215 635c0 30 20 51 50 51c31 0 51 -21 51 -51c0 -21 -11 -47 -39 -100c-6 -9 -13 -15 -24 -15c-12 0 -25 5 -34 13l26 62c-18 5 -30 19 -30 40zM60 698c0 12 6 20 53 20c49 0 56 -8 56 -20v-598c0 -17 5 -23 20 -23c10 0 20 1 20 1c1 -5 5 -22 5 -46s-17 -38 -62 -38
c-77 0 -92 30 -92 99v605z" />
    <glyph glyph-name="lcommaaccent" unicode="&#x13c;" horiz-adv-x="249" 
d="M60 698c0 12 6 20 53 20c49 0 56 -8 56 -20v-598c0 -17 5 -23 20 -23c10 0 20 1 20 1c1 -5 5 -22 5 -46s-17 -38 -62 -38c-77 0 -92 30 -92 99v605zM84 -188c9 -8 22 -12 34 -12c11 0 18 5 24 15c28 53 39 79 39 100c0 29 -21 51 -51 51s-51 -22 -51 -51
c0 -21 13 -35 31 -40z" />
    <glyph glyph-name="ldot" unicode="&#x140;" horiz-adv-x="340" 
d="M266 430c36 0 64 -29 64 -64s-28 -63 -64 -63c-34 0 -63 28 -63 63s29 64 63 64zM60 698c0 12 6 20 53 20c49 0 56 -8 56 -20v-598c0 -17 5 -23 20 -23c10 0 20 1 20 1c1 -5 5 -22 5 -46s-17 -38 -62 -38c-77 0 -92 30 -92 99v605z" />
    <glyph glyph-name="lslash" unicode="&#x142;" horiz-adv-x="262" 
d="M245 35c0 -25 -17 -41 -74 -41c-66 0 -102 25 -102 117v128l-47 -20s-12 10 -12 47c0 27 11 47 32 55l27 11v366c0 12 6 20 53 20c49 0 56 -8 56 -20v-320l64 28s11 -10 11 -48c0 -27 -10 -46 -31 -54l-44 -19v-159c0 -40 8 -50 32 -50c11 0 22 4 26 5c1 -1 9 -15 9 -46z
" />
    <glyph glyph-name="m" unicode="m" horiz-adv-x="777" 
d="M430 432c35 41 76 77 150 77c92 0 140 -44 140 -157v-332c0 -11 -7 -20 -55 -20c-47 0 -54 9 -54 20v317c0 57 -22 85 -67 85c-34 0 -61 -17 -100 -68c0 0 1 -7 1 -25v-309c0 -11 -7 -20 -56 -20c-47 0 -53 9 -53 20v317c0 57 -21 85 -67 85c-38 0 -68 -27 -100 -72v-330
c0 -11 -8 -20 -56 -20c-47 0 -54 9 -54 20v460c0 12 7 20 50 20s49 -8 49 -20v-55c33 46 83 84 147 84c67 0 106 -25 125 -77z" />
    <glyph glyph-name="n" unicode="n" horiz-adv-x="513" 
d="M456 352v-332c0 -11 -7 -20 -55 -20c-47 0 -54 9 -54 20v317c0 57 -26 85 -70 85c-35 0 -65 -20 -108 -78v-324c0 -11 -8 -20 -56 -20c-47 0 -54 9 -54 20v460c0 12 7 20 50 20s49 -8 49 -20v-58c43 58 93 87 153 87c93 0 145 -44 145 -157z" />
    <glyph glyph-name="nacute" unicode="&#x144;" horiz-adv-x="513" 
d="M256 682c6 14 18 25 45 25c48 0 58 -9 59 -9l-59 -121c-7 -14 -18 -21 -41 -21c-28 0 -43 4 -55 11zM456 20v332c0 113 -52 157 -145 157c-60 0 -110 -29 -153 -87v58c0 12 -6 20 -49 20s-50 -8 -50 -20v-460c0 -11 7 -20 54 -20c48 0 56 9 56 20v324c43 58 73 78 108 78
c44 0 70 -28 70 -85v-317c0 -11 7 -20 54 -20c48 0 55 9 55 20z" />
    <glyph glyph-name="napostrophe" unicode="&#x149;" horiz-adv-x="513" 
d="M60 655c0 30 20 51 50 51c31 0 52 -21 52 -51c0 -21 -12 -47 -40 -100c-6 -9 -13 -15 -23 -15c-13 0 -26 5 -34 13l26 62c-18 5 -31 19 -31 40zM456 20v332c0 113 -52 157 -145 157c-60 0 -110 -29 -153 -87v58c0 12 -6 20 -49 20s-50 -8 -50 -20v-460
c0 -11 7 -20 54 -20c48 0 56 9 56 20v324c43 58 73 78 108 78c44 0 70 -28 70 -85v-317c0 -11 7 -20 54 -20c48 0 55 9 55 20z" />
    <glyph glyph-name="ncaron" unicode="&#x148;" horiz-adv-x="513" 
d="M124 695c8 9 24 15 47 15c26 0 35 -5 40 -15l44 -88l49 100h43c31 0 37 -8 37 -17c0 -5 -3 -11 -8 -18l-67 -99c-9 -12 -24 -17 -51 -17c-23 0 -47 5 -47 5zM456 20v332c0 113 -52 157 -145 157c-60 0 -110 -29 -153 -87v58c0 12 -6 20 -49 20s-50 -8 -50 -20v-460
c0 -11 7 -20 54 -20c48 0 56 9 56 20v324c43 58 73 78 108 78c44 0 70 -28 70 -85v-317c0 -11 7 -20 54 -20c48 0 55 9 55 20z" />
    <glyph glyph-name="ncommaaccent" unicode="&#x146;" horiz-adv-x="513" 
d="M456 352v-332c0 -11 -7 -20 -55 -20c-47 0 -54 9 -54 20v317c0 57 -26 85 -70 85c-35 0 -65 -20 -108 -78v-324c0 -11 -8 -20 -56 -20c-47 0 -54 9 -54 20v460c0 12 7 20 50 20s49 -8 49 -20v-58c43 58 93 87 153 87c93 0 145 -44 145 -157zM214 -188l26 63
c-18 5 -31 19 -31 40c0 29 21 51 51 51s51 -22 51 -51c0 -21 -11 -47 -39 -100c-6 -10 -13 -15 -24 -15c-12 0 -25 4 -34 12z" />
    <glyph glyph-name="eng" unicode="&#x14b;" horiz-adv-x="513" 
d="M158 422c43 58 93 87 153 87c93 0 145 -44 145 -157v-366c0 -129 -45 -179 -78 -179c-32 0 -59 18 -72 35c28 41 41 71 41 126v369c0 57 -26 85 -70 85c-35 0 -65 -20 -108 -78v-324c0 -11 -8 -20 -56 -20c-47 0 -54 9 -54 20v460c0 12 7 20 50 20s49 -8 49 -20v-58z" />
    <glyph glyph-name="ntilde" unicode="&#xf1;" horiz-adv-x="513" 
d="M103 585c0 90 41 120 90 120c61 0 90 -68 128 -68c23 0 35 15 38 64h29c14 0 22 -8 22 -24c0 -92 -41 -120 -90 -120c-63 0 -91 69 -129 69c-23 0 -34 -17 -37 -65h-29c-14 0 -22 9 -22 24zM456 20v332c0 113 -52 157 -145 157c-60 0 -110 -29 -153 -87v58
c0 12 -6 20 -49 20s-50 -8 -50 -20v-460c0 -11 7 -20 54 -20c48 0 56 9 56 20v324c43 58 73 78 108 78c44 0 70 -28 70 -85v-317c0 -11 7 -20 54 -20c48 0 55 9 55 20z" />
    <glyph glyph-name="o" unicode="o" horiz-adv-x="503" 
d="M252 76c64 0 105 48 105 172c0 127 -42 175 -105 175s-106 -48 -106 -175c0 -124 43 -172 106 -172zM466 250c0 -165 -83 -261 -214 -261c-129 0 -215 96 -215 261c0 166 86 259 215 259c131 0 214 -93 214 -259z" />
    <glyph glyph-name="oacute" unicode="&#xf3;" horiz-adv-x="503" 
d="M255 682c6 14 18 25 45 25c48 0 58 -9 59 -9l-59 -121c-7 -14 -18 -21 -41 -21c-28 0 -43 4 -55 11zM252 76c64 0 105 48 105 172c0 127 -42 175 -105 175s-106 -48 -106 -175c0 -124 43 -172 106 -172zM466 250c0 -165 -83 -261 -214 -261c-129 0 -215 96 -215 261
c0 166 86 259 215 259c131 0 214 -93 214 -259z" />
    <glyph glyph-name="obreve" unicode="&#x14f;" horiz-adv-x="503" 
d="M252 76c64 0 105 48 105 172c0 127 -42 175 -105 175s-106 -48 -106 -175c0 -124 43 -172 106 -172zM466 250c0 -165 -83 -261 -214 -261c-129 0 -215 96 -215 261c0 166 86 259 215 259c131 0 214 -93 214 -259zM327 720c7 2 17 3 35 3c33 0 42 -5 42 -14v-14
c0 -79 -46 -139 -152 -139c-104 0 -152 60 -152 139v14c0 9 9 14 42 14c18 0 28 -1 35 -3v-27c0 -39 22 -68 75 -68c54 0 75 29 75 68v27z" />
    <glyph glyph-name="ocircumflex" unicode="&#xf4;" horiz-adv-x="503" 
d="M207 703c0 0 23 4 47 4c27 0 41 -4 50 -17l68 -99c5 -7 7 -13 7 -18c0 -9 -5 -17 -36 -17h-44l-49 101l-44 -88c-4 -10 -14 -16 -39 -16c-23 0 -39 6 -48 15zM252 76c64 0 105 48 105 172c0 127 -42 175 -105 175s-106 -48 -106 -175c0 -124 43 -172 106 -172zM466 250
c0 -165 -83 -261 -214 -261c-129 0 -215 96 -215 261c0 166 86 259 215 259c131 0 214 -93 214 -259z" />
    <glyph glyph-name="odieresis" unicode="&#xf6;" horiz-adv-x="503" 
d="M164 671c31 0 57 -26 57 -58c0 -30 -26 -56 -57 -56s-57 26 -57 56c0 32 26 58 57 58zM339 671c32 0 58 -26 58 -58c0 -30 -26 -56 -58 -56c-30 0 -56 26 -56 56c0 32 26 58 56 58zM252 76c64 0 105 48 105 172c0 127 -42 175 -105 175s-106 -48 -106 -175
c0 -124 43 -172 106 -172zM466 250c0 -165 -83 -261 -214 -261c-129 0 -215 96 -215 261c0 166 86 259 215 259c131 0 214 -93 214 -259z" />
    <glyph glyph-name="ograve" unicode="&#xf2;" horiz-adv-x="503" 
d="M140 698c1 0 11 9 59 9c26 0 39 -11 45 -25l50 -115c-11 -7 -26 -11 -54 -11c-23 0 -34 7 -42 21zM252 76c64 0 105 48 105 172c0 127 -42 175 -105 175s-106 -48 -106 -175c0 -124 43 -172 106 -172zM466 250c0 -165 -83 -261 -214 -261c-129 0 -215 96 -215 261
c0 166 86 259 215 259c131 0 214 -93 214 -259z" />
    <glyph glyph-name="ohungarumlaut" unicode="&#x151;" horiz-adv-x="503" 
d="M338 682c6 14 18 25 45 25c48 0 58 -9 59 -9l-59 -121c-7 -14 -18 -21 -41 -21c-28 0 -43 4 -55 11zM167 682c6 14 19 25 46 25c41 0 57 -9 58 -9l-58 -121c-8 -14 -19 -21 -41 -21c-28 0 -43 4 -56 11zM252 76c64 0 105 48 105 172c0 127 -42 175 -105 175
s-106 -48 -106 -175c0 -124 43 -172 106 -172zM466 250c0 -165 -83 -261 -214 -261c-129 0 -215 96 -215 261c0 166 86 259 215 259c131 0 214 -93 214 -259z" />
    <glyph glyph-name="omacron" unicode="&#x14d;" horiz-adv-x="503" 
d="M348 557h-220c-3 9 -6 27 -6 37c0 38 8 47 32 47h221c2 -9 5 -27 5 -38c0 -37 -8 -46 -32 -46zM252 76c64 0 105 48 105 172c0 127 -42 175 -105 175s-106 -48 -106 -175c0 -124 43 -172 106 -172zM466 250c0 -165 -83 -261 -214 -261c-129 0 -215 96 -215 261
c0 166 86 259 215 259c131 0 214 -93 214 -259z" />
    <glyph glyph-name="oslash" unicode="&#xf8;" horiz-adv-x="503" 
d="M37 250c0 166 86 259 215 259c39 0 74 -8 103 -24l38 66c9 16 18 22 29 22c17 0 29 -10 43 -26l-59 -103c38 -44 60 -110 60 -194c0 -165 -83 -261 -214 -261c-35 0 -66 7 -94 20l-43 -76c-9 -16 -18 -22 -29 -22c-17 0 -29 10 -43 26l63 110c-44 44 -69 113 -69 203z
M146 248c0 -44 5 -78 15 -104l148 260c-16 13 -35 19 -57 19c-63 0 -106 -48 -106 -175zM357 248c0 37 -4 67 -10 92l-144 -252c14 -8 31 -12 49 -12c64 0 105 48 105 172z" />
    <glyph glyph-name="oslashacute" unicode="&#x1ff;" horiz-adv-x="503" 
d="M37 250c0 166 86 259 215 259c39 0 74 -8 103 -24l38 66c9 16 18 22 29 22c17 0 29 -10 43 -26l-59 -103c38 -44 60 -110 60 -194c0 -165 -83 -261 -214 -261c-35 0 -66 7 -94 20l-43 -76c-9 -16 -18 -22 -29 -22c-17 0 -29 10 -43 26l63 110c-44 44 -69 113 -69 203z
M146 248c0 -44 5 -78 15 -104l148 260c-16 13 -35 19 -57 19c-63 0 -106 -48 -106 -175zM357 248c0 37 -4 67 -10 92l-144 -252c14 -8 31 -12 49 -12c64 0 105 48 105 172zM250 682c6 14 18 25 45 25c48 0 58 -9 59 -9l-59 -121c-7 -14 -18 -21 -41 -21c-28 0 -43 4 -55 11z
" />
    <glyph glyph-name="otilde" unicode="&#xf5;" horiz-adv-x="503" 
d="M252 76c64 0 105 48 105 172c0 127 -42 175 -105 175s-106 -48 -106 -175c0 -124 43 -172 106 -172zM466 250c0 -165 -83 -261 -214 -261c-129 0 -215 96 -215 261c0 166 86 259 215 259c131 0 214 -93 214 -259zM98 580c0 90 41 120 90 120c61 0 90 -68 128 -68
c23 0 35 15 38 64h29c14 0 22 -8 22 -24c0 -92 -41 -120 -90 -120c-63 0 -91 69 -129 69c-23 0 -34 -17 -37 -65h-29c-14 0 -22 9 -22 24z" />
    <glyph glyph-name="oe" unicode="&#x153;" horiz-adv-x="788" 
d="M720 50c0 -35 -49 -60 -140 -60c-80 0 -138 28 -172 86c-33 -57 -88 -86 -156 -86c-129 0 -215 95 -215 260c0 166 86 259 215 259c73 0 127 -28 158 -84c35 59 87 84 159 84c119 0 182 -77 182 -232v-50h-282c2 -107 43 -151 123 -151c70 0 107 23 107 23
c12 -9 21 -26 21 -49zM252 76c62 0 107 47 107 172c0 128 -45 175 -107 175c-63 0 -106 -48 -106 -175c0 -124 43 -172 106 -172zM566 422c-55 0 -90 -44 -96 -127h182c0 91 -34 127 -86 127z" />
    <glyph glyph-name="p" unicode="p" horiz-adv-x="509" 
d="M158 442c29 39 73 67 131 67c109 0 182 -80 182 -254c0 -166 -76 -265 -214 -265c-33 0 -66 12 -88 30v-193c0 -12 -7 -20 -55 -20c-47 0 -54 8 -54 20v653c0 12 7 20 50 20c42 0 48 -8 48 -20v-38zM358 245c0 135 -44 177 -101 177c-28 0 -56 -16 -88 -53v-260
c22 -24 48 -36 81 -36c60 0 108 44 108 172z" />
    <glyph glyph-name="thorn" unicode="&#xfe;" horiz-adv-x="509" 
d="M114 651c49 0 56 -8 56 -20v-181c24 31 66 59 120 59c109 0 182 -80 182 -254c0 -166 -73 -265 -218 -265c-45 0 -73 20 -84 24v-187c0 -12 -7 -20 -56 -20c-47 0 -53 8 -53 20v804c0 12 6 20 53 20zM170 98c9 -6 31 -29 76 -29c67 0 113 45 113 176
c0 132 -43 177 -105 177c-41 0 -71 -30 -84 -45v-279z" />
    <glyph glyph-name="q" unicode="q" horiz-adv-x="509" 
d="M340 41c-31 -32 -70 -51 -117 -51c-110 0 -185 78 -185 253c0 166 76 266 214 266c54 0 90 -23 109 -45l14 42h20c47 0 54 -8 54 -20v-659c0 -12 -7 -20 -54 -20c-48 0 -55 8 -55 20v214zM340 384c-22 24 -44 38 -81 38c-66 0 -109 -49 -109 -176
c0 -132 48 -169 102 -169c31 0 57 16 88 51v256z" />
    <glyph glyph-name="r" unicode="r" horiz-adv-x="346" 
d="M163 421c34 57 71 81 119 81c18 0 41 -2 46 -2c0 0 4 -17 4 -36c0 -39 -10 -50 -28 -50c-6 0 -13 1 -23 1c-37 0 -70 -18 -112 -81v-314c0 -11 -8 -20 -56 -20c-47 0 -54 9 -54 20v460c0 12 7 20 52 20c46 0 52 -8 52 -20v-59z" />
    <glyph glyph-name="racute" unicode="&#x155;" horiz-adv-x="346" 
d="M174 682c6 14 18 25 45 25c48 0 58 -9 59 -9l-59 -121c-7 -14 -18 -21 -41 -21c-28 0 -43 4 -55 11zM163 421c34 57 71 81 119 81c18 0 41 -2 46 -2c0 0 4 -17 4 -36c0 -39 -10 -50 -28 -50c-6 0 -13 1 -23 1c-37 0 -70 -18 -112 -81v-314c0 -11 -8 -20 -56 -20
c-47 0 -54 9 -54 20v460c0 12 7 20 52 20c46 0 52 -8 52 -20v-59z" />
    <glyph glyph-name="rcaron" unicode="&#x159;" horiz-adv-x="346" 
d="M38 695c8 9 24 15 47 15c26 0 35 -5 40 -15l44 -88l49 100h43c31 0 37 -8 37 -17c0 -5 -3 -11 -8 -18l-67 -99c-9 -12 -24 -17 -51 -17c-23 0 -47 5 -47 5zM163 421c34 57 71 81 119 81c18 0 41 -2 46 -2c0 0 4 -17 4 -36c0 -39 -10 -50 -28 -50c-6 0 -13 1 -23 1
c-37 0 -70 -18 -112 -81v-314c0 -11 -8 -20 -56 -20c-47 0 -54 9 -54 20v460c0 12 7 20 52 20c46 0 52 -8 52 -20v-59z" />
    <glyph glyph-name="rcommaaccent" unicode="&#x157;" horiz-adv-x="346" 
d="M163 421c34 57 71 81 119 81c18 0 41 -2 46 -2c0 0 4 -17 4 -36c0 -39 -10 -50 -28 -50c-6 0 -13 1 -23 1c-37 0 -70 -18 -112 -81v-314c0 -11 -8 -20 -56 -20c-47 0 -54 9 -54 20v460c0 12 7 20 52 20c46 0 52 -8 52 -20v-59zM66 -188c9 -8 22 -12 34 -12
c11 0 18 5 24 15c28 53 39 79 39 100c0 29 -21 51 -51 51s-51 -22 -51 -51c0 -21 13 -35 31 -40z" />
    <glyph glyph-name="s" unicode="s" horiz-adv-x="409" 
d="M175 73c56 0 79 24 79 61c0 93 -214 60 -214 221c0 93 58 154 185 154c49 0 112 -7 133 -7c3 -9 6 -26 6 -37c0 -34 -10 -47 -36 -47c-21 0 -67 4 -91 4c-52 0 -79 -23 -79 -65c0 -92 214 -45 214 -219c0 -86 -59 -149 -193 -149c-104 0 -137 22 -137 51c0 22 6 40 15 50
c0 0 52 -17 118 -17z" />
    <glyph glyph-name="sacute" unicode="&#x15b;" horiz-adv-x="409" 
d="M198 682c6 14 18 25 45 25c48 0 58 -9 59 -9l-59 -121c-7 -14 -18 -21 -41 -21c-28 0 -43 4 -55 11zM175 73c56 0 79 24 79 61c0 93 -214 60 -214 221c0 93 58 154 185 154c49 0 112 -7 133 -7c3 -9 6 -26 6 -37c0 -34 -10 -47 -36 -47c-21 0 -67 4 -91 4
c-52 0 -79 -23 -79 -65c0 -92 214 -45 214 -219c0 -86 -59 -149 -193 -149c-104 0 -137 22 -137 51c0 22 6 40 15 50c0 0 52 -17 118 -17z" />
    <glyph glyph-name="scaron" unicode="&#x161;" horiz-adv-x="409" 
d="M70 695c8 9 24 15 47 15c26 0 35 -5 40 -15l44 -88l49 100h43c31 0 37 -8 37 -17c0 -5 -3 -11 -8 -18l-67 -99c-9 -12 -24 -17 -51 -17c-23 0 -47 5 -47 5zM175 73c56 0 79 24 79 61c0 93 -214 60 -214 221c0 93 58 154 185 154c49 0 112 -7 133 -7c3 -9 6 -26 6 -37
c0 -34 -10 -47 -36 -47c-21 0 -67 4 -91 4c-52 0 -79 -23 -79 -65c0 -92 214 -45 214 -219c0 -86 -59 -149 -193 -149c-104 0 -137 22 -137 51c0 22 6 40 15 50c0 0 52 -17 118 -17z" />
    <glyph glyph-name="scedilla" unicode="&#x15f;" horiz-adv-x="409" 
d="M162 -12v1c-91 3 -120 23 -120 51c0 22 6 40 15 50c0 0 52 -17 118 -17c56 0 79 24 79 61c0 93 -214 60 -214 221c0 93 58 154 185 154c49 0 112 -7 133 -7c3 -9 6 -26 6 -37c0 -34 -10 -47 -36 -47c-21 0 -67 4 -91 4c-52 0 -79 -23 -79 -65c0 -92 214 -45 214 -219
c0 -79 -49 -138 -159 -147l-14 -31c10 1 22 1 34 1c49 0 78 -19 78 -61c0 -40 -28 -70 -103 -70c-71 0 -95 15 -95 36c0 12 7 20 14 24c0 0 24 -14 70 -14c44 0 55 10 55 24c0 16 -11 24 -44 24h-44c-14 0 -21 11 -21 22z" />
    <glyph glyph-name="scircumflex" unicode="&#x15d;" horiz-adv-x="409" 
d="M157 703c0 0 23 4 47 4c27 0 41 -4 50 -17l68 -99c5 -7 7 -13 7 -18c0 -9 -5 -17 -36 -17h-44l-49 101l-44 -88c-4 -10 -14 -16 -39 -16c-23 0 -39 6 -48 15zM175 73c56 0 79 24 79 61c0 93 -214 60 -214 221c0 93 58 154 185 154c49 0 112 -7 133 -7c3 -9 6 -26 6 -37
c0 -34 -10 -47 -36 -47c-21 0 -67 4 -91 4c-52 0 -79 -23 -79 -65c0 -92 214 -45 214 -219c0 -86 -59 -149 -193 -149c-104 0 -137 22 -137 51c0 22 6 40 15 50c0 0 52 -17 118 -17z" />
    <glyph glyph-name="scommaaccent" unicode="&#x219;" horiz-adv-x="409" 
d="M175 73c56 0 79 24 79 61c0 93 -214 60 -214 221c0 93 58 154 185 154c49 0 112 -7 133 -7c3 -9 6 -26 6 -37c0 -34 -10 -47 -36 -47c-21 0 -67 4 -91 4c-52 0 -79 -23 -79 -65c0 -92 214 -45 214 -219c0 -86 -59 -149 -193 -149c-104 0 -137 22 -137 51c0 22 6 40 15 50
c0 0 52 -17 118 -17zM162 -188c9 -8 22 -12 34 -12c11 0 18 5 24 15c28 53 39 79 39 100c0 29 -21 51 -51 51s-51 -22 -51 -51c0 -21 13 -35 31 -40z" />
    <glyph glyph-name="germandbls" unicode="&#xdf;" horiz-adv-x="557" 
d="M346 70c51 0 78 22 78 66c0 82 -153 80 -153 202c0 92 95 125 95 196c0 60 -33 95 -96 95s-101 -34 -101 -129v-480c0 -11 -7 -20 -56 -20c-47 0 -53 9 -53 20v504c0 128 67 192 213 192c134 0 207 -69 207 -175s-97 -130 -97 -197s150 -63 150 -205
c0 -95 -57 -149 -175 -149c-80 0 -117 21 -117 50c0 21 10 39 22 48c16 -5 47 -18 83 -18z" />
    <glyph glyph-name="longs" unicode="&#x17f;" horiz-adv-x="287" 
d="M207 20c0 -11 -7 -20 -55 -20c-47 0 -54 9 -54 20v399h-75c-3 8 -5 25 -5 37c0 35 7 44 29 44h51v88c0 82 39 129 136 129c23 0 79 -3 88 -3c3 -8 6 -26 6 -38c0 -33 -4 -46 -30 -46c-15 0 -30 2 -47 2c-26 0 -44 -14 -44 -43v-569z" />
    <glyph glyph-name="t" unicode="t" horiz-adv-x="357" 
d="M211 604v-104h118c2 -8 5 -25 5 -37c0 -35 -9 -44 -29 -44h-94v-293c0 -34 15 -47 56 -47c23 0 49 6 58 9c8 -12 13 -27 13 -46c0 -32 -24 -49 -102 -49c-100 0 -135 45 -135 120v306h-76c-2 8 -5 25 -5 37c0 35 9 44 29 44h52v104c0 12 7 20 54 20c48 0 56 -8 56 -20z
" />
    <glyph glyph-name="tbar" unicode="&#x167;" horiz-adv-x="360" 
d="M103 604c0 12 7 20 54 20c48 0 56 -8 56 -20v-104h111c3 -8 5 -25 5 -37c0 -35 -8 -44 -29 -44h-87v-98h106c2 -5 4 -18 4 -26c0 -23 -5 -30 -20 -30h-90v-139c0 -34 17 -51 59 -51c26 0 47 7 57 9c6 -11 11 -23 11 -44c0 -32 -25 -47 -99 -47c-100 0 -138 50 -138 126
v146h-76c-2 6 -4 17 -4 26c0 24 6 30 21 30h59v98h-76c-2 8 -5 25 -5 37c0 35 9 44 29 44h52v104z" />
    <glyph glyph-name="tcaron" unicode="&#x165;" horiz-adv-x="357" 
d="M270 655c0 30 20 51 50 51c31 0 52 -21 52 -51c0 -21 -12 -47 -40 -100c-6 -9 -13 -15 -23 -15c-13 0 -26 5 -34 13l26 62c-18 5 -31 19 -31 40zM211 604c0 12 -8 20 -56 20c-47 0 -54 -8 -54 -20v-104h-52c-20 0 -29 -9 -29 -44c0 -12 3 -29 5 -37h76v-306
c0 -75 35 -120 135 -120c78 0 102 17 102 49c0 19 -5 34 -13 46c-9 -3 -35 -9 -58 -9c-41 0 -56 13 -56 47v293h94c20 0 29 9 29 44c0 12 -3 29 -5 37h-118v104z" />
    <glyph glyph-name="tcedilla" horiz-adv-x="357" 
d="M211 604v-104h118c2 -8 5 -25 5 -37c0 -35 -9 -44 -29 -44h-94v-293c0 -34 15 -47 56 -47c23 0 49 6 58 9c8 -12 13 -27 13 -46c0 -31 -23 -48 -95 -49l-15 -33c9 1 21 1 34 1c48 0 77 -19 77 -61c0 -40 -28 -70 -103 -70c-70 0 -95 15 -95 36c0 12 7 20 14 24
c0 0 24 -14 71 -14c43 0 54 10 54 24c0 16 -11 24 -43 24h-44c-15 0 -22 11 -22 22l19 42l4 8c-68 11 -93 53 -93 117v306h-76c-2 8 -5 25 -5 37c0 35 9 44 29 44h52v104c0 12 7 20 54 20c48 0 56 -8 56 -20z" />
    <glyph glyph-name="tcommaaccent" unicode="&#x163;" horiz-adv-x="357" 
d="M211 604v-104h118c2 -8 5 -25 5 -37c0 -35 -9 -44 -29 -44h-94v-293c0 -34 15 -47 56 -47c23 0 49 6 58 9c8 -12 13 -27 13 -46c0 -32 -24 -49 -102 -49c-100 0 -135 45 -135 120v306h-76c-2 8 -5 25 -5 37c0 35 9 44 29 44h52v104c0 12 7 20 54 20c48 0 56 -8 56 -20z
M136 -188l26 63c-18 5 -31 19 -31 40c0 29 21 51 51 51s51 -22 51 -51c0 -21 -11 -47 -39 -100c-6 -10 -13 -15 -24 -15c-12 0 -25 4 -34 12z" />
    <glyph glyph-name="u" unicode="u" horiz-adv-x="498" 
d="M440 480v-460c0 -11 -7 -20 -51 -20c-42 0 -48 9 -48 20v40c-41 -49 -83 -70 -148 -70c-83 0 -135 42 -135 148v342c0 12 7 20 56 20c47 0 53 -8 53 -20v-327c0 -49 21 -73 62 -73c33 0 65 15 101 54v346c0 12 8 20 55 20c48 0 55 -8 55 -20z" />
    <glyph glyph-name="uacute" unicode="&#xfa;" horiz-adv-x="498" 
d="M249 682c6 14 18 25 45 25c48 0 58 -9 59 -9l-59 -121c-7 -14 -18 -21 -41 -21c-28 0 -43 4 -55 11zM440 480c0 12 -7 20 -55 20c-47 0 -55 -8 -55 -20v-346c-36 -39 -68 -54 -101 -54c-41 0 -62 24 -62 73v327c0 12 -6 20 -53 20c-49 0 -56 -8 -56 -20v-342
c0 -106 52 -148 135 -148c65 0 107 21 148 70v-40c0 -11 6 -20 48 -20c44 0 51 9 51 20v460z" />
    <glyph glyph-name="ubreve" unicode="&#x16d;" horiz-adv-x="498" 
d="M440 480c0 12 -7 20 -55 20c-47 0 -55 -8 -55 -20v-346c-36 -39 -68 -54 -101 -54c-41 0 -62 24 -62 73v327c0 12 -6 20 -53 20c-49 0 -56 -8 -56 -20v-342c0 -106 52 -148 135 -148c65 0 107 21 148 70v-40c0 -11 6 -20 48 -20c44 0 51 9 51 20v460zM325 720
c7 2 17 3 35 3c33 0 42 -5 42 -14v-14c0 -79 -46 -139 -152 -139c-104 0 -152 60 -152 139v14c0 9 9 14 42 14c18 0 28 -1 35 -3v-27c0 -39 22 -68 75 -68c54 0 75 29 75 68v27z" />
    <glyph glyph-name="ucircumflex" unicode="&#xfb;" horiz-adv-x="498" 
d="M204 703c0 0 23 4 47 4c27 0 41 -4 50 -17l68 -99c5 -7 7 -13 7 -18c0 -9 -5 -17 -36 -17h-44l-49 101l-44 -88c-4 -10 -14 -16 -39 -16c-23 0 -39 6 -48 15zM440 480c0 12 -7 20 -55 20c-47 0 -55 -8 -55 -20v-346c-36 -39 -68 -54 -101 -54c-41 0 -62 24 -62 73v327
c0 12 -6 20 -53 20c-49 0 -56 -8 -56 -20v-342c0 -106 52 -148 135 -148c65 0 107 21 148 70v-40c0 -11 6 -20 48 -20c44 0 51 9 51 20v460z" />
    <glyph glyph-name="udieresis" unicode="&#xfc;" horiz-adv-x="498" 
d="M161 671c31 0 57 -26 57 -58c0 -30 -26 -56 -57 -56s-57 26 -57 56c0 32 26 58 57 58zM336 671c32 0 58 -26 58 -58c0 -30 -26 -56 -58 -56c-30 0 -56 26 -56 56c0 32 26 58 56 58zM440 480c0 12 -7 20 -55 20c-47 0 -55 -8 -55 -20v-346c-36 -39 -68 -54 -101 -54
c-41 0 -62 24 -62 73v327c0 12 -6 20 -53 20c-49 0 -56 -8 -56 -20v-342c0 -106 52 -148 135 -148c65 0 107 21 148 70v-40c0 -11 6 -20 48 -20c44 0 51 9 51 20v460z" />
    <glyph glyph-name="ugrave" unicode="&#xf9;" horiz-adv-x="498" 
d="M440 480c0 12 -7 20 -55 20c-47 0 -55 -8 -55 -20v-346c-36 -39 -68 -54 -101 -54c-41 0 -62 24 -62 73v327c0 12 -6 20 -53 20c-49 0 -56 -8 -56 -20v-342c0 -106 52 -148 135 -148c65 0 107 21 148 70v-40c0 -11 6 -20 48 -20c44 0 51 9 51 20v460zM138 698
c1 0 11 9 59 9c26 0 39 -11 45 -25l50 -115c-11 -7 -26 -11 -54 -11c-23 0 -34 7 -42 21z" />
    <glyph glyph-name="uhungarumlaut" unicode="&#x171;" horiz-adv-x="498" 
d="M440 480c0 12 -7 20 -55 20c-47 0 -55 -8 -55 -20v-346c-36 -39 -68 -54 -101 -54c-41 0 -62 24 -62 73v327c0 12 -6 20 -53 20c-49 0 -56 -8 -56 -20v-342c0 -106 52 -148 135 -148c65 0 107 21 148 70v-40c0 -11 6 -20 48 -20c44 0 51 9 51 20v460zM339 682
c6 14 18 25 45 25c48 0 58 -9 59 -9l-59 -121c-7 -14 -18 -21 -41 -21c-28 0 -43 4 -55 11zM168 682c6 14 19 25 46 25c41 0 57 -9 58 -9l-58 -121c-8 -14 -19 -21 -41 -21c-28 0 -43 4 -56 11z" />
    <glyph glyph-name="umacron" unicode="&#x16b;" horiz-adv-x="498" 
d="M348 557h-220c-3 9 -6 27 -6 37c0 38 8 47 32 47h221c2 -9 5 -27 5 -38c0 -37 -8 -46 -32 -46zM440 480v-460c0 -11 -7 -20 -51 -20c-42 0 -48 9 -48 20v40c-41 -49 -83 -70 -148 -70c-83 0 -135 42 -135 148v342c0 12 7 20 56 20c47 0 53 -8 53 -20v-327
c0 -49 21 -73 62 -73c33 0 65 15 101 54v346c0 12 8 20 55 20c48 0 55 -8 55 -20z" />
    <glyph glyph-name="uni021B" unicode="&#x21b;" horiz-adv-x="357" 
d="M211 604v-104h118c2 -8 5 -25 5 -37c0 -35 -9 -44 -29 -44h-94v-293c0 -34 15 -47 56 -47c23 0 49 6 58 9c8 -12 13 -27 13 -46c0 -32 -24 -49 -102 -49c-100 0 -135 45 -135 120v306h-76c-2 8 -5 25 -5 37c0 35 9 44 29 44h52v104c0 12 7 20 54 20c48 0 56 -8 56 -20z
M136 -188l26 63c-18 5 -31 19 -31 40c0 29 21 51 51 51s51 -22 51 -51c0 -21 -11 -47 -39 -100c-6 -10 -13 -15 -24 -15c-12 0 -25 4 -34 12z" />
    <glyph glyph-name="uogonek" unicode="&#x173;" horiz-adv-x="498" 
d="M440 480v-460c0 -11 -7 -20 -51 -20h-3c-16 -24 -27 -48 -27 -70s14 -41 57 -41c34 0 48 9 59 13c6 -4 13 -16 13 -29c0 -25 -27 -35 -86 -35c-77 0 -108 38 -108 83c0 44 22 80 48 91c-1 2 -1 5 -1 8v40c-41 -49 -83 -70 -148 -70c-83 0 -135 42 -135 148v342
c0 12 7 20 56 20c47 0 53 -8 53 -20v-327c0 -49 21 -73 62 -73c33 0 65 15 101 54v346c0 12 8 20 55 20c48 0 55 -8 55 -20z" />
    <glyph glyph-name="uring" unicode="&#x16f;" horiz-adv-x="498" 
d="M341 640c0 -59 -40 -95 -92 -95c-51 0 -92 36 -92 95c0 61 41 96 92 96c52 0 92 -35 92 -96zM217 640c0 -25 12 -40 32 -40s33 15 33 40c0 28 -13 40 -33 40s-32 -12 -32 -40zM440 480v-460c0 -11 -7 -20 -51 -20c-42 0 -48 9 -48 20v40c-41 -49 -83 -70 -148 -70
c-83 0 -135 42 -135 148v342c0 12 7 20 56 20c47 0 53 -8 53 -20v-327c0 -49 21 -73 62 -73c33 0 65 15 101 54v346c0 12 8 20 55 20c48 0 55 -8 55 -20z" />
    <glyph glyph-name="utilde" unicode="&#x169;" horiz-adv-x="498" 
d="M440 480c0 12 -7 20 -55 20c-47 0 -55 -8 -55 -20v-346c-36 -39 -68 -54 -101 -54c-41 0 -62 24 -62 73v327c0 12 -6 20 -53 20c-49 0 -56 -8 -56 -20v-342c0 -106 52 -148 135 -148c65 0 107 21 148 70v-40c0 -11 6 -20 48 -20c44 0 51 9 51 20v460zM96 580
c0 90 41 120 90 120c61 0 90 -68 128 -68c23 0 35 15 38 64h29c14 0 22 -8 22 -24c0 -92 -41 -120 -90 -120c-63 0 -91 69 -129 69c-23 0 -34 -17 -37 -65h-29c-14 0 -22 9 -22 24z" />
    <glyph glyph-name="v" unicode="v" horiz-adv-x="450" 
d="M228 87l98 413h52c33 0 44 -8 44 -28c0 -12 -4 -32 -13 -66l-100 -356c-9 -30 -23 -50 -63 -50h-89l-136 488c18 10 46 14 68 14c25 0 43 -9 48 -34z" />
    <glyph glyph-name="w" unicode="w" horiz-adv-x="699" 
d="M29 491c19 7 41 11 64 11c24 0 41 -9 45 -34l63 -383l88 380c17 5 37 7 65 7c44 0 57 -12 62 -38l82 -349l75 415h50c33 0 45 -7 45 -27c0 -10 -6 -35 -13 -71l-76 -347c-7 -31 -19 -55 -76 -55h-74l-81 359l-73 -308c-7 -35 -20 -51 -72 -51h-75z" />
    <glyph glyph-name="wacute" unicode="&#x1e83;" horiz-adv-x="699" 
d="M354 659c6 14 18 25 45 25c48 0 58 -9 59 -9l-59 -121c-7 -14 -18 -21 -41 -21c-28 0 -43 4 -55 11zM29 491c19 7 41 11 64 11c24 0 41 -9 45 -34l63 -383l88 380c17 5 37 7 65 7c44 0 57 -12 62 -38l82 -349l75 415h50c33 0 45 -7 45 -27c0 -10 -6 -35 -13 -71l-76 -347
c-7 -31 -19 -55 -76 -55h-74l-81 359l-73 -308c-7 -35 -20 -51 -72 -51h-75z" />
    <glyph glyph-name="wcircumflex" unicode="&#x175;" horiz-adv-x="699" 
d="M303 691c0 0 23 4 47 4c27 0 41 -4 50 -17l68 -99c5 -7 7 -13 7 -18c0 -9 -5 -17 -36 -17h-44l-49 101l-44 -88c-4 -10 -14 -16 -39 -16c-23 0 -39 6 -48 15zM29 491c19 7 41 11 64 11c24 0 41 -9 45 -34l63 -383l88 380c17 5 37 7 65 7c44 0 57 -12 62 -38l82 -349
l75 415h50c33 0 45 -7 45 -27c0 -10 -6 -35 -13 -71l-76 -347c-7 -31 -19 -55 -76 -55h-74l-81 359l-73 -308c-7 -35 -20 -51 -72 -51h-75z" />
    <glyph glyph-name="wdieresis" unicode="&#x1e85;" horiz-adv-x="699" 
d="M261 671c31 0 57 -26 57 -58c0 -30 -26 -56 -57 -56s-57 26 -57 56c0 32 26 58 57 58zM436 671c32 0 58 -26 58 -58c0 -30 -26 -56 -58 -56c-30 0 -56 26 -56 56c0 32 26 58 56 58zM29 491c19 7 41 11 64 11c24 0 41 -9 45 -34l63 -383l88 380c17 5 37 7 65 7
c44 0 57 -12 62 -38l82 -349l75 415h50c33 0 45 -7 45 -27c0 -10 -6 -35 -13 -71l-76 -347c-7 -31 -19 -55 -76 -55h-74l-81 359l-73 -308c-7 -35 -20 -51 -72 -51h-75z" />
    <glyph glyph-name="wgrave" unicode="&#x1e81;" horiz-adv-x="699" 
d="M237 687c1 0 11 9 59 9c26 0 39 -11 45 -25l50 -115c-11 -7 -26 -11 -54 -11c-23 0 -34 7 -42 21zM29 491c19 7 41 11 64 11c24 0 41 -9 45 -34l63 -383l88 380c17 5 37 7 65 7c44 0 57 -12 62 -38l82 -349l75 415h50c33 0 45 -7 45 -27c0 -10 -6 -35 -13 -71l-76 -347
c-7 -31 -19 -55 -76 -55h-74l-81 359l-73 -308c-7 -35 -20 -51 -72 -51h-75z" />
    <glyph glyph-name="x" unicode="x" horiz-adv-x="430" 
d="M220 300l75 200h75c17 0 24 -7 24 -18c0 -10 -4 -20 -14 -42l-87 -180l105 -206c7 -14 11 -25 11 -33c0 -12 -8 -21 -28 -21h-79l-89 214l-81 -191c-9 -23 -23 -28 -48 -28s-47 4 -64 19l121 247l-114 222c15 10 47 19 74 19c29 0 39 -8 48 -31z" />
    <glyph glyph-name="y" unicode="y" horiz-adv-x="455" 
d="M21 488c19 10 45 14 68 14c24 0 43 -8 49 -34l93 -374l97 406h52c33 0 46 -8 46 -29c0 -10 -4 -30 -12 -56l-158 -570c-8 -28 -22 -38 -44 -38c-29 0 -58 9 -76 21l50 165c-19 6 -31 21 -39 47z" />
    <glyph glyph-name="yacute" unicode="&#xfd;" horiz-adv-x="455" 
d="M21 488c19 10 45 14 68 14c24 0 43 -8 49 -34l93 -374l97 406h52c33 0 46 -8 46 -29c0 -10 -4 -30 -12 -56l-158 -570c-8 -28 -22 -38 -44 -38c-29 0 -58 9 -76 21l50 165c-19 6 -31 21 -39 47zM230 682c6 14 18 25 45 25c48 0 58 -9 59 -9l-59 -121
c-7 -14 -18 -21 -41 -21c-28 0 -43 4 -55 11z" />
    <glyph glyph-name="ycircumflex" unicode="&#x177;" horiz-adv-x="455" 
d="M182 703c0 0 23 4 47 4c27 0 41 -4 50 -17l68 -99c5 -7 7 -13 7 -18c0 -9 -5 -17 -36 -17h-44l-49 101l-44 -88c-4 -10 -14 -16 -39 -16c-23 0 -39 6 -48 15zM21 488c19 10 45 14 68 14c24 0 43 -8 49 -34l93 -374l97 406h52c33 0 46 -8 46 -29c0 -10 -4 -30 -12 -56
l-158 -570c-8 -28 -22 -38 -44 -38c-29 0 -58 9 -76 21l50 165c-19 6 -31 21 -39 47z" />
    <glyph glyph-name="ydieresis" unicode="&#xff;" horiz-adv-x="455" 
d="M139 671c31 0 57 -26 57 -58c0 -30 -26 -56 -57 -56s-57 26 -57 56c0 32 26 58 57 58zM314 671c32 0 58 -26 58 -58c0 -30 -26 -56 -58 -56c-30 0 -56 26 -56 56c0 32 26 58 56 58zM21 488c19 10 45 14 68 14c24 0 43 -8 49 -34l93 -374l97 406h52c33 0 46 -8 46 -29
c0 -10 -4 -30 -12 -56l-158 -570c-8 -28 -22 -38 -44 -38c-29 0 -58 9 -76 21l50 165c-19 6 -31 21 -39 47z" />
    <glyph glyph-name="ygrave" unicode="&#x1ef3;" horiz-adv-x="455" 
d="M21 488c19 10 45 14 68 14c24 0 43 -8 49 -34l93 -374l97 406h52c33 0 46 -8 46 -29c0 -10 -4 -30 -12 -56l-158 -570c-8 -28 -22 -38 -44 -38c-29 0 -58 9 -76 21l50 165c-19 6 -31 21 -39 47zM119 698c1 0 11 9 59 9c26 0 39 -11 45 -25l50 -115
c-11 -7 -26 -11 -54 -11c-23 0 -34 7 -42 21z" />
    <glyph glyph-name="z" unicode="z" horiz-adv-x="405" 
d="M69 500h287c6 -8 12 -27 12 -43c0 -24 -7 -46 -23 -69l-184 -285c-4 -6 -6 -10 -6 -14c0 -5 3 -7 8 -7h206c3 -8 5 -26 5 -37c0 -37 -7 -45 -29 -45h-260c-36 0 -55 23 -55 51c0 25 5 41 23 70l168 260c13 20 16 27 16 33c0 3 -1 5 -1 5h-191s-6 14 -6 37
c0 35 8 44 30 44z" />
    <glyph glyph-name="zacute" unicode="&#x17a;" horiz-adv-x="405" 
d="M203 677c6 14 18 25 45 25c48 0 58 -9 59 -9l-59 -121c-7 -14 -18 -21 -41 -21c-28 0 -43 4 -55 11zM69 500h287c6 -8 12 -27 12 -43c0 -24 -7 -46 -23 -69l-184 -285c-4 -6 -6 -10 -6 -14c0 -5 3 -7 8 -7h206c3 -8 5 -26 5 -37c0 -37 -7 -45 -29 -45h-260
c-36 0 -55 23 -55 51c0 25 5 41 23 70l168 260c13 20 16 27 16 33c0 3 -1 5 -1 5h-191s-6 14 -6 37c0 35 8 44 30 44z" />
    <glyph glyph-name="zcaron" unicode="&#x17e;" horiz-adv-x="405" 
d="M75 695c8 9 24 15 47 15c26 0 35 -5 40 -15l44 -88l49 100h43c31 0 37 -8 37 -17c0 -5 -3 -11 -8 -18l-67 -99c-9 -12 -24 -17 -51 -17c-23 0 -47 5 -47 5zM69 500h287c6 -8 12 -27 12 -43c0 -24 -7 -46 -23 -69l-184 -285c-4 -6 -6 -10 -6 -14c0 -5 3 -7 8 -7h206
c3 -8 5 -26 5 -37c0 -37 -7 -45 -29 -45h-260c-36 0 -55 23 -55 51c0 25 5 41 23 70l168 260c13 20 16 27 16 33c0 3 -1 5 -1 5h-191s-6 14 -6 37c0 35 8 44 30 44z" />
    <glyph glyph-name="zdotaccent" unicode="&#x17c;" horiz-adv-x="405" 
d="M69 500h287c6 -8 12 -27 12 -43c0 -24 -7 -46 -23 -69l-184 -285c-4 -6 -6 -10 -6 -14c0 -5 3 -7 8 -7h206c3 -8 5 -26 5 -37c0 -37 -7 -45 -29 -45h-260c-36 0 -55 23 -55 51c0 25 5 41 23 70l168 260c13 20 16 27 16 33c0 3 -1 5 -1 5h-191s-6 14 -6 37
c0 35 8 44 30 44zM202 684c35 0 64 -29 64 -64c0 -34 -29 -63 -64 -63c-34 0 -63 29 -63 63c0 35 29 64 63 64z" />
    <glyph glyph-name="fi" unicode="&#xfb01;" horiz-adv-x="582" 
d="M23 419c-3 8 -5 25 -5 37c0 35 7 44 29 44h51v88c0 82 39 129 136 129c23 0 79 -3 88 -3c3 -8 6 -26 6 -38c0 -33 -4 -46 -30 -46c-15 0 -30 2 -47 2c-26 0 -44 -14 -44 -43v-89h262c48 0 55 -8 55 -20v-460c0 -11 -7 -20 -55 -20s-54 9 -54 20v399h-208v-399
c0 -11 -7 -20 -55 -20c-47 0 -54 9 -54 20v399h-75zM406 660c0 35 28 64 63 64s64 -29 64 -64c0 -34 -29 -63 -64 -63s-63 29 -63 63z" />
    <glyph glyph-name="fl" unicode="&#xfb02;" horiz-adv-x="599" 
d="M98 588c0 82 39 129 136 129c23 0 79 -3 88 -3c3 -8 6 -26 6 -38c0 -33 -4 -46 -30 -46c-15 0 -30 2 -47 2c-26 0 -44 -14 -44 -43v-89h107c3 -8 5 -25 5 -37c0 -35 -8 -44 -29 -44h-83v-399c0 -11 -7 -20 -55 -20c-47 0 -54 9 -54 20v399h-75c-3 8 -5 25 -5 37
c0 35 7 44 29 44h51v88zM410 698c0 12 6 20 54 20s55 -8 55 -20v-589c0 -22 8 -32 29 -32c13 0 24 3 24 3c2 -1 7 -15 7 -46c0 -25 -23 -40 -71 -40c-78 0 -98 34 -98 103v601z" />
    <glyph glyph-name="A.alt" 
d="M483 0h-77l-30 105h-231l-22 -79c-5 -22 -16 -31 -46 -31c-25 0 -55 7 -69 18l194 626c18 7 39 12 64 12c48 0 62 -9 69 -30l176 -560c5 -19 7 -27 7 -35c0 -17 -10 -26 -35 -26zM262 515l-95 -333h188z" />
    <glyph glyph-name="Aacute.alt" 
d="M406 0h77c25 0 35 9 35 26c0 8 -2 16 -7 35l-176 560c-7 21 -21 30 -69 30c-25 0 -46 -5 -64 -12l-194 -626c14 -11 44 -18 69 -18c30 0 41 9 46 31l22 79h231zM167 182l95 333l93 -333h-188zM271 812c6 14 18 25 45 25c48 0 58 -9 59 -9l-59 -121
c-7 -14 -18 -21 -41 -21c-28 0 -43 4 -55 11z" />
    <glyph glyph-name="Abreve.alt" 
d="M406 0h77c25 0 35 9 35 26c0 8 -2 16 -7 35l-176 560c-7 21 -21 30 -69 30c-25 0 -46 -5 -64 -12l-194 -626c14 -11 44 -18 69 -18c30 0 41 9 46 31l22 79h231zM167 182l95 333l93 -333h-188zM340 850c7 2 17 3 35 3c33 0 42 -5 42 -14v-14c0 -79 -46 -139 -152 -139
c-104 0 -152 60 -152 139v14c0 9 9 14 42 14c18 0 28 -1 35 -3v-27c0 -39 22 -68 75 -68c54 0 75 29 75 68v27z" />
    <glyph glyph-name="Acircumflex.alt" 
d="M406 0h77c25 0 35 9 35 26c0 8 -2 16 -7 35l-176 560c-7 21 -21 30 -69 30c-25 0 -46 -5 -64 -12l-194 -626c14 -11 44 -18 69 -18c30 0 41 9 46 31l22 79h231zM167 182l95 333l93 -333h-188zM219 833c0 0 23 4 47 4c27 0 41 -4 50 -17l68 -99c5 -7 7 -13 7 -18
c0 -9 -5 -17 -36 -17h-44l-49 101l-44 -88c-4 -10 -14 -16 -39 -16c-23 0 -39 6 -48 15z" />
    <glyph glyph-name="Adieresis.alt" 
d="M406 0h77c25 0 35 9 35 26c0 8 -2 16 -7 35l-176 560c-7 21 -21 30 -69 30c-25 0 -46 -5 -64 -12l-194 -626c14 -11 44 -18 69 -18c30 0 41 9 46 31l22 79h231zM167 182l95 333l93 -333h-188zM178 801c31 0 57 -26 57 -58c0 -30 -26 -56 -57 -56s-57 26 -57 56
c0 32 26 58 57 58zM353 801c32 0 58 -26 58 -58c0 -30 -26 -56 -58 -56c-30 0 -56 26 -56 56c0 32 26 58 56 58z" />
    <glyph glyph-name="Agrave.alt" 
d="M406 0h77c25 0 35 9 35 26c0 8 -2 16 -7 35l-176 560c-7 21 -21 30 -69 30c-25 0 -46 -5 -64 -12l-194 -626c14 -11 44 -18 69 -18c30 0 41 9 46 31l22 79h231zM167 182l95 333l93 -333h-188zM150 828c1 0 11 9 59 9c26 0 39 -11 45 -25l50 -115c-11 -7 -26 -11 -54 -11
c-23 0 -34 7 -42 21z" />
    <glyph glyph-name="Amacron.alt" 
d="M483 0h-77l-30 105h-231l-22 -79c-5 -22 -16 -31 -46 -31c-25 0 -55 7 -69 18l194 626c18 7 39 12 64 12c48 0 62 -9 69 -30l176 -560c5 -19 7 -27 7 -35c0 -17 -10 -26 -35 -26zM262 515l-95 -333h188zM362 686h-220c-3 9 -6 27 -6 37c0 38 8 47 32 47h221
c2 -9 5 -27 5 -38c0 -37 -8 -46 -32 -46z" />
    <glyph glyph-name="Aogonek.alt" 
d="M77 -5c-25 0 -55 7 -69 18l194 626c18 7 39 12 64 12c48 0 62 -9 69 -30l176 -560c5 -19 7 -27 7 -35c0 -17 -10 -26 -35 -26h-50c-16 -24 -27 -48 -27 -70s14 -41 57 -41c34 0 48 9 59 13c6 -4 13 -16 13 -29c0 -25 -27 -35 -86 -35c-77 0 -108 38 -108 83
c0 51 29 91 60 95l-25 89h-231l-22 -79c-5 -22 -16 -31 -46 -31zM262 515l-95 -333h188z" />
    <glyph glyph-name="Aring.alt" 
d="M483 0h-77l-30 105h-231l-22 -79c-5 -22 -16 -31 -46 -31c-25 0 -55 7 -69 18l191 615c-16 17 -25 39 -25 68c0 61 41 96 92 96c52 0 92 -35 92 -96c0 -29 -10 -52 -26 -69l3 -6l176 -560c5 -19 7 -27 7 -35c0 -17 -10 -26 -35 -26zM262 515l-95 -333h188zM234 696
c0 -25 12 -40 32 -40s33 15 33 40c0 28 -13 40 -33 40s-32 -12 -32 -40z" />
    <glyph glyph-name="Atilde.alt" 
d="M406 0h77c25 0 35 9 35 26c0 8 -2 16 -7 35l-176 560c-7 21 -21 30 -69 30c-25 0 -46 -5 -64 -12l-194 -626c14 -11 44 -18 69 -18c30 0 41 9 46 31l22 79h231zM167 182l95 333l93 -333h-188zM112 709c0 90 41 120 90 120c61 0 90 -68 128 -68c23 0 35 15 38 64h29
c14 0 22 -8 22 -24c0 -92 -41 -120 -90 -120c-63 0 -91 69 -129 69c-23 0 -34 -17 -37 -65h-29c-14 0 -22 9 -22 24z" />
    <glyph glyph-name="B.alt" horiz-adv-x="550" 
d="M511 172c0 -109 -77 -176 -255 -176c-151 0 -191 19 -191 60v548c0 30 11 49 181 49c174 0 247 -74 247 -198c0 -58 -17 -106 -59 -149c54 -26 77 -72 77 -134zM374 443c0 74 -37 118 -121 118c-46 0 -63 -4 -69 -5v-227c17 2 39 5 89 5c21 0 40 -1 58 -3
c28 28 43 63 43 112zM265 254c-41 0 -65 -1 -81 -4v-157c10 -1 27 -8 81 -8c79 0 127 30 127 87s-41 82 -127 82z" />
    <glyph glyph-name="E.alt" horiz-adv-x="474" 
d="M401 0h-274c-42 0 -60 11 -60 31v594c0 15 6 26 57 26h300c3 -10 7 -30 7 -42c0 -43 -10 -53 -35 -53h-210v-226h213c3 -9 5 -26 5 -37c0 -38 -8 -47 -30 -47h-188v-154h242c3 -9 6 -28 6 -41c0 -41 -9 -51 -33 -51z" />
    <glyph glyph-name="Eacute.alt" horiz-adv-x="474" 
d="M244 812c6 14 18 25 45 25c48 0 58 -9 59 -9l-59 -121c-7 -14 -18 -21 -41 -21c-28 0 -43 4 -55 11zM401 0c24 0 33 10 33 51c0 13 -3 32 -6 41h-242v154h188c22 0 30 9 30 47c0 11 -2 28 -5 37h-213v226h210c25 0 35 10 35 53c0 12 -4 32 -7 42h-300
c-51 0 -57 -11 -57 -26v-594c0 -20 18 -31 60 -31h274z" />
    <glyph glyph-name="Ebreve.alt" horiz-adv-x="474" 
d="M315 850c7 2 17 3 35 3c33 0 42 -5 42 -14v-14c0 -79 -46 -139 -152 -139c-104 0 -152 60 -152 139v14c0 9 9 14 42 14c18 0 28 -1 35 -3v-27c0 -39 22 -68 75 -68c54 0 75 29 75 68v27zM401 0c24 0 33 10 33 51c0 13 -3 32 -6 41h-242v154h188c22 0 30 9 30 47
c0 11 -2 28 -5 37h-213v226h210c25 0 35 10 35 53c0 12 -4 32 -7 42h-300c-51 0 -57 -11 -57 -26v-594c0 -20 18 -31 60 -31h274z" />
    <glyph glyph-name="Ecaron.alt" horiz-adv-x="474" 
d="M110 822c8 9 24 15 47 15c26 0 35 -5 40 -15l44 -88l49 100h43c31 0 37 -8 37 -17c0 -5 -3 -11 -8 -18l-67 -99c-9 -12 -24 -17 -51 -17c-23 0 -47 5 -47 5zM401 0c24 0 33 10 33 51c0 13 -3 32 -6 41h-242v154h188c22 0 30 9 30 47c0 11 -2 28 -5 37h-213v226h210
c25 0 35 10 35 53c0 12 -4 32 -7 42h-300c-51 0 -57 -11 -57 -26v-594c0 -20 18 -31 60 -31h274z" />
    <glyph glyph-name="Ecircumflex.alt" horiz-adv-x="474" 
d="M199 833c0 0 23 4 47 4c27 0 41 -4 50 -17l68 -99c5 -7 7 -13 7 -18c0 -9 -5 -17 -36 -17h-44l-49 101l-44 -88c-4 -10 -14 -16 -39 -16c-23 0 -39 6 -48 15zM401 0c24 0 33 10 33 51c0 13 -3 32 -6 41h-242v154h188c22 0 30 9 30 47c0 11 -2 28 -5 37h-213v226h210
c25 0 35 10 35 53c0 12 -4 32 -7 42h-300c-51 0 -57 -11 -57 -26v-594c0 -20 18 -31 60 -31h274z" />
    <glyph glyph-name="Edieresis.alt" horiz-adv-x="474" 
d="M155 801c31 0 57 -26 57 -58c0 -30 -26 -56 -57 -56s-57 26 -57 56c0 32 26 58 57 58zM330 801c32 0 58 -26 58 -58c0 -30 -26 -56 -58 -56c-30 0 -56 26 -56 56c0 32 26 58 56 58zM401 0c24 0 33 10 33 51c0 13 -3 32 -6 41h-242v154h188c22 0 30 9 30 47
c0 11 -2 28 -5 37h-213v226h210c25 0 35 10 35 53c0 12 -4 32 -7 42h-300c-51 0 -57 -11 -57 -26v-594c0 -20 18 -31 60 -31h274z" />
    <glyph glyph-name="Edotaccent.alt" horiz-adv-x="474" 
d="M246 814c35 0 64 -29 64 -64c0 -34 -29 -63 -64 -63c-34 0 -63 29 -63 63c0 35 29 64 63 64zM401 0c24 0 33 10 33 51c0 13 -3 32 -6 41h-242v154h188c22 0 30 9 30 47c0 11 -2 28 -5 37h-213v226h210c25 0 35 10 35 53c0 12 -4 32 -7 42h-300c-51 0 -57 -11 -57 -26
v-594c0 -20 18 -31 60 -31h274z" />
    <glyph glyph-name="Egrave.alt" horiz-adv-x="474" 
d="M140 828c1 0 11 9 59 9c26 0 39 -11 45 -25l50 -115c-11 -7 -26 -11 -54 -11c-23 0 -34 7 -42 21zM401 0c24 0 33 10 33 51c0 13 -3 32 -6 41h-242v154h188c22 0 30 9 30 47c0 11 -2 28 -5 37h-213v226h210c25 0 35 10 35 53c0 12 -4 32 -7 42h-300
c-51 0 -57 -11 -57 -26v-594c0 -20 18 -31 60 -31h274z" />
    <glyph glyph-name="Emacron.alt" horiz-adv-x="474" 
d="M344 686h-220c-3 9 -6 27 -6 37c0 38 8 47 32 47h221c2 -9 5 -27 5 -38c0 -37 -8 -46 -32 -46zM401 0h-274c-42 0 -60 11 -60 31v594c0 15 6 26 57 26h300c3 -10 7 -30 7 -42c0 -43 -10 -53 -35 -53h-210v-226h213c3 -9 5 -26 5 -37c0 -38 -8 -47 -30 -47h-188v-154h242
c3 -9 6 -28 6 -41c0 -41 -9 -51 -33 -51z" />
    <glyph glyph-name="Eogonek.alt" horiz-adv-x="474" 
d="M401 0h-118c-16 -24 -27 -48 -27 -70s14 -41 57 -41c34 0 48 9 59 13c6 -4 13 -16 13 -29c0 -25 -27 -35 -86 -35c-77 0 -108 38 -108 83c0 33 12 62 30 79h-94c-42 0 -60 11 -60 31v594c0 15 6 26 57 26h300c3 -10 7 -30 7 -42c0 -43 -10 -53 -35 -53h-210v-226h213
c3 -9 5 -26 5 -37c0 -38 -8 -47 -30 -47h-188v-154h242c3 -9 6 -28 6 -41c0 -41 -9 -51 -33 -51z" />
    <glyph glyph-name="F.alt" horiz-adv-x="460" 
d="M186 556v-256h222c3 -9 6 -26 6 -38c0 -37 -9 -45 -30 -45h-198v-197c0 -11 -8 -20 -60 -20s-59 9 -59 20v605c0 15 6 26 57 26h296c4 -10 6 -30 6 -42c0 -43 -9 -53 -34 -53h-206z" />
    <glyph glyph-name="G.alt" horiz-adv-x="539" 
d="M290 205c-3 9 -6 26 -6 38c0 37 9 46 31 46h155c29 0 42 -13 42 -78c0 -124 -73 -217 -218 -217c-160 0 -253 113 -253 331c0 237 110 332 265 332c60 0 119 -6 147 -6c3 -10 6 -30 6 -42c0 -38 -5 -54 -34 -54c-22 0 -79 4 -109 4c-93 0 -149 -60 -149 -237
c0 -165 54 -235 136 -235c66 0 107 42 109 118h-122z" />
    <glyph glyph-name="Gbreve.alt" horiz-adv-x="539" 
d="M290 205c-3 9 -6 26 -6 38c0 37 9 46 31 46h155c29 0 42 -13 42 -78c0 -124 -73 -217 -218 -217c-160 0 -253 113 -253 331c0 237 110 332 265 332c60 0 119 -6 147 -6c3 -10 6 -30 6 -42c0 -38 -5 -54 -34 -54c-22 0 -79 4 -109 4c-93 0 -149 -60 -149 -237
c0 -165 54 -235 136 -235c66 0 107 42 109 118h-122zM351 850c7 2 17 3 35 3c33 0 42 -5 42 -14v-14c0 -79 -46 -139 -152 -139c-104 0 -152 60 -152 139v14c0 9 9 14 42 14c18 0 28 -1 35 -3v-27c0 -39 22 -68 75 -68c54 0 75 29 75 68v27z" />
    <glyph glyph-name="Gcircumflex.alt" horiz-adv-x="539" 
d="M231 833c0 0 23 4 47 4c27 0 41 -4 50 -17l68 -99c5 -7 7 -13 7 -18c0 -9 -5 -17 -36 -17h-44l-49 101l-44 -88c-4 -10 -14 -16 -39 -16c-23 0 -39 6 -48 15zM290 205c-3 9 -6 26 -6 38c0 37 9 46 31 46h155c29 0 42 -13 42 -78c0 -124 -73 -217 -218 -217
c-160 0 -253 113 -253 331c0 237 110 332 265 332c60 0 119 -6 147 -6c3 -10 6 -30 6 -42c0 -38 -5 -54 -34 -54c-22 0 -79 4 -109 4c-93 0 -149 -60 -149 -237c0 -165 54 -235 136 -235c66 0 107 42 109 118h-122z" />
    <glyph glyph-name="Gcommaaccent.alt" horiz-adv-x="539" 
d="M242 -192c9 -8 22 -12 34 -12c11 0 18 5 24 15c28 53 39 79 39 100c0 29 -21 51 -51 51s-51 -22 -51 -51c0 -21 13 -35 31 -40zM290 205c-3 9 -6 26 -6 38c0 37 9 46 31 46h155c29 0 42 -13 42 -78c0 -124 -73 -217 -218 -217c-160 0 -253 113 -253 331
c0 237 110 332 265 332c60 0 119 -6 147 -6c3 -10 6 -30 6 -42c0 -38 -5 -54 -34 -54c-22 0 -79 4 -109 4c-93 0 -149 -60 -149 -237c0 -165 54 -235 136 -235c66 0 107 42 109 118h-122z" />
    <glyph glyph-name="Gdotaccent.alt" horiz-adv-x="539" 
d="M290 205c-3 9 -6 26 -6 38c0 37 9 46 31 46h155c29 0 42 -13 42 -78c0 -124 -73 -217 -218 -217c-160 0 -253 113 -253 331c0 237 110 332 265 332c60 0 119 -6 147 -6c3 -10 6 -30 6 -42c0 -38 -5 -54 -34 -54c-22 0 -79 4 -109 4c-93 0 -149 -60 -149 -237
c0 -165 54 -235 136 -235c66 0 107 42 109 118h-122zM276 814c35 0 64 -29 64 -64c0 -34 -29 -63 -64 -63c-34 0 -63 29 -63 63c0 35 29 64 63 64z" />
    <glyph glyph-name="H.alt" horiz-adv-x="601" 
d="M67 631c0 12 8 20 60 20c51 0 60 -8 60 -20v-338h227v338c0 12 8 20 60 20c51 0 60 -8 60 -20v-611c0 -11 -8 -20 -60 -20c-53 0 -60 9 -60 20v190h-227v-190c0 -11 -8 -20 -60 -20c-53 0 -60 9 -60 20v611z" />
    <glyph glyph-name="Hbar.alt" horiz-adv-x="655" 
d="M442 631c0 12 8 20 59 20s60 -8 60 -20v-98h67c2 -6 4 -18 4 -26c0 -24 -5 -30 -20 -30h-51v-457c0 -11 -7 -20 -60 -20c-52 0 -59 9 -59 20v190h-228v-190c0 -11 -7 -20 -60 -20c-52 0 -59 9 -59 20v457h-67c-2 5 -4 17 -4 26c0 23 5 30 20 30h51v98c0 12 8 20 59 20
s60 -8 60 -20v-98h228v98zM442 293v184h-228v-184h228z" />
    <glyph glyph-name="Hcircumflex.alt" horiz-adv-x="601" 
d="M258 833c0 0 23 4 47 4c27 0 41 -4 50 -17l68 -99c5 -7 7 -13 7 -18c0 -9 -5 -17 -36 -17h-44l-49 101l-44 -88c-4 -10 -14 -16 -39 -16c-23 0 -39 6 -48 15zM67 631c0 12 8 20 60 20c51 0 60 -8 60 -20v-338h227v338c0 12 8 20 60 20c51 0 60 -8 60 -20v-611
c0 -11 -8 -20 -60 -20c-53 0 -60 9 -60 20v190h-227v-190c0 -11 -8 -20 -60 -20c-53 0 -60 9 -60 20v611z" />
    <glyph glyph-name="P.alt" horiz-adv-x="538" 
d="M248 561c-41 0 -56 -4 -63 -5v-304c12 -4 31 -8 71 -8c77 0 130 49 130 153c0 123 -48 164 -138 164zM185 170v-150c0 -11 -8 -20 -60 -20s-59 9 -59 20v581c0 37 19 52 180 52c183 0 264 -84 264 -251c0 -147 -79 -242 -244 -242c-42 0 -65 4 -81 10z" />
    <glyph glyph-name="R.alt" horiz-adv-x="555" 
d="M66 601c0 37 19 52 180 52c183 0 264 -84 264 -251c0 -88 -29 -157 -87 -199l94 -178c-15 -15 -53 -30 -84 -30c-25 0 -38 6 -50 36l-65 133c-16 -3 -34 -4 -52 -4c-42 0 -65 4 -81 10v-150c0 -11 -8 -20 -60 -20s-59 9 -59 20v581zM386 397c0 123 -48 164 -138 164
c-41 0 -56 -4 -63 -5v-304c12 -4 31 -8 71 -8c77 0 130 49 130 153z" />
    <glyph glyph-name="Racute.alt" horiz-adv-x="555" 
d="M66 601c0 37 19 52 180 52c183 0 264 -84 264 -251c0 -88 -29 -157 -87 -199l94 -178c-15 -15 -53 -30 -84 -30c-25 0 -38 6 -50 36l-65 133c-16 -3 -34 -4 -52 -4c-42 0 -65 4 -81 10v-150c0 -11 -8 -20 -60 -20s-59 9 -59 20v581zM386 397c0 123 -48 164 -138 164
c-41 0 -56 -4 -63 -5v-304c12 -4 31 -8 71 -8c77 0 130 49 130 153zM270 812c6 14 18 25 45 25c48 0 58 -9 59 -9l-59 -121c-7 -14 -18 -21 -41 -21c-28 0 -43 4 -55 11z" />
    <glyph glyph-name="Rcaron.alt" horiz-adv-x="555" 
d="M66 601c0 37 19 52 180 52c183 0 264 -84 264 -251c0 -88 -29 -157 -87 -199l94 -178c-15 -15 -53 -30 -84 -30c-25 0 -38 6 -50 36l-65 133c-16 -3 -34 -4 -52 -4c-42 0 -65 4 -81 10v-150c0 -11 -8 -20 -60 -20s-59 9 -59 20v581zM386 397c0 123 -48 164 -138 164
c-41 0 -56 -4 -63 -5v-304c12 -4 31 -8 71 -8c77 0 130 49 130 153zM141 825c8 9 24 15 47 15c26 0 35 -5 40 -15l44 -88l49 100h43c31 0 37 -8 37 -17c0 -5 -3 -11 -8 -18l-67 -99c-9 -12 -24 -17 -51 -17c-23 0 -47 5 -47 5z" />
    <glyph glyph-name="Rcommaaccent.alt" horiz-adv-x="555" 
d="M66 601c0 37 19 52 180 52c183 0 264 -84 264 -251c0 -88 -29 -157 -87 -199l94 -178c-15 -15 -53 -30 -84 -30c-25 0 -38 6 -50 36l-65 133c-16 -3 -34 -4 -52 -4c-42 0 -65 4 -81 10v-150c0 -11 -8 -20 -60 -20s-59 9 -59 20v581zM386 397c0 123 -48 164 -138 164
c-41 0 -56 -4 -63 -5v-304c12 -4 31 -8 71 -8c77 0 130 49 130 153zM234 -188c9 -8 22 -12 34 -12c11 0 18 5 24 15c28 53 39 79 39 100c0 29 -21 51 -51 51s-51 -22 -51 -51c0 -21 13 -35 31 -40z" />
    <glyph glyph-name="S.alt" horiz-adv-x="463" 
d="M200 87c78 0 104 34 104 73c0 121 -261 63 -261 290c0 133 63 207 217 207c61 0 118 -6 145 -6c4 -10 7 -30 7 -42c0 -38 -5 -54 -35 -54c-27 0 -71 4 -104 4c-74 0 -105 -41 -105 -102c0 -144 261 -88 261 -284c0 -103 -59 -179 -220 -179c-126 0 -168 21 -168 54
c0 23 8 49 16 57c0 0 56 -18 143 -18z" />
    <glyph glyph-name="Sacute.alt" horiz-adv-x="463" 
d="M223 812c6 14 18 25 45 25c48 0 58 -9 59 -9l-59 -121c-7 -14 -18 -21 -41 -21c-28 0 -43 4 -55 11zM200 87c78 0 104 34 104 73c0 121 -261 63 -261 290c0 133 63 207 217 207c61 0 118 -6 145 -6c4 -10 7 -30 7 -42c0 -38 -5 -54 -35 -54c-27 0 -71 4 -104 4
c-74 0 -105 -41 -105 -102c0 -144 261 -88 261 -284c0 -103 -59 -179 -220 -179c-126 0 -168 21 -168 54c0 23 8 49 16 57c0 0 56 -18 143 -18z" />
    <glyph glyph-name="Scaron.alt" horiz-adv-x="463" 
d="M103 825c8 9 24 15 47 15c26 0 35 -5 40 -15l44 -88l49 100h43c31 0 37 -8 37 -17c0 -5 -3 -11 -8 -18l-67 -99c-9 -12 -24 -17 -51 -17c-23 0 -47 5 -47 5zM200 87c78 0 104 34 104 73c0 121 -261 63 -261 290c0 133 63 207 217 207c61 0 118 -6 145 -6
c4 -10 7 -30 7 -42c0 -38 -5 -54 -35 -54c-27 0 -71 4 -104 4c-74 0 -105 -41 -105 -102c0 -144 261 -88 261 -284c0 -103 -59 -179 -220 -179c-126 0 -168 21 -168 54c0 23 8 49 16 57c0 0 56 -18 143 -18z" />
    <glyph glyph-name="Scedilla.alt" horiz-adv-x="463" 
d="M182 -12l3 6c-108 3 -144 23 -144 54c0 23 8 49 16 57c0 0 56 -18 143 -18c78 0 104 34 104 73c0 121 -261 63 -261 290c0 133 63 207 217 207c61 0 118 -6 145 -6c4 -10 7 -30 7 -42c0 -38 -5 -54 -35 -54c-27 0 -71 4 -104 4c-74 0 -105 -41 -105 -102
c0 -144 261 -88 261 -284c0 -98 -53 -171 -194 -178l-16 -35c10 1 22 1 34 1c49 0 78 -19 78 -61c0 -40 -28 -70 -103 -70c-71 0 -95 15 -95 36c0 12 7 20 14 24c0 0 24 -14 70 -14c44 0 55 10 55 24c0 16 -11 24 -44 24h-44c-14 0 -21 11 -21 22z" />
    <glyph glyph-name="Scircumflex.alt" horiz-adv-x="463" 
d="M190 833c0 0 23 4 47 4c27 0 41 -4 50 -17l68 -99c5 -7 7 -13 7 -18c0 -9 -5 -17 -36 -17h-44l-49 101l-44 -88c-4 -10 -14 -16 -39 -16c-23 0 -39 6 -48 15zM200 87c78 0 104 34 104 73c0 121 -261 63 -261 290c0 133 63 207 217 207c61 0 118 -6 145 -6
c4 -10 7 -30 7 -42c0 -38 -5 -54 -35 -54c-27 0 -71 4 -104 4c-74 0 -105 -41 -105 -102c0 -144 261 -88 261 -284c0 -103 -59 -179 -220 -179c-126 0 -168 21 -168 54c0 23 8 49 16 57c0 0 56 -18 143 -18z" />
    <glyph glyph-name="Scommaaccent.alt" horiz-adv-x="463" 
d="M200 87c78 0 104 34 104 73c0 121 -261 63 -261 290c0 133 63 207 217 207c61 0 118 -6 145 -6c4 -10 7 -30 7 -42c0 -38 -5 -54 -35 -54c-27 0 -71 4 -104 4c-74 0 -105 -41 -105 -102c0 -144 261 -88 261 -284c0 -103 -59 -179 -220 -179c-126 0 -168 21 -168 54
c0 23 8 49 16 57c0 0 56 -18 143 -18zM189 -188c9 -8 22 -12 34 -12c11 0 18 5 24 15c28 53 39 79 39 100c0 29 -21 51 -51 51s-51 -22 -51 -51c0 -21 13 -35 31 -40z" />
    <glyph glyph-name="a.alt" horiz-adv-x="508" 
d="M359 461l12 39h29c42 0 49 -8 49 -20v-460c0 -11 -7 -20 -50 -20s-49 9 -49 20v41c-35 -48 -79 -71 -133 -71c-102 0 -179 78 -179 253c0 166 79 266 208 266c57 0 91 -22 113 -48zM150 246c0 -124 43 -168 100 -168c30 0 58 18 90 58v247c-20 24 -47 39 -83 39
c-64 0 -107 -51 -107 -176z" />
    <glyph glyph-name="aacute.alt" horiz-adv-x="508" 
d="M246 682c6 14 18 25 45 25c48 0 58 -9 59 -9l-59 -121c-7 -14 -18 -21 -41 -21c-28 0 -43 4 -55 11zM359 461c-22 26 -56 48 -113 48c-129 0 -208 -100 -208 -266c0 -175 77 -253 179 -253c54 0 98 23 133 71v-41c0 -11 6 -20 49 -20s50 9 50 20v460c0 12 -7 20 -49 20
h-29zM150 246c0 125 43 176 107 176c36 0 63 -15 83 -39v-247c-32 -40 -60 -58 -90 -58c-57 0 -100 44 -100 168z" />
    <glyph glyph-name="abreve.alt" horiz-adv-x="508" 
d="M359 461c-22 26 -56 48 -113 48c-129 0 -208 -100 -208 -266c0 -175 77 -253 179 -253c54 0 98 23 133 71v-41c0 -11 6 -20 49 -20s50 9 50 20v460c0 12 -7 20 -49 20h-29zM150 246c0 125 43 176 107 176c36 0 63 -15 83 -39v-247c-32 -40 -60 -58 -90 -58
c-57 0 -100 44 -100 168zM330 720c7 2 17 3 35 3c33 0 42 -5 42 -14v-14c0 -79 -46 -139 -152 -139c-104 0 -152 60 -152 139v14c0 9 9 14 42 14c18 0 28 -1 35 -3v-27c0 -39 22 -68 75 -68c54 0 75 29 75 68v27z" />
    <glyph glyph-name="acircumflex.alt" horiz-adv-x="508" 
d="M212 703c0 0 23 4 47 4c27 0 41 -4 50 -17l68 -99c5 -7 7 -13 7 -18c0 -9 -5 -17 -36 -17h-44l-49 101l-44 -88c-4 -10 -14 -16 -39 -16c-23 0 -39 6 -48 15zM359 461c-22 26 -56 48 -113 48c-129 0 -208 -100 -208 -266c0 -175 77 -253 179 -253c54 0 98 23 133 71v-41
c0 -11 6 -20 49 -20s50 9 50 20v460c0 12 -7 20 -49 20h-29zM150 246c0 125 43 176 107 176c36 0 63 -15 83 -39v-247c-32 -40 -60 -58 -90 -58c-57 0 -100 44 -100 168z" />
    <glyph glyph-name="adieresis.alt" horiz-adv-x="508" 
d="M167 671c31 0 57 -26 57 -58c0 -30 -26 -56 -57 -56s-57 26 -57 56c0 32 26 58 57 58zM342 671c32 0 58 -26 58 -58c0 -30 -26 -56 -58 -56c-30 0 -56 26 -56 56c0 32 26 58 56 58zM359 461c-22 26 -56 48 -113 48c-129 0 -208 -100 -208 -266c0 -175 77 -253 179 -253
c54 0 98 23 133 71v-41c0 -11 6 -20 49 -20s50 9 50 20v460c0 12 -7 20 -49 20h-29zM150 246c0 125 43 176 107 176c36 0 63 -15 83 -39v-247c-32 -40 -60 -58 -90 -58c-57 0 -100 44 -100 168z" />
    <glyph glyph-name="agrave.alt" horiz-adv-x="508" 
d="M359 461c-22 26 -56 48 -113 48c-129 0 -208 -100 -208 -266c0 -175 77 -253 179 -253c54 0 98 23 133 71v-41c0 -11 6 -20 49 -20s50 9 50 20v460c0 12 -7 20 -49 20h-29zM150 246c0 125 43 176 107 176c36 0 63 -15 83 -39v-247c-32 -40 -60 -58 -90 -58
c-57 0 -100 44 -100 168zM153 698c1 0 11 9 59 9c26 0 39 -11 45 -25l50 -115c-11 -7 -26 -11 -54 -11c-23 0 -34 7 -42 21z" />
    <glyph glyph-name="amacron.alt" horiz-adv-x="508" 
d="M359 461l12 39h29c42 0 49 -8 49 -20v-460c0 -11 -7 -20 -50 -20s-49 9 -49 20v41c-35 -48 -79 -71 -133 -71c-102 0 -179 78 -179 253c0 166 79 266 208 266c57 0 91 -22 113 -48zM150 246c0 -124 43 -168 100 -168c30 0 58 18 90 58v247c-20 24 -47 39 -83 39
c-64 0 -107 -51 -107 -176zM349 557h-220c-3 9 -6 27 -6 37c0 38 8 47 32 47h221c2 -9 5 -27 5 -38c0 -37 -8 -46 -32 -46z" />
    <glyph glyph-name="aogonek.alt" horiz-adv-x="508" 
d="M359 461l12 39h29c42 0 49 -8 49 -20v-460c0 -11 -7 -20 -50 -20h-2c-16 -24 -27 -48 -27 -70s14 -41 57 -41c34 0 48 9 59 13c6 -4 13 -16 13 -29c0 -25 -27 -35 -86 -35c-77 0 -108 38 -108 83c0 43 21 79 46 91c-1 2 -1 5 -1 8v41c-35 -48 -79 -71 -133 -71
c-102 0 -179 78 -179 253c0 166 79 266 208 266c57 0 91 -22 113 -48zM150 246c0 -124 43 -168 100 -168c30 0 58 18 90 58v247c-20 24 -47 39 -83 39c-64 0 -107 -51 -107 -176z" />
    <glyph glyph-name="aring.alt" horiz-adv-x="508" 
d="M347 646c0 -59 -40 -95 -92 -95c-51 0 -92 36 -92 95c0 61 41 96 92 96c52 0 92 -35 92 -96zM223 646c0 -25 12 -40 32 -40s33 15 33 40c0 28 -13 40 -33 40s-32 -12 -32 -40zM359 461l12 39h29c42 0 49 -8 49 -20v-460c0 -11 -7 -20 -50 -20s-49 9 -49 20v41
c-35 -48 -79 -71 -133 -71c-102 0 -179 78 -179 253c0 166 79 266 208 266c57 0 91 -22 113 -48zM150 246c0 -124 43 -168 100 -168c30 0 58 18 90 58v247c-20 24 -47 39 -83 39c-64 0 -107 -51 -107 -176z" />
    <glyph glyph-name="atilde.alt" horiz-adv-x="508" 
d="M359 461c-22 26 -56 48 -113 48c-129 0 -208 -100 -208 -266c0 -175 77 -253 179 -253c54 0 98 23 133 71v-41c0 -11 6 -20 49 -20s50 9 50 20v460c0 12 -7 20 -49 20h-29zM150 246c0 125 43 176 107 176c36 0 63 -15 83 -39v-247c-32 -40 -60 -58 -90 -58
c-57 0 -100 44 -100 168zM101 580c0 90 41 120 90 120c61 0 90 -68 128 -68c23 0 35 15 38 64h29c14 0 22 -8 22 -24c0 -92 -41 -120 -90 -120c-63 0 -91 69 -129 69c-23 0 -34 -17 -37 -65h-29c-14 0 -22 9 -22 24z" />
    <glyph glyph-name="d.alt" horiz-adv-x="508" 
d="M340 698c0 12 6 20 53 20c48 0 56 -8 56 -20v-678c0 -11 -7 -20 -50 -20s-49 9 -49 20v41c-36 -48 -78 -71 -133 -71c-103 0 -179 78 -179 253c0 163 73 266 217 266c37 0 68 -14 85 -28v217zM340 388c-18 20 -42 34 -83 34c-64 0 -107 -51 -107 -176
c0 -124 43 -168 100 -168c30 0 56 17 90 58v252z" />
    <glyph glyph-name="dcaron.alt" horiz-adv-x="508" 
d="M489 635c0 30 20 51 51 51c30 0 51 -21 51 -51c0 -21 -12 -47 -40 -100c-6 -9 -12 -15 -23 -15c-12 0 -25 5 -34 13l26 62c-19 5 -31 19 -31 40zM340 698c0 12 6 20 53 20c48 0 56 -8 56 -20v-678c0 -11 -7 -20 -50 -20s-49 9 -49 20v41c-36 -48 -78 -71 -133 -71
c-103 0 -179 78 -179 253c0 163 73 266 217 266c37 0 68 -14 85 -28v217zM340 388c-18 20 -42 34 -83 34c-64 0 -107 -51 -107 -176c0 -124 43 -168 100 -168c30 0 56 17 90 58v252z" />
    <glyph glyph-name="dcroat.alt" horiz-adv-x="508" 
d="M340 698c0 12 6 20 53 20c48 0 56 -8 56 -20v-60h66c2 -7 5 -21 5 -32c0 -30 -7 -37 -25 -37h-46v-549c0 -11 -7 -20 -50 -20s-49 9 -49 20v39c-36 -47 -78 -69 -133 -69c-103 0 -179 78 -179 253c0 163 73 266 217 266c37 0 68 -14 85 -28v88h-88c-3 7 -5 21 -5 31
c0 30 7 38 25 38h68v60zM340 388c-18 20 -42 34 -83 34c-64 0 -107 -51 -107 -176c0 -124 43 -168 100 -168c30 0 56 17 90 58v252z" />
    <glyph glyph-name="e.alt" horiz-adv-x="458" 
d="M426 347c0 -85 -53 -143 -182 -143c-39 0 -72 6 -95 16c7 -107 56 -144 125 -144c72 0 112 33 112 33c12 -8 23 -23 23 -47c0 -37 -52 -72 -150 -72c-143 0 -221 91 -221 262c0 177 85 257 210 257c118 0 178 -66 178 -162zM149 287c20 -8 50 -14 88 -14
c65 0 87 29 87 74c0 46 -28 75 -76 75s-93 -31 -99 -135z" />
    <glyph glyph-name="eacute.alt" horiz-adv-x="458" 
d="M237 682c6 14 18 25 45 25c48 0 58 -9 59 -9l-59 -121c-7 -14 -18 -21 -41 -21c-28 0 -43 4 -55 11zM426 347c0 96 -60 162 -178 162c-125 0 -210 -80 -210 -257c0 -171 78 -262 221 -262c98 0 150 35 150 72c0 24 -11 39 -23 47c0 0 -40 -33 -112 -33
c-69 0 -118 37 -125 144c23 -10 56 -16 95 -16c129 0 182 58 182 143zM149 287c6 104 51 135 99 135s76 -29 76 -75c0 -45 -22 -74 -87 -74c-38 0 -68 6 -88 14z" />
    <glyph glyph-name="ebreve.alt" horiz-adv-x="458" 
d="M316 720c7 2 17 3 35 3c33 0 42 -5 42 -14v-14c0 -79 -46 -139 -152 -139c-104 0 -152 60 -152 139v14c0 9 9 14 42 14c18 0 28 -1 35 -3v-27c0 -39 22 -68 75 -68c54 0 75 29 75 68v27zM426 347c0 96 -60 162 -178 162c-125 0 -210 -80 -210 -257
c0 -171 78 -262 221 -262c98 0 150 35 150 72c0 24 -11 39 -23 47c0 0 -40 -33 -112 -33c-69 0 -118 37 -125 144c23 -10 56 -16 95 -16c129 0 182 58 182 143zM149 287c6 104 51 135 99 135s76 -29 76 -75c0 -45 -22 -74 -87 -74c-38 0 -68 6 -88 14z" />
    <glyph glyph-name="ecaron.alt" horiz-adv-x="458" 
d="M103 695c8 9 24 15 47 15c26 0 35 -5 40 -15l44 -88l49 100h43c31 0 37 -8 37 -17c0 -5 -3 -11 -8 -18l-67 -99c-9 -12 -24 -17 -51 -17c-23 0 -47 5 -47 5zM426 347c0 96 -60 162 -178 162c-125 0 -210 -80 -210 -257c0 -171 78 -262 221 -262c98 0 150 35 150 72
c0 24 -11 39 -23 47c0 0 -40 -33 -112 -33c-69 0 -118 37 -125 144c23 -10 56 -16 95 -16c129 0 182 58 182 143zM149 287c6 104 51 135 99 135s76 -29 76 -75c0 -45 -22 -74 -87 -74c-38 0 -68 6 -88 14z" />
    <glyph glyph-name="ecircumflex.alt" horiz-adv-x="458" 
d="M192 703c0 0 23 4 47 4c27 0 41 -4 50 -17l68 -99c5 -7 7 -13 7 -18c0 -9 -5 -17 -36 -17h-44l-49 101l-44 -88c-4 -10 -14 -16 -39 -16c-23 0 -39 6 -48 15zM426 347c0 96 -60 162 -178 162c-125 0 -210 -80 -210 -257c0 -171 78 -262 221 -262c98 0 150 35 150 72
c0 24 -11 39 -23 47c0 0 -40 -33 -112 -33c-69 0 -118 37 -125 144c23 -10 56 -16 95 -16c129 0 182 58 182 143zM149 287c6 104 51 135 99 135s76 -29 76 -75c0 -45 -22 -74 -87 -74c-38 0 -68 6 -88 14z" />
    <glyph glyph-name="edieresis.alt" horiz-adv-x="458" 
d="M151 671c31 0 57 -26 57 -58c0 -30 -26 -56 -57 -56s-57 26 -57 56c0 32 26 58 57 58zM326 671c32 0 58 -26 58 -58c0 -30 -26 -56 -58 -56c-30 0 -56 26 -56 56c0 32 26 58 56 58zM426 347c0 96 -60 162 -178 162c-125 0 -210 -80 -210 -257c0 -171 78 -262 221 -262
c98 0 150 35 150 72c0 24 -11 39 -23 47c0 0 -40 -33 -112 -33c-69 0 -118 37 -125 144c23 -10 56 -16 95 -16c129 0 182 58 182 143zM149 287c6 104 51 135 99 135s76 -29 76 -75c0 -45 -22 -74 -87 -74c-38 0 -68 6 -88 14z" />
    <glyph glyph-name="edotaccent.alt" horiz-adv-x="458" 
d="M232 684c35 0 64 -29 64 -64c0 -34 -29 -63 -64 -63c-34 0 -63 29 -63 63c0 35 29 64 63 64zM426 347c0 96 -60 162 -178 162c-125 0 -210 -80 -210 -257c0 -171 78 -262 221 -262c98 0 150 35 150 72c0 24 -11 39 -23 47c0 0 -40 -33 -112 -33c-69 0 -118 37 -125 144
c23 -10 56 -16 95 -16c129 0 182 58 182 143zM149 287c6 104 51 135 99 135s76 -29 76 -75c0 -45 -22 -74 -87 -74c-38 0 -68 6 -88 14z" />
    <glyph glyph-name="egrave.alt" horiz-adv-x="458" 
d="M131 698c1 0 11 9 59 9c26 0 39 -11 45 -25l50 -115c-11 -7 -26 -11 -54 -11c-23 0 -34 7 -42 21zM426 347c0 96 -60 162 -178 162c-125 0 -210 -80 -210 -257c0 -171 78 -262 221 -262c98 0 150 35 150 72c0 24 -11 39 -23 47c0 0 -40 -33 -112 -33
c-69 0 -118 37 -125 144c23 -10 56 -16 95 -16c129 0 182 58 182 143zM149 287c6 104 51 135 99 135s76 -29 76 -75c0 -45 -22 -74 -87 -74c-38 0 -68 6 -88 14z" />
    <glyph glyph-name="emacron.alt" horiz-adv-x="458" 
d="M331 557h-220c-3 9 -6 27 -6 37c0 38 8 47 32 47h221c2 -9 5 -27 5 -38c0 -37 -8 -46 -32 -46zM426 347c0 -85 -53 -143 -182 -143c-39 0 -72 6 -95 16c7 -107 56 -144 125 -144c72 0 112 33 112 33c12 -8 23 -23 23 -47c0 -37 -52 -72 -150 -72c-143 0 -221 91 -221 262
c0 177 85 257 210 257c118 0 178 -66 178 -162zM149 287c20 -8 50 -14 88 -14c65 0 87 29 87 74c0 46 -28 75 -76 75s-93 -31 -99 -135z" />
    <glyph glyph-name="eogonek.alt" horiz-adv-x="458" 
d="M426 347c0 -85 -53 -143 -182 -143c-39 0 -72 6 -95 16c7 -107 56 -144 125 -144c72 0 112 33 112 33c12 -8 23 -23 23 -47c0 -35 -46 -68 -134 -71c-12 -21 -20 -42 -20 -61c0 -22 14 -41 57 -41c34 0 48 9 59 13c6 -4 13 -16 13 -29c0 -25 -27 -35 -86 -35
c-77 0 -108 38 -108 83c0 29 9 55 23 72c-114 18 -175 107 -175 259c0 177 85 257 210 257c118 0 178 -66 178 -162zM149 287c20 -8 50 -14 88 -14c65 0 87 29 87 74c0 46 -28 75 -76 75s-93 -31 -99 -135z" />
    <glyph glyph-name="f.alt" horiz-adv-x="341" 
d="M99 588c0 82 39 129 136 129c22 0 78 -3 87 -3c3 -8 7 -26 7 -38c0 -33 -5 -46 -31 -46c-15 0 -30 2 -46 2c-27 0 -44 -14 -44 -43v-89h106c3 -8 5 -25 5 -37c0 -35 -7 -44 -29 -44h-82v-493c0 -11 -7 -20 -56 -20c-47 0 -53 9 -53 20v493h-76c-3 8 -5 25 -5 37
c0 35 8 44 29 44h52v88z" />
    <glyph glyph-name="g.alt" horiz-adv-x="509" 
d="M38 243c0 166 79 266 208 266c57 0 91 -22 113 -48l12 39h29c42 0 49 -8 49 -20v-487c0 -129 -63 -183 -206 -183c-116 0 -143 23 -143 52c0 21 7 39 15 47c0 0 43 -18 123 -18c72 0 102 23 102 82v77c-34 -40 -68 -60 -123 -60c-102 0 -179 78 -179 253zM340 379
c-20 26 -47 43 -83 43c-64 0 -107 -51 -107 -176c0 -122 43 -168 100 -168c29 0 59 18 90 58v243z" />
    <glyph glyph-name="gbreve.alt" horiz-adv-x="509" 
d="M38 243c0 166 79 266 208 266c57 0 91 -22 113 -48l12 39h29c42 0 49 -8 49 -20v-487c0 -129 -63 -183 -206 -183c-116 0 -143 23 -143 52c0 21 7 39 15 47c0 0 43 -18 123 -18c72 0 102 23 102 82v77c-34 -40 -68 -60 -123 -60c-102 0 -179 78 -179 253zM340 379
c-20 26 -47 43 -83 43c-64 0 -107 -51 -107 -176c0 -122 43 -168 100 -168c29 0 59 18 90 58v243zM329 720c7 2 17 3 35 3c33 0 42 -5 42 -14v-14c0 -79 -46 -139 -152 -139c-104 0 -152 60 -152 139v14c0 9 9 14 42 14c18 0 28 -1 35 -3v-27c0 -39 22 -68 75 -68
c54 0 75 29 75 68v27z" />
    <glyph glyph-name="gcircumflex.alt" horiz-adv-x="509" 
d="M209 703c0 0 23 4 47 4c27 0 41 -4 50 -17l68 -99c5 -7 7 -13 7 -18c0 -9 -5 -17 -36 -17h-44l-49 101l-44 -88c-4 -10 -14 -16 -39 -16c-23 0 -39 6 -48 15zM38 243c0 166 79 266 208 266c57 0 91 -22 113 -48l12 39h29c42 0 49 -8 49 -20v-487
c0 -129 -63 -183 -206 -183c-116 0 -143 23 -143 52c0 21 7 39 15 47c0 0 43 -18 123 -18c72 0 102 23 102 82v77c-34 -40 -68 -60 -123 -60c-102 0 -179 78 -179 253zM340 379c-20 26 -47 43 -83 43c-64 0 -107 -51 -107 -176c0 -122 43 -168 100 -168c29 0 59 18 90 58
v243z" />
    <glyph glyph-name="gcommaaccent.alt" horiz-adv-x="509" 
d="M241 706c6 10 12 16 23 16c12 0 25 -5 34 -13l-26 -62c18 -5 30 -20 30 -40c0 -30 -19 -51 -50 -51s-51 21 -51 51c0 20 12 47 40 99zM38 243c0 166 79 266 208 266c57 0 91 -22 113 -48l12 39h29c42 0 49 -8 49 -20v-487c0 -129 -63 -183 -206 -183
c-116 0 -143 23 -143 52c0 21 7 39 15 47c0 0 43 -18 123 -18c72 0 102 23 102 82v77c-34 -40 -68 -60 -123 -60c-102 0 -179 78 -179 253zM340 379c-20 26 -47 43 -83 43c-64 0 -107 -51 -107 -176c0 -122 43 -168 100 -168c29 0 59 18 90 58v243z" />
    <glyph glyph-name="gdotaccent.alt" horiz-adv-x="509" 
d="M38 243c0 166 79 266 208 266c57 0 91 -22 113 -48l12 39h29c42 0 49 -8 49 -20v-487c0 -129 -63 -183 -206 -183c-116 0 -143 23 -143 52c0 21 7 39 15 47c0 0 43 -18 123 -18c72 0 102 23 102 82v77c-34 -40 -68 -60 -123 -60c-102 0 -179 78 -179 253zM340 379
c-20 26 -47 43 -83 43c-64 0 -107 -51 -107 -176c0 -122 43 -168 100 -168c29 0 59 18 90 58v243zM253 684c35 0 64 -29 64 -64c0 -34 -29 -63 -64 -63c-34 0 -63 29 -63 63c0 35 29 64 63 64z" />
    <glyph glyph-name="t.alt" horiz-adv-x="305" 
d="M205 604v-104h83c3 -8 5 -25 5 -37c0 -35 -8 -44 -29 -44h-59v-399c0 -11 -7 -20 -56 -20c-47 0 -53 9 -53 20v399h-76c-3 8 -5 25 -5 37c0 35 8 44 29 44h52v104c0 12 6 20 53 20c49 0 56 -8 56 -20z" />
    <glyph glyph-name="tcaron.alt" horiz-adv-x="305" 
d="M265 655c0 30 20 51 50 51c31 0 52 -21 52 -51c0 -21 -12 -47 -40 -100c-6 -9 -13 -15 -23 -15c-13 0 -26 5 -34 13l26 62c-19 5 -31 19 -31 40zM205 500v104c0 12 -7 20 -56 20c-47 0 -53 -8 -53 -20v-104h-52c-21 0 -29 -9 -29 -44c0 -12 2 -29 5 -37h76v-399
c0 -11 6 -20 53 -20c49 0 56 9 56 20v399h59c21 0 29 9 29 44c0 12 -2 29 -5 37h-83z" />
    <glyph glyph-name="tcommaaccent.alt" horiz-adv-x="305" 
d="M205 604v-104h83c3 -8 5 -25 5 -37c0 -35 -8 -44 -29 -44h-59v-399c0 -11 -7 -20 -56 -20c-47 0 -53 9 -53 20v399h-76c-3 8 -5 25 -5 37c0 35 8 44 29 44h52v104c0 12 6 20 53 20c49 0 56 -8 56 -20zM102 -188l26 63c-18 5 -31 19 -31 40c0 29 21 51 51 51
s51 -22 51 -51c0 -21 -11 -47 -39 -100c-6 -10 -13 -15 -24 -15c-12 0 -25 4 -34 12z" />
    <glyph glyph-name="u.alt" horiz-adv-x="497" 
d="M329 480c0 12 7 20 55 20c47 0 54 -8 54 -20v-460c0 -11 -7 -20 -50 -20c-42 0 -48 9 -48 20v44c-31 -44 -78 -74 -148 -74c-83 0 -135 42 -135 148v270c0 45 -8 78 -8 78c14 9 34 14 60 14c45 0 57 -9 57 -69v-278c0 -49 21 -71 62 -71c42 0 70 21 101 61v337z" />
    <glyph glyph-name="uacute.alt" horiz-adv-x="497" 
d="M247 676c6 14 18 25 45 25c48 0 58 -9 59 -9l-59 -121c-7 -14 -18 -21 -41 -21c-28 0 -43 4 -55 11zM329 480c0 12 7 20 55 20c47 0 54 -8 54 -20v-460c0 -11 -7 -20 -50 -20c-42 0 -48 9 -48 20v44c-31 -44 -78 -74 -148 -74c-83 0 -135 42 -135 148v270
c0 45 -8 78 -8 78c14 9 34 14 60 14c45 0 57 -9 57 -69v-278c0 -49 21 -71 62 -71c42 0 70 21 101 61v337z" />
    <glyph glyph-name="ubreve.alt" horiz-adv-x="497" 
d="M325 720c7 2 17 3 35 3c33 0 42 -5 42 -14v-14c0 -79 -46 -139 -152 -139c-104 0 -152 60 -152 139v14c0 9 9 14 42 14c18 0 28 -1 35 -3v-27c0 -39 22 -68 75 -68c54 0 75 29 75 68v27zM329 480c0 12 7 20 55 20c47 0 54 -8 54 -20v-460c0 -11 -7 -20 -50 -20
c-42 0 -48 9 -48 20v44c-31 -44 -78 -74 -148 -74c-83 0 -135 42 -135 148v270c0 45 -8 78 -8 78c14 9 34 14 60 14c45 0 57 -9 57 -69v-278c0 -49 21 -71 62 -71c42 0 70 21 101 61v337z" />
    <glyph glyph-name="ucircumflex.alt" horiz-adv-x="497" 
d="M200 703c0 0 23 4 47 4c27 0 41 -4 50 -17l68 -99c5 -7 7 -13 7 -18c0 -9 -5 -17 -36 -17h-44l-49 101l-44 -88c-4 -10 -14 -16 -39 -16c-23 0 -39 6 -48 15zM329 480c0 12 7 20 55 20c47 0 54 -8 54 -20v-460c0 -11 -7 -20 -50 -20c-42 0 -48 9 -48 20v44
c-31 -44 -78 -74 -148 -74c-83 0 -135 42 -135 148v270c0 45 -8 78 -8 78c14 9 34 14 60 14c45 0 57 -9 57 -69v-278c0 -49 21 -71 62 -71c42 0 70 21 101 61v337z" />
    <glyph glyph-name="udieresis.alt" horiz-adv-x="497" 
d="M157 671c31 0 57 -26 57 -58c0 -30 -26 -56 -57 -56s-57 26 -57 56c0 32 26 58 57 58zM332 671c32 0 58 -26 58 -58c0 -30 -26 -56 -58 -56c-30 0 -56 26 -56 56c0 32 26 58 56 58zM329 480c0 12 7 20 55 20c47 0 54 -8 54 -20v-460c0 -11 -7 -20 -50 -20
c-42 0 -48 9 -48 20v44c-31 -44 -78 -74 -148 -74c-83 0 -135 42 -135 148v270c0 45 -8 78 -8 78c14 9 34 14 60 14c45 0 57 -9 57 -69v-278c0 -49 21 -71 62 -71c42 0 70 21 101 61v337z" />
    <glyph glyph-name="ugrave.alt" horiz-adv-x="497" 
d="M134 698c1 0 11 9 59 9c26 0 39 -11 45 -25l50 -115c-11 -7 -26 -11 -54 -11c-23 0 -34 7 -42 21zM329 480c0 12 7 20 55 20c47 0 54 -8 54 -20v-460c0 -11 -7 -20 -50 -20c-42 0 -48 9 -48 20v44c-31 -44 -78 -74 -148 -74c-83 0 -135 42 -135 148v270c0 45 -8 78 -8 78
c14 9 34 14 60 14c45 0 57 -9 57 -69v-278c0 -49 21 -71 62 -71c42 0 70 21 101 61v337z" />
    <glyph glyph-name="uhungarumlaut.alt" horiz-adv-x="497" 
d="M336 682c6 14 18 25 45 25c48 0 58 -9 59 -9l-59 -121c-7 -14 -18 -21 -41 -21c-28 0 -43 4 -55 11zM165 682c6 14 19 25 46 25c41 0 57 -9 58 -9l-58 -121c-8 -14 -19 -21 -41 -21c-28 0 -43 4 -56 11zM329 480c0 12 7 20 55 20c47 0 54 -8 54 -20v-460
c0 -11 -7 -20 -50 -20c-42 0 -48 9 -48 20v44c-31 -44 -78 -74 -148 -74c-83 0 -135 42 -135 148v270c0 45 -8 78 -8 78c14 9 34 14 60 14c45 0 57 -9 57 -69v-278c0 -49 21 -71 62 -71c42 0 70 21 101 61v337z" />
    <glyph glyph-name="umacron.alt" horiz-adv-x="497" 
d="M341 557h-220c-3 9 -6 27 -6 37c0 38 8 47 32 47h221c2 -9 5 -27 5 -38c0 -37 -8 -46 -32 -46zM329 480c0 12 7 20 55 20c47 0 54 -8 54 -20v-460c0 -11 -7 -20 -50 -20c-42 0 -48 9 -48 20v44c-31 -44 -78 -74 -148 -74c-83 0 -135 42 -135 148v270c0 45 -8 78 -8 78
c14 9 34 14 60 14c45 0 57 -9 57 -69v-278c0 -49 21 -71 62 -71c42 0 70 21 101 61v337z" />
    <glyph glyph-name="uring.alt" horiz-adv-x="497" 
d="M338 646c0 -59 -40 -95 -92 -95c-51 0 -92 36 -92 95c0 61 41 96 92 96c52 0 92 -35 92 -96zM214 646c0 -25 12 -40 32 -40s33 15 33 40c0 28 -13 40 -33 40s-32 -12 -32 -40zM329 480c0 12 7 20 55 20c47 0 54 -8 54 -20v-460c0 -11 -7 -20 -50 -20c-42 0 -48 9 -48 20
v44c-31 -44 -78 -74 -148 -74c-83 0 -135 42 -135 148v270c0 45 -8 78 -8 78c14 9 34 14 60 14c45 0 57 -9 57 -69v-278c0 -49 21 -71 62 -71c42 0 70 21 101 61v337z" />
    <glyph glyph-name="utilde.alt" horiz-adv-x="497" 
d="M96 580c0 90 41 120 90 120c61 0 90 -68 128 -68c23 0 35 15 38 64h29c14 0 22 -8 22 -24c0 -92 -41 -120 -90 -120c-63 0 -91 69 -129 69c-23 0 -34 -17 -37 -65h-29c-14 0 -22 9 -22 24zM329 480c0 12 7 20 55 20c47 0 54 -8 54 -20v-460c0 -11 -7 -20 -50 -20
c-42 0 -48 9 -48 20v44c-31 -44 -78 -74 -148 -74c-83 0 -135 42 -135 148v270c0 45 -8 78 -8 78c14 9 34 14 60 14c45 0 57 -9 57 -69v-278c0 -49 21 -71 62 -71c42 0 70 21 101 61v337z" />
    <glyph glyph-name="v.alt" horiz-adv-x="494" 
d="M232 -10c-122 0 -176 68 -176 166v324c0 12 7 20 56 20c47 0 53 -8 53 -20v-317c0 -51 23 -85 77 -85c53 0 102 48 102 211c0 111 -30 193 -30 193c14 10 35 18 62 18c52 0 77 -74 77 -215c0 -213 -95 -295 -221 -295z" />
    <glyph glyph-name="w.alt" horiz-adv-x="772" 
d="M621 289c0 111 -29 193 -29 193c13 10 35 18 62 18c52 0 77 -74 77 -215c0 -213 -94 -295 -218 -295c-73 0 -118 31 -142 81c-34 -59 -75 -81 -148 -81c-107 0 -167 65 -167 166v324c0 12 7 20 56 20c47 0 53 -8 53 -20v-317c0 -51 21 -85 78 -85c53 0 90 42 90 129v273
c0 12 8 20 56 20c47 0 54 -8 54 -20v-317c0 -51 22 -85 76 -85s102 48 102 211z" />
    <glyph glyph-name="wacute.alt" horiz-adv-x="772" 
d="M396 682c6 14 18 25 45 25c48 0 58 -9 59 -9l-59 -121c-7 -14 -18 -21 -41 -21c-28 0 -43 4 -55 11zM621 289c0 -163 -48 -211 -102 -211s-76 34 -76 85v317c0 12 -7 20 -54 20c-48 0 -56 -8 -56 -20v-273c0 -87 -37 -129 -90 -129c-57 0 -78 34 -78 85v317
c0 12 -6 20 -53 20c-49 0 -56 -8 -56 -20v-324c0 -101 60 -166 167 -166c73 0 114 22 148 81c24 -50 69 -81 142 -81c124 0 218 82 218 295c0 141 -25 215 -77 215c-27 0 -49 -8 -62 -18c0 0 29 -82 29 -193z" />
    <glyph glyph-name="wgrave.alt" horiz-adv-x="772" 
d="M621 289c0 -163 -48 -211 -102 -211s-76 34 -76 85v317c0 12 -7 20 -54 20c-48 0 -56 -8 -56 -20v-273c0 -87 -37 -129 -90 -129c-57 0 -78 34 -78 85v317c0 12 -6 20 -53 20c-49 0 -56 -8 -56 -20v-324c0 -101 60 -166 167 -166c73 0 114 22 148 81
c24 -50 69 -81 142 -81c124 0 218 82 218 295c0 141 -25 215 -77 215c-27 0 -49 -8 -62 -18c0 0 29 -82 29 -193zM276 698c1 0 11 9 59 9c26 0 39 -11 45 -25l50 -115c-11 -7 -26 -11 -54 -11c-23 0 -34 7 -42 21z" />
    <glyph glyph-name="y.alt" horiz-adv-x="498" 
d="M329 480c0 12 7 20 55 20c47 0 54 -8 54 -20v-487c0 -129 -62 -183 -206 -183c-116 0 -142 23 -142 52c0 21 7 39 15 47c0 0 42 -18 123 -18c72 0 101 23 101 82v81c-35 -44 -72 -64 -137 -64c-83 0 -135 42 -135 148v342c0 12 7 20 55 20s54 -8 54 -20v-327
c0 -49 21 -73 62 -73c38 0 68 23 101 63v337z" />
    <glyph glyph-name="yacute.alt" horiz-adv-x="498" 
d="M254 682c6 14 18 25 45 25c48 0 58 -9 59 -9l-59 -121c-7 -14 -18 -21 -41 -21c-28 0 -43 4 -55 11zM329 480c0 12 7 20 55 20c47 0 54 -8 54 -20v-487c0 -129 -62 -183 -206 -183c-116 0 -142 23 -142 52c0 21 7 39 15 47c0 0 42 -18 123 -18c72 0 101 23 101 82v81
c-35 -44 -72 -64 -137 -64c-83 0 -135 42 -135 148v342c0 12 7 20 55 20s54 -8 54 -20v-327c0 -49 21 -73 62 -73c38 0 68 23 101 63v337z" />
    <glyph glyph-name="ycircumflex.alt" horiz-adv-x="498" 
d="M205 703c0 0 23 4 47 4c27 0 41 -4 50 -17l68 -99c5 -7 7 -13 7 -18c0 -9 -5 -17 -36 -17h-44l-49 101l-44 -88c-4 -10 -14 -16 -39 -16c-23 0 -39 6 -48 15zM329 480c0 12 7 20 55 20c47 0 54 -8 54 -20v-487c0 -129 -62 -183 -206 -183c-116 0 -142 23 -142 52
c0 21 7 39 15 47c0 0 42 -18 123 -18c72 0 101 23 101 82v81c-35 -44 -72 -64 -137 -64c-83 0 -135 42 -135 148v342c0 12 7 20 55 20s54 -8 54 -20v-327c0 -49 21 -73 62 -73c38 0 68 23 101 63v337z" />
    <glyph glyph-name="ydieresis.alt" horiz-adv-x="498" 
d="M160 671c31 0 57 -26 57 -58c0 -30 -26 -56 -57 -56s-57 26 -57 56c0 32 26 58 57 58zM335 671c32 0 58 -26 58 -58c0 -30 -26 -56 -58 -56c-30 0 -56 26 -56 56c0 32 26 58 56 58zM329 480c0 12 7 20 55 20c47 0 54 -8 54 -20v-487c0 -129 -62 -183 -206 -183
c-116 0 -142 23 -142 52c0 21 7 39 15 47c0 0 42 -18 123 -18c72 0 101 23 101 82v81c-35 -44 -72 -64 -137 -64c-83 0 -135 42 -135 148v342c0 12 7 20 55 20s54 -8 54 -20v-327c0 -49 21 -73 62 -73c38 0 68 23 101 63v337z" />
    <glyph glyph-name="ygrave.alt" horiz-adv-x="498" 
d="M329 480c0 12 7 20 55 20c47 0 54 -8 54 -20v-487c0 -129 -62 -183 -206 -183c-116 0 -142 23 -142 52c0 21 7 39 15 47c0 0 42 -18 123 -18c72 0 101 23 101 82v81c-35 -44 -72 -64 -137 -64c-83 0 -135 42 -135 148v342c0 12 7 20 55 20s54 -8 54 -20v-327
c0 -49 21 -73 62 -73c38 0 68 23 101 63v337zM140 698c1 0 11 9 59 9c26 0 39 -11 45 -25l50 -115c-11 -7 -26 -11 -54 -11c-23 0 -34 7 -42 21z" />
    <glyph glyph-name="Delta" unicode="&#x394;" horiz-adv-x="565" 
d="M501 0h-425c-25 0 -42 6 -50 15l194 624s25 12 64 12c48 0 62 -9 69 -30l176 -560c5 -19 7 -27 7 -35c0 -17 -10 -26 -35 -26zM155 77h248l-123 438z" />
    <glyph glyph-name="Omega" unicode="&#x3a9;" horiz-adv-x="623" 
d="M268 199v-199h-189c-23 0 -33 10 -33 50c0 13 4 33 6 42h125v64c-91 42 -132 124 -132 233c0 162 91 268 265 268c175 0 268 -106 268 -268c0 -107 -41 -188 -131 -231v-66h125c3 -9 6 -29 6 -42c0 -40 -10 -50 -33 -50h-188v199c65 26 96 81 96 177
c0 125 -52 182 -141 182s-142 -57 -142 -182c0 -97 32 -151 98 -177z" />
    <glyph glyph-name="mu" unicode="&#x3bc;" horiz-adv-x="488" 
d="M156 -118c0 -12 -6 -20 -47 -20s-47 8 -47 20v526c0 45 -8 78 -8 78c14 9 34 14 59 14c46 0 58 -9 58 -69v-278c0 -49 24 -76 64 -76c46 0 80 39 93 53v350c0 12 7 20 56 20c47 0 53 -8 53 -20v-460c0 -11 -6 -20 -53 -20c-49 0 -56 9 -56 20v40
c-26 -32 -66 -70 -135 -70c-13 0 -26 1 -37 4v-112z" />
    <glyph glyph-name="pi" unicode="&#x3c0;" horiz-adv-x="549" 
d="M90 18v398h-55c-2 9 -5 27 -5 39c0 36 9 45 30 45h455c3 -8 5 -26 5 -38c0 -37 -9 -46 -30 -46h-32v-316c0 -45 11 -86 11 -86c-14 -11 -32 -16 -61 -16c-45 0 -59 16 -59 71v347h-150v-398c0 -11 -7 -20 -55 -20c-47 0 -54 9 -54 20z" />
    <glyph glyph-name="zero" unicode="0" horiz-adv-x="570" 
d="M282 657c159 0 245 -114 245 -327c0 -222 -86 -336 -245 -336c-153 0 -238 116 -238 335c0 212 85 328 238 328zM412 327c0 177 -46 237 -122 237c-77 0 -121 -60 -121 -237c0 -174 44 -240 122 -240c75 0 121 67 121 240z" />
    <glyph glyph-name="one" unicode="1" horiz-adv-x="441" 
d="M414 89c3 -10 5 -28 5 -40c0 -39 -8 -49 -32 -49h-337c-3 9 -6 28 -6 40c0 40 9 49 33 49h104v470c-8 -1 -89 -4 -109 -4c-30 0 -35 16 -35 53c0 13 3 33 6 43c40 0 163 6 206 6c42 0 52 -9 52 -24v-544h113z" />
    <glyph glyph-name="two" unicode="2" horiz-adv-x="478" 
d="M57 651c15 0 87 6 158 6c148 0 213 -76 213 -183c0 -194 -260 -278 -260 -370c0 -5 0 -9 1 -12h261c4 -10 8 -27 8 -43c0 -34 -16 -49 -43 -49h-345c-6 15 -11 35 -11 62c0 196 265 245 265 397c0 66 -35 100 -102 100c-32 0 -88 -4 -117 -4s-34 16 -34 54
c0 12 3 32 6 42z" />
    <glyph glyph-name="three" unicode="3" horiz-adv-x="477" 
d="M50 651h327c35 0 48 -13 48 -56c0 -46 -18 -80 -52 -118l-114 -131c8 1 13 1 20 1c96 0 160 -57 160 -155c0 -122 -68 -198 -233 -198c-123 0 -162 21 -162 54c0 23 7 48 15 56c0 0 56 -17 142 -17c81 0 117 38 117 104s-49 95 -130 95c-17 0 -37 -2 -49 -2
c-17 0 -25 10 -25 30v20l150 167c26 29 32 37 32 55h-218c-24 0 -34 10 -34 53c0 12 3 32 6 42z" />
    <glyph glyph-name="four" unicode="4" horiz-adv-x="528" 
d="M298 248v290l-170 -290h170zM497 248c3 -8 6 -26 6 -36c0 -37 -8 -46 -30 -46h-60v-146c0 -11 -7 -20 -57 -20s-58 9 -58 20v146h-261s-14 10 -14 38c0 23 5 40 21 67l223 381s23 1 66 1c64 0 80 -10 80 -32v-373h84z" />
    <glyph glyph-name="five" unicode="5" horiz-adv-x="473" 
d="M82 651h330c3 -10 6 -30 6 -42c0 -43 -9 -53 -34 -53h-205l-8 -180h42c148 0 221 -61 221 -180c0 -123 -69 -202 -233 -202c-123 0 -163 21 -163 54c0 23 7 48 15 56c0 0 57 -17 143 -17c80 0 116 39 116 104c0 66 -50 99 -131 99h-115z" />
    <glyph glyph-name="six" unicode="6" horiz-adv-x="519" 
d="M44 309c0 219 89 348 272 348c67 0 103 -6 126 -6c3 -10 6 -30 6 -42c0 -38 -5 -54 -35 -54c-19 0 -50 4 -86 4c-96 0 -153 -47 -161 -206c30 20 71 33 118 33c123 0 201 -62 201 -186c0 -122 -78 -206 -214 -206c-145 0 -227 87 -227 315zM266 309
c-48 0 -80 -18 -101 -36c5 -156 43 -192 106 -192c68 0 98 50 98 116s-31 112 -103 112z" />
    <glyph glyph-name="seven" unicode="7" horiz-adv-x="451" 
d="M35 651h358c27 0 38 -7 38 -44c0 -24 -7 -49 -38 -121l-196 -456c-10 -23 -22 -34 -53 -34c-26 0 -55 8 -66 19l206 488c10 24 15 38 15 53h-236c-25 0 -34 10 -34 53c0 12 3 32 6 42z" />
    <glyph glyph-name="eight" unicode="8" horiz-adv-x="529" 
d="M475 485c0 -74 -42 -126 -96 -152c60 -28 110 -69 110 -154c0 -102 -81 -185 -228 -185s-220 83 -220 185c0 78 45 134 101 160c-49 29 -86 70 -86 144c0 100 68 174 204 174c138 0 215 -70 215 -172zM158 182c0 -54 39 -95 102 -95c64 0 102 42 102 95
c0 61 -57 86 -122 112c-28 -13 -82 -47 -82 -112zM365 472c0 52 -39 92 -98 92c-58 0 -93 -38 -93 -88c0 -61 54 -85 117 -109c31 15 74 46 74 105z" />
    <glyph glyph-name="nine" unicode="9" horiz-adv-x="519" 
d="M34 451c0 122 77 206 214 206c145 0 227 -87 227 -315c0 -241 -109 -348 -266 -348c-66 0 -109 6 -131 6c-4 10 -7 30 -7 43c0 38 5 53 35 53c19 0 51 -3 87 -3c98 0 150 47 159 204c-30 -19 -70 -31 -117 -31c-129 0 -201 67 -201 185zM253 342c47 0 79 18 100 36
c-4 155 -42 192 -104 192c-69 0 -99 -50 -99 -115c0 -66 31 -113 103 -113z" />
    <glyph glyph-name="fraction" unicode="&#x2044;" horiz-adv-x="388" 
d="M291 698c7 20 19 26 32 26c22 0 45 -12 58 -27l-284 -771c-7 -20 -18 -26 -32 -26c-22 0 -45 12 -57 27z" />
    <glyph glyph-name="onehalf" unicode="&#xbd;" horiz-adv-x="963" 
d="M567 698c7 20 18 26 33 26c21 0 44 -12 56 -27l-283 -771c-7 -20 -18 -26 -32 -26c-22 0 -45 12 -57 27zM44 651c34 0 135 6 170 6c34 0 42 -8 42 -21v-351h94c1 -7 4 -23 4 -32c0 -32 -7 -40 -26 -40h-277c-2 8 -5 23 -5 33c0 31 8 39 27 39h86v292c-9 0 -75 -3 -92 -3
c-24 0 -28 13 -28 43c0 10 2 27 5 34zM639 437c23 0 75 7 118 7c111 0 161 -47 161 -136c0 -137 -183 -159 -183 -222c0 -7 1 -12 2 -14h181c4 -8 7 -21 7 -33c0 -27 -12 -39 -33 -39h-257c-5 11 -12 31 -12 54c0 139 199 146 199 246c0 45 -19 65 -76 65
c-25 0 -60 -5 -84 -5s-28 13 -28 44c0 11 2 25 5 33z" />
    <glyph glyph-name="onethird" unicode="&#x2153;" horiz-adv-x="976" 
d="M568 698c7 20 18 26 32 26c22 0 45 -12 57 -27l-283 -771c-7 -20 -18 -26 -33 -26c-21 0 -44 12 -56 27zM45 651c33 0 134 6 169 6s43 -8 43 -21v-351h93c2 -7 5 -23 5 -32c0 -32 -7 -40 -26 -40h-278c-1 8 -4 23 -4 33c0 31 8 39 27 39h86v292c-9 0 -76 -3 -92 -3
c-24 0 -28 13 -28 43c0 10 2 27 5 34zM642 438h246c27 0 38 -9 38 -39c0 -34 -16 -60 -43 -87l-77 -82c6 1 13 2 21 2c68 0 115 -38 115 -106c0 -81 -51 -132 -176 -132c-100 0 -134 20 -134 49c0 18 9 40 16 45c0 0 37 -19 110 -19c59 0 84 24 84 64c0 39 -26 58 -77 58
c-21 0 -42 -2 -52 -2c-14 0 -19 7 -19 20v13l93 96c23 23 28 30 28 44h-146c-24 0 -33 8 -33 42c0 11 3 26 6 34z" />
    <glyph glyph-name="onequarter" unicode="&#xbc;" horiz-adv-x="991" 
d="M570 698c8 20 19 26 33 26c22 0 45 -12 57 -27l-284 -771c-6 -20 -18 -26 -32 -26c-21 0 -44 12 -57 27zM54 213c-2 8 -4 23 -4 33c0 31 7 39 26 39h86v292c-8 0 -75 -3 -92 -3c-24 0 -27 13 -27 43c0 10 2 27 5 34c33 0 134 6 169 6s42 -8 42 -21v-351h94
c2 -7 4 -23 4 -32c0 -32 -7 -40 -26 -40h-277zM777 165v199l-121 -199h121zM874 93v-75c0 -10 -7 -18 -49 -18s-48 8 -48 18v75h-205c-5 5 -10 14 -10 28c0 16 3 27 15 49l161 269h81c44 0 55 -6 55 -21v-253h81c4 -8 6 -21 6 -33c0 -27 -12 -39 -33 -39h-54z" />
    <glyph glyph-name="threequarters" unicode="&#xbe;" horiz-adv-x="994" 
d="M586 698c7 20 18 26 33 26c21 0 44 -12 56 -27l-283 -771c-7 -20 -18 -26 -32 -26c-22 0 -45 12 -57 27zM50 651h246c28 0 38 -9 38 -39c0 -34 -15 -60 -43 -87l-76 -82c6 1 12 2 20 2c69 0 116 -38 116 -106c0 -81 -52 -132 -177 -132c-100 0 -133 20 -133 49
c0 18 9 40 15 45c0 0 37 -19 110 -19c60 0 85 24 85 64c0 39 -27 58 -78 58c-21 0 -42 -2 -52 -2c-13 0 -19 7 -19 20v13l93 96c23 23 28 30 28 44h-145c-24 0 -34 8 -34 42c0 11 3 26 6 34zM938 93h-61v-75c0 -10 -7 -18 -49 -18s-48 8 -48 18v75h-205s-10 9 -10 28
c0 16 3 27 15 49l161 269h81c44 0 55 -6 55 -21v-253h82s5 -15 5 -33c0 -31 -7 -39 -26 -39zM780 165v199l-121 -199h121z" />
    <glyph glyph-name="zerosuperior" unicode="&#x2070;" horiz-adv-x="445" 
d="M305 433c0 97 -30 144 -84 144c-53 0 -83 -46 -83 -144c0 -99 30 -148 83 -148c54 0 84 49 84 148zM45 433c0 133 58 224 176 224s179 -91 179 -224c0 -134 -61 -226 -179 -226s-176 92 -176 226z" />
    <glyph glyph-name="onesuperior" unicode="&#xb9;" horiz-adv-x="393" 
d="M58 213c-2 8 -4 23 -4 33c0 31 7 39 26 39h86v292c-8 0 -75 -3 -92 -3c-24 0 -27 13 -27 43c0 10 2 27 5 34c33 0 134 6 169 6s42 -8 42 -21v-351h94c2 -7 4 -23 4 -32c0 -32 -7 -40 -26 -40h-277z" />
    <glyph glyph-name="twosuperior" unicode="&#xb2;" horiz-adv-x="396" 
d="M59 650c23 0 75 7 118 7c112 0 162 -47 162 -136c0 -137 -184 -159 -184 -222c0 -7 2 -12 2 -14h182c4 -8 6 -21 6 -33c0 -27 -12 -39 -33 -39h-256c-6 11 -13 31 -13 54c0 139 199 146 199 246c0 45 -19 65 -76 65c-24 0 -59 -5 -84 -5c-24 0 -28 13 -28 44
c0 11 2 25 5 33z" />
    <glyph glyph-name="threesuperior" unicode="&#xb3;" horiz-adv-x="400" 
d="M55 651h246c27 0 37 -9 37 -39c0 -34 -14 -60 -42 -87l-76 -82c5 1 12 2 19 2c70 0 116 -38 116 -106c0 -81 -51 -132 -176 -132c-101 0 -133 20 -133 49c0 18 8 40 15 45c0 0 36 -19 110 -19c59 0 84 24 84 64c0 39 -27 58 -77 58c-22 0 -42 -2 -53 -2
c-13 0 -18 7 -18 20v13l93 96c22 23 28 30 28 44h-145c-25 0 -34 8 -34 42c0 11 3 26 6 34z" />
    <glyph glyph-name="ordfeminine" unicode="&#xaa;" horiz-adv-x="416" 
d="M272 226v30c-32 -37 -67 -58 -120 -58c-75 0 -121 46 -121 118c0 76 50 121 152 121c31 0 59 -3 89 -12v92c0 46 -19 61 -64 61c-46 0 -83 -6 -109 -6c-31 0 -36 13 -36 42c0 10 3 27 7 35c24 0 98 9 146 9c110 0 153 -38 153 -140v-292c0 -10 -7 -17 -50 -17
c-42 0 -47 7 -47 17zM272 375c-19 5 -42 9 -67 9c-56 0 -82 -19 -82 -60c0 -36 21 -57 59 -57c29 0 52 12 90 47v61z" />
    <glyph glyph-name="ordmasculine" unicode="&#xba;" horiz-adv-x="449" 
d="M315 433c0 98 -33 144 -92 144s-91 -46 -91 -144c0 -100 32 -148 91 -148s92 48 92 148zM410 433c0 -134 -63 -226 -187 -226s-184 92 -184 226s60 224 184 224s187 -90 187 -224z" />
    <glyph glyph-name="asterisk" unicode="*" horiz-adv-x="435" 
d="M176 508c8 0 22 -10 30 -19c-16 -41 -28 -68 -42 -94c-6 -14 -13 -18 -22 -18c-19 0 -51 21 -56 49c62 67 77 82 90 82zM73 630c86 -38 105 -51 105 -66c0 -9 -5 -22 -10 -28c-12 -1 -24 0 -63 3c-49 6 -65 14 -65 32s11 53 33 59zM261 513c62 -51 90 -74 90 -88
c0 -19 -34 -46 -56 -46h-9c-43 71 -52 91 -52 104c0 12 14 24 27 30zM218 724c22 0 35 -8 40 -15c-6 -46 -11 -77 -16 -108c-3 -10 -10 -15 -25 -15c-8 0 -15 1 -19 2c-8 31 -22 85 -22 116c0 10 11 20 42 20zM363 631c19 0 31 -36 31 -56c0 -11 -2 -17 -5 -22
c-54 -13 -82 -18 -98 -18c-28 0 -33 13 -36 37c39 25 90 59 108 59z" />
    <glyph glyph-name="backslash" unicode="\" horiz-adv-x="419" 
d="M340 -100c-14 0 -25 6 -33 26l-284 771c12 14 35 27 57 27c13 0 25 -6 32 -26l284 -771c-12 -14 -36 -27 -56 -27z" />
    <glyph glyph-name="bullet" unicode="&#x2022;" horiz-adv-x="326" 
d="M259 323c0 -53 -43 -95 -96 -95c-54 0 -95 42 -95 95s41 96 95 96c53 0 96 -43 96 -96z" />
    <glyph glyph-name="colon" unicode=":" horiz-adv-x="236" 
d="M118 122c36 0 65 -28 65 -64c0 -35 -29 -64 -65 -64c-35 0 -64 29 -64 64c0 36 29 64 64 64zM118 509c36 0 65 -29 65 -65c0 -35 -29 -63 -65 -63c-35 0 -64 28 -64 63c0 36 29 65 64 65z" />
    <glyph glyph-name="comma" unicode="," horiz-adv-x="212" 
d="M19 -138l58 140c-21 11 -35 31 -35 57c0 36 27 63 63 63c35 0 64 -27 64 -63s-22 -83 -80 -199c-7 -13 -15 -19 -28 -19c-15 0 -35 10 -42 21z" />
    <glyph glyph-name="ellipsis" unicode="&#x2026;" horiz-adv-x="672" 
d="M170 58c0 -35 -29 -64 -65 -64c-35 0 -63 29 -63 64c0 36 28 64 63 64c36 0 65 -28 65 -64zM400 58c0 -35 -29 -64 -65 -64c-35 0 -63 29 -63 64c0 36 28 64 63 64c36 0 65 -28 65 -64zM631 58c0 -35 -29 -64 -65 -64c-35 0 -64 29 -64 64c0 36 29 64 64 64
c36 0 65 -28 65 -64z" />
    <glyph glyph-name="exclam" unicode="!" horiz-adv-x="238" 
d="M181 629l-16 -434h-54c-30 0 -40 10 -42 39l-10 409c12 9 31 14 60 14c47 0 62 -12 62 -28zM56 48c0 35 19 59 63 59c45 0 63 -24 63 -59c0 -34 -18 -58 -63 -58c-44 0 -63 24 -63 58z" />
    <glyph glyph-name="exclamdown" unicode="&#xa1;" horiz-adv-x="229" 
d="M53 -126l16 434h53c31 0 41 -10 42 -39l11 -409c-12 -9 -32 -14 -60 -14c-47 0 -62 12 -62 28zM178 455c0 -34 -20 -59 -63 -59c-45 0 -64 25 -64 59s19 58 64 58c43 0 63 -24 63 -58z" />
    <glyph glyph-name="numbersign" unicode="#" horiz-adv-x="591" 
d="M489 181h-89l-23 -150c-4 -24 -19 -31 -39 -31c-18 0 -34 9 -43 19l25 162h-99l-23 -150c-4 -24 -19 -31 -39 -31c-18 0 -35 9 -43 19l25 162h-99c-3 9 -5 26 -5 38c0 38 7 46 30 46h87l21 140h-97c-2 10 -6 26 -6 37c0 38 9 47 32 47h84l21 132c4 23 19 30 39 30
c17 0 34 -8 42 -18l-22 -144h99l21 132c4 23 19 30 39 30c18 0 34 -8 43 -18l-23 -144h103c2 -8 6 -26 6 -38c0 -37 -9 -46 -32 -46h-90l-21 -140h101c3 -9 5 -27 5 -38c0 -36 -7 -46 -30 -46zM255 405l-21 -140h99l21 140h-99z" />
    <glyph glyph-name="period" unicode="." horiz-adv-x="211" 
d="M42 58c0 36 28 64 63 64c36 0 65 -28 65 -64c0 -35 -29 -64 -65 -64c-35 0 -63 29 -63 64z" />
    <glyph glyph-name="periodcentered" unicode="&#xb7;" horiz-adv-x="249" 
d="M203 323c0 -46 -35 -76 -78 -76s-78 30 -78 76s35 77 78 77s78 -31 78 -77z" />
    <glyph glyph-name="question" unicode="?" horiz-adv-x="446" 
d="M251 48c0 -34 -19 -58 -64 -58c-43 0 -63 24 -63 58c0 35 20 59 63 59c45 0 64 -24 64 -59zM176 177c-28 0 -38 15 -38 36c0 118 150 125 150 246c0 66 -35 100 -101 100c-30 0 -95 -4 -117 -4c-29 0 -35 16 -35 54c0 12 3 32 6 42c28 0 102 6 158 6
c137 0 207 -67 207 -181c0 -176 -175 -173 -175 -299h-55z" />
    <glyph glyph-name="questiondown" unicode="&#xbf;" horiz-adv-x="441" 
d="M194 455c0 34 18 58 63 58c44 0 63 -24 63 -58s-19 -59 -63 -59c-45 0 -63 25 -63 59zM39 27c0 176 174 173 174 299h55c29 0 38 -15 38 -36c0 -118 -150 -124 -150 -246c0 -66 35 -100 102 -100c29 0 94 4 117 4c24 0 34 -9 34 -51c0 -15 -3 -35 -6 -45
c-28 0 -102 -6 -158 -6c-137 0 -206 67 -206 181z" />
    <glyph glyph-name="quotedbl" unicode="&#x22;" horiz-adv-x="398" 
d="M103 428c-29 0 -44 12 -48 43c-5 37 -8 126 -8 199c13 6 34 11 54 11c44 0 57 -11 57 -33c0 -51 -13 -164 -20 -216c0 0 -7 -4 -35 -4zM297 428c-29 0 -44 12 -48 43c-5 37 -8 126 -8 199c13 6 35 11 54 11c44 0 57 -11 57 -33c0 -51 -13 -164 -20 -216c0 0 -6 -4 -35 -4
z" />
    <glyph glyph-name="quotesingle" unicode="'" horiz-adv-x="212" 
d="M59 471c-5 37 -8 126 -8 199c13 6 34 11 54 11c44 0 57 -11 57 -33c0 -51 -13 -164 -20 -216c0 0 -7 -4 -35 -4c-29 0 -44 12 -48 43z" />
    <glyph glyph-name="semicolon" unicode=";" horiz-adv-x="250" 
d="M127 509c36 0 64 -29 64 -65c0 -35 -28 -63 -64 -63c-35 0 -64 28 -64 63c0 36 29 65 64 65zM40 -138c7 -11 28 -21 43 -21c13 0 21 6 28 19c58 116 80 163 80 199s-29 63 -64 63c-36 0 -64 -27 -64 -63c0 -26 15 -46 36 -57z" />
    <glyph glyph-name="slash" unicode="/" horiz-adv-x="419" 
d="M308 698c7 20 18 26 32 26c22 0 45 -13 56 -27l-284 -771c-7 -20 -19 -26 -32 -26c-22 0 -45 13 -57 27z" />
    <glyph glyph-name="underscore" unicode="_" horiz-adv-x="530" 
d="M60 -132c-3 8 -5 23 -5 34c0 34 7 41 27 41h389c1 -8 5 -23 5 -34c0 -33 -8 -41 -28 -41h-388z" />
    <glyph glyph-name="braceleft" unicode="{" horiz-adv-x="345" 
d="M197 719h113c3 -8 5 -26 5 -38c0 -38 -7 -46 -30 -46h-32c-49 0 -65 -18 -65 -52c0 -45 20 -137 20 -194c0 -40 -14 -70 -51 -86c37 -16 51 -46 51 -85c0 -57 -20 -148 -20 -193c0 -35 16 -53 65 -53h57c3 -8 5 -26 5 -38c0 -38 -7 -46 -30 -46h-88
c-85 0 -117 44 -117 104c0 68 21 167 21 223c0 36 -14 53 -42 53h-18c-9 0 -12 6 -12 36c0 25 4 35 4 35h21c38 0 47 19 47 53c0 56 -21 156 -21 223c0 60 32 104 117 104z" />
    <glyph glyph-name="braceright" unicode="}" horiz-adv-x="345" 
d="M60 719h88c85 0 117 -44 117 -104c0 -67 -21 -167 -21 -222c0 -37 14 -53 42 -53h18c9 0 13 -6 13 -36c0 -26 -5 -36 -5 -36h-20c-39 0 -48 -19 -48 -53c0 -55 21 -155 21 -223c0 -60 -32 -104 -117 -104h-112c-3 8 -5 26 -5 38c0 38 7 46 29 46h32c49 0 65 18 65 53
c0 45 -20 136 -20 193c0 40 14 70 51 86c-37 16 -51 46 -51 86c0 57 20 148 20 193c0 34 -16 52 -65 52h-56c-3 8 -5 26 -5 38c0 38 7 46 29 46z" />
    <glyph glyph-name="bracketleft" unicode="[" horiz-adv-x="312" 
d="M278 719c3 -8 6 -26 6 -37c0 -38 -9 -47 -31 -47h-80v-663h105c3 -9 6 -26 6 -37c0 -38 -9 -47 -31 -47h-159c-23 0 -31 8 -31 31v769c0 23 8 31 31 31h184z" />
    <glyph glyph-name="bracketright" unicode="]" horiz-adv-x="312" 
d="M34 -112c-4 8 -6 26 -6 37c0 38 8 47 30 47h80v663h-104c-4 9 -6 26 -6 37c0 38 8 47 30 47h160c23 0 31 -8 31 -31v-769c0 -23 -8 -31 -31 -31h-184z" />
    <glyph glyph-name="parenleft" unicode="(" horiz-adv-x="287" 
d="M261 675c-14 -10 -108 -137 -108 -366s94 -356 108 -366c0 0 -13 -43 -51 -43c-57 0 -173 174 -173 409c0 236 116 409 173 409c38 0 51 -43 51 -43z" />
    <glyph glyph-name="parenright" unicode=")" horiz-adv-x="287" 
d="M78 718c56 0 172 -173 172 -409c0 -235 -116 -409 -172 -409c-38 0 -51 43 -51 43c13 10 107 137 107 366s-94 356 -107 366c0 0 13 43 51 43z" />
    <glyph glyph-name="emdash" unicode="&#x2014;" horiz-adv-x="694" 
d="M64 260c-7 7 -12 20 -12 36c0 26 6 41 25 41h553c7 -7 13 -21 13 -36c0 -26 -7 -41 -25 -41h-554z" />
    <glyph glyph-name="endash" unicode="&#x2013;" horiz-adv-x="479" 
d="M64 260c-7 7 -12 20 -12 36c0 26 6 41 25 41h338c7 -7 13 -21 13 -36c0 -26 -7 -41 -25 -41h-339z" />
    <glyph glyph-name="hyphen" unicode="-" horiz-adv-x="393" 
d="M335 348c4 -11 8 -31 8 -45c0 -42 -10 -53 -36 -53h-250c-3 11 -6 31 -6 43c0 45 9 55 35 55h249z" />
    <glyph glyph-name="guillemotleft" unicode="&#xab;" horiz-adv-x="507" 
d="M145 396c10 14 24 23 55 23c30 0 41 -9 46 -22l-125 -188l113 -169c8 -12 11 -18 11 -27c0 -6 -3 -13 -21 -13h-62l-108 159c-9 12 -15 25 -15 54c0 16 2 22 4 32zM369 396c10 14 23 23 54 23s41 -9 46 -22l-125 -188l114 -169c7 -12 11 -18 11 -27c0 -6 -4 -13 -22 -13
h-61l-109 159c-8 12 -15 25 -15 54c0 16 2 22 4 32z" />
    <glyph glyph-name="guillemotright" unicode="&#xbb;" horiz-adv-x="508" 
d="M61 419h62l108 -159c9 -11 15 -25 15 -53c0 -17 -2 -23 -4 -33l-102 -151c-10 -13 -24 -23 -55 -23c-30 0 -41 9 -46 22l125 188l-113 170c-8 11 -11 18 -11 26c0 6 3 13 21 13zM284 419h62l109 -159c8 -11 15 -25 15 -53c0 -17 -3 -23 -4 -33l-103 -151
c-10 -13 -24 -23 -55 -23c-30 0 -40 9 -45 22l125 188l-114 170c-8 11 -11 18 -11 26c0 6 3 13 21 13z" />
    <glyph glyph-name="guilsinglleft" unicode="&#x2039;" horiz-adv-x="284" 
d="M145 396c10 14 24 23 55 23c30 0 41 -9 46 -22l-125 -188l113 -170c11 -15 11 -18 11 -26c0 -6 -3 -13 -21 -13h-62l-108 159c-9 12 -15 25 -15 54c0 16 2 22 4 32z" />
    <glyph glyph-name="guilsinglright" unicode="&#x203a;" horiz-adv-x="285" 
d="M61 419h62l108 -159c9 -11 15 -25 15 -53c0 -17 -2 -23 -4 -33l-102 -151c-10 -13 -24 -23 -55 -23c-30 0 -41 9 -46 22l125 188l-113 170c-8 11 -11 18 -11 26c0 6 3 13 21 13z" />
    <glyph glyph-name="quotedblbase" unicode="&#x201e;" horiz-adv-x="446" 
d="M291 -129c-15 0 -24 6 -27 14c0 0 27 72 39 125c-29 8 -45 25 -45 62c0 32 25 66 73 66s73 -34 73 -70c0 -30 -16 -74 -40 -124c-28 -59 -45 -73 -73 -73zM74 -129c-15 0 -24 6 -28 14c0 0 27 72 39 125c-28 8 -44 25 -44 62c0 32 24 66 73 66c47 0 72 -34 72 -70
c0 -30 -15 -74 -39 -124c-28 -59 -46 -73 -73 -73z" />
    <glyph glyph-name="quotedblleft" unicode="&#x201c;" horiz-adv-x="448" 
d="M152 664c15 0 24 -5 28 -13c0 0 -27 -73 -39 -125c28 -8 44 -24 44 -62c0 -32 -24 -66 -73 -66c-47 0 -72 34 -72 70c0 30 15 73 39 123c28 59 46 73 73 73zM370 664c15 0 24 -5 27 -13c0 0 -26 -73 -39 -125c29 -8 45 -24 45 -62c0 -32 -25 -66 -73 -66s-73 34 -73 70
c0 30 16 73 40 123c28 59 46 73 73 73z" />
    <glyph glyph-name="quotedblright" unicode="&#x201d;" horiz-adv-x="448" 
d="M267 596c0 32 25 67 73 67s73 -35 73 -71c0 -30 -16 -73 -40 -123c-28 -59 -45 -73 -73 -73c-15 0 -24 6 -27 14c0 0 27 72 39 124c-29 8 -45 25 -45 62zM50 596c0 32 24 67 73 67c47 0 72 -35 72 -71c0 -30 -15 -73 -39 -123c-28 -59 -46 -73 -73 -73
c-15 0 -24 6 -28 14c0 0 27 72 39 124c-28 8 -44 25 -44 62z" />
    <glyph glyph-name="quoteleft" unicode="&#x2018;" horiz-adv-x="231" 
d="M152 664c15 0 24 -5 28 -13c0 0 -27 -73 -39 -125c28 -8 44 -24 44 -62c0 -32 -24 -66 -73 -66c-47 0 -72 34 -72 70c0 30 15 73 39 123c28 59 46 73 73 73z" />
    <glyph glyph-name="quoteright" unicode="&#x2019;" horiz-adv-x="231" 
d="M83 396c-15 0 -24 6 -28 14c0 0 27 72 39 124c-28 8 -44 25 -44 62c0 32 24 67 73 67c47 0 72 -35 72 -71c0 -30 -15 -73 -39 -123c-28 -59 -46 -73 -73 -73z" />
    <glyph glyph-name="quotesinglbase" unicode="&#x201a;" horiz-adv-x="228" 
d="M74 -129c-15 0 -24 6 -28 14c0 0 27 72 39 125c-28 8 -44 25 -44 62c0 32 24 66 73 66c47 0 72 -34 72 -70c0 -30 -15 -74 -39 -124c-28 -59 -46 -73 -73 -73z" />
    <glyph glyph-name="florin" unicode="&#x192;" horiz-adv-x="414" 
d="M66 342c-1 8 -4 22 -4 33c0 30 8 37 25 37h56v97c0 82 46 133 142 133c38 0 68 -7 96 -7c4 -10 8 -27 8 -43c0 -21 -7 -40 -36 -40c-16 0 -27 2 -48 2c-33 0 -53 -19 -53 -55v-87h124c2 -7 4 -22 4 -32c0 -29 -7 -38 -25 -38h-103v-296c0 -72 -39 -116 -127 -116
c-68 0 -90 18 -90 51c0 32 14 47 15 48c0 0 23 -10 54 -10c28 0 39 13 39 36v287h-77z" />
    <glyph glyph-name="Euro" unicode="&#x20ac;" horiz-adv-x="552" 
d="M418 398c0 -23 -6 -36 -22 -36h-166c-1 -13 -1 -26 -1 -40s0 -26 1 -38h177c6 -7 11 -19 11 -33c0 -23 -6 -37 -22 -37h-158c19 -91 67 -127 142 -127c65 0 112 17 112 17c7 -7 16 -32 16 -56c0 -32 -46 -54 -147 -54c-140 0 -222 75 -248 220h-66c-5 7 -10 20 -10 34
c0 22 5 36 22 36h46c-1 13 -1 27 -1 41c0 12 0 25 1 37h-58c-5 6 -10 19 -10 33c0 23 5 36 22 36h54c30 159 130 226 260 226c55 0 100 -6 126 -6c4 -10 7 -30 7 -42c0 -38 -5 -54 -35 -54c-25 0 -62 4 -88 4c-77 0 -126 -36 -145 -128h169c6 -7 11 -20 11 -33z" />
    <glyph glyph-name="cent" unicode="&#xa2;" horiz-adv-x="412" 
d="M33 291c0 141 78 218 203 218c49 0 109 -8 125 -9c4 -7 7 -25 7 -35c0 -32 -5 -44 -31 -44c-19 0 -59 5 -87 5c-68 0 -110 -42 -110 -137c0 -91 47 -132 123 -132c56 0 89 15 89 15c6 -7 15 -29 15 -49c0 -30 -49 -49 -124 -49c-127 0 -210 71 -210 217zM188 38
c0 0 19 3 39 3c25 0 35 -4 35 -19v-117c-9 -4 -26 -8 -40 -8c-34 0 -42 8 -42 22zM180 679c9 4 26 7 40 7c34 0 42 -7 42 -21l-7 -119s-20 -4 -39 -4c-26 0 -36 5 -36 20v117z" />
    <glyph glyph-name="currency" unicode="&#xa4;" horiz-adv-x="560" 
d="M61 50l66 84c-40 35 -65 88 -65 157s25 123 65 158l-83 106c6 22 30 44 54 44c12 0 20 -4 30 -17l69 -94c24 8 50 12 77 12c32 0 63 -6 90 -17l85 116c43 0 65 -18 65 -40c0 -9 -4 -17 -11 -26l-73 -93c35 -35 56 -85 56 -149s-21 -114 -56 -149l91 -114
c-7 -22 -31 -44 -55 -44c-12 0 -20 4 -30 17l-72 98c-27 -11 -58 -16 -90 -16c-28 0 -54 4 -78 12l-81 -111c-42 0 -65 18 -65 40c0 9 4 18 11 26zM385 291c0 81 -48 122 -111 122c-62 0 -111 -41 -111 -122c0 -80 49 -121 111 -121c63 0 111 41 111 121z" />
    <glyph glyph-name="dollar" unicode="$" horiz-adv-x="457" 
d="M191 711v117c9 4 25 8 40 8c34 0 41 -8 41 -22l-7 -119s-20 -3 -39 -3c-26 0 -35 4 -35 19zM272 -58v-117c-9 -4 -26 -8 -40 -8c-34 0 -41 8 -41 22l7 119s19 3 39 3c25 0 35 -4 35 -19zM201 92c71 0 99 31 99 82c0 119 -255 84 -255 293c0 118 66 190 215 190
c55 0 111 -6 138 -6c4 -10 6 -30 6 -42c0 -38 -5 -54 -34 -54c-26 0 -74 4 -101 4c-68 0 -98 -34 -98 -88c0 -124 254 -84 254 -287c0 -115 -63 -190 -217 -190c-123 0 -163 21 -163 54c0 23 7 50 15 59c0 0 55 -15 141 -15z" />
    <glyph glyph-name="sterling" unicode="&#xa3;" horiz-adv-x="505" 
d="M56 342h50c-7 44 -15 91 -15 138c0 109 66 177 207 177c61 0 107 -6 144 -6c3 -11 6 -31 6 -43c0 -37 -5 -53 -35 -53c-28 0 -66 4 -99 4c-66 0 -99 -34 -99 -104c0 -31 4 -73 8 -113h188c6 -7 11 -20 11 -33c0 -23 -6 -37 -22 -37h-172v-7c0 -81 -40 -129 -40 -160
c0 -11 2 -13 2 -13h258c4 -10 6 -29 6 -41c0 -41 -8 -51 -33 -51h-353s-9 18 -9 47c0 76 54 132 54 216v9h-68c-6 7 -11 19 -11 34c0 22 5 36 22 36z" />
    <glyph glyph-name="yen" unicode="&#xa5;" horiz-adv-x="540" 
d="M449 241h-113v-69h123c6 -7 11 -20 11 -33c0 -23 -5 -36 -21 -36h-113v-83c0 -11 -7 -20 -60 -20c-52 0 -59 9 -59 20v83h-133c-7 7 -12 20 -12 33c0 23 5 36 23 36h122v69h-133c-7 6 -12 20 -12 33c0 22 5 36 23 36h89l-152 326c23 12 53 16 78 16c28 0 42 -9 53 -37
l120 -286l128 322h61c24 0 33 -8 33 -25c0 -14 -5 -26 -16 -49l-123 -267h93c6 -7 11 -20 11 -33c0 -23 -5 -36 -21 -36z" />
    <glyph glyph-name="approxequal" unicode="&#x2248;" horiz-adv-x="438" 
d="M329 498h31c15 0 25 -9 25 -27c0 -95 -45 -134 -97 -134c-68 0 -97 87 -138 87c-24 0 -37 -25 -40 -83h-31c-15 0 -24 9 -24 26c0 93 44 135 96 135c66 0 97 -87 139 -87c23 0 36 23 39 83zM329 286h31c15 0 25 -9 25 -26c0 -95 -45 -134 -97 -134c-68 0 -97 86 -138 86
c-24 0 -37 -24 -40 -82h-31c-15 0 -24 9 -24 26c0 92 44 134 96 134c66 0 97 -86 139 -86c23 0 36 22 39 82z" />
    <glyph glyph-name="asciitilde" unicode="~" horiz-adv-x="444" 
d="M296 293c27 0 39 36 43 102h30c16 0 25 -9 25 -26c0 -101 -43 -154 -100 -154c-69 0 -101 106 -145 106c-26 0 -38 -35 -41 -102h-32c-15 0 -24 9 -24 27c0 100 43 153 99 153c70 0 102 -106 145 -106z" />
    <glyph glyph-name="divide" unicode="&#xf7;" horiz-adv-x="508" 
d="M254 174c36 0 65 -29 65 -65c0 -35 -29 -64 -65 -64c-35 0 -64 29 -64 64c0 36 29 65 64 65zM254 580c36 0 65 -29 65 -65c0 -35 -29 -64 -65 -64c-35 0 -64 29 -64 64c0 36 29 65 64 65zM48 270c-1 9 -5 27 -5 39c0 35 9 45 31 45h385c3 -9 5 -27 5 -39
c0 -36 -8 -45 -30 -45h-386z" />
    <glyph glyph-name="equal" unicode="=" horiz-adv-x="533" 
d="M478 418c0 -37 -9 -46 -32 -46h-384c-3 9 -5 26 -5 37c0 38 7 47 30 47h385c2 -9 6 -27 6 -38zM478 218c0 -37 -9 -46 -32 -46h-384c-3 9 -5 26 -5 37c0 38 7 47 30 47h385c2 -9 6 -27 6 -38z" />
    <glyph glyph-name="greater" unicode="&#x3e;" horiz-adv-x="457" 
d="M114 89c-7 -4 -14 -6 -23 -6c-25 0 -37 32 -39 69l281 138l-263 129c-13 6 -19 13 -19 34s15 42 30 53l310 -157c19 -9 32 -26 32 -57c0 -23 -5 -38 -10 -50z" />
    <glyph glyph-name="greaterequal" unicode="&#x2265;" horiz-adv-x="513" 
d="M417 463c19 -9 31 -25 31 -56c0 -24 -4 -38 -9 -50l-303 -155c-7 -5 -14 -6 -23 -6c-25 0 -37 32 -39 69l285 140l-265 129c-13 7 -20 13 -20 34c0 22 16 43 31 54zM50 41c-1 9 -5 27 -5 39c0 37 9 46 31 46h385c3 -8 5 -27 5 -39c0 -36 -8 -46 -30 -46h-386z" />
    <glyph glyph-name="infinity" unicode="&#x221e;" horiz-adv-x="969" 
d="M705 504c136 0 222 -86 222 -251c0 -153 -79 -260 -227 -260c-103 0 -167 81 -214 168c-47 -85 -107 -168 -214 -168c-138 0 -231 100 -231 260c0 161 98 251 227 251c111 0 173 -86 217 -167c41 78 103 167 220 167zM700 95c79 0 118 61 118 158c0 94 -39 151 -117 151
c-72 0 -119 -81 -157 -156c49 -87 91 -153 156 -153zM270 404c-71 0 -120 -52 -120 -151c0 -98 49 -158 121 -158c67 0 113 78 154 153c-42 75 -93 156 -155 156z" />
    <glyph glyph-name="integral" unicode="&#x222b;" horiz-adv-x="392" 
d="M129 525c0 82 46 132 143 132c37 0 67 -6 95 -6c4 -11 8 -27 8 -43c0 -21 -7 -41 -36 -41c-15 0 -26 3 -48 3c-33 0 -53 -19 -53 -56v-506c0 -72 -38 -116 -127 -116c-70 0 -93 18 -93 51c0 31 13 46 14 47c0 0 25 -9 58 -9c28 0 39 13 39 36v508z" />
    <glyph glyph-name="less" unicode="&#x3c;" horiz-adv-x="459" 
d="M387 169c13 -6 20 -12 20 -34c0 -21 -16 -42 -31 -54l-310 158c-19 10 -31 26 -31 56c0 24 4 39 9 50l299 154c8 5 14 6 24 6c25 0 36 -32 39 -69l-282 -138z" />
    <glyph glyph-name="lessequal" unicode="&#x2264;" horiz-adv-x="514" 
d="M147 413l265 -130c13 -6 20 -12 20 -34c0 -20 -16 -42 -31 -53l-312 158c-19 10 -31 26 -31 57c0 23 4 38 9 50l303 155c7 4 14 6 23 6c25 0 37 -32 39 -69zM55 41c-3 9 -5 27 -5 39c0 37 8 46 30 46h386c2 -8 5 -27 5 -39c0 -36 -9 -46 -31 -46h-385z" />
    <glyph glyph-name="logicalnot" unicode="&#xac;" horiz-adv-x="568" 
d="M58 268c-3 9 -6 26 -6 37c0 37 8 46 31 46h414c8 -9 14 -24 14 -40v-236c0 -10 -5 -16 -41 -16c-37 0 -42 6 -42 16v193h-370z" />
    <glyph glyph-name="minus" unicode="&#x2212;" horiz-adv-x="529" 
d="M60 270c-3 9 -5 27 -5 39c0 36 8 45 30 45h386c2 -8 5 -27 5 -39c0 -36 -9 -45 -31 -45h-385z" />
    <glyph glyph-name="multiply" unicode="&#xd7;" horiz-adv-x="484" 
d="M182 313l-132 133c-3 3 -5 5 -5 8c0 12 43 55 55 55c4 0 6 -1 9 -4l132 -133l134 133c2 3 5 4 9 4c11 0 54 -43 54 -55c0 -3 -2 -5 -4 -8l-134 -133l134 -133c2 -2 4 -5 4 -8c0 -11 -42 -55 -54 -55c-3 0 -6 2 -8 4l-135 134l-133 -134c-3 -2 -5 -4 -8 -4
c-13 0 -55 44 -55 55c0 3 2 6 5 8z" />
    <glyph glyph-name="notequal" unicode="&#x2260;" horiz-adv-x="520" 
d="M145 171h-90c-2 9 -5 27 -5 39c0 37 9 46 31 46h112l66 116h-204c-2 8 -5 26 -5 38c0 37 9 46 31 46h226l102 179c8 15 17 22 29 22c17 0 29 -10 43 -26l-100 -175h85c3 -8 5 -27 5 -39c0 -36 -8 -45 -30 -45h-108l-66 -116h199c3 -8 5 -27 5 -39c0 -36 -8 -46 -30 -46
h-222l-89 -155c-8 -15 -17 -22 -28 -22c-18 0 -31 10 -43 25z" />
    <glyph glyph-name="partialdiff" unicode="&#x2202;" 
d="M219 559c-54 0 -114 -8 -114 -8s-13 14 -13 44c0 43 32 62 137 62c171 0 255 -103 255 -319c0 -250 -84 -341 -230 -341s-218 89 -218 211c0 116 58 191 194 191c53 0 99 -10 131 -20c-8 144 -51 180 -142 180zM252 325c-69 0 -100 -38 -100 -117c0 -81 35 -123 102 -123
c69 0 107 46 109 218c-24 9 -65 22 -111 22z" />
    <glyph glyph-name="percent" unicode="%" horiz-adv-x="836" 
d="M33 471c0 120 67 186 159 186s159 -65 159 -185c0 -126 -67 -190 -159 -190s-159 66 -159 189zM264 469c0 87 -27 117 -70 117s-70 -30 -70 -117c0 -84 27 -117 70 -117s70 33 70 117zM551 632c7 11 17 19 36 19c26 0 50 -13 58 -26l-361 -605c-7 -12 -17 -20 -36 -20
c-26 0 -50 13 -57 26zM485 184c0 120 67 185 159 185s159 -64 159 -184c0 -126 -67 -191 -159 -191s-159 66 -159 190zM716 182c0 86 -27 117 -69 117c-43 0 -70 -31 -70 -117c0 -85 27 -117 70 -117c42 0 69 32 69 117z" />
    <glyph glyph-name="perthousand" unicode="&#x2030;" horiz-adv-x="1214" 
d="M551 632c7 11 17 19 36 19c26 0 50 -13 58 -26l-361 -605c-7 -12 -17 -20 -36 -20c-26 0 -50 13 -57 26zM33 471c0 120 67 186 159 186s159 -65 159 -185c0 -126 -67 -190 -159 -190s-159 66 -159 189zM264 469c0 87 -27 117 -70 117s-70 -30 -70 -117
c0 -84 27 -117 70 -117s70 33 70 117zM485 184c0 120 67 185 159 185s159 -64 159 -184c0 -126 -67 -191 -159 -191s-159 66 -159 190zM716 182c0 86 -27 117 -69 117c-43 0 -70 -31 -70 -117c0 -85 27 -117 70 -117c42 0 69 32 69 117zM864 184c0 120 66 185 159 185
c92 0 158 -64 158 -184c0 -126 -66 -191 -158 -191c-93 0 -159 66 -159 190zM1095 182c0 86 -27 117 -70 117s-70 -31 -70 -117c0 -85 27 -117 70 -117s70 32 70 117z" />
    <glyph glyph-name="plus" unicode="+" horiz-adv-x="500" 
d="M455 354c3 -9 6 -27 6 -38c0 -37 -8 -46 -31 -46h-135v-152c0 -9 -6 -16 -45 -16s-44 7 -44 16v152h-160c-3 9 -6 26 -6 37c0 38 8 47 31 47h135v154c0 8 5 15 44 15s45 -7 45 -15v-154h160z" />
    <glyph glyph-name="plusminus" unicode="&#xb1;" horiz-adv-x="481" 
d="M399 364h-114v-132c0 -9 -6 -16 -45 -16s-44 7 -44 16v132h-140c-2 9 -6 27 -6 38c0 38 9 46 32 46h114v132c0 9 5 16 44 16s45 -7 45 -16v-132h140c2 -9 6 -27 6 -37c0 -37 -9 -47 -32 -47zM399 59h-343c-2 10 -6 27 -6 37c0 38 9 47 32 47h343c2 -8 6 -26 6 -37
c0 -38 -9 -47 -32 -47z" />
    <glyph glyph-name="product" unicode="&#x220f;" horiz-adv-x="597" 
d="M185 568v-711c0 -12 -8 -20 -60 -20c-53 0 -60 8 -60 20v774c0 12 8 20 60 20h347c51 0 60 -8 60 -20v-774c0 -12 -8 -20 -60 -20c-53 0 -60 8 -60 20v711h-227z" />
    <glyph glyph-name="radical" unicode="&#x221a;" horiz-adv-x="593" 
d="M192 500c24 0 39 -7 44 -32l91 -384l145 602h58c33 0 45 -8 45 -28c0 -9 -5 -29 -12 -56l-153 -552c-8 -30 -22 -50 -63 -50h-89l-117 419h-103c-6 8 -13 22 -13 38c0 28 7 43 27 43h140z" />
    <glyph glyph-name="summation" unicode="&#x2211;" horiz-adv-x="474" 
d="M94 651h327c3 -10 6 -30 6 -42c0 -43 -9 -53 -34 -53h-219c0 -52 3 -64 38 -103l99 -109c0 -5 1 -9 1 -17c0 -19 -5 -30 -69 -98c-61 -67 -71 -89 -71 -113c0 -15 3 -22 4 -24h249c3 -9 6 -28 6 -41c0 -41 -10 -51 -33 -51h-336c-6 9 -18 32 -18 72c0 56 19 101 66 152
l88 98l-94 106c-40 46 -60 85 -60 155v40c0 19 12 28 50 28z" />
    <glyph glyph-name="ampersand" unicode="&#x26;" horiz-adv-x="590" 
d="M28 170c0 84 43 147 133 175c-53 74 -65 109 -65 162c0 81 59 150 174 150c113 0 169 -67 169 -150c0 -85 -49 -147 -139 -186l16 -19l96 -119c25 38 44 86 57 142h50c25 0 36 -10 36 -29c0 -49 -29 -124 -82 -187l67 -83c-14 -19 -42 -36 -68 -36c-25 0 -39 7 -53 25
l-21 26c-43 -29 -94 -47 -151 -47c-148 0 -219 79 -219 176zM233 248l-25 32c-44 -25 -62 -56 -62 -101c0 -58 39 -97 115 -97c28 0 57 9 83 27zM201 498c0 -36 9 -58 57 -122c60 41 83 78 83 122c0 45 -31 70 -70 70c-38 0 -70 -25 -70 -70z" />
    <glyph glyph-name="apple" unicode="&#xf8ff;" horiz-adv-x="1725" 
d="M344 376l-4 31l-128 -42v-88h29c0 -7 -3 -61 -3 -87c0 -43 24 -68 78 -68c52 0 71 18 71 18v78s-11 -6 -30 -6v65h46v-9c0 -58 38 -78 98 -78c47 0 60 14 61 15c-1 -3 -11 -38 -77 -38c-49 0 -76 21 -76 21v-88s25 -23 99 -23c110 0 159 45 159 146c0 92 -7 153 -7 153
h-112s2 -108 2 -112c0 -20 -5 -28 -16 -28c-10 0 -17 8 -17 28c0 4 2 112 2 112h-175zM226 743h100s11 -145 11 -325h-123c0 182 12 325 12 325zM517 526c0 20 -9 28 -25 28c-13 0 -22 -8 -22 -28s9 -32 22 -32c16 0 25 12 25 32zM357 530c0 88 38 139 140 139
c85 0 123 -43 123 -119v-132h-80l-10 61c-8 -43 -29 -68 -78 -68c-59 0 -95 38 -95 119zM789 297c5 31 21 88 82 88c49 0 83 -43 83 -119c0 -94 -49 -144 -135 -144c0 0 2 -16 2 -45h-134c0 182 12 299 12 299h82s8 -54 8 -79zM844 246c0 15 -9 22 -20 22
c-15 0 -25 -9 -25 -32c0 -16 4 -28 4 -28s41 2 41 38zM761 665l-4 31l-123 -38v-88h24c0 -6 -2 -64 -2 -91c0 -43 27 -68 78 -68s71 18 71 18v79s-11 -7 -30 -7v69h58c-2 -36 -2 -87 -2 -152h121c0 180 -9 247 -9 247h-182zM1221 264c0 75 -45 121 -119 121
c-85 0 -130 -46 -130 -135c0 -76 42 -128 141 -128c54 0 76 17 76 17v77s-16 -16 -54 -16c-44 0 -46 26 -46 26h127s5 15 5 38zM1082 252c0 20 10 29 24 29c11 0 19 -8 19 -20c0 -6 -1 -9 -1 -9h-42zM1245 339c0 21 19 39 40 39s39 -18 39 -39s-18 -39 -39 -39
s-40 18 -40 39zM1317 339c0 17 -15 32 -32 32s-32 -15 -32 -32s15 -32 32 -32s32 15 32 32zM1270 359h17c9 0 16 -5 16 -12c0 -8 -2 -11 -9 -13l9 -14h-10l-7 12h-8v-12h-8v39zM1294 346c0 4 -2 6 -7 6h-9v-13h9c5 0 7 2 7 7zM829 743c0 34 26 63 62 63s63 -29 63 -63
c0 -36 -27 -65 -63 -65s-62 29 -62 65zM1075 592c3 21 22 77 86 77c53 0 72 -30 77 -121l7 -130h-122c0 47 2 72 2 99c0 20 -6 27 -16 27c-11 0 -18 -7 -18 -27c0 -27 5 -52 5 -99h-120c0 182 12 247 12 247h80s7 -39 7 -73zM1410 526c0 20 -10 28 -26 28
c-14 0 -24 -8 -24 -28s10 -32 24 -32c16 0 26 12 26 32zM1257 537c0 71 29 132 127 132c106 0 129 -61 129 -132c0 -74 -41 -126 -129 -126c-87 0 -127 52 -127 126z" />
    <glyph glyph-name="at" unicode="@" horiz-adv-x="802" 
d="M546 -20c0 -29 -41 -53 -159 -53c-200 0 -347 115 -347 376c0 254 140 389 370 389c232 0 357 -138 357 -343c0 -184 -63 -264 -175 -264c-54 0 -93 22 -112 60c-31 -30 -69 -49 -125 -49c-77 0 -120 45 -120 110c0 70 44 114 138 114c33 0 62 -6 86 -13v85
c0 44 -22 55 -62 55c-29 0 -75 -4 -101 -4c-24 0 -28 11 -28 39c0 9 2 25 6 33c29 0 84 8 131 8c100 0 146 -32 146 -126v-189c0 -35 17 -52 52 -52c47 0 82 55 82 193c0 161 -99 270 -275 270c-177 0 -288 -110 -288 -316c0 -212 114 -305 265 -305c95 0 138 27 138 27
s21 -15 21 -45zM459 256c-12 5 -37 11 -67 11c-49 0 -69 -21 -69 -53c0 -33 20 -50 57 -50c31 0 52 11 79 34v58z" />
    <glyph glyph-name="bar" unicode="|" horiz-adv-x="210" 
d="M63 -85v788c0 9 6 15 41 15c37 0 43 -6 43 -15v-788c0 -9 -6 -15 -43 -15c-35 0 -41 6 -41 15z" />
    <glyph glyph-name="brokenbar" unicode="&#xa6;" horiz-adv-x="210" 
d="M105 718c37 0 42 -6 42 -15v-335c0 -10 -5 -16 -42 -16c-36 0 -41 6 -41 16v335c0 9 5 15 41 15zM64 -85v336c0 9 5 15 41 15c37 0 42 -6 42 -15v-336c0 -9 -5 -15 -42 -15c-36 0 -41 6 -41 15z" />
    <glyph glyph-name="copyright" unicode="&#xa9;" horiz-adv-x="719" 
d="M40 326c0 195 111 331 319 331c209 0 320 -136 320 -331s-111 -332 -320 -332c-208 0 -319 137 -319 332zM380 230c45 0 75 13 75 13c5 -4 12 -22 12 -38c0 -25 -44 -40 -101 -40c-92 0 -147 52 -147 163c0 108 54 167 147 167c25 0 77 -6 91 -6c3 -7 5 -20 5 -29
c0 -25 -3 -35 -24 -35c-19 0 -43 4 -63 4c-50 0 -78 -31 -78 -102c0 -68 30 -97 83 -97zM602 327c0 157 -85 259 -242 259c-153 0 -242 -102 -242 -259s89 -260 242 -260c157 0 242 103 242 260z" />
    <glyph glyph-name="dagger" unicode="&#x2020;" horiz-adv-x="511" 
d="M195 643c12 9 31 14 60 14c47 0 62 -12 62 -28c0 -5 -1 -73 -3 -162h148c8 -10 16 -27 16 -46c0 -33 -9 -51 -32 -51h-135c-4 -209 -10 -467 -10 -467h-53c-31 0 -42 10 -42 39c-1 19 -4 240 -6 428h-151c-9 9 -15 26 -15 46c0 32 7 51 31 51h132z" />
    <glyph glyph-name="daggerdbl" unicode="&#x2021;" horiz-adv-x="527" 
d="M203 643c12 9 32 14 60 14c47 0 62 -12 62 -28l-3 -162h148c9 -10 16 -27 16 -46c0 -33 -8 -51 -32 -51h-134l-3 -126h153c9 -10 16 -27 16 -46c0 -33 -8 -52 -32 -52h-140l-5 -243h-53c-31 0 -41 10 -42 39l-3 204h-154c-8 9 -15 27 -15 46c0 33 8 52 31 52h137
c-1 42 -2 84 -2 126h-151c-8 9 -15 26 -15 46c0 32 8 51 31 51h133z" />
    <glyph glyph-name="degree" unicode="&#xb0;" horiz-adv-x="356" 
d="M318 497c0 -99 -51 -162 -141 -162c-88 0 -139 64 -139 161c0 96 49 161 140 161s140 -65 140 -160zM111 495c0 -69 22 -105 66 -105c46 0 69 35 69 105s-23 104 -68 104c-46 0 -67 -35 -67 -104z" />
    <glyph glyph-name="lozenge" unicode="&#x25ca;" horiz-adv-x="479" 
d="M160 635c6 3 40 16 83 16c59 0 80 -12 91 -42l116 -311l-128 -350c-5 -3 -37 -17 -81 -17c-50 0 -77 14 -88 42l-124 321zM263 499c-3 8 -12 14 -24 14c-9 0 -16 -3 -21 -5l-81 -211l79 -213c4 -9 11 -14 25 -14c7 0 13 2 19 4l82 224z" />
    <glyph glyph-name="paragraph" unicode="&#xb6;" horiz-adv-x="530" 
d="M31 304c0 137 88 205 268 205c78 0 139 -6 166 -9v-614c0 -10 -6 -16 -43 -16s-42 6 -42 16v538c-5 0 -30 4 -81 4v-302s-22 -9 -60 -9c-120 0 -208 54 -208 187z" />
    <glyph glyph-name="registered" unicode="&#xae;" horiz-adv-x="719" 
d="M40 326c0 195 111 331 319 331c209 0 320 -136 320 -331s-111 -332 -320 -332c-208 0 -319 137 -319 332zM602 327c0 157 -85 259 -242 259c-153 0 -242 -102 -242 -259s89 -260 242 -260c157 0 242 103 242 260zM244 468c0 19 11 31 103 31c96 0 142 -50 142 -121
c0 -40 -17 -72 -47 -89l53 -105c-9 -9 -33 -17 -50 -17c-16 0 -23 3 -30 21l-37 82c-19 -2 -41 -1 -62 2v-88c0 -7 -5 -13 -36 -13c-32 0 -36 6 -36 13v284zM415 374c0 37 -18 60 -63 60c-26 0 -32 -2 -36 -3v-110s13 -4 41 -4c39 0 58 22 58 57z" />
    <glyph glyph-name="section" unicode="&#xa7;" horiz-adv-x="437" 
d="M45 239c0 61 32 110 102 129c-54 27 -103 61 -103 133c0 101 57 156 189 156c44 0 109 -7 137 -7c3 -9 5 -25 5 -40c0 -70 -70 -40 -138 -40c-58 0 -84 -25 -84 -66c0 -83 239 -100 239 -235c0 -62 -32 -111 -102 -130c54 -26 103 -61 103 -134c0 -93 -62 -154 -188 -154
c-105 0 -146 19 -146 53c0 20 8 40 16 48c0 0 44 -18 121 -18c58 0 88 24 88 64c0 84 -239 107 -239 241zM288 256c0 33 -23 54 -55 71c-58 -7 -83 -34 -83 -75c0 -34 22 -54 53 -72c59 9 85 35 85 76z" />
    <glyph glyph-name="trademark" unicode="&#x2122;" horiz-adv-x="859" 
d="M680 629c3 17 13 22 56 22s48 -5 49 -26l20 -351c0 -7 -5 -12 -37 -12c-31 0 -42 6 -42 13l-16 280l-69 -242c-6 -20 -15 -25 -42 -25s-37 5 -42 25l-71 242l-16 -280c0 -7 -5 -13 -33 -13c-29 0 -36 5 -36 12l21 352c0 19 6 25 48 25c44 0 52 -5 56 -22l76 -275zM78 651
h274c3 -7 5 -21 5 -30c0 -30 -7 -37 -25 -37h-87v-307c0 -9 -3 -15 -39 -15s-39 6 -39 15v307h-109c-2 6 -4 20 -4 30c0 30 6 37 24 37z" />
    <glyph glyph-name="asciicircum" unicode="^" horiz-adv-x="437" 
d="M173 690c0 0 16 4 45 4c35 0 48 -6 55 -22l117 -244c6 -13 9 -20 9 -31c0 -16 -32 -27 -87 -27l-96 234c-10 -21 -73 -186 -83 -206c-7 -18 -16 -28 -36 -28c-21 0 -44 9 -59 23z" />
    <glyph glyph-name="space" unicode=" " horiz-adv-x="199" 
 />
    <glyph glyph-name="ff" unicode="&#xfb00;" horiz-adv-x="640" 
d="M23 419c-3 8 -5 25 -5 37c0 35 7 44 29 44h51v88c0 82 39 129 136 129c23 0 79 -3 88 -3c3 -8 6 -26 6 -38c0 -33 -4 -46 -30 -46c-15 0 -30 2 -47 2c-26 0 -44 -14 -44 -43v-89h175v106c0 82 39 130 136 130c22 0 78 -3 88 -3c3 -8 6 -27 6 -38c0 -33 -5 -46 -30 -46
c-16 0 -30 2 -47 2c-26 0 -44 -15 -44 -43v-108h107c2 -8 5 -25 5 -37c0 -35 -8 -44 -29 -44h-83v-399c0 -11 -7 -20 -55 -20s-54 9 -54 20v399h-175v-399c0 -11 -7 -20 -55 -20c-47 0 -54 9 -54 20v399h-75z" />
    <glyph glyph-name="ffi" unicode="&#xfb03;" horiz-adv-x="849" 
d="M98 20v399h-75c-3 8 -5 25 -5 37c0 35 7 44 29 44h51v88c0 82 39 129 136 129c23 0 79 -3 88 -3c3 -8 6 -26 6 -38c0 -33 -4 -46 -30 -46c-15 0 -30 2 -47 2c-26 0 -44 -14 -44 -43v-89h175v106c0 82 39 130 136 130c22 0 78 -3 88 -3c3 -8 6 -27 6 -38
c0 -33 -5 -46 -30 -46c-16 0 -30 2 -47 2c-26 0 -44 -15 -44 -43v-108h244c48 0 55 -8 55 -20v-460c0 -11 -7 -20 -55 -20c-47 0 -54 9 -54 20v399h-190v-399c0 -11 -7 -20 -55 -20s-54 9 -54 20v399h-175v-399c0 -11 -7 -20 -55 -20c-47 0 -54 9 -54 20zM735 724
c36 0 64 -29 64 -64c0 -34 -28 -63 -64 -63c-35 0 -63 29 -63 63c0 35 28 64 63 64z" />
    <glyph glyph-name="ffl" unicode="&#xfb04;" horiz-adv-x="871" 
d="M382 606c0 82 39 130 136 130c22 0 78 -3 88 -3c3 -8 6 -27 6 -38c0 -33 -5 -46 -30 -46c-16 0 -30 2 -47 2c-26 0 -44 -15 -44 -43v-108h107c2 -8 5 -25 5 -37c0 -35 -8 -44 -29 -44h-83v-399c0 -11 -7 -20 -55 -20s-54 9 -54 20v399h-175v-399c0 -11 -7 -20 -55 -20
c-47 0 -54 9 -54 20v399h-75c-3 8 -5 25 -5 37c0 35 7 44 29 44h51v88c0 82 39 129 136 129c23 0 79 -3 88 -3c3 -8 6 -26 6 -38c0 -33 -4 -46 -30 -46c-15 0 -30 2 -47 2c-26 0 -44 -14 -44 -43v-89h175v106zM682 698c0 12 7 20 54 20c48 0 56 -8 56 -20v-589
c0 -22 8 -32 28 -32c14 0 25 3 25 3c1 -1 6 -15 6 -46c0 -25 -23 -40 -71 -40c-78 0 -98 34 -98 103v601z" />
    <glyph glyph-name="A" unicode="A" 
d="M168 182l-45 -156c-5 -22 -16 -31 -46 -31c-25 0 -56 7 -69 18l194 626c18 7 39 12 64 12c48 0 62 -9 69 -30l176 -560c5 -19 7 -27 7 -35c0 -17 -10 -26 -35 -26h-77l-52 182h-186zM188 259h146l-72 256z" />
    <glyph glyph-name="uni00AD" unicode="&#xad;" horiz-adv-x="393" 
d="M335 348c4 -11 8 -31 8 -45c0 -42 -10 -53 -36 -53h-250c-3 11 -6 31 -6 43c0 45 9 55 35 55h249z" />
    </font>
</defs>
</svg>
