<?xml version="1.0" standalone="no"?>
<!DOCTYPE svg PUBLIC "-//W3C//DTD SVG 1.1//EN" "http://www.w3.org/Graphics/SVG/1.1/DTD/svg11.dtd" >
<svg>
<metadata>
Created by FontForge 20110222 at Tue Aug 12 19:59:28 2014
 By Orthosie Webhosting
Copyright (c) 2012 by Miguel Hernandez. All rights reserved.
</metadata>
<defs>
<font id="LolitaUltra" horiz-adv-x="489" >
  <font-face 
    font-family="Lolita Ultra"
    font-weight="900"
    font-stretch="normal"
    units-per-em="1000"
    panose-1="2 0 0 0 0 0 0 0 0 0"
    ascent="750"
    descent="-250"
    x-height="500"
    cap-height="651"
    bbox="-55 -207 1513 911"
    underline-thickness="50"
    underline-position="-50"
    unicode-range="U+0020-FB04"
  />
<missing-glyph horiz-adv-x="268" 
 />
    <glyph glyph-name=".notdef" horiz-adv-x="268" 
 />
    <glyph glyph-name="Aacute" unicode="&#xc1;" horiz-adv-x="555" 
d="M161 39l27 105h165l37 -144h113c34 0 48 12 48 36c0 11 -2 21 -10 48l-164 524c-10 31 -30 43 -100 43c-35 0 -64 -6 -92 -17l-188 -614c19 -15 62 -25 98 -25c43 0 58 12 66 44zM325 252h-109l55 210zM257 803c8 19 26 34 63 34c70 0 83 -13 83 -13l-55 -110
c-11 -20 -26 -28 -57 -28c-40 0 -61 5 -78 15z" />
    <glyph glyph-name="acute" unicode="&#xb4;" horiz-adv-x="430" 
d="M204 803c8 19 26 34 63 34c70 0 83 -13 83 -13l-55 -110c-11 -20 -26 -28 -57 -28c-40 0 -61 5 -78 15z" />
    <glyph glyph-name="Abreve" unicode="&#x102;" horiz-adv-x="555" 
d="M161 39l27 105h165l37 -144h113c34 0 48 12 48 36c0 11 -2 21 -10 48l-164 524c-10 31 -30 43 -100 43c-35 0 -64 -6 -92 -17l-188 -614c19 -15 62 -25 98 -25c43 0 58 12 66 44zM325 252h-109l55 210zM337 865c10 3 23 5 49 5c45 0 58 -8 58 -20v-16
c0 -84 -53 -148 -166 -148c-112 0 -166 64 -166 148v16c0 12 13 20 58 20c26 0 39 -2 49 -5v-33c0 -29 19 -50 59 -50s59 21 59 50v33z" />
    <glyph glyph-name="breve" unicode="&#x2d8;" horiz-adv-x="524" 
d="M321 742c10 3 23 5 49 5c45 0 58 -8 58 -20v-16c0 -84 -53 -148 -166 -148c-112 0 -166 64 -166 148v16c0 12 13 20 58 20c26 0 39 -2 49 -5v-33c0 -29 19 -50 59 -50s59 21 59 50v33z" />
    <glyph glyph-name="Acircumflex" unicode="&#xc2;" horiz-adv-x="555" 
d="M215 831c0 0 32 6 65 6c39 0 58 -6 71 -24l59 -79c7 -9 10 -17 10 -24c0 -13 -8 -24 -53 -24h-58l-34 83l-28 -65c-6 -14 -19 -21 -55 -21c-32 0 -54 9 -66 21zM161 39l27 105h165l37 -144h113c34 0 48 12 48 36c0 11 -2 21 -10 48l-164 524c-10 31 -30 43 -100 43
c-35 0 -64 -6 -92 -17l-188 -614c19 -15 62 -25 98 -25c43 0 58 12 66 44zM325 252h-109l55 210z" />
    <glyph glyph-name="circumflex" unicode="&#x2c6;" horiz-adv-x="466" 
d="M175 831c0 0 32 6 65 6c39 0 58 -6 71 -24l59 -79c7 -9 10 -17 10 -24c0 -13 -8 -24 -53 -24h-58l-34 83l-28 -65c-6 -14 -19 -21 -55 -21c-32 0 -54 9 -66 21z" />
    <glyph glyph-name="Adieresis" unicode="&#xc4;" horiz-adv-x="555" 
d="M171 837c42 0 76 -34 76 -76c0 -41 -34 -75 -76 -75c-41 0 -75 34 -75 75c0 42 34 76 75 76zM380 837c42 0 76 -34 76 -76c0 -41 -34 -75 -76 -75c-41 0 -75 34 -75 75c0 42 34 76 75 76zM161 39l27 105h165l37 -144h113c34 0 48 12 48 36c0 11 -2 21 -10 48l-164 524
c-10 31 -30 43 -100 43c-35 0 -64 -6 -92 -17l-188 -614c19 -15 62 -25 98 -25c43 0 58 12 66 44zM325 252h-109l55 210z" />
    <glyph glyph-name="dieresis" unicode="&#xa8;" horiz-adv-x="460" 
d="M125 837c42 0 76 -34 76 -76c0 -41 -34 -75 -76 -75c-41 0 -75 34 -75 75c0 42 34 76 75 76zM334 837c42 0 76 -34 76 -76c0 -41 -34 -75 -76 -75c-41 0 -75 34 -75 75c0 42 34 76 75 76z" />
    <glyph glyph-name="Agrave" unicode="&#xc0;" horiz-adv-x="555" 
d="M161 39l27 105h165l37 -144h113c34 0 48 12 48 36c0 11 -2 21 -10 48l-164 524c-10 31 -30 43 -100 43c-35 0 -64 -6 -92 -17l-188 -614c19 -15 62 -25 98 -25c43 0 58 12 66 44zM325 252h-109l55 210zM143 824c0 0 13 13 83 13c37 0 55 -15 63 -34l44 -102
c-17 -10 -38 -15 -78 -15c-31 0 -46 8 -57 28z" />
    <glyph glyph-name="grave" unicode="`" horiz-adv-x="430" 
d="M80 824c0 0 13 13 83 13c37 0 55 -15 63 -34l44 -102c-17 -10 -38 -15 -78 -15c-31 0 -46 8 -57 28z" />
    <glyph glyph-name="Amacron" unicode="&#x100;" horiz-adv-x="555" 
d="M188 144l-27 -105c-8 -32 -23 -44 -66 -44c-36 0 -79 10 -98 25l188 614c28 11 57 17 92 17c70 0 90 -12 100 -43l164 -524c8 -27 10 -37 10 -48c0 -24 -14 -36 -48 -36h-113l-37 144h-165zM216 252h109l-54 210zM377 686h-245c-4 14 -8 39 -8 53c0 54 11 66 45 66h245
c4 -13 8 -39 8 -53c0 -53 -11 -66 -45 -66z" />
    <glyph glyph-name="macron" unicode="&#xaf;" horiz-adv-x="410" 
d="M309 563h-245c-4 14 -8 39 -8 53c0 54 11 66 45 66h245c4 -13 8 -39 8 -53c0 -53 -11 -66 -45 -66z" />
    <glyph glyph-name="Aogonek" unicode="&#x104;" horiz-adv-x="555" 
d="M188 144l-27 -105c-8 -32 -23 -44 -66 -44c-36 0 -79 10 -98 25l188 614c28 11 57 17 92 17c70 0 90 -12 100 -43l164 -524c8 -27 10 -37 10 -48c0 -24 -14 -36 -48 -36h-92c-14 -23 -23 -45 -23 -64c0 -16 9 -29 41 -29c23 0 37 5 53 11c7 -5 16 -21 16 -38
c0 -33 -27 -42 -90 -42c-76 0 -109 37 -109 86c0 56 33 97 76 97c3 0 6 0 9 -1l-31 124h-165zM216 252h109l-54 210z" />
    <glyph glyph-name="ogonek" unicode="&#x2db;" horiz-adv-x="451" 
d="M251 4c-15 -25 -26 -48 -26 -68c0 -16 9 -29 41 -29c23 0 37 5 53 11c7 -5 16 -21 16 -38c0 -33 -27 -42 -90 -42c-76 0 -109 37 -109 86c0 56 33 97 76 97c24 0 34 -7 39 -17z" />
    <glyph glyph-name="Aring" unicode="&#xc5;" horiz-adv-x="555" 
d="M386 690c0 -25 -7 -47 -18 -64c4 -5 6 -11 9 -18l164 -524c8 -27 10 -37 10 -48c0 -24 -14 -36 -48 -36h-113l-37 144h-165l-27 -105c-8 -32 -23 -44 -66 -44c-36 0 -79 10 -98 25l187 611c-9 16 -14 36 -14 59c0 72 48 113 108 113s108 -41 108 -113zM216 252h109
l-54 210zM251 690c0 -23 10 -36 27 -36s27 13 27 36c0 27 -10 36 -27 36s-27 -9 -27 -36z" />
    <glyph glyph-name="ring" unicode="&#x2da;" horiz-adv-x="488" 
d="M352 675c0 -69 -48 -112 -108 -112s-108 43 -108 112c0 72 48 113 108 113s108 -41 108 -113zM217 675c0 -23 10 -36 27 -36s27 13 27 36c0 27 -10 36 -27 36s-27 -9 -27 -36z" />
    <glyph glyph-name="Atilde" unicode="&#xc3;" horiz-adv-x="555" 
d="M161 39l27 105h165l37 -144h113c34 0 48 12 48 36c0 11 -2 21 -10 48l-164 524c-10 31 -30 43 -100 43c-35 0 -64 -6 -92 -17l-188 -614c19 -15 62 -25 98 -25c43 0 58 12 66 44zM325 252h-109l55 210zM108 718c0 94 47 126 103 126c62 0 92 -52 124 -52
c21 0 28 13 32 45h40c18 0 29 -11 29 -32c0 -94 -47 -126 -103 -126c-62 0 -92 52 -124 52c-22 0 -28 -13 -32 -45h-40c-18 0 -29 11 -29 32z" />
    <glyph glyph-name="tilde" unicode="&#x2dc;" horiz-adv-x="480" 
d="M76 595c0 94 47 126 103 126c62 0 92 -52 124 -52c21 0 28 13 32 45h40c18 0 29 -11 29 -32c0 -94 -47 -126 -103 -126c-62 0 -92 52 -124 52c-22 0 -28 -13 -32 -45h-40c-18 0 -29 11 -29 32z" />
    <glyph glyph-name="AE" unicode="&#xc6;" horiz-adv-x="806" 
d="M308 634c28 11 57 17 92 17h368c5 -15 9 -44 9 -61c0 -61 -13 -75 -49 -75h-186v-136h190c4 -13 8 -38 8 -53c0 -53 -12 -65 -43 -65h-155v-130h226c5 -14 9 -42 9 -59c0 -59 -13 -72 -47 -72h-277c-57 0 -82 14 -82 41v103h-165l-55 -107c-16 -31 -24 -42 -67 -42
c-36 0 -84 12 -103 27zM371 252v216l-110 -216h110z" />
    <glyph glyph-name="AEacute" unicode="&#x1fc;" horiz-adv-x="806" 
d="M382 803c8 19 26 34 63 34c70 0 83 -13 83 -13l-55 -110c-11 -20 -26 -28 -57 -28c-40 0 -61 5 -78 15zM308 634c28 11 57 17 92 17h368c5 -15 9 -44 9 -61c0 -61 -13 -75 -49 -75h-186v-136h190c4 -13 8 -38 8 -53c0 -53 -12 -65 -43 -65h-155v-130h226
c5 -14 9 -42 9 -59c0 -59 -13 -72 -47 -72h-277c-57 0 -82 14 -82 41v103h-165l-55 -107c-16 -31 -24 -42 -67 -42c-36 0 -84 12 -103 27zM371 252v216l-110 -216h110z" />
    <glyph glyph-name="B" unicode="B" horiz-adv-x="575" 
d="M536 455c0 -52 -21 -95 -58 -131c45 -33 70 -82 70 -145c0 -114 -75 -185 -273 -185c-180 0 -223 21 -223 73v526c0 36 8 61 213 61c204 0 271 -93 271 -199zM287 120c58 0 89 26 89 73c0 49 -31 71 -94 71c-26 0 -45 -1 -59 -3v-137c16 -3 33 -4 64 -4zM357 440
c0 52 -26 83 -85 83c-23 0 -38 -1 -49 -3v-151c13 2 30 4 71 4c14 0 28 -1 42 -2c13 17 21 39 21 69z" />
    <glyph glyph-name="C" unicode="C" 
d="M330 133c57 0 114 10 114 10c11 -14 17 -49 17 -82c0 -43 -36 -67 -157 -67c-190 0 -274 116 -274 333c0 243 129 330 288 330c62 0 112 -6 138 -6c5 -15 9 -44 9 -61c0 -54 -7 -76 -49 -76c-21 0 -64 2 -82 2c-86 0 -124 -39 -124 -193c0 -151 38 -190 120 -190z" />
    <glyph glyph-name="Cacute" unicode="&#x106;" 
d="M256 803c8 19 26 34 63 34c70 0 83 -13 83 -13l-55 -110c-11 -20 -26 -28 -57 -28c-40 0 -61 5 -78 15zM330 133c57 0 114 10 114 10c11 -14 17 -49 17 -82c0 -43 -36 -67 -157 -67c-190 0 -274 116 -274 333c0 243 129 330 288 330c62 0 112 -6 138 -6
c5 -15 9 -44 9 -61c0 -54 -7 -76 -49 -76c-21 0 -64 2 -82 2c-86 0 -124 -39 -124 -193c0 -151 38 -190 120 -190z" />
    <glyph glyph-name="Ccaron" unicode="&#x10c;" 
d="M126 819c12 12 34 21 66 21c36 0 49 -7 55 -21l28 -65l34 83h58c45 0 53 -11 53 -24c0 -7 -3 -15 -10 -24l-59 -79c-13 -18 -32 -24 -71 -24c-33 0 -65 6 -65 6zM330 133c57 0 114 10 114 10c11 -14 17 -49 17 -82c0 -43 -36 -67 -157 -67c-190 0 -274 116 -274 333
c0 243 129 330 288 330c62 0 112 -6 138 -6c5 -15 9 -44 9 -61c0 -54 -7 -76 -49 -76c-21 0 -64 2 -82 2c-86 0 -124 -39 -124 -193c0 -151 38 -190 120 -190z" />
    <glyph glyph-name="caron" unicode="&#x2c7;" horiz-adv-x="466" 
d="M86 816c12 12 34 21 66 21c36 0 49 -7 55 -21l28 -65l34 83h58c45 0 53 -11 53 -24c0 -7 -3 -15 -10 -24l-59 -79c-13 -18 -32 -24 -71 -24c-33 0 -65 6 -65 6z" />
    <glyph glyph-name="Ccedilla" unicode="&#xc7;" 
d="M240 -17c2 6 5 11 8 15c-151 21 -218 134 -218 329c0 243 129 330 288 330c62 0 112 -6 138 -6c5 -15 9 -44 9 -61c0 -54 -7 -76 -49 -76c-21 0 -64 2 -82 2c-86 0 -124 -39 -124 -193c0 -151 38 -190 120 -190c57 0 114 10 114 10c11 -14 17 -49 17 -82
c0 -42 -35 -66 -149 -67l-14 -30c6 1 18 2 28 2c51 0 80 -23 80 -65c0 -44 -29 -78 -108 -78c-76 0 -98 16 -98 44c0 16 10 26 18 30c0 0 25 -12 64 -12s44 8 44 16s-5 16 -37 16h-38c-19 0 -28 14 -28 28z" />
    <glyph glyph-name="cedilla" unicode="&#xb8;" horiz-adv-x="484" 
d="M205 -17c8 19 21 28 44 28c17 0 26 -4 31 -11l-17 -36c6 1 18 2 28 2c51 0 80 -23 80 -65c0 -44 -29 -78 -108 -78c-76 0 -98 16 -98 44c0 16 10 26 18 30c0 0 25 -12 64 -12s44 8 44 16s-5 16 -37 16h-38c-19 0 -28 14 -28 28z" />
    <glyph glyph-name="Ccircumflex" unicode="&#x108;" 
d="M210 831c0 0 32 6 65 6c39 0 58 -6 71 -24l59 -79c7 -9 10 -17 10 -24c0 -13 -8 -24 -53 -24h-58l-34 83l-28 -65c-6 -14 -19 -21 -55 -21c-32 0 -54 9 -66 21zM330 133c57 0 114 10 114 10c11 -14 17 -49 17 -82c0 -43 -36 -67 -157 -67c-190 0 -274 116 -274 333
c0 243 129 330 288 330c62 0 112 -6 138 -6c5 -15 9 -44 9 -61c0 -54 -7 -76 -49 -76c-21 0 -64 2 -82 2c-86 0 -124 -39 -124 -193c0 -151 38 -190 120 -190z" />
    <glyph glyph-name="Cdotaccent" unicode="&#x10a;" 
d="M330 133c57 0 114 10 114 10c11 -14 17 -49 17 -82c0 -43 -36 -67 -157 -67c-190 0 -274 116 -274 333c0 243 129 330 288 330c62 0 112 -6 138 -6c5 -15 9 -44 9 -61c0 -54 -7 -76 -49 -76c-21 0 -64 2 -82 2c-86 0 -124 -39 -124 -193c0 -151 38 -190 120 -190z
M286 857c48 0 86 -38 86 -86c0 -47 -38 -85 -86 -85c-47 0 -85 38 -85 85c0 48 38 86 85 86z" />
    <glyph glyph-name="dotaccent" unicode="&#x2d9;" horiz-adv-x="271" 
d="M135 857c48 0 86 -38 86 -86c0 -47 -38 -85 -86 -85c-47 0 -85 38 -85 85c0 48 38 86 85 86z" />
    <glyph glyph-name="D" unicode="D" horiz-adv-x="600" 
d="M52 593c0 41 20 61 196 61c216 0 323 -118 323 -327c0 -207 -106 -333 -322 -333c-170 0 -197 27 -197 73v526zM391 327c0 151 -54 195 -125 195c-24 0 -33 -1 -43 -3v-393c16 -2 26 -2 45 -2c71 0 123 45 123 203z" />
    <glyph glyph-name="Eth" unicode="&#xd0;" horiz-adv-x="606" 
d="M18 250c-11 12 -19 33 -19 56c0 38 9 61 38 61h21v226c0 41 20 61 196 61c216 0 323 -118 323 -327c0 -207 -106 -333 -322 -333c-170 0 -197 27 -197 73v183h-40zM229 126c14 -3 24 -4 43 -4c71 0 125 47 125 205c0 151 -54 196 -125 196c-24 0 -34 -1 -43 -4v-152h76
c11 -12 20 -33 20 -56c0 -38 -9 -61 -38 -61h-58v-124z" />
    <glyph glyph-name="Dcaron" unicode="&#x10e;" horiz-adv-x="600" 
d="M120 819c12 12 34 21 66 21c36 0 49 -7 55 -21l28 -65l34 83h58c45 0 53 -11 53 -24c0 -7 -3 -15 -10 -24l-59 -79c-13 -18 -32 -24 -71 -24c-33 0 -65 6 -65 6zM52 593c0 41 20 61 196 61c216 0 323 -118 323 -327c0 -207 -106 -333 -322 -333c-170 0 -197 27 -197 73
v526zM391 327c0 151 -54 195 -125 195c-24 0 -33 -1 -43 -3v-393c16 -2 26 -2 45 -2c71 0 123 45 123 203z" />
    <glyph glyph-name="Dcroat" unicode="&#x110;" horiz-adv-x="607" 
d="M15 268c-3 11 -6 31 -6 44c0 43 9 53 35 53h15v228c0 41 20 61 196 61c216 0 323 -118 323 -327c0 -207 -106 -333 -322 -333c-170 0 -197 27 -197 73v201h-44zM230 126c14 -3 24 -4 43 -4c71 0 125 47 125 205c0 151 -54 196 -125 196c-24 0 -34 -1 -43 -4v-154h99
s6 -13 6 -44c0 -43 -9 -53 -35 -53h-70v-142z" />
    <glyph glyph-name="E" unicode="E" 
d="M413 0h-277c-57 0 -82 14 -82 41v575c0 19 8 35 82 35h305c5 -15 9 -44 9 -61c0 -61 -13 -75 -49 -75h-176v-136h190c4 -13 8 -38 8 -53c0 -53 -12 -65 -43 -65h-155v-130h226c5 -14 9 -42 9 -59c0 -59 -13 -72 -47 -72z" />
    <glyph glyph-name="Eacute" unicode="&#xc9;" 
d="M225 803c8 19 26 34 63 34c70 0 83 -13 83 -13l-55 -110c-11 -20 -26 -28 -57 -28c-40 0 -61 5 -78 15zM413 0c34 0 47 13 47 72c0 17 -4 45 -9 59h-226v130h155c31 0 43 12 43 65c0 15 -4 40 -8 53h-190v136h176c36 0 49 14 49 75c0 17 -4 46 -9 61h-305
c-74 0 -82 -16 -82 -35v-575c0 -27 25 -41 82 -41h277z" />
    <glyph glyph-name="Ebreve" unicode="&#x114;" 
d="M413 0c34 0 47 13 47 72c0 17 -4 45 -9 59h-226v130h155c31 0 43 12 43 65c0 15 -4 40 -8 53h-190v136h176c36 0 49 14 49 75c0 17 -4 46 -9 61h-305c-74 0 -82 -16 -82 -35v-575c0 -27 25 -41 82 -41h277zM307 865c10 3 23 5 49 5c45 0 58 -8 58 -20v-16
c0 -84 -53 -148 -166 -148c-112 0 -166 64 -166 148v16c0 12 13 20 58 20c26 0 39 -2 49 -5v-33c0 -29 19 -50 59 -50s59 21 59 50v33z" />
    <glyph glyph-name="Ecaron" unicode="&#x11a;" 
d="M104 819c12 12 34 21 66 21c36 0 49 -7 55 -21l28 -65l34 83h58c45 0 53 -11 53 -24c0 -7 -3 -15 -10 -24l-59 -79c-13 -18 -32 -24 -71 -24c-33 0 -65 6 -65 6zM413 0c34 0 47 13 47 72c0 17 -4 45 -9 59h-226v130h155c31 0 43 12 43 65c0 15 -4 40 -8 53h-190v136h176
c36 0 49 14 49 75c0 17 -4 46 -9 61h-305c-74 0 -82 -16 -82 -35v-575c0 -27 25 -41 82 -41h277z" />
    <glyph glyph-name="Ecircumflex" unicode="&#xca;" 
d="M188 831c0 0 32 6 65 6c39 0 58 -6 71 -24l59 -79c7 -9 10 -17 10 -24c0 -13 -8 -24 -53 -24h-58l-34 83l-28 -65c-6 -14 -19 -21 -55 -21c-32 0 -54 9 -66 21zM413 0c34 0 47 13 47 72c0 17 -4 45 -9 59h-226v130h155c31 0 43 12 43 65c0 15 -4 40 -8 53h-190v136h176
c36 0 49 14 49 75c0 17 -4 46 -9 61h-305c-74 0 -82 -16 -82 -35v-575c0 -27 25 -41 82 -41h277z" />
    <glyph glyph-name="Edieresis" unicode="&#xcb;" 
d="M148 837c42 0 76 -34 76 -76c0 -41 -34 -75 -76 -75c-41 0 -75 34 -75 75c0 42 34 76 75 76zM357 837c42 0 76 -34 76 -76c0 -41 -34 -75 -76 -75c-41 0 -75 34 -75 75c0 42 34 76 75 76zM413 0c34 0 47 13 47 72c0 17 -4 45 -9 59h-226v130h155c31 0 43 12 43 65
c0 15 -4 40 -8 53h-190v136h176c36 0 49 14 49 75c0 17 -4 46 -9 61h-305c-74 0 -82 -16 -82 -35v-575c0 -27 25 -41 82 -41h277z" />
    <glyph glyph-name="Edotaccent" unicode="&#x116;" 
d="M413 0c34 0 47 13 47 72c0 17 -4 45 -9 59h-226v130h155c31 0 43 12 43 65c0 15 -4 40 -8 53h-190v136h176c36 0 49 14 49 75c0 17 -4 46 -9 61h-305c-74 0 -82 -16 -82 -35v-575c0 -27 25 -41 82 -41h277zM249 857c48 0 86 -38 86 -86c0 -47 -38 -85 -86 -85
c-47 0 -85 38 -85 85c0 48 38 86 85 86z" />
    <glyph glyph-name="Egrave" unicode="&#xc8;" 
d="M413 0c34 0 47 13 47 72c0 17 -4 45 -9 59h-226v130h155c31 0 43 12 43 65c0 15 -4 40 -8 53h-190v136h176c36 0 49 14 49 75c0 17 -4 46 -9 61h-305c-74 0 -82 -16 -82 -35v-575c0 -27 25 -41 82 -41h277zM125 824c0 0 13 13 83 13c37 0 55 -15 63 -34l44 -102
c-17 -10 -38 -15 -78 -15c-31 0 -46 8 -57 28z" />
    <glyph glyph-name="Emacron" unicode="&#x112;" 
d="M357 686h-245c-4 14 -8 39 -8 53c0 54 11 66 45 66h245c4 -13 8 -39 8 -53c0 -53 -11 -66 -45 -66zM413 0h-277c-57 0 -82 14 -82 41v575c0 19 8 35 82 35h305c5 -15 9 -44 9 -61c0 -61 -13 -75 -49 -75h-176v-136h190c4 -13 8 -38 8 -53c0 -53 -12 -65 -43 -65h-155
v-130h226c5 -14 9 -42 9 -59c0 -59 -13 -72 -47 -72z" />
    <glyph glyph-name="Eogonek" unicode="&#x118;" 
d="M413 0h-125c-14 -23 -23 -45 -23 -64c0 -16 9 -29 41 -29c23 0 37 5 53 11c7 -5 16 -21 16 -38c0 -33 -27 -42 -90 -42c-76 0 -109 37 -109 86c0 32 10 59 27 76h-67c-57 0 -82 14 -82 41v575c0 19 8 35 82 35h305c5 -15 9 -44 9 -61c0 -61 -13 -75 -49 -75h-176v-136
h190c4 -13 8 -38 8 -53c0 -53 -12 -65 -43 -65h-155v-130h226c5 -14 9 -42 9 -59c0 -59 -13 -72 -47 -72z" />
    <glyph glyph-name="F" unicode="F" horiz-adv-x="468" 
d="M136 651h310c5 -15 9 -44 9 -61c0 -61 -13 -75 -49 -75h-181v-146h189c4 -13 8 -38 8 -53c0 -53 -12 -65 -43 -65h-154v-223c0 -16 -10 -28 -86 -28c-75 0 -85 12 -85 28v588c0 19 8 35 82 35z" />
    <glyph glyph-name="G" unicode="G" horiz-adv-x="560" 
d="M299 241c-4 13 -8 38 -8 53c0 53 12 65 43 65h145c39 0 61 -23 61 -114c0 -168 -90 -251 -243 -251c-172 0 -267 116 -267 333c0 243 122 330 281 330c62 0 141 -6 167 -6c5 -15 9 -44 9 -61c0 -54 -7 -76 -49 -76c-21 0 -93 2 -111 2c-73 0 -117 -35 -117 -193
c0 -143 42 -197 100 -197c57 0 81 39 81 86c0 13 -1 21 -2 29h-90z" />
    <glyph glyph-name="Gbreve" unicode="&#x11e;" horiz-adv-x="560" 
d="M299 241c-4 13 -8 38 -8 53c0 53 12 65 43 65h145c39 0 61 -23 61 -114c0 -168 -90 -251 -243 -251c-172 0 -267 116 -267 333c0 243 122 330 281 330c62 0 141 -6 167 -6c5 -15 9 -44 9 -61c0 -54 -7 -76 -49 -76c-21 0 -93 2 -111 2c-73 0 -117 -35 -117 -193
c0 -143 42 -197 100 -197c57 0 81 39 81 86c0 13 -1 21 -2 29h-90zM339 865c10 3 23 5 49 5c45 0 58 -8 58 -20v-16c0 -84 -53 -148 -166 -148c-112 0 -166 64 -166 148v16c0 12 13 20 58 20c26 0 39 -2 49 -5v-33c0 -29 19 -50 59 -50s59 21 59 50v33z" />
    <glyph glyph-name="Gcircumflex" unicode="&#x11c;" horiz-adv-x="560" 
d="M221 831c0 0 32 6 65 6c39 0 58 -6 71 -24l59 -79c7 -9 10 -17 10 -24c0 -13 -8 -24 -53 -24h-58l-34 83l-28 -65c-6 -14 -19 -21 -55 -21c-32 0 -54 9 -66 21zM299 241c-4 13 -8 38 -8 53c0 53 12 65 43 65h145c39 0 61 -23 61 -114c0 -168 -90 -251 -243 -251
c-172 0 -267 116 -267 333c0 243 122 330 281 330c62 0 141 -6 167 -6c5 -15 9 -44 9 -61c0 -54 -7 -76 -49 -76c-21 0 -93 2 -111 2c-73 0 -117 -35 -117 -193c0 -143 42 -197 100 -197c57 0 81 39 81 86c0 13 -1 21 -2 29h-90z" />
    <glyph glyph-name="Gcommaaccent" unicode="&#x122;" horiz-adv-x="560" 
d="M299 241c-4 13 -8 38 -8 53c0 53 12 65 43 65h145c39 0 61 -23 61 -114c0 -168 -90 -251 -243 -251c-172 0 -267 116 -267 333c0 243 122 330 281 330c62 0 141 -6 167 -6c5 -15 9 -44 9 -61c0 -54 -7 -76 -49 -76c-21 0 -93 2 -111 2c-73 0 -117 -35 -117 -193
c0 -143 42 -197 100 -197c57 0 81 39 81 86c0 13 -1 21 -2 29h-90zM238 -183c12 -11 29 -17 46 -17c14 0 23 7 31 20c20 31 36 67 36 92c0 39 -26 66 -66 66s-65 -27 -65 -66c0 -25 14 -42 36 -49z" />
    <glyph glyph-name="commaaccentcomb" unicode="&#x326;" horiz-adv-x="268" 
d="M91 -183l18 46c-22 7 -36 24 -36 49c0 39 25 66 65 66s66 -27 66 -66c0 -25 -16 -61 -36 -92c-8 -13 -17 -20 -31 -20c-17 0 -34 6 -46 17z" />
    <glyph glyph-name="Gdotaccent" unicode="&#x120;" horiz-adv-x="560" 
d="M277 857c48 0 86 -38 86 -86c0 -47 -38 -85 -86 -85c-47 0 -85 38 -85 85c0 48 38 86 85 86zM299 241c-4 13 -8 38 -8 53c0 53 12 65 43 65h145c39 0 61 -23 61 -114c0 -168 -90 -251 -243 -251c-172 0 -267 116 -267 333c0 243 122 330 281 330c62 0 141 -6 167 -6
c5 -15 9 -44 9 -61c0 -54 -7 -76 -49 -76c-21 0 -93 2 -111 2c-73 0 -117 -35 -117 -193c0 -143 42 -197 100 -197c57 0 81 39 81 86c0 13 -1 21 -2 29h-90z" />
    <glyph glyph-name="H" unicode="H" horiz-adv-x="628" 
d="M55 623c0 16 11 28 85 28s86 -12 86 -28v-249h176v249c0 16 11 28 85 28s86 -12 86 -28v-595c0 -16 -10 -28 -86 -28c-75 0 -85 12 -85 28v228h-176v-228c0 -16 -10 -28 -86 -28c-75 0 -85 12 -85 28v595z" />
    <glyph glyph-name="Hbar" unicode="&#x126;" horiz-adv-x="636" 
d="M406 374v92h-176v-92h176zM406 28v228h-176v-228c0 -16 -10 -28 -86 -28c-75 0 -85 12 -85 28v438h-45c-3 9 -5 25 -5 36c0 33 7 42 28 42h22v79c0 16 11 28 85 28s86 -12 86 -28v-79h176v79c0 16 11 28 85 28s86 -12 86 -28v-79h45c3 -9 5 -26 5 -36
c0 -34 -7 -42 -28 -42h-22v-438c0 -16 -10 -28 -86 -28c-75 0 -85 12 -85 28z" />
    <glyph glyph-name="Hcircumflex" unicode="&#x124;" horiz-adv-x="628" 
d="M255 831c0 0 32 6 65 6c39 0 58 -6 71 -24l59 -79c7 -9 10 -17 10 -24c0 -13 -8 -24 -53 -24h-58l-34 83l-28 -65c-6 -14 -19 -21 -55 -21c-32 0 -54 9 -66 21zM55 623c0 16 11 28 85 28s86 -12 86 -28v-249h176v249c0 16 11 28 85 28s86 -12 86 -28v-595
c0 -16 -10 -28 -86 -28c-75 0 -85 12 -85 28v228h-176v-228c0 -16 -10 -28 -86 -28c-75 0 -85 12 -85 28v595z" />
    <glyph glyph-name="I" unicode="I" horiz-adv-x="281" 
d="M55 28v595c0 16 11 28 85 28s86 -12 86 -28v-595c0 -16 -10 -28 -86 -28c-75 0 -85 12 -85 28z" />
    <glyph glyph-name="IJ" unicode="&#x132;" horiz-adv-x="561" 
d="M55 28v595c0 16 11 28 85 28s86 -12 86 -28v-595c0 -16 -10 -28 -86 -28c-75 0 -85 12 -85 28zM508 138c0 -172 -56 -236 -106 -236c-49 0 -91 28 -112 52c31 52 47 88 47 152v517c0 16 11 28 85 28s86 -12 86 -28v-485z" />
    <glyph glyph-name="J" unicode="J" horiz-adv-x="280" 
d="M227 138c0 -172 -56 -236 -106 -236c-49 0 -91 28 -112 52c31 52 47 88 47 152v517c0 16 11 28 85 28s86 -12 86 -28v-485z" />
    <glyph glyph-name="Iacute" unicode="&#xcd;" horiz-adv-x="281" 
d="M55 28c0 -16 10 -28 85 -28c76 0 86 12 86 28v595c0 16 -12 28 -86 28s-85 -12 -85 -28v-595zM120 803c8 19 26 34 63 34c70 0 83 -13 83 -13l-55 -110c-11 -20 -26 -28 -57 -28c-40 0 -61 5 -78 15z" />
    <glyph glyph-name="Ibreve" unicode="&#x12c;" horiz-adv-x="281" 
d="M55 28c0 -16 10 -28 85 -28c76 0 86 12 86 28v595c0 16 -12 28 -86 28s-85 -12 -85 -28v-595zM198 865c10 3 23 5 49 5c45 0 58 -8 58 -20v-16c0 -84 -53 -148 -166 -148c-112 0 -166 64 -166 148v16c0 12 13 20 58 20c26 0 39 -2 49 -5v-33c0 -29 19 -50 59 -50
s59 21 59 50v33z" />
    <glyph glyph-name="Icircumflex" unicode="&#xce;" horiz-adv-x="281" 
d="M79 831c0 0 32 6 65 6c39 0 58 -6 71 -24l59 -79c7 -9 10 -17 10 -24c0 -13 -8 -24 -53 -24h-58l-34 83l-28 -65c-6 -14 -19 -21 -55 -21c-32 0 -54 9 -66 21zM55 28c0 -16 10 -28 85 -28c76 0 86 12 86 28v595c0 16 -12 28 -86 28s-85 -12 -85 -28v-595z" />
    <glyph glyph-name="Idieresis" unicode="&#xcf;" horiz-adv-x="281" 
d="M37 837c42 0 76 -34 76 -76c0 -41 -34 -75 -76 -75c-41 0 -75 34 -75 75c0 42 34 76 75 76zM246 837c42 0 76 -34 76 -76c0 -41 -34 -75 -76 -75c-41 0 -75 34 -75 75c0 42 34 76 75 76zM55 28c0 -16 10 -28 85 -28c76 0 86 12 86 28v595c0 16 -12 28 -86 28
s-85 -12 -85 -28v-595z" />
    <glyph glyph-name="Idotaccent" unicode="&#x130;" horiz-adv-x="281" 
d="M55 28c0 -16 10 -28 85 -28c76 0 86 12 86 28v595c0 16 -12 28 -86 28s-85 -12 -85 -28v-595zM141 857c48 0 86 -38 86 -86c0 -47 -38 -85 -86 -85c-47 0 -85 38 -85 85c0 48 38 86 85 86z" />
    <glyph glyph-name="Igrave" unicode="&#xcc;" horiz-adv-x="281" 
d="M55 28c0 -16 10 -28 85 -28c76 0 86 12 86 28v595c0 16 -12 28 -86 28s-85 -12 -85 -28v-595zM15 824c0 0 13 13 83 13c37 0 55 -15 63 -34l44 -102c-17 -10 -38 -15 -78 -15c-31 0 -46 8 -57 28z" />
    <glyph glyph-name="Imacron" unicode="&#x12a;" horiz-adv-x="281" 
d="M55 28v595c0 16 11 28 85 28s86 -12 86 -28v-595c0 -16 -10 -28 -86 -28c-75 0 -85 12 -85 28zM246 686h-245c-4 14 -8 39 -8 53c0 54 11 66 45 66h245c4 -13 8 -39 8 -53c0 -53 -11 -66 -45 -66z" />
    <glyph glyph-name="Iogonek" unicode="&#x12e;" horiz-adv-x="281" 
d="M55 28v595c0 16 11 28 85 28s86 -12 86 -28v-595c0 -14 -8 -25 -63 -28c-14 -23 -23 -45 -23 -64c0 -16 9 -29 41 -29c23 0 37 5 53 11c7 -5 16 -21 16 -38c0 -33 -27 -42 -90 -42c-76 0 -109 37 -109 86c0 34 12 63 31 80c-23 5 -27 13 -27 24z" />
    <glyph glyph-name="Itilde" unicode="&#x128;" horiz-adv-x="281" 
d="M55 28c0 -16 10 -28 85 -28c76 0 86 12 86 28v595c0 16 -12 28 -86 28s-85 -12 -85 -28v-595zM-22 718c0 94 47 126 103 126c62 0 92 -52 124 -52c21 0 28 13 32 45h40c18 0 29 -11 29 -32c0 -94 -47 -126 -103 -126c-62 0 -92 52 -124 52c-22 0 -28 -13 -32 -45h-40
c-18 0 -29 11 -29 32z" />
    <glyph glyph-name="Jcircumflex" unicode="&#x134;" horiz-adv-x="280" 
d="M80 831c0 0 32 6 65 6c39 0 58 -6 71 -24l59 -79c7 -9 10 -17 10 -24c0 -13 -8 -24 -53 -24h-58l-34 83l-28 -65c-6 -14 -19 -21 -55 -21c-32 0 -54 9 -66 21zM227 138c0 -172 -56 -236 -106 -236c-49 0 -91 28 -112 52c31 52 47 88 47 152v517c0 16 11 28 85 28
s86 -12 86 -28v-485z" />
    <glyph glyph-name="K" unicode="K" horiz-adv-x="588" 
d="M425 651h109c28 0 38 -13 38 -29c0 -14 -3 -26 -16 -47l-141 -231l155 -308c-22 -22 -79 -42 -122 -42c-34 0 -52 8 -70 50l-132 304zM55 623c0 16 11 28 85 28s86 -12 86 -28v-595c0 -16 -10 -28 -86 -28c-75 0 -85 12 -85 28v595z" />
    <glyph glyph-name="Kcommaaccent" unicode="&#x136;" horiz-adv-x="588" 
d="M425 651h109c28 0 38 -13 38 -29c0 -14 -3 -26 -16 -47l-141 -231l155 -308c-22 -22 -79 -42 -122 -42c-34 0 -52 8 -70 50l-132 304zM55 623c0 16 11 28 85 28s86 -12 86 -28v-595c0 -16 -10 -28 -86 -28c-75 0 -85 12 -85 28v595zM246 -183c12 -11 29 -17 46 -17
c14 0 23 7 31 20c20 31 36 67 36 92c0 39 -26 66 -66 66s-65 -27 -65 -66c0 -25 14 -42 36 -49z" />
    <glyph glyph-name="L" unicode="L" horiz-adv-x="444" 
d="M136 0c-57 0 -82 14 -82 41v582c0 16 11 28 85 28s86 -12 86 -28v-492h194c5 -14 9 -42 9 -59c0 -59 -13 -72 -47 -72h-245z" />
    <glyph glyph-name="Lacute" unicode="&#x139;" horiz-adv-x="444" 
d="M122 803c8 19 26 34 63 34c70 0 83 -13 83 -13l-55 -110c-11 -20 -26 -28 -57 -28c-40 0 -61 5 -78 15zM136 0c-57 0 -82 14 -82 41v582c0 16 11 28 85 28s86 -12 86 -28v-492h194c5 -14 9 -42 9 -59c0 -59 -13 -72 -47 -72h-245z" />
    <glyph glyph-name="Lcaron" unicode="&#x13d;" horiz-adv-x="444" 
d="M-9 819c12 12 34 21 66 21c36 0 49 -7 55 -21l28 -65l34 83h58c45 0 53 -11 53 -24c0 -7 -3 -15 -10 -24l-59 -79c-13 -18 -32 -24 -71 -24c-33 0 -65 6 -65 6zM136 0c-57 0 -82 14 -82 41v582c0 16 11 28 85 28s86 -12 86 -28v-492h194c5 -14 9 -42 9 -59
c0 -59 -13 -72 -47 -72h-245z" />
    <glyph glyph-name="Lcommaaccent" unicode="&#x13b;" horiz-adv-x="444" 
d="M136 0c-57 0 -82 14 -82 41v582c0 16 11 28 85 28s86 -12 86 -28v-492h194c5 -14 9 -42 9 -59c0 -59 -13 -72 -47 -72h-245zM174 -183c12 -11 29 -17 46 -17c14 0 23 7 31 20c20 31 36 67 36 92c0 39 -26 66 -66 66s-65 -27 -65 -66c0 -25 14 -42 36 -49z" />
    <glyph glyph-name="Ldot" unicode="&#x13f;" horiz-adv-x="444" 
d="M136 0c-57 0 -82 14 -82 41v582c0 16 11 28 85 28s86 -12 86 -28v-492h194c5 -14 9 -42 9 -59c0 -59 -13 -72 -47 -72h-245zM355 450c48 0 86 -38 86 -86c0 -47 -38 -85 -86 -85c-47 0 -85 38 -85 85c0 48 38 86 85 86z" />
    <glyph glyph-name="Lslash" unicode="&#x141;" horiz-adv-x="452" 
d="M144 0c-57 0 -82 14 -82 41v169l-49 -21s-16 15 -16 68c0 38 15 65 44 77l21 9v280c0 16 11 28 85 28s86 -12 86 -28v-208l79 33s16 -15 16 -68c0 -38 -15 -65 -44 -77l-51 -21v-151h201c7 -15 12 -39 12 -61c0 -48 -22 -70 -61 -70h-241z" />
    <glyph glyph-name="M" unicode="M" horiz-adv-x="791" 
d="M488 600c8 38 14 51 114 51c104 0 113 -12 116 -58l30 -565c0 -16 -10 -28 -86 -28c-73 0 -82 12 -83 28l-20 412l-77 -354c-9 -44 -34 -57 -93 -57c-63 0 -84 10 -95 57l-82 354l-20 -412c-1 -16 -10 -28 -75 -28c-66 0 -74 12 -74 28l30 566c2 44 14 57 115 57
c103 0 112 -13 120 -51l89 -417z" />
    <glyph glyph-name="N" unicode="N" horiz-adv-x="615" 
d="M203 28c0 -16 -10 -28 -75 -28s-74 12 -74 28v566c0 44 14 57 99 57c75 0 92 -9 112 -57l147 -359v388c0 16 9 28 74 28s75 -12 75 -28v-566c0 -44 -14 -57 -97 -57c-72 0 -85 12 -108 57l-153 377v-406z" />
    <glyph glyph-name="Nacute" unicode="&#x143;" horiz-adv-x="615" 
d="M287 803c8 19 26 34 63 34c70 0 83 -13 83 -13l-55 -110c-11 -20 -26 -28 -57 -28c-40 0 -61 5 -78 15zM203 28c0 -16 -10 -28 -75 -28s-74 12 -74 28v566c0 44 14 57 99 57c75 0 92 -9 112 -57l147 -359v388c0 16 9 28 74 28s75 -12 75 -28v-566c0 -44 -14 -57 -97 -57
c-72 0 -85 12 -108 57l-153 377v-406z" />
    <glyph glyph-name="Ncaron" unicode="&#x147;" horiz-adv-x="615" 
d="M161 819c12 12 34 21 66 21c36 0 49 -7 55 -21l28 -65l34 83h58c45 0 53 -11 53 -24c0 -7 -3 -15 -10 -24l-59 -79c-13 -18 -32 -24 -71 -24c-33 0 -65 6 -65 6zM203 28c0 -16 -10 -28 -75 -28s-74 12 -74 28v566c0 44 14 57 99 57c75 0 92 -9 112 -57l147 -359v388
c0 16 9 28 74 28s75 -12 75 -28v-566c0 -44 -14 -57 -97 -57c-72 0 -85 12 -108 57l-153 377v-406z" />
    <glyph glyph-name="Ncommaaccent" unicode="&#x145;" horiz-adv-x="615" 
d="M203 28c0 -16 -10 -28 -75 -28s-74 12 -74 28v566c0 44 14 57 99 57c75 0 92 -9 112 -57l147 -359v388c0 16 9 28 74 28s75 -12 75 -28v-566c0 -44 -14 -57 -97 -57c-72 0 -85 12 -108 57l-153 377v-406zM260 -183c12 -11 29 -17 46 -17c14 0 23 7 31 20
c20 31 36 67 36 92c0 39 -26 66 -66 66s-65 -27 -65 -66c0 -25 14 -42 36 -49z" />
    <glyph glyph-name="Eng" unicode="&#x14a;" horiz-adv-x="616" 
d="M412 623c0 16 9 28 74 28s75 -12 75 -28v-583c0 -149 -49 -205 -92 -205s-79 24 -98 45c27 46 41 78 41 124c-22 5 -41 16 -56 53l-153 377v-406c0 -16 -10 -28 -75 -28s-74 12 -74 28v566c0 44 14 57 99 57c75 0 92 -9 112 -57l147 -359v388z" />
    <glyph glyph-name="Ntilde" unicode="&#xd1;" horiz-adv-x="615" 
d="M144 718c0 94 47 126 103 126c62 0 92 -52 124 -52c21 0 28 13 32 45h40c18 0 29 -11 29 -32c0 -94 -47 -126 -103 -126c-62 0 -92 52 -124 52c-22 0 -28 -13 -32 -45h-40c-18 0 -29 11 -29 32zM203 28c0 -16 -10 -28 -75 -28s-74 12 -74 28v566c0 44 14 57 99 57
c75 0 92 -9 112 -57l147 -359v388c0 16 9 28 74 28s75 -12 75 -28v-566c0 -44 -14 -57 -97 -57c-72 0 -85 12 -108 57l-153 377v-406z" />
    <glyph glyph-name="O" unicode="O" horiz-adv-x="613" 
d="M209 327c0 -151 35 -201 96 -201s99 50 99 201s-38 198 -99 198s-96 -47 -96 -198zM305 657c184 0 279 -132 279 -330s-95 -333 -279 -333s-276 135 -276 333s92 330 276 330z" />
    <glyph glyph-name="Oacute" unicode="&#xd3;" horiz-adv-x="613" 
d="M275 803c8 19 26 34 63 34c70 0 83 -13 83 -13l-55 -110c-11 -20 -26 -28 -57 -28c-40 0 -61 5 -78 15zM209 327c0 151 35 198 96 198s99 -47 99 -198s-38 -201 -99 -201s-96 50 -96 201zM305 657c-184 0 -276 -132 -276 -330s92 -333 276 -333s279 135 279 333
s-95 330 -279 330z" />
    <glyph glyph-name="Obreve" unicode="&#x14e;" horiz-adv-x="613" 
d="M209 327c0 151 35 198 96 198s99 -47 99 -198s-38 -201 -99 -201s-96 50 -96 201zM305 657c-184 0 -276 -132 -276 -330s92 -333 276 -333s279 135 279 333s-95 330 -279 330zM366 865c10 3 23 5 49 5c45 0 58 -8 58 -20v-16c0 -84 -53 -148 -166 -148
c-112 0 -166 64 -166 148v16c0 12 13 20 58 20c26 0 39 -2 49 -5v-33c0 -29 19 -50 59 -50s59 21 59 50v33z" />
    <glyph glyph-name="Ocircumflex" unicode="&#xd4;" horiz-adv-x="613" 
d="M249 831c0 0 32 6 65 6c39 0 58 -6 71 -24l59 -79c7 -9 10 -17 10 -24c0 -13 -8 -24 -53 -24h-58l-34 83l-28 -65c-6 -14 -19 -21 -55 -21c-32 0 -54 9 -66 21zM209 327c0 151 35 198 96 198s99 -47 99 -198s-38 -201 -99 -201s-96 50 -96 201zM305 657
c-184 0 -276 -132 -276 -330s92 -333 276 -333s279 135 279 333s-95 330 -279 330z" />
    <glyph glyph-name="Odieresis" unicode="&#xd6;" horiz-adv-x="613" 
d="M202 837c42 0 76 -34 76 -76c0 -41 -34 -75 -76 -75c-41 0 -75 34 -75 75c0 42 34 76 75 76zM411 837c42 0 76 -34 76 -76c0 -41 -34 -75 -76 -75c-41 0 -75 34 -75 75c0 42 34 76 75 76zM209 327c0 151 35 198 96 198s99 -47 99 -198s-38 -201 -99 -201s-96 50 -96 201z
M305 657c-184 0 -276 -132 -276 -330s92 -333 276 -333s279 135 279 333s-95 330 -279 330z" />
    <glyph glyph-name="Ograve" unicode="&#xd2;" horiz-adv-x="613" 
d="M182 824c0 0 13 13 83 13c37 0 55 -15 63 -34l44 -102c-17 -10 -38 -15 -78 -15c-31 0 -46 8 -57 28zM209 327c0 151 35 198 96 198s99 -47 99 -198s-38 -201 -99 -201s-96 50 -96 201zM305 657c-184 0 -276 -132 -276 -330s92 -333 276 -333s279 135 279 333
s-95 330 -279 330z" />
    <glyph glyph-name="Ohungarumlaut" unicode="&#x150;" horiz-adv-x="613" 
d="M385 803c8 19 26 34 63 34c70 0 83 -13 83 -13l-55 -110c-11 -20 -26 -28 -57 -28c-40 0 -61 5 -78 15zM187 803c8 19 26 34 63 34c61 0 83 -13 83 -13l-55 -110c-11 -20 -26 -28 -57 -28c-40 0 -61 5 -78 15zM209 327c0 151 35 198 96 198s99 -47 99 -198
s-38 -201 -99 -201s-96 50 -96 201zM305 657c-184 0 -276 -132 -276 -330s92 -333 276 -333s279 135 279 333s-95 330 -279 330z" />
    <glyph glyph-name="hungarumlaut" unicode="&#x2dd;" horiz-adv-x="628" 
d="M402 803c8 19 26 34 63 34c70 0 83 -13 83 -13l-55 -110c-11 -20 -26 -28 -57 -28c-40 0 -61 5 -78 15zM204 803c8 19 26 34 63 34c61 0 83 -13 83 -13l-55 -110c-11 -20 -26 -28 -57 -28c-40 0 -61 5 -78 15z" />
    <glyph glyph-name="Omacron" unicode="&#x14c;" horiz-adv-x="613" 
d="M404 686h-245c-4 14 -8 39 -8 53c0 54 11 66 45 66h245c4 -13 8 -39 8 -53c0 -53 -11 -66 -45 -66zM209 327c0 -151 35 -201 96 -201s99 50 99 201s-38 198 -99 198s-96 -47 -96 -198zM305 657c184 0 279 -132 279 -330s-95 -333 -279 -333s-276 135 -276 333
s92 330 276 330z" />
    <glyph glyph-name="Oslash" unicode="&#xd8;" horiz-adv-x="613" 
d="M29 327c0 198 92 330 276 330c46 0 87 -8 122 -24l34 59c11 20 24 29 39 29c24 0 41 -14 59 -36l-59 -104c56 -58 84 -146 84 -254c0 -198 -95 -333 -279 -333c-47 0 -88 8 -123 25l-42 -75c-11 -20 -24 -29 -39 -29c-24 0 -41 14 -59 36l68 121c-54 59 -81 147 -81 255z
M404 327c0 29 -2 54 -4 76l-147 -259c14 -13 32 -18 52 -18c61 0 99 50 99 201zM209 327c0 -28 1 -53 3 -75l145 256c-15 12 -32 17 -52 17c-61 0 -96 -47 -96 -198z" />
    <glyph glyph-name="Oslashacute" unicode="&#x1fe;" horiz-adv-x="613" 
d="M29 327c0 198 92 330 276 330c46 0 87 -8 122 -24l34 59c11 20 24 29 39 29c24 0 41 -14 59 -36l-59 -104c56 -58 84 -146 84 -254c0 -198 -95 -333 -279 -333c-47 0 -88 8 -123 25l-42 -75c-11 -20 -24 -29 -39 -29c-24 0 -41 14 -59 36l68 121c-54 59 -81 147 -81 255z
M404 327c0 29 -2 54 -4 76l-147 -259c14 -13 32 -18 52 -18c61 0 99 50 99 201zM275 803c8 19 26 34 63 34c70 0 83 -13 83 -13l-55 -110c-11 -20 -26 -28 -57 -28c-40 0 -61 5 -78 15zM209 327c0 -28 1 -53 3 -75l145 256c-15 12 -32 17 -52 17c-61 0 -96 -47 -96 -198z
" />
    <glyph glyph-name="Otilde" unicode="&#xd5;" horiz-adv-x="613" 
d="M209 327c0 151 35 198 96 198s99 -47 99 -198s-38 -201 -99 -201s-96 50 -96 201zM305 657c-184 0 -276 -132 -276 -330s92 -333 276 -333s279 135 279 333s-95 330 -279 330zM128 718c0 94 47 126 103 126c62 0 92 -52 124 -52c21 0 28 13 32 45h40c18 0 29 -11 29 -32
c0 -94 -47 -126 -103 -126c-62 0 -92 52 -124 52c-22 0 -28 -13 -32 -45h-40c-18 0 -29 11 -29 32z" />
    <glyph glyph-name="OE" unicode="&#x152;" horiz-adv-x="840" 
d="M423 14v5c-31 -18 -78 -25 -118 -25c-184 0 -276 135 -276 333s92 330 276 330c40 0 87 -7 118 -25v5c0 9 12 14 63 14h316c5 -15 9 -44 9 -61c0 -61 -13 -75 -49 -75h-180v-141h184c4 -13 8 -38 8 -53c0 -53 -12 -65 -43 -65h-149v-125h220c5 -14 9 -42 9 -59
c0 -59 -13 -72 -47 -72h-278c-51 0 -63 5 -63 14zM209 327c0 -151 35 -201 96 -201s99 50 99 201s-40 198 -99 198c-61 0 -96 -47 -96 -198z" />
    <glyph glyph-name="P" unicode="P" horiz-adv-x="551" 
d="M53 28v560c0 40 33 66 213 66c206 0 272 -94 272 -221c0 -115 -66 -215 -249 -215c-33 0 -48 2 -65 5v-195c0 -16 -10 -28 -86 -28c-75 0 -85 12 -85 28zM270 523c-22 0 -35 -1 -46 -3v-179c13 -3 23 -4 50 -4c68 0 85 37 85 92c0 59 -19 94 -89 94z" />
    <glyph glyph-name="Thorn" unicode="&#xde;" horiz-adv-x="552" 
d="M55 28v595c0 16 10 28 85 28c76 0 86 -12 86 -28v-89c13 1 27 1 42 1c206 0 272 -94 272 -221c0 -115 -66 -215 -249 -215c-33 0 -48 2 -65 5v-76c0 -16 -10 -28 -86 -28c-75 0 -85 12 -85 28zM272 404c-22 0 -35 -1 -46 -3v-179c13 -3 23 -4 50 -4c68 0 85 37 85 92
c0 59 -19 94 -89 94z" />
    <glyph glyph-name="Q" unicode="Q" horiz-adv-x="613" 
d="M29 327c0 198 92 330 276 330s279 -132 279 -330c0 -119 -35 -215 -102 -273l74 -145c-22 -22 -79 -42 -122 -42c-34 0 -52 8 -70 50l-34 78c-8 0 -17 -1 -25 -1c-184 0 -276 135 -276 333zM404 327c0 151 -38 198 -99 198s-96 -47 -96 -198s35 -201 96 -201
s99 50 99 201z" />
    <glyph glyph-name="R" unicode="R" horiz-adv-x="570" 
d="M554 36c-22 -22 -79 -42 -122 -42c-34 0 -52 8 -70 50l-75 174h-15c-25 0 -47 3 -47 3v-193c0 -16 -10 -28 -86 -28c-75 0 -85 12 -85 28v565c0 36 8 61 213 61c206 0 272 -94 272 -221c0 -77 -23 -144 -95 -182zM360 429c0 59 -19 94 -89 94c-39 0 -46 -4 -46 -4v-180
s14 -2 50 -2c68 0 85 37 85 92z" />
    <glyph glyph-name="Racute" unicode="&#x154;" horiz-adv-x="570" 
d="M554 36c-22 -22 -79 -42 -122 -42c-34 0 -52 8 -70 50l-75 174h-15c-25 0 -47 3 -47 3v-193c0 -16 -10 -28 -86 -28c-75 0 -85 12 -85 28v565c0 36 8 61 213 61c206 0 272 -94 272 -221c0 -77 -23 -144 -95 -182zM360 429c0 59 -19 94 -89 94c-39 0 -46 -4 -46 -4v-180
s14 -2 50 -2c68 0 85 37 85 92zM244 803c8 19 26 34 63 34c70 0 83 -13 83 -13l-55 -110c-11 -20 -26 -28 -57 -28c-40 0 -61 5 -78 15z" />
    <glyph glyph-name="Rcaron" unicode="&#x158;" horiz-adv-x="570" 
d="M554 36c-22 -22 -79 -42 -122 -42c-34 0 -52 8 -70 50l-75 174h-15c-25 0 -47 3 -47 3v-193c0 -16 -10 -28 -86 -28c-75 0 -85 12 -85 28v565c0 36 8 61 213 61c206 0 272 -94 272 -221c0 -77 -23 -144 -95 -182zM130 819c12 12 34 21 66 21c36 0 49 -7 55 -21l28 -65
l34 83h58c45 0 53 -11 53 -24c0 -7 -3 -15 -10 -24l-59 -79c-13 -18 -32 -24 -71 -24c-33 0 -65 6 -65 6zM360 429c0 59 -19 94 -89 94c-39 0 -46 -4 -46 -4v-180s14 -2 50 -2c68 0 85 37 85 92z" />
    <glyph glyph-name="Rcommaaccent" unicode="&#x156;" horiz-adv-x="570" 
d="M554 36c-22 -22 -79 -42 -122 -42c-34 0 -52 8 -70 50l-75 174h-15c-25 0 -47 3 -47 3v-193c0 -16 -10 -28 -86 -28c-75 0 -85 12 -85 28v565c0 36 8 61 213 61c206 0 272 -94 272 -221c0 -77 -23 -144 -95 -182zM360 429c0 59 -19 94 -89 94c-39 0 -46 -4 -46 -4v-180
s14 -2 50 -2c68 0 85 37 85 92zM237 -183c12 -11 29 -17 46 -17c14 0 23 7 31 20c20 31 36 67 36 92c0 39 -26 66 -66 66s-65 -27 -65 -66c0 -25 14 -42 36 -49z" />
    <glyph glyph-name="S" unicode="S" horiz-adv-x="483" 
d="M201 133c50 0 67 17 67 51c0 93 -233 58 -233 274c0 125 67 199 239 199c62 0 122 -6 148 -6c5 -15 9 -44 9 -61c0 -54 -7 -76 -49 -76c-21 0 -76 3 -94 3c-51 0 -70 -19 -70 -53c0 -94 230 -50 230 -265c0 -126 -67 -205 -237 -205c-145 0 -173 24 -173 67
c0 33 10 72 21 83c0 0 59 -11 142 -11z" />
    <glyph glyph-name="Sacute" unicode="&#x15a;" horiz-adv-x="483" 
d="M200 803c8 19 26 34 63 34c70 0 83 -13 83 -13l-55 -110c-11 -20 -26 -28 -57 -28c-40 0 -61 5 -78 15zM201 133c50 0 67 17 67 51c0 93 -233 58 -233 274c0 125 67 199 239 199c62 0 122 -6 148 -6c5 -15 9 -44 9 -61c0 -54 -7 -76 -49 -76c-21 0 -76 3 -94 3
c-51 0 -70 -19 -70 -53c0 -94 230 -50 230 -265c0 -126 -67 -205 -237 -205c-145 0 -173 24 -173 67c0 33 10 72 21 83c0 0 59 -11 142 -11z" />
    <glyph glyph-name="Scaron" unicode="&#x160;" horiz-adv-x="483" 
d="M95 819c12 12 34 21 66 21c36 0 49 -7 55 -21l28 -65l34 83h58c45 0 53 -11 53 -24c0 -7 -3 -15 -10 -24l-59 -79c-13 -18 -32 -24 -71 -24c-33 0 -65 6 -65 6zM201 133c50 0 67 17 67 51c0 93 -233 58 -233 274c0 125 67 199 239 199c62 0 122 -6 148 -6
c5 -15 9 -44 9 -61c0 -54 -7 -76 -49 -76c-21 0 -76 3 -94 3c-51 0 -70 -19 -70 -53c0 -94 230 -50 230 -265c0 -126 -67 -205 -237 -205c-145 0 -173 24 -173 67c0 33 10 72 21 83c0 0 59 -11 142 -11z" />
    <glyph glyph-name="Scedilla" unicode="&#x15e;" horiz-adv-x="483" 
d="M180 -17c1 4 3 8 6 11c-123 3 -148 26 -148 67c0 33 10 72 21 83c0 0 59 -11 142 -11c50 0 67 17 67 51c0 93 -233 58 -233 274c0 125 67 199 239 199c62 0 122 -6 148 -6c5 -15 9 -44 9 -61c0 -54 -7 -76 -49 -76c-21 0 -76 3 -94 3c-51 0 -70 -19 -70 -53
c0 -94 230 -50 230 -265c0 -115 -56 -191 -195 -203l-15 -32c6 1 18 2 28 2c51 0 80 -23 80 -65c0 -44 -29 -78 -108 -78c-76 0 -98 16 -98 44c0 16 10 26 18 30c0 0 25 -12 64 -12s44 8 44 16s-5 16 -37 16h-38c-19 0 -28 14 -28 28z" />
    <glyph glyph-name="Scircumflex" unicode="&#x15c;" horiz-adv-x="483" 
d="M184 831c0 0 32 6 65 6c39 0 58 -6 71 -24l59 -79c7 -9 10 -17 10 -24c0 -13 -8 -24 -53 -24h-58l-34 83l-28 -65c-6 -14 -19 -21 -55 -21c-32 0 -54 9 -66 21zM201 133c50 0 67 17 67 51c0 93 -233 58 -233 274c0 125 67 199 239 199c62 0 122 -6 148 -6
c5 -15 9 -44 9 -61c0 -54 -7 -76 -49 -76c-21 0 -76 3 -94 3c-51 0 -70 -19 -70 -53c0 -94 230 -50 230 -265c0 -126 -67 -205 -237 -205c-145 0 -173 24 -173 67c0 33 10 72 21 83c0 0 59 -11 142 -11z" />
    <glyph glyph-name="Scommaaccent" unicode="&#x218;" horiz-adv-x="483" 
d="M201 133c50 0 67 17 67 51c0 93 -233 58 -233 274c0 125 67 199 239 199c62 0 122 -6 148 -6c5 -15 9 -44 9 -61c0 -54 -7 -76 -49 -76c-21 0 -76 3 -94 3c-51 0 -70 -19 -70 -53c0 -94 230 -50 230 -265c0 -126 -67 -205 -237 -205c-145 0 -173 24 -173 67
c0 33 10 72 21 83c0 0 59 -11 142 -11zM194 -183c12 -11 29 -17 46 -17c14 0 23 7 31 20c20 31 36 67 36 92c0 39 -26 66 -66 66s-65 -27 -65 -66c0 -25 14 -42 36 -49z" />
    <glyph glyph-name="commaaccentcomb.cap" horiz-adv-x="268" 
d="M91 -183l18 46c-22 7 -36 24 -36 49c0 39 25 66 65 66s66 -27 66 -66c0 -25 -16 -61 -36 -92c-8 -13 -17 -20 -31 -20c-17 0 -34 6 -46 17z" />
    <glyph glyph-name="T" unicode="T" horiz-adv-x="482" 
d="M57 651h409c5 -15 9 -44 9 -61c0 -61 -13 -75 -49 -75h-99v-487c0 -16 -10 -28 -86 -28c-75 0 -85 12 -85 28v487h-139c-5 15 -9 44 -9 61c0 61 13 75 49 75z" />
    <glyph glyph-name="Tbar" unicode="&#x166;" 
d="M330 28c0 -16 -10 -28 -86 -28c-75 0 -85 12 -85 28v317h-93c-3 9 -5 25 -5 36c0 33 8 42 29 42h69v92h-139c-5 15 -9 44 -9 61c0 61 13 75 49 75h409c5 -15 9 -44 9 -61c0 -61 -13 -75 -49 -75h-99v-92h96c3 -9 5 -26 5 -36c0 -33 -7 -42 -28 -42h-73v-317z" />
    <glyph glyph-name="Tcaron" unicode="&#x164;" horiz-adv-x="482" 
d="M90 819c12 12 34 21 66 21c36 0 49 -7 55 -21l28 -65l34 83h58c45 0 53 -11 53 -24c0 -7 -3 -15 -10 -24l-59 -79c-13 -18 -32 -24 -71 -24c-33 0 -65 6 -65 6zM57 651h409c5 -15 9 -44 9 -61c0 -61 -13 -75 -49 -75h-99v-487c0 -16 -10 -28 -86 -28c-75 0 -85 12 -85 28
v487h-139c-5 15 -9 44 -9 61c0 61 13 75 49 75z" />
    <glyph glyph-name="Tcedilla" horiz-adv-x="482" 
d="M57 651h409c5 -15 9 -44 9 -61c0 -61 -13 -75 -49 -75h-99v-487c0 -15 -9 -26 -69 -28l-11 -24c6 1 18 2 28 2c51 0 80 -23 80 -65c0 -44 -29 -78 -108 -78c-76 0 -98 16 -98 44c0 16 10 26 18 30c0 0 25 -12 64 -12s44 8 44 16s-5 16 -37 16h-38c-19 0 -28 14 -28 28
l17 38l3 7c-31 5 -36 14 -36 26v487h-139c-5 15 -9 44 -9 61c0 61 13 75 49 75z" />
    <glyph glyph-name="Tcommaaccent" unicode="&#x162;" horiz-adv-x="482" 
d="M57 651h409c5 -15 9 -44 9 -61c0 -61 -13 -75 -49 -75h-99v-487c0 -16 -10 -28 -86 -28c-75 0 -85 12 -85 28v487h-139c-5 15 -9 44 -9 61c0 61 13 75 49 75zM175 -183c12 -11 29 -17 46 -17c14 0 23 7 31 20c20 31 36 67 36 92c0 39 -26 66 -66 66s-65 -27 -65 -66
c0 -25 14 -42 36 -49z" />
    <glyph glyph-name="U" unicode="U" horiz-adv-x="611" 
d="M390 221v402c0 16 11 28 85 28s86 -12 86 -28v-398c0 -150 -88 -231 -257 -231c-168 0 -254 81 -254 231v398c0 16 11 28 85 28s86 -12 86 -28v-402c0 -59 27 -95 83 -95s86 36 86 95z" />
    <glyph glyph-name="Uacute" unicode="&#xda;" horiz-adv-x="611" 
d="M281 803c8 19 26 34 63 34c70 0 83 -13 83 -13l-55 -110c-11 -20 -26 -28 -57 -28c-40 0 -61 5 -78 15zM390 221c0 -59 -30 -95 -86 -95s-83 36 -83 95v402c0 16 -12 28 -86 28s-85 -12 -85 -28v-398c0 -150 86 -231 254 -231c169 0 257 81 257 231v398
c0 16 -12 28 -86 28s-85 -12 -85 -28v-402z" />
    <glyph glyph-name="Ubreve" unicode="&#x16c;" horiz-adv-x="611" 
d="M390 221c0 -59 -30 -95 -86 -95s-83 36 -83 95v402c0 16 -12 28 -86 28s-85 -12 -85 -28v-398c0 -150 86 -231 254 -231c169 0 257 81 257 231v398c0 16 -12 28 -86 28s-85 -12 -85 -28v-402zM365 865c10 3 23 5 49 5c45 0 58 -8 58 -20v-16c0 -84 -53 -148 -166 -148
c-112 0 -166 64 -166 148v16c0 12 13 20 58 20c26 0 39 -2 49 -5v-33c0 -29 19 -50 59 -50s59 21 59 50v33z" />
    <glyph glyph-name="Ucircumflex" unicode="&#xdb;" horiz-adv-x="611" 
d="M248 831c0 0 32 6 65 6c39 0 58 -6 71 -24l59 -79c7 -9 10 -17 10 -24c0 -13 -8 -24 -53 -24h-58l-34 83l-28 -65c-6 -14 -19 -21 -55 -21c-32 0 -54 9 -66 21zM390 221c0 -59 -30 -95 -86 -95s-83 36 -83 95v402c0 16 -12 28 -86 28s-85 -12 -85 -28v-398
c0 -150 86 -231 254 -231c169 0 257 81 257 231v398c0 16 -12 28 -86 28s-85 -12 -85 -28v-402z" />
    <glyph glyph-name="Udieresis" unicode="&#xdc;" horiz-adv-x="611" 
d="M201 837c42 0 76 -34 76 -76c0 -41 -34 -75 -76 -75c-41 0 -75 34 -75 75c0 42 34 76 75 76zM410 837c42 0 76 -34 76 -76c0 -41 -34 -75 -76 -75c-41 0 -75 34 -75 75c0 42 34 76 75 76zM390 221c0 -59 -30 -95 -86 -95s-83 36 -83 95v402c0 16 -12 28 -86 28
s-85 -12 -85 -28v-398c0 -150 86 -231 254 -231c169 0 257 81 257 231v398c0 16 -12 28 -86 28s-85 -12 -85 -28v-402z" />
    <glyph glyph-name="Ugrave" unicode="&#xd9;" horiz-adv-x="611" 
d="M390 221c0 -59 -30 -95 -86 -95s-83 36 -83 95v402c0 16 -12 28 -86 28s-85 -12 -85 -28v-398c0 -150 86 -231 254 -231c169 0 257 81 257 231v398c0 16 -12 28 -86 28s-85 -12 -85 -28v-402zM181 824c0 0 13 13 83 13c37 0 55 -15 63 -34l44 -102
c-17 -10 -38 -15 -78 -15c-31 0 -46 8 -57 28z" />
    <glyph glyph-name="Uhungarumlaut" unicode="&#x170;" horiz-adv-x="611" 
d="M390 221c0 -59 -30 -95 -86 -95s-83 36 -83 95v402c0 16 -12 28 -86 28s-85 -12 -85 -28v-398c0 -150 86 -231 254 -231c169 0 257 81 257 231v398c0 16 -12 28 -86 28s-85 -12 -85 -28v-402zM384 803c8 19 26 34 63 34c70 0 83 -13 83 -13l-55 -110
c-11 -20 -26 -28 -57 -28c-40 0 -61 5 -78 15zM186 803c8 19 26 34 63 34c61 0 83 -13 83 -13l-55 -110c-11 -20 -26 -28 -57 -28c-40 0 -61 5 -78 15z" />
    <glyph glyph-name="Umacron" unicode="&#x16a;" horiz-adv-x="611" 
d="M412 686h-245c-4 14 -8 39 -8 53c0 54 11 66 45 66h245c4 -13 8 -39 8 -53c0 -53 -11 -66 -45 -66zM390 221v402c0 16 11 28 85 28s86 -12 86 -28v-398c0 -150 -88 -231 -257 -231c-168 0 -254 81 -254 231v398c0 16 11 28 85 28s86 -12 86 -28v-402c0 -59 27 -95 83 -95
s86 36 86 95z" />
    <glyph glyph-name="Uogonek" unicode="&#x172;" horiz-adv-x="611" 
d="M390 221v402c0 16 11 28 85 28s86 -12 86 -28v-398c0 -141 -78 -221 -228 -230c-12 -21 -20 -41 -20 -59c0 -16 9 -29 41 -29c23 0 37 5 53 11c7 -5 16 -21 16 -38c0 -33 -27 -42 -90 -42c-76 0 -109 37 -109 86c0 30 9 56 25 74c-132 16 -199 94 -199 227v398
c0 16 11 28 85 28s86 -12 86 -28v-402c0 -59 27 -95 83 -95s86 36 86 95z" />
    <glyph glyph-name="Uring" unicode="&#x16e;" horiz-adv-x="611" 
d="M412 798c0 -69 -48 -112 -108 -112s-108 43 -108 112c0 72 48 113 108 113s108 -41 108 -113zM277 798c0 -23 10 -36 27 -36s27 13 27 36c0 27 -10 36 -27 36s-27 -9 -27 -36zM390 221v402c0 16 11 28 85 28s86 -12 86 -28v-398c0 -150 -88 -231 -257 -231
c-168 0 -254 81 -254 231v398c0 16 11 28 85 28s86 -12 86 -28v-402c0 -59 27 -95 83 -95s86 36 86 95z" />
    <glyph glyph-name="Utilde" unicode="&#x168;" horiz-adv-x="611" 
d="M390 221c0 -59 -30 -95 -86 -95s-83 36 -83 95v402c0 16 -12 28 -86 28s-85 -12 -85 -28v-398c0 -150 86 -231 254 -231c169 0 257 81 257 231v398c0 16 -12 28 -86 28s-85 -12 -85 -28v-402zM142 718c0 94 47 126 103 126c62 0 92 -52 124 -52c21 0 28 13 32 45h40
c18 0 29 -11 29 -32c0 -94 -47 -126 -103 -126c-62 0 -92 52 -124 52c-22 0 -28 -13 -32 -45h-40c-18 0 -29 11 -29 32z" />
    <glyph glyph-name="V" unicode="V" horiz-adv-x="552" 
d="M192 0l-195 632c31 15 75 21 110 21c39 0 61 -13 71 -53l107 -411l120 462h96c34 0 48 -12 48 -36c0 -11 -1 -21 -10 -48l-169 -524c-10 -31 -36 -43 -95 -43h-83z" />
    <glyph glyph-name="W" unicode="W" horiz-adv-x="804" 
d="M642 651h87c43 0 55 -14 55 -44c0 -15 -4 -43 -11 -83l-73 -448c-7 -43 -36 -76 -116 -76h-108l-83 420l-62 -345c-8 -44 -35 -75 -115 -75h-100l-101 635c23 9 61 16 94 16c38 0 57 -13 61 -51l53 -457l93 458c22 8 51 14 87 14c63 0 87 -15 94 -51l84 -421z" />
    <glyph glyph-name="Wacute" unicode="&#x1e82;" horiz-adv-x="804" 
d="M379 788c8 19 26 34 63 34c70 0 83 -13 83 -13l-55 -110c-11 -20 -26 -28 -57 -28c-40 0 -61 5 -78 15zM642 651h87c43 0 55 -14 55 -44c0 -15 -4 -43 -11 -83l-73 -448c-7 -43 -36 -76 -116 -76h-108l-83 420l-62 -345c-8 -44 -35 -75 -115 -75h-100l-101 635
c23 9 61 16 94 16c38 0 57 -13 61 -51l53 -457l93 458c22 8 51 14 87 14c63 0 87 -15 94 -51l84 -421z" />
    <glyph glyph-name="Wcircumflex" unicode="&#x174;" horiz-adv-x="804" 
d="M342 813c0 0 32 6 65 6c39 0 58 -6 71 -24l59 -79c7 -9 10 -17 10 -24c0 -13 -8 -24 -53 -24h-58l-34 83l-28 -65c-6 -14 -19 -21 -55 -21c-32 0 -54 9 -66 21zM642 651h87c43 0 55 -14 55 -44c0 -15 -4 -43 -11 -83l-73 -448c-7 -43 -36 -76 -116 -76h-108l-83 420
l-62 -345c-8 -44 -35 -75 -115 -75h-100l-101 635c23 9 61 16 94 16c38 0 57 -13 61 -51l53 -457l93 458c22 8 51 14 87 14c63 0 87 -15 94 -51l84 -421z" />
    <glyph glyph-name="Wdieresis" unicode="&#x1e84;" horiz-adv-x="804" 
d="M297 837c42 0 76 -34 76 -76c0 -41 -34 -75 -76 -75c-41 0 -75 34 -75 75c0 42 34 76 75 76zM506 837c42 0 76 -34 76 -76c0 -41 -34 -75 -76 -75c-41 0 -75 34 -75 75c0 42 34 76 75 76zM642 651h87c43 0 55 -14 55 -44c0 -15 -4 -43 -11 -83l-73 -448
c-7 -43 -36 -76 -116 -76h-108l-83 420l-62 -345c-8 -44 -35 -75 -115 -75h-100l-101 635c23 9 61 16 94 16c38 0 57 -13 61 -51l53 -457l93 458c22 8 51 14 87 14c63 0 87 -15 94 -51l84 -421z" />
    <glyph glyph-name="Wgrave" unicode="&#x1e80;" horiz-adv-x="804" 
d="M272 809c0 0 13 13 83 13c37 0 55 -15 63 -34l44 -102c-17 -10 -38 -15 -78 -15c-31 0 -46 8 -57 28zM642 651h87c43 0 55 -14 55 -44c0 -15 -4 -43 -11 -83l-73 -448c-7 -43 -36 -76 -116 -76h-108l-83 420l-62 -345c-8 -44 -35 -75 -115 -75h-100l-101 635
c23 9 61 16 94 16c38 0 57 -13 61 -51l53 -457l93 458c22 8 51 14 87 14c63 0 87 -15 94 -51l84 -421z" />
    <glyph glyph-name="X" unicode="X" horiz-adv-x="543" 
d="M14 630c34 16 81 23 119 23c43 0 61 -14 78 -58l75 -176l82 232h101c32 0 48 -9 48 -35c0 -18 -8 -41 -21 -64l-112 -212l130 -256c11 -22 16 -37 16 -51c0 -19 -13 -33 -44 -33h-125l-96 248l-85 -209c-15 -36 -27 -44 -70 -44c-36 0 -76 10 -103 30l159 311z" />
    <glyph glyph-name="Y" unicode="Y" horiz-adv-x="517" 
d="M271 353l103 298h87c34 0 48 -12 48 -36c0 -19 -6 -32 -20 -63l-143 -317v-207c0 -16 -10 -28 -86 -28c-75 0 -85 12 -85 28v202l-185 399c27 15 63 24 112 24c39 0 60 -13 75 -53z" />
    <glyph glyph-name="Yacute" unicode="&#xdd;" horiz-adv-x="517" 
d="M271 353l103 298h87c34 0 48 -12 48 -36c0 -19 -6 -32 -20 -63l-143 -317v-207c0 -16 -10 -28 -86 -28c-75 0 -85 12 -85 28v202l-185 399c27 15 63 24 112 24c39 0 60 -13 75 -53zM235 803c8 19 26 34 63 34c70 0 83 -13 83 -13l-55 -110c-11 -20 -26 -28 -57 -28
c-40 0 -61 5 -78 15z" />
    <glyph glyph-name="Ycircumflex" unicode="&#x176;" horiz-adv-x="517" 
d="M201 831c0 0 32 6 65 6c39 0 58 -6 71 -24l59 -79c7 -9 10 -17 10 -24c0 -13 -8 -24 -53 -24h-58l-34 83l-28 -65c-6 -14 -19 -21 -55 -21c-32 0 -54 9 -66 21zM271 353l103 298h87c34 0 48 -12 48 -36c0 -19 -6 -32 -20 -63l-143 -317v-207c0 -16 -10 -28 -86 -28
c-75 0 -85 12 -85 28v202l-185 399c27 15 63 24 112 24c39 0 60 -13 75 -53z" />
    <glyph glyph-name="Ydieresis" unicode="&#x178;" horiz-adv-x="517" 
d="M154 837c42 0 76 -34 76 -76c0 -41 -34 -75 -76 -75c-41 0 -75 34 -75 75c0 42 34 76 75 76zM363 837c42 0 76 -34 76 -76c0 -41 -34 -75 -76 -75c-41 0 -75 34 -75 75c0 42 34 76 75 76zM271 353l103 298h87c34 0 48 -12 48 -36c0 -19 -6 -32 -20 -63l-143 -317v-207
c0 -16 -10 -28 -86 -28c-75 0 -85 12 -85 28v202l-185 399c27 15 63 24 112 24c39 0 60 -13 75 -53z" />
    <glyph glyph-name="Ygrave" unicode="&#x1ef2;" horiz-adv-x="517" 
d="M271 353l103 298h87c34 0 48 -12 48 -36c0 -19 -6 -32 -20 -63l-143 -317v-207c0 -16 -10 -28 -86 -28c-75 0 -85 12 -85 28v202l-185 399c27 15 63 24 112 24c39 0 60 -13 75 -53zM135 824c0 0 13 13 83 13c37 0 55 -15 63 -34l44 -102c-17 -10 -38 -15 -78 -15
c-31 0 -46 8 -57 28z" />
    <glyph glyph-name="Z" unicode="Z" horiz-adv-x="494" 
d="M83 651h369c8 -16 13 -41 13 -68c0 -47 -17 -88 -48 -136l-183 -281c-8 -12 -9 -19 -9 -23c0 -7 4 -12 11 -12h223c4 -14 8 -42 8 -59c0 -59 -12 -72 -47 -72h-315c-52 0 -80 31 -80 85c0 42 10 68 34 104l193 287c10 15 13 27 13 34v5h-222c-5 15 -9 44 -9 61
c0 61 13 75 49 75z" />
    <glyph glyph-name="Zacute" unicode="&#x179;" horiz-adv-x="494" 
d="M221 803c8 19 26 34 63 34c70 0 83 -13 83 -13l-55 -110c-11 -20 -26 -28 -57 -28c-40 0 -61 5 -78 15zM83 651h369c8 -16 13 -41 13 -68c0 -47 -17 -88 -48 -136l-183 -281c-8 -12 -9 -19 -9 -23c0 -7 4 -12 11 -12h223c4 -14 8 -42 8 -59c0 -59 -12 -72 -47 -72h-315
c-52 0 -80 31 -80 85c0 42 10 68 34 104l193 287c10 15 13 27 13 34v5h-222c-5 15 -9 44 -9 61c0 61 13 75 49 75z" />
    <glyph glyph-name="Zcaron" unicode="&#x17d;" horiz-adv-x="494" 
d="M100 819c12 12 34 21 66 21c36 0 49 -7 55 -21l28 -65l34 83h58c45 0 53 -11 53 -24c0 -7 -3 -15 -10 -24l-59 -79c-13 -18 -32 -24 -71 -24c-33 0 -65 6 -65 6zM83 651h369c8 -16 13 -41 13 -68c0 -47 -17 -88 -48 -136l-183 -281c-8 -12 -9 -19 -9 -23
c0 -7 4 -12 11 -12h223c4 -14 8 -42 8 -59c0 -59 -12 -72 -47 -72h-315c-52 0 -80 31 -80 85c0 42 10 68 34 104l193 287c10 15 13 27 13 34v5h-222c-5 15 -9 44 -9 61c0 61 13 75 49 75z" />
    <glyph glyph-name="Zdotaccent" unicode="&#x17b;" horiz-adv-x="494" 
d="M83 651h369c8 -16 13 -41 13 -68c0 -47 -17 -88 -48 -136l-183 -281c-8 -12 -9 -19 -9 -23c0 -7 4 -12 11 -12h223c4 -14 8 -42 8 -59c0 -59 -12 -72 -47 -72h-315c-52 0 -80 31 -80 85c0 42 10 68 34 104l193 287c10 15 13 27 13 34v5h-222c-5 15 -9 44 -9 61
c0 61 13 75 49 75zM247 857c48 0 86 -38 86 -86c0 -47 -38 -85 -86 -85c-47 0 -85 38 -85 85c0 48 38 86 85 86z" />
    <glyph glyph-name="uni021A" unicode="&#x21a;" horiz-adv-x="482" 
d="M57 651h409c5 -15 9 -44 9 -61c0 -61 -13 -75 -49 -75h-99v-487c0 -16 -10 -28 -86 -28c-75 0 -85 12 -85 28v487h-139c-5 15 -9 44 -9 61c0 61 13 75 49 75zM193 -183c12 -11 29 -17 46 -17c14 0 23 7 31 20c20 31 36 67 36 92c0 39 -26 66 -66 66s-65 -27 -65 -66
c0 -25 14 -42 36 -49z" />
    <glyph glyph-name="a" unicode="a" horiz-adv-x="469" 
d="M425 344v-316c0 -16 -9 -28 -71 -28c-61 0 -69 12 -69 28v22c-23 -38 -59 -61 -121 -61c-88 0 -140 49 -140 131c0 84 50 138 171 138c26 0 43 0 74 -4v75c0 38 -16 49 -54 49c-42 0 -95 -2 -115 -2c-40 0 -47 23 -47 69c0 15 4 42 9 55c25 0 109 9 169 9
c138 0 194 -45 194 -165zM172 138c0 -28 15 -43 43 -43c23 0 41 10 54 23v63c-13 3 -23 5 -45 5c-41 0 -52 -18 -52 -48z" />
    <glyph glyph-name="aacute" unicode="&#xe1;" horiz-adv-x="469" 
d="M425 344c0 120 -56 165 -194 165c-60 0 -144 -9 -169 -9c-5 -13 -9 -40 -9 -55c0 -46 7 -69 47 -69c20 0 73 2 115 2c38 0 54 -11 54 -49v-75c-31 4 -48 4 -74 4c-121 0 -171 -54 -171 -138c0 -82 52 -131 140 -131c62 0 98 23 121 61v-22c0 -16 8 -28 69 -28
c62 0 71 12 71 28v316zM172 138c0 30 11 48 52 48c22 0 32 -2 45 -5v-63c-13 -13 -31 -23 -54 -23c-28 0 -43 15 -43 43zM210 667c8 19 26 34 63 34c70 0 83 -13 83 -13l-55 -110c-11 -20 -26 -28 -57 -28c-40 0 -61 5 -78 15z" />
    <glyph glyph-name="abreve" unicode="&#x103;" horiz-adv-x="469" 
d="M425 344c0 120 -56 165 -194 165c-60 0 -144 -9 -169 -9c-5 -13 -9 -40 -9 -55c0 -46 7 -69 47 -69c20 0 73 2 115 2c38 0 54 -11 54 -49v-75c-31 4 -48 4 -74 4c-121 0 -171 -54 -171 -138c0 -82 52 -131 140 -131c62 0 98 23 121 61v-22c0 -16 8 -28 69 -28
c62 0 71 12 71 28v316zM172 138c0 30 11 48 52 48c22 0 32 -2 45 -5v-63c-13 -13 -31 -23 -54 -23c-28 0 -43 15 -43 43zM295 729c10 3 23 5 49 5c45 0 58 -8 58 -20v-16c0 -84 -53 -148 -166 -148c-112 0 -166 64 -166 148v16c0 12 13 20 58 20c26 0 39 -2 49 -5v-33
c0 -29 19 -50 59 -50s59 21 59 50v33z" />
    <glyph glyph-name="acircumflex" unicode="&#xe2;" horiz-adv-x="469" 
d="M173 695c0 0 32 6 65 6c39 0 58 -6 71 -24l59 -79c7 -9 10 -17 10 -24c0 -13 -8 -24 -53 -24h-58l-34 83l-28 -65c-6 -14 -19 -21 -55 -21c-32 0 -54 9 -66 21zM425 344c0 120 -56 165 -194 165c-60 0 -144 -9 -169 -9c-5 -13 -9 -40 -9 -55c0 -46 7 -69 47 -69
c20 0 73 2 115 2c38 0 54 -11 54 -49v-75c-31 4 -48 4 -74 4c-121 0 -171 -54 -171 -138c0 -82 52 -131 140 -131c62 0 98 23 121 61v-22c0 -16 8 -28 69 -28c62 0 71 12 71 28v316zM172 138c0 30 11 48 52 48c22 0 32 -2 45 -5v-63c-13 -13 -31 -23 -54 -23
c-28 0 -43 15 -43 43z" />
    <glyph glyph-name="adieresis" unicode="&#xe4;" horiz-adv-x="469" 
d="M130 702c42 0 76 -34 76 -76c0 -41 -34 -75 -76 -75c-41 0 -75 34 -75 75c0 42 34 76 75 76zM339 702c42 0 76 -34 76 -76c0 -41 -34 -75 -76 -75c-41 0 -75 34 -75 75c0 42 34 76 75 76zM425 344c0 120 -56 165 -194 165c-60 0 -144 -9 -169 -9c-5 -13 -9 -40 -9 -55
c0 -46 7 -69 47 -69c20 0 73 2 115 2c38 0 54 -11 54 -49v-75c-31 4 -48 4 -74 4c-121 0 -171 -54 -171 -138c0 -82 52 -131 140 -131c62 0 98 23 121 61v-22c0 -16 8 -28 69 -28c62 0 71 12 71 28v316zM172 138c0 30 11 48 52 48c22 0 32 -2 45 -5v-63
c-13 -13 -31 -23 -54 -23c-28 0 -43 15 -43 43z" />
    <glyph glyph-name="agrave" unicode="&#xe0;" horiz-adv-x="469" 
d="M425 344c0 120 -56 165 -194 165c-60 0 -144 -9 -169 -9c-5 -13 -9 -40 -9 -55c0 -46 7 -69 47 -69c20 0 73 2 115 2c38 0 54 -11 54 -49v-75c-31 4 -48 4 -74 4c-121 0 -171 -54 -171 -138c0 -82 52 -131 140 -131c62 0 98 23 121 61v-22c0 -16 8 -28 69 -28
c62 0 71 12 71 28v316zM172 138c0 30 11 48 52 48c22 0 32 -2 45 -5v-63c-13 -13 -31 -23 -54 -23c-28 0 -43 15 -43 43zM112 688c0 0 13 13 83 13c37 0 55 -15 63 -34l44 -102c-17 -10 -38 -15 -78 -15c-31 0 -46 8 -57 28z" />
    <glyph glyph-name="amacron" unicode="&#x101;" horiz-adv-x="469" 
d="M425 344v-316c0 -16 -9 -28 -71 -28c-61 0 -69 12 -69 28v22c-23 -38 -59 -61 -121 -61c-88 0 -140 49 -140 131c0 84 50 138 171 138c26 0 43 0 74 -4v75c0 38 -16 49 -54 49c-42 0 -95 -2 -115 -2c-40 0 -47 23 -47 69c0 15 4 42 9 55c25 0 109 9 169 9
c138 0 194 -45 194 -165zM172 138c0 -28 15 -43 43 -43c23 0 41 10 54 23v63c-13 3 -23 5 -45 5c-41 0 -52 -18 -52 -48zM339 551h-245c-4 14 -8 39 -8 53c0 54 11 66 45 66h245c4 -13 8 -39 8 -53c0 -53 -11 -66 -45 -66z" />
    <glyph glyph-name="aogonek" unicode="&#x105;" horiz-adv-x="469" 
d="M425 344v-316c0 -13 -6 -24 -43 -27c-14 -24 -24 -46 -24 -65c0 -16 9 -29 41 -29c23 0 37 5 53 11c7 -5 16 -21 16 -38c0 -33 -27 -42 -90 -42c-76 0 -109 37 -109 86c0 36 13 65 33 81c-14 5 -17 13 -17 23v22c-23 -38 -59 -61 -121 -61c-88 0 -140 49 -140 131
c0 84 50 138 171 138c26 0 43 0 74 -4v75c0 38 -16 49 -54 49c-42 0 -95 -2 -115 -2c-40 0 -47 23 -47 69c0 15 4 42 9 55c25 0 109 9 169 9c138 0 194 -45 194 -165zM172 138c0 -28 15 -43 43 -43c23 0 41 10 54 23v63c-13 3 -23 5 -45 5c-41 0 -52 -18 -52 -48z" />
    <glyph glyph-name="aring" unicode="&#xe5;" horiz-adv-x="469" 
d="M425 344v-316c0 -16 -9 -28 -71 -28c-61 0 -69 12 -69 28v22c-23 -38 -59 -61 -121 -61c-88 0 -140 49 -140 131c0 84 50 138 171 138c26 0 43 0 74 -4v75c0 38 -16 49 -54 49c-42 0 -95 -2 -115 -2c-40 0 -47 23 -47 69c0 15 4 42 9 55c25 0 109 9 169 9
c138 0 194 -45 194 -165zM172 138c0 -28 15 -43 43 -43c23 0 41 10 54 23v63c-13 3 -23 5 -45 5c-41 0 -52 -18 -52 -48zM344 663c0 -69 -48 -112 -108 -112s-108 43 -108 112c0 72 48 113 108 113s108 -41 108 -113zM209 663c0 -23 10 -36 27 -36s27 13 27 36
c0 27 -10 36 -27 36s-27 -9 -27 -36z" />
    <glyph glyph-name="atilde" unicode="&#xe3;" horiz-adv-x="469" 
d="M425 344c0 120 -56 165 -194 165c-60 0 -144 -9 -169 -9c-5 -13 -9 -40 -9 -55c0 -46 7 -69 47 -69c20 0 73 2 115 2c38 0 54 -11 54 -49v-75c-31 4 -48 4 -74 4c-121 0 -171 -54 -171 -138c0 -82 52 -131 140 -131c62 0 98 23 121 61v-22c0 -16 8 -28 69 -28
c62 0 71 12 71 28v316zM172 138c0 30 11 48 52 48c22 0 32 -2 45 -5v-63c-13 -13 -31 -23 -54 -23c-28 0 -43 15 -43 43zM72 583c0 94 47 126 103 126c62 0 92 -52 124 -52c21 0 28 13 32 45h40c18 0 29 -11 29 -32c0 -94 -47 -126 -103 -126c-62 0 -92 52 -124 52
c-22 0 -28 -13 -32 -45h-40c-18 0 -29 11 -29 32z" />
    <glyph glyph-name="ae" unicode="&#xe6;" horiz-adv-x="714" 
d="M62 500c25 0 109 9 169 9c63 0 109 -10 140 -31c34 20 75 31 123 31c134 0 197 -89 197 -240v-64h-266c6 -70 35 -95 101 -95c64 0 107 28 107 28c16 -11 31 -33 31 -65c0 -51 -55 -85 -160 -85c-73 0 -127 20 -165 57c-58 -43 -99 -57 -172 -57c-98 0 -151 54 -151 140
c0 84 53 142 168 142c26 0 54 -4 85 -11v74c0 38 -16 50 -54 50c-42 0 -95 -3 -115 -3c-40 0 -47 19 -47 65c0 15 4 42 9 55zM288 125c-7 19 -12 39 -15 60c-18 3 -38 6 -52 6c-39 0 -57 -17 -57 -51c0 -26 17 -45 47 -45c32 0 56 13 77 30zM554 296c0 59 -22 89 -60 89
c-35 0 -62 -27 -68 -89h128z" />
    <glyph glyph-name="aeacute" unicode="&#x1fd;" horiz-adv-x="714" 
d="M62 500c25 0 109 9 169 9c63 0 109 -10 140 -31c34 20 75 31 123 31c134 0 197 -89 197 -240v-64h-266c6 -70 35 -95 101 -95c64 0 107 28 107 28c16 -11 31 -33 31 -65c0 -51 -55 -85 -160 -85c-73 0 -127 20 -165 57c-58 -43 -99 -57 -172 -57c-98 0 -151 54 -151 140
c0 84 53 142 168 142c26 0 54 -4 85 -11v74c0 38 -16 50 -54 50c-42 0 -95 -3 -115 -3c-40 0 -47 19 -47 65c0 15 4 42 9 55zM333 667c8 19 26 34 63 34c70 0 83 -13 83 -13l-55 -110c-11 -20 -26 -28 -57 -28c-40 0 -61 5 -78 15zM288 125c-7 19 -12 39 -15 60
c-18 3 -38 6 -52 6c-39 0 -57 -17 -57 -51c0 -26 17 -45 47 -45c32 0 56 13 77 30zM554 296c0 59 -22 89 -60 89c-35 0 -62 -27 -68 -89h128z" />
    <glyph glyph-name="b" unicode="b" horiz-adv-x="522" 
d="M47 690c0 16 9 28 77 28c69 0 79 -12 79 -28v-214c28 19 66 33 106 33c111 0 187 -81 187 -256c0 -176 -97 -265 -214 -265c-49 0 -87 17 -109 41l-5 -8c-8 -13 -18 -21 -43 -21h-78v690zM335 238c0 125 -34 147 -81 147c-22 0 -39 -10 -51 -20v-241
c15 -13 34 -20 53 -20c44 0 79 32 79 134z" />
    <glyph glyph-name="c" unicode="c" horiz-adv-x="411" 
d="M384 50c0 -41 -34 -62 -135 -62c-146 0 -223 80 -223 259c0 186 77 262 228 262c22 0 113 -9 123 -9c5 -12 9 -38 9 -53c0 -46 -6 -65 -43 -65c-18 0 -67 3 -81 3c-52 0 -83 -39 -83 -141c0 -99 36 -134 101 -134c47 0 85 11 85 11c10 -10 19 -41 19 -71z" />
    <glyph glyph-name="cacute" unicode="&#x107;" horiz-adv-x="411" 
d="M185 667c8 19 26 34 63 34c70 0 83 -13 83 -13l-55 -110c-11 -20 -26 -28 -57 -28c-40 0 -61 5 -78 15zM384 50c0 -41 -34 -62 -135 -62c-146 0 -223 80 -223 259c0 186 77 262 228 262c22 0 113 -9 123 -9c5 -12 9 -38 9 -53c0 -46 -6 -65 -43 -65c-18 0 -67 3 -81 3
c-52 0 -83 -39 -83 -141c0 -99 36 -134 101 -134c47 0 85 11 85 11c10 -10 19 -41 19 -71z" />
    <glyph glyph-name="ccaron" unicode="&#x10d;" horiz-adv-x="411" 
d="M67 683c12 12 34 21 66 21c36 0 49 -7 55 -21l28 -65l34 83h58c45 0 53 -11 53 -24c0 -7 -3 -15 -10 -24l-59 -79c-13 -18 -32 -24 -71 -24c-33 0 -65 6 -65 6zM384 50c0 -41 -34 -62 -135 -62c-146 0 -223 80 -223 259c0 186 77 262 228 262c22 0 113 -9 123 -9
c5 -12 9 -38 9 -53c0 -46 -6 -65 -43 -65c-18 0 -67 3 -81 3c-52 0 -83 -39 -83 -141c0 -99 36 -134 101 -134c47 0 85 11 85 11c10 -10 19 -41 19 -71z" />
    <glyph glyph-name="ccedilla" unicode="&#xe7;" horiz-adv-x="411" 
d="M193 -17c1 4 3 7 4 9c-112 18 -171 98 -171 255c0 186 77 262 228 262c22 0 113 -9 123 -9c5 -12 9 -38 9 -53c0 -46 -6 -65 -43 -65c-18 0 -67 3 -81 3c-52 0 -83 -39 -83 -141c0 -99 36 -134 101 -134c47 0 85 11 85 11c10 -10 19 -41 19 -71c0 -39 -31 -60 -122 -62
l-11 -24c6 1 18 2 28 2c51 0 80 -23 80 -65c0 -44 -29 -78 -108 -78c-76 0 -98 16 -98 44c0 16 10 26 18 30c0 0 25 -12 64 -12s44 8 44 16s-5 16 -37 16h-38c-19 0 -28 14 -28 28z" />
    <glyph glyph-name="ccircumflex" unicode="&#x109;" horiz-adv-x="411" 
d="M157 695c0 0 32 6 65 6c39 0 58 -6 71 -24l59 -79c7 -9 10 -17 10 -24c0 -13 -8 -24 -53 -24h-58l-34 83l-28 -65c-6 -14 -19 -21 -55 -21c-32 0 -54 9 -66 21zM384 50c0 -41 -34 -62 -135 -62c-146 0 -223 80 -223 259c0 186 77 262 228 262c22 0 113 -9 123 -9
c5 -12 9 -38 9 -53c0 -46 -6 -65 -43 -65c-18 0 -67 3 -81 3c-52 0 -83 -39 -83 -141c0 -99 36 -134 101 -134c47 0 85 11 85 11c10 -10 19 -41 19 -71z" />
    <glyph glyph-name="cdotaccent" unicode="&#x10b;" horiz-adv-x="411" 
d="M384 50c0 -41 -34 -62 -135 -62c-146 0 -223 80 -223 259c0 186 77 262 228 262c22 0 113 -9 123 -9c5 -12 9 -38 9 -53c0 -46 -6 -65 -43 -65c-18 0 -67 3 -81 3c-52 0 -83 -39 -83 -141c0 -99 36 -134 101 -134c47 0 85 11 85 11c10 -10 19 -41 19 -71zM210 722
c48 0 86 -38 86 -86c0 -47 -38 -85 -86 -85c-47 0 -85 38 -85 85c0 48 38 86 85 86z" />
    <glyph glyph-name="d" unicode="d" horiz-adv-x="522" 
d="M319 690c0 16 8 28 76 28c69 0 80 -12 80 -28v-662c0 -16 -9 -28 -71 -28c-61 0 -69 12 -69 28v25c-34 -44 -77 -65 -127 -65c-104 0 -182 79 -182 254c0 162 77 267 242 267c17 0 39 -3 51 -9v190zM319 373c0 0 -15 12 -47 12c-51 0 -85 -28 -85 -141
c0 -116 34 -134 81 -134c21 0 38 10 51 20v243z" />
    <glyph glyph-name="eth" unicode="&#xf0;" horiz-adv-x="517" 
d="M62 651c26 0 93 6 155 6c194 0 270 -100 270 -316c0 -245 -88 -347 -240 -347c-159 0 -231 93 -231 215c0 114 57 195 198 195c39 0 71 -5 98 -11c-8 112 -40 124 -107 124c-25 0 -46 -3 -78 -3c-53 0 -74 28 -74 76c0 22 4 44 9 61zM247 118c42 0 64 26 67 172
c-16 6 -36 10 -66 10c-46 0 -66 -28 -66 -91c0 -64 19 -91 65 -91z" />
    <glyph glyph-name="dcaron" unicode="&#x10f;" horiz-adv-x="522" 
d="M534 571l-18 -46c12 -11 29 -17 46 -17c14 0 23 7 31 20c20 31 36 67 36 92c0 39 -26 66 -66 66s-65 -27 -65 -66c0 -25 14 -42 36 -49zM319 690c0 16 8 28 76 28c69 0 80 -12 80 -28v-662c0 -16 -9 -28 -71 -28c-61 0 -69 12 -69 28v25c-34 -44 -77 -65 -127 -65
c-104 0 -182 79 -182 254c0 162 77 267 242 267c17 0 39 -3 51 -9v190zM319 373c0 0 -15 12 -47 12c-51 0 -85 -28 -85 -141c0 -116 34 -134 81 -134c21 0 38 10 51 20v243z" />
    <glyph glyph-name="dcroat" unicode="&#x111;" horiz-adv-x="522" 
d="M26 242c0 162 77 267 242 267c17 0 39 -3 51 -9v54h-66c-3 11 -6 31 -6 44c0 43 9 53 35 53h37v39c0 16 8 28 76 28c69 0 80 -12 80 -28v-39h50c3 -11 6 -31 6 -44c0 -43 -9 -53 -35 -53h-21v-526c0 -16 -9 -28 -77 -28c-69 0 -79 12 -79 28v13c-28 -33 -64 -53 -111 -53
c-104 0 -182 79 -182 254zM268 110c21 0 38 10 51 20v243s-15 12 -47 12c-51 0 -85 -28 -85 -141c0 -116 34 -134 81 -134z" />
    <glyph glyph-name="e" unicode="e" horiz-adv-x="471" 
d="M443 293c0 -47 -6 -71 -6 -71h-255c0 -76 31 -112 101 -112c71 0 113 16 113 16c10 -16 18 -42 18 -73c0 -37 -42 -65 -151 -65c-158 0 -237 94 -237 259c0 168 85 262 216 262c134 0 201 -74 201 -216zM183 298h115c0 64 -20 87 -55 87c-38 0 -58 -31 -60 -87z" />
    <glyph glyph-name="eacute" unicode="&#xe9;" horiz-adv-x="471" 
d="M213 667c8 19 26 34 63 34c70 0 83 -13 83 -13l-55 -110c-11 -20 -26 -28 -57 -28c-40 0 -61 5 -78 15zM443 293c0 142 -67 216 -201 216c-131 0 -216 -94 -216 -262c0 -165 79 -259 237 -259c109 0 151 28 151 65c0 31 -8 57 -18 73c0 0 -42 -16 -113 -16
c-70 0 -101 36 -101 112h255s6 24 6 71zM183 298c2 56 22 87 60 87c35 0 55 -23 55 -87h-115z" />
    <glyph glyph-name="ebreve" unicode="&#x115;" horiz-adv-x="471" 
d="M443 293c0 142 -67 216 -201 216c-131 0 -216 -94 -216 -262c0 -165 79 -259 237 -259c109 0 151 28 151 65c0 31 -8 57 -18 73c0 0 -42 -16 -113 -16c-70 0 -101 36 -101 112h255s6 24 6 71zM183 298c2 56 22 87 60 87c35 0 55 -23 55 -87h-115zM296 729c10 3 23 5 49 5
c45 0 58 -8 58 -20v-16c0 -84 -53 -148 -166 -148c-112 0 -166 64 -166 148v16c0 12 13 20 58 20c26 0 39 -2 49 -5v-33c0 -29 19 -50 59 -50s59 21 59 50v33z" />
    <glyph glyph-name="ecaron" unicode="&#x11b;" horiz-adv-x="471" 
d="M82 683c12 12 34 21 66 21c36 0 49 -7 55 -21l28 -65l34 83h58c45 0 53 -11 53 -24c0 -7 -3 -15 -10 -24l-59 -79c-13 -18 -32 -24 -71 -24c-33 0 -65 6 -65 6zM443 293c0 142 -67 216 -201 216c-131 0 -216 -94 -216 -262c0 -165 79 -259 237 -259c109 0 151 28 151 65
c0 31 -8 57 -18 73c0 0 -42 -16 -113 -16c-70 0 -101 36 -101 112h255s6 24 6 71zM183 298c2 56 22 87 60 87c35 0 55 -23 55 -87h-115z" />
    <glyph glyph-name="ecircumflex" unicode="&#xea;" horiz-adv-x="471" 
d="M178 695c0 0 32 6 65 6c39 0 58 -6 71 -24l59 -79c7 -9 10 -17 10 -24c0 -13 -8 -24 -53 -24h-58l-34 83l-28 -65c-6 -14 -19 -21 -55 -21c-32 0 -54 9 -66 21zM443 293c0 142 -67 216 -201 216c-131 0 -216 -94 -216 -262c0 -165 79 -259 237 -259c109 0 151 28 151 65
c0 31 -8 57 -18 73c0 0 -42 -16 -113 -16c-70 0 -101 36 -101 112h255s6 24 6 71zM183 298c2 56 22 87 60 87c35 0 55 -23 55 -87h-115z" />
    <glyph glyph-name="edieresis" unicode="&#xeb;" horiz-adv-x="471" 
d="M131 702c42 0 76 -34 76 -76c0 -41 -34 -75 -76 -75c-41 0 -75 34 -75 75c0 42 34 76 75 76zM340 702c42 0 76 -34 76 -76c0 -41 -34 -75 -76 -75c-41 0 -75 34 -75 75c0 42 34 76 75 76zM443 293c0 142 -67 216 -201 216c-131 0 -216 -94 -216 -262
c0 -165 79 -259 237 -259c109 0 151 28 151 65c0 31 -8 57 -18 73c0 0 -42 -16 -113 -16c-70 0 -101 36 -101 112h255s6 24 6 71zM183 298c2 56 22 87 60 87c35 0 55 -23 55 -87h-115z" />
    <glyph glyph-name="edotaccent" unicode="&#x117;" horiz-adv-x="471" 
d="M443 293c0 142 -67 216 -201 216c-131 0 -216 -94 -216 -262c0 -165 79 -259 237 -259c109 0 151 28 151 65c0 31 -8 57 -18 73c0 0 -42 -16 -113 -16c-70 0 -101 36 -101 112h255s6 24 6 71zM183 298c2 56 22 87 60 87c35 0 55 -23 55 -87h-115zM231 722
c48 0 86 -38 86 -86c0 -47 -38 -85 -86 -85c-47 0 -85 38 -85 85c0 48 38 86 85 86z" />
    <glyph glyph-name="egrave" unicode="&#xe8;" horiz-adv-x="471" 
d="M443 293c0 142 -67 216 -201 216c-131 0 -216 -94 -216 -262c0 -165 79 -259 237 -259c109 0 151 28 151 65c0 31 -8 57 -18 73c0 0 -42 -16 -113 -16c-70 0 -101 36 -101 112h255s6 24 6 71zM183 298c2 56 22 87 60 87c35 0 55 -23 55 -87h-115zM117 688
c0 0 13 13 83 13c37 0 55 -15 63 -34l44 -102c-17 -10 -38 -15 -78 -15c-31 0 -46 8 -57 28z" />
    <glyph glyph-name="emacron" unicode="&#x113;" horiz-adv-x="471" 
d="M339 551h-245c-4 14 -8 39 -8 53c0 54 11 66 45 66h245c4 -13 8 -39 8 -53c0 -53 -11 -66 -45 -66zM443 293c0 -47 -6 -71 -6 -71h-255c0 -76 31 -112 101 -112c71 0 113 16 113 16c10 -16 18 -42 18 -73c0 -37 -42 -65 -151 -65c-158 0 -237 94 -237 259
c0 168 85 262 216 262c134 0 201 -74 201 -216zM183 298h115c0 64 -20 87 -55 87c-38 0 -58 -31 -60 -87z" />
    <glyph glyph-name="eogonek" unicode="&#x119;" horiz-adv-x="471" 
d="M443 293c0 -47 -6 -71 -6 -71h-255c0 -76 31 -112 101 -112c71 0 113 16 113 16c10 -16 18 -42 18 -73c0 -36 -40 -63 -143 -65c-10 -19 -17 -36 -17 -52s9 -29 41 -29c23 0 37 5 53 11c7 -5 16 -21 16 -38c0 -33 -27 -42 -90 -42c-76 0 -109 37 -109 86c0 30 9 55 24 72
c-109 26 -163 114 -163 251c0 168 85 262 216 262c134 0 201 -74 201 -216zM183 298h115c0 64 -20 87 -55 87c-38 0 -58 -31 -60 -87z" />
    <glyph glyph-name="f" unicode="f" horiz-adv-x="358" 
d="M86 569c0 92 40 147 156 147c22 0 101 -4 107 -4c5 -12 9 -39 9 -54c0 -46 -6 -65 -43 -65c-18 0 -32 2 -46 2c-19 0 -27 -8 -27 -24v-71h89c4 -13 7 -37 7 -52c0 -51 -11 -63 -41 -63h-55v-357c0 -16 -10 -28 -79 -28c-68 0 -77 12 -77 28v357h-70c-4 13 -7 37 -7 52
c0 51 11 63 41 63h36v69z" />
    <glyph glyph-name="g" unicode="g" horiz-adv-x="513" 
d="M433 500h63s8 -28 8 -56c0 -37 -10 -59 -41 -59h-13c3 -15 5 -31 5 -47c0 -90 -48 -166 -208 -166c-20 0 -39 1 -55 3c-7 -11 -10 -19 -10 -30c0 -13 4 -25 26 -25h140c80 0 137 -49 137 -143c0 -101 -61 -170 -246 -170c-156 0 -209 58 -209 128c0 35 15 64 51 92
c-20 20 -30 47 -30 74c0 38 20 81 44 111c-40 31 -54 76 -54 126c0 91 48 169 206 169c44 0 80 -7 109 -17c21 6 46 10 77 10zM300 0h-122c-9 -15 -11 -28 -11 -44c0 -34 21 -52 86 -52c69 0 88 18 88 52c0 29 -17 44 -41 44zM306 332c0 45 -22 70 -59 70
c-38 0 -60 -25 -60 -70c0 -44 22 -67 60 -67c37 0 59 23 59 67z" />
    <glyph glyph-name="gbreve" unicode="&#x11f;" horiz-adv-x="513" 
d="M433 500h63s8 -28 8 -56c0 -37 -10 -59 -41 -59h-13c3 -15 5 -31 5 -47c0 -90 -48 -166 -208 -166c-20 0 -39 1 -55 3c-7 -11 -10 -19 -10 -30c0 -13 4 -25 26 -25h140c80 0 137 -49 137 -143c0 -101 -61 -170 -246 -170c-156 0 -209 58 -209 128c0 35 15 64 51 92
c-20 20 -30 47 -30 74c0 38 20 81 44 111c-40 31 -54 76 -54 126c0 91 48 169 206 169c44 0 80 -7 109 -17c21 6 46 10 77 10zM306 719c10 3 23 5 49 5c45 0 58 -8 58 -20v-16c0 -84 -53 -148 -166 -148c-112 0 -166 64 -166 148v16c0 12 13 20 58 20c26 0 39 -2 49 -5v-33
c0 -29 19 -50 59 -50s59 21 59 50v33zM300 0h-122c-9 -15 -11 -28 -11 -44c0 -34 21 -52 86 -52c69 0 88 18 88 52c0 29 -17 44 -41 44zM306 332c0 45 -22 70 -59 70c-38 0 -60 -25 -60 -70c0 -44 22 -67 60 -67c37 0 59 23 59 67z" />
    <glyph glyph-name="gcircumflex" unicode="&#x11d;" horiz-adv-x="513" 
d="M433 500h63s8 -28 8 -56c0 -37 -10 -59 -41 -59h-13c3 -15 5 -31 5 -47c0 -90 -48 -166 -208 -166c-20 0 -39 1 -55 3c-7 -11 -10 -19 -10 -30c0 -13 4 -25 26 -25h140c80 0 137 -49 137 -143c0 -101 -61 -170 -246 -170c-156 0 -209 58 -209 128c0 35 15 64 51 92
c-20 20 -30 47 -30 74c0 38 20 81 44 111c-40 31 -54 76 -54 126c0 91 48 169 206 169c44 0 80 -7 109 -17c21 6 46 10 77 10zM189 695c0 0 32 6 65 6c39 0 58 -6 71 -24l59 -79c7 -9 10 -17 10 -24c0 -13 -8 -24 -53 -24h-58l-34 83l-28 -65c-6 -14 -19 -21 -55 -21
c-32 0 -54 9 -66 21zM300 0h-122c-9 -15 -11 -28 -11 -44c0 -34 21 -52 86 -52c69 0 88 18 88 52c0 29 -17 44 -41 44zM306 332c0 45 -22 70 -59 70c-38 0 -60 -25 -60 -70c0 -44 22 -67 60 -67c37 0 59 23 59 67z" />
    <glyph glyph-name="gcommaaccent" unicode="&#x123;" horiz-adv-x="513" 
d="M433 500h63s8 -28 8 -56c0 -37 -10 -59 -41 -59h-13c3 -15 5 -31 5 -47c0 -90 -48 -166 -208 -166c-20 0 -39 1 -55 3c-7 -11 -10 -19 -10 -30c0 -13 4 -25 26 -25h140c80 0 137 -49 137 -143c0 -101 -61 -170 -246 -170c-156 0 -209 58 -209 128c0 35 15 64 51 92
c-20 20 -30 47 -30 74c0 38 20 81 44 111c-40 31 -54 76 -54 126c0 91 48 169 206 169c44 0 80 -7 109 -17c21 6 46 10 77 10zM217 702c8 13 17 20 31 20c17 0 34 -6 46 -17l-18 -46c22 -7 36 -24 36 -49c0 -39 -25 -66 -65 -66s-66 27 -66 66c0 25 16 61 36 92zM300 0h-122
c-9 -15 -11 -28 -11 -44c0 -34 21 -52 86 -52c69 0 88 18 88 52c0 29 -17 44 -41 44zM306 332c0 45 -22 70 -59 70c-38 0 -60 -25 -60 -70c0 -44 22 -67 60 -67c37 0 59 23 59 67z" />
    <glyph glyph-name="gdotaccent" unicode="&#x121;" horiz-adv-x="513" 
d="M433 500h63s8 -28 8 -56c0 -37 -10 -59 -41 -59h-13c3 -15 5 -31 5 -47c0 -90 -48 -166 -208 -166c-20 0 -39 1 -55 3c-7 -11 -10 -19 -10 -30c0 -13 4 -25 26 -25h140c80 0 137 -49 137 -143c0 -101 -61 -170 -246 -170c-156 0 -209 58 -209 128c0 35 15 64 51 92
c-20 20 -30 47 -30 74c0 38 20 81 44 111c-40 31 -54 76 -54 126c0 91 48 169 206 169c44 0 80 -7 109 -17c21 6 46 10 77 10zM247 722c48 0 86 -38 86 -86c0 -47 -38 -85 -86 -85c-47 0 -85 38 -85 85c0 48 38 86 85 86zM300 0h-122c-9 -15 -11 -28 -11 -44
c0 -34 21 -52 86 -52c69 0 88 18 88 52c0 29 -17 44 -41 44zM306 332c0 45 -22 70 -59 70c-38 0 -60 -25 -60 -70c0 -44 22 -67 60 -67c37 0 59 23 59 67z" />
    <glyph glyph-name="h" unicode="h" horiz-adv-x="529" 
d="M275 385c-27 0 -50 -11 -72 -30v-327c0 -16 -10 -28 -79 -28c-68 0 -77 12 -77 28v662c0 16 9 28 77 28c69 0 79 -12 79 -28v-237c44 40 91 56 131 56c96 0 151 -41 151 -161v-320c0 -16 -10 -28 -79 -28c-68 0 -77 12 -77 28v297c0 40 -16 60 -54 60z" />
    <glyph glyph-name="hbar" unicode="&#x127;" horiz-adv-x="529" 
d="M356 641c3 -9 5 -26 5 -36c0 -34 -7 -42 -28 -42h-130v-110c44 40 91 56 131 56c96 0 151 -41 151 -161v-320c0 -16 -10 -28 -79 -28c-68 0 -77 12 -77 28v297c0 40 -16 60 -54 60c-27 0 -50 -11 -72 -30v-327c0 -16 -10 -28 -79 -28c-68 0 -77 12 -77 28v535h-51
c-3 9 -5 25 -5 36c0 33 7 42 28 42h28v49c0 16 9 28 77 28c69 0 79 -12 79 -28v-49h153z" />
    <glyph glyph-name="hcircumflex" unicode="&#x125;" horiz-adv-x="529" 
d="M297 831c0 0 32 6 65 6c39 0 58 -6 71 -24l59 -79c7 -9 10 -17 10 -24c0 -13 -8 -24 -53 -24h-58l-34 83l-28 -65c-6 -14 -19 -21 -55 -21c-32 0 -54 9 -66 21zM275 385c38 0 54 -20 54 -60v-297c0 -16 9 -28 77 -28c69 0 79 12 79 28v320c0 120 -55 161 -151 161
c-40 0 -87 -16 -131 -56v237c0 16 -10 28 -79 28c-68 0 -77 -12 -77 -28v-662c0 -16 9 -28 77 -28c69 0 79 12 79 28v327c22 19 45 30 72 30z" />
    <glyph glyph-name="i" unicode="i" horiz-adv-x="248" 
d="M202 28v444c0 16 -10 28 -79 28c-68 0 -77 -12 -77 -28v-444c0 -16 9 -28 77 -28c69 0 79 12 79 28zM38 652c0 48 38 86 85 86c48 0 86 -38 86 -86c0 -47 -38 -85 -86 -85c-47 0 -85 38 -85 85z" />
    <glyph glyph-name="dotlessi" unicode="&#x131;" horiz-adv-x="248" 
d="M46 472c0 16 9 28 77 28c69 0 79 -12 79 -28v-444c0 -16 -10 -28 -79 -28c-68 0 -77 12 -77 28v444z" />
    <glyph glyph-name="iacute" unicode="&#xed;" horiz-adv-x="248" 
d="M105 667c8 19 26 34 63 34c70 0 83 -13 83 -13l-55 -110c-11 -20 -26 -28 -57 -28c-40 0 -61 5 -78 15zM46 472c0 16 9 28 77 28c69 0 79 -12 79 -28v-444c0 -16 -10 -28 -79 -28c-68 0 -77 12 -77 28v444z" />
    <glyph glyph-name="icircumflex" unicode="&#xee;" horiz-adv-x="248" 
d="M65 695c0 0 32 6 65 6c39 0 58 -6 71 -24l59 -79c7 -9 10 -17 10 -24c0 -13 -8 -24 -53 -24h-58l-34 83l-28 -65c-6 -14 -19 -21 -55 -21c-32 0 -54 9 -66 21zM46 472c0 16 9 28 77 28c69 0 79 -12 79 -28v-444c0 -16 -10 -28 -79 -28c-68 0 -77 12 -77 28v444z" />
    <glyph glyph-name="idieresis" unicode="&#xef;" horiz-adv-x="248" 
d="M20 702c42 0 76 -34 76 -76c0 -41 -34 -75 -76 -75c-41 0 -75 34 -75 75c0 42 34 76 75 76zM229 702c42 0 76 -34 76 -76c0 -41 -34 -75 -76 -75c-41 0 -75 34 -75 75c0 42 34 76 75 76zM46 472c0 16 9 28 77 28c69 0 79 -12 79 -28v-444c0 -16 -10 -28 -79 -28
c-68 0 -77 12 -77 28v444z" />
    <glyph glyph-name="igrave" unicode="&#xec;" horiz-adv-x="248" 
d="M46 472c0 16 9 28 77 28c69 0 79 -12 79 -28v-444c0 -16 -10 -28 -79 -28c-68 0 -77 12 -77 28v444zM0 688c0 0 13 13 83 13c37 0 55 -15 63 -34l44 -102c-17 -10 -38 -15 -78 -15c-31 0 -46 8 -57 28z" />
    <glyph glyph-name="ij" unicode="&#x133;" horiz-adv-x="498" 
d="M202 28v444c0 16 -10 28 -79 28c-68 0 -77 -12 -77 -28v-444c0 -16 9 -28 77 -28c69 0 79 12 79 28zM38 652c0 48 38 86 85 86c48 0 86 -38 86 -86c0 -47 -38 -85 -86 -85c-47 0 -85 38 -85 85zM295 -6c0 -58 -15 -92 -43 -139c19 -22 58 -48 102 -48c46 0 97 59 97 216
v449c0 16 -10 28 -79 28c-68 0 -77 -12 -77 -28v-478zM288 652c0 48 38 86 85 86c48 0 86 -38 86 -86c0 -47 -38 -85 -86 -85c-47 0 -85 38 -85 85z" />
    <glyph glyph-name="imacron" unicode="&#x12b;" horiz-adv-x="248" 
d="M46 472c0 16 9 28 77 28c69 0 79 -12 79 -28v-444c0 -16 -10 -28 -79 -28c-68 0 -77 12 -77 28v444zM229 551h-245c-4 14 -8 39 -8 53c0 54 11 66 45 66h245c4 -13 8 -39 8 -53c0 -53 -11 -66 -45 -66z" />
    <glyph glyph-name="iogonek" unicode="&#x12f;" horiz-adv-x="248" 
d="M202 28v444c0 16 -10 28 -79 28c-68 0 -77 -12 -77 -28v-444c0 -11 4 -21 30 -25c-19 -17 -30 -45 -30 -79c0 -49 33 -86 109 -86c63 0 90 9 90 42c0 17 -9 33 -16 38c-16 -6 -30 -11 -53 -11c-32 0 -41 13 -41 29c0 20 10 42 24 65c36 4 43 14 43 27zM38 652
c0 48 38 86 85 86c48 0 86 -38 86 -86c0 -47 -38 -85 -86 -85c-47 0 -85 38 -85 85z" />
    <glyph glyph-name="itilde" unicode="&#x129;" horiz-adv-x="248" 
d="M46 472c0 16 9 28 77 28c69 0 79 -12 79 -28v-444c0 -16 -10 -28 -79 -28c-68 0 -77 12 -77 28v444zM-39 583c0 94 47 126 103 126c62 0 92 -52 124 -52c21 0 28 13 32 45h40c18 0 29 -11 29 -32c0 -94 -47 -126 -103 -126c-62 0 -92 52 -124 52c-22 0 -28 -13 -32 -45
h-40c-18 0 -29 11 -29 32z" />
    <glyph glyph-name="j" unicode="j" horiz-adv-x="250" 
d="M47 -6c0 -58 -15 -92 -43 -139c19 -22 58 -48 102 -48c46 0 97 59 97 216v449c0 16 -10 28 -79 28c-68 0 -77 -12 -77 -28v-478zM40 652c0 48 38 86 85 86c48 0 86 -38 86 -86c0 -47 -38 -85 -86 -85c-47 0 -85 38 -85 85z" />
    <glyph glyph-name="dotlessj" unicode="&#x237;" horiz-adv-x="250" 
d="M47 472c0 16 9 28 77 28c69 0 79 -12 79 -28v-449c0 -157 -51 -216 -97 -216c-44 0 -83 26 -102 48c28 47 43 81 43 139v478z" />
    <glyph glyph-name="jcircumflex" unicode="&#x135;" horiz-adv-x="250" 
d="M63 695c0 0 32 6 65 6c39 0 58 -6 71 -24l59 -79c7 -9 10 -17 10 -24c0 -13 -8 -24 -53 -24h-58l-34 83l-28 -65c-6 -14 -19 -21 -55 -21c-32 0 -54 9 -66 21zM47 472c0 16 9 28 77 28c69 0 79 -12 79 -28v-449c0 -157 -51 -216 -97 -216c-44 0 -83 26 -102 48
c28 47 43 81 43 139v478z" />
    <glyph glyph-name="k" unicode="k" horiz-adv-x="494" 
d="M330 500h106c23 0 32 -10 32 -25c0 -12 -6 -27 -20 -52l-85 -150l120 -242c-19 -20 -69 -37 -107 -37c-30 0 -45 9 -61 44l-107 233zM47 690c0 16 9 28 77 28c69 0 79 -12 79 -28v-662c0 -16 -10 -28 -79 -28c-68 0 -77 12 -77 28v662z" />
    <glyph glyph-name="kcommaaccent" unicode="&#x137;" horiz-adv-x="494" 
d="M330 500h106c23 0 32 -10 32 -25c0 -12 -6 -27 -20 -52l-85 -150l120 -242c-19 -20 -69 -37 -107 -37c-30 0 -45 9 -61 44l-107 233zM47 690c0 16 9 28 77 28c69 0 79 -12 79 -28v-662c0 -16 -10 -28 -79 -28c-68 0 -77 12 -77 28v662zM199 -183c12 -11 29 -17 46 -17
c14 0 23 7 31 20c20 31 36 67 36 92c0 39 -26 66 -66 66s-65 -27 -65 -66c0 -25 14 -42 36 -49z" />
    <glyph glyph-name="kgreenlandic" unicode="&#x138;" horiz-adv-x="512" 
d="M281 410c24 45 60 93 139 93c56 0 75 -18 75 -66c0 -38 -13 -58 -13 -58h-16c-30 0 -50 -9 -65 -36l-39 -70l121 -242c-19 -20 -69 -37 -107 -37c-30 0 -45 9 -61 44l-107 233zM46 472c0 16 9 28 77 28c69 0 79 -12 79 -28v-444c0 -16 -10 -28 -79 -28
c-68 0 -77 12 -77 28v444z" />
    <glyph glyph-name="l" unicode="l" horiz-adv-x="270" 
d="M45 690c0 16 9 28 77 28c69 0 79 -12 79 -28v-546c0 -24 6 -33 23 -33c9 0 20 1 20 1s7 -21 7 -65c0 -34 -28 -53 -84 -53c-100 0 -122 43 -122 132v564z" />
    <glyph glyph-name="lacute" unicode="&#x13a;" horiz-adv-x="270" 
d="M100 849c8 19 26 34 63 34c70 0 83 -13 83 -13l-55 -110c-11 -20 -26 -28 -57 -28c-40 0 -61 5 -78 15zM45 690c0 16 9 28 77 28c69 0 79 -12 79 -28v-546c0 -24 6 -33 23 -33c9 0 20 1 20 1s7 -21 7 -65c0 -34 -28 -53 -84 -53c-100 0 -122 43 -122 132v564z" />
    <glyph glyph-name="lcaron" unicode="&#x13e;" horiz-adv-x="270" 
d="M228 620c0 39 25 66 65 66s66 -27 66 -66c0 -25 -16 -61 -36 -92c-8 -13 -17 -20 -31 -20c-17 0 -34 6 -46 17l18 46c-22 7 -36 24 -36 49zM45 690c0 16 9 28 77 28c69 0 79 -12 79 -28v-546c0 -24 6 -33 23 -33c9 0 20 1 20 1s7 -21 7 -65c0 -34 -28 -53 -84 -53
c-100 0 -122 43 -122 132v564z" />
    <glyph glyph-name="lcommaaccent" unicode="&#x13c;" horiz-adv-x="270" 
d="M45 690c0 16 9 28 77 28c69 0 79 -12 79 -28v-546c0 -24 6 -33 23 -33c9 0 20 1 20 1s7 -21 7 -65c0 -34 -28 -53 -84 -53c-100 0 -122 43 -122 132v564zM93 -185c12 -11 29 -17 46 -17c14 0 23 7 31 20c20 31 36 67 36 92c0 39 -26 66 -66 66s-65 -27 -65 -66
c0 -25 14 -42 36 -49z" />
    <glyph glyph-name="ldot" unicode="&#x140;" horiz-adv-x="422" 
d="M325 467c48 0 87 -38 87 -86c0 -47 -39 -85 -87 -85c-47 0 -85 38 -85 85c0 48 38 86 85 86zM45 690c0 16 9 28 77 28c69 0 79 -12 79 -28v-546c0 -24 6 -33 23 -33c9 0 20 1 20 1s7 -21 7 -65c0 -34 -28 -53 -84 -53c-100 0 -122 43 -122 132v564z" />
    <glyph glyph-name="lslash" unicode="&#x142;" horiz-adv-x="284" 
d="M272 49c0 -34 -21 -55 -90 -55c-82 0 -128 30 -128 152v66l-35 -15s-16 15 -16 68c0 38 15 65 44 77l7 3v345c0 16 9 28 77 28c69 0 79 -12 79 -28v-280l53 22s16 -15 16 -68c0 -38 -15 -65 -44 -77l-25 -10v-108c0 -50 6 -59 29 -59c5 0 15 1 21 3c0 0 12 -20 12 -64z
" />
    <glyph glyph-name="m" unicode="m" horiz-adv-x="796" 
d="M456 450c42 41 80 59 145 59c96 0 151 -41 151 -161v-320c0 -16 -10 -28 -79 -28c-68 0 -77 12 -77 28v297c0 40 -16 60 -54 60c-31 0 -50 -14 -66 -31c0 0 1 -11 1 -40v-286c0 -16 -10 -28 -79 -28c-68 0 -77 12 -77 28v297c0 40 -16 60 -54 60c-31 0 -49 -13 -65 -30
v-327c0 -16 -10 -28 -79 -28c-68 0 -77 12 -77 28v444c0 16 9 28 71 28c61 0 69 -12 69 -28v-34c40 49 86 71 140 71c64 0 105 -18 130 -59z" />
    <glyph glyph-name="n" unicode="n" horiz-adv-x="528" 
d="M484 348v-320c0 -16 -10 -28 -79 -28c-68 0 -77 12 -77 28v297c0 40 -16 60 -54 60c-25 0 -47 -11 -72 -37v-320c0 -16 -10 -28 -79 -28c-68 0 -77 12 -77 28v444c0 16 9 28 71 28c61 0 69 -12 69 -28v-34c48 53 98 71 147 71c96 0 151 -41 151 -161z" />
    <glyph glyph-name="nacute" unicode="&#x144;" horiz-adv-x="528" 
d="M243 667c8 19 26 34 63 34c70 0 83 -13 83 -13l-55 -110c-11 -20 -26 -28 -57 -28c-40 0 -61 5 -78 15zM484 28v320c0 120 -55 161 -151 161c-49 0 -99 -18 -147 -71v34c0 16 -8 28 -69 28c-62 0 -71 -12 -71 -28v-444c0 -16 9 -28 77 -28c69 0 79 12 79 28v320
c25 26 47 37 72 37c38 0 54 -20 54 -60v-297c0 -16 9 -28 77 -28c69 0 79 12 79 28z" />
    <glyph glyph-name="napostrophe" unicode="&#x149;" horiz-adv-x="528" 
d="M38 650c0 39 25 66 65 66s66 -27 66 -66c0 -25 -16 -61 -36 -92c-8 -13 -17 -20 -31 -20c-17 0 -34 6 -46 17l18 46c-22 7 -36 24 -36 49zM484 28v320c0 120 -55 161 -151 161c-49 0 -99 -18 -147 -71v34c0 16 -8 28 -69 28c-62 0 -71 -12 -71 -28v-444
c0 -16 9 -28 77 -28c69 0 79 12 79 28v320c25 26 47 37 72 37c38 0 54 -20 54 -60v-297c0 -16 9 -28 77 -28c69 0 79 12 79 28z" />
    <glyph glyph-name="ncaron" unicode="&#x148;" horiz-adv-x="528" 
d="M113 683c12 12 34 21 66 21c36 0 49 -7 55 -21l28 -65l34 83h58c45 0 53 -11 53 -24c0 -7 -3 -15 -10 -24l-59 -79c-13 -18 -32 -24 -71 -24c-33 0 -65 6 -65 6zM484 28v320c0 120 -55 161 -151 161c-49 0 -99 -18 -147 -71v34c0 16 -8 28 -69 28c-62 0 -71 -12 -71 -28
v-444c0 -16 9 -28 77 -28c69 0 79 12 79 28v320c25 26 47 37 72 37c38 0 54 -20 54 -60v-297c0 -16 9 -28 77 -28c69 0 79 12 79 28z" />
    <glyph glyph-name="ncommaaccent" unicode="&#x146;" horiz-adv-x="528" 
d="M484 348v-320c0 -16 -10 -28 -79 -28c-68 0 -77 12 -77 28v297c0 40 -16 60 -54 60c-25 0 -47 -11 -72 -37v-320c0 -16 -10 -28 -79 -28c-68 0 -77 12 -77 28v444c0 16 9 28 71 28c61 0 69 -12 69 -28v-34c48 53 98 71 147 71c96 0 151 -41 151 -161zM216 -183l18 46
c-22 7 -36 24 -36 49c0 39 25 66 65 66s66 -27 66 -66c0 -25 -16 -61 -36 -92c-8 -13 -17 -20 -31 -20c-17 0 -34 6 -46 17z" />
    <glyph glyph-name="eng" unicode="&#x14b;" horiz-adv-x="529" 
d="M186 438c48 53 98 71 147 71c96 0 151 -41 151 -161v-325c0 -157 -51 -216 -97 -216c-44 0 -83 26 -102 48c28 47 43 81 43 139v331c0 40 -16 60 -54 60c-25 0 -47 -11 -72 -37v-320c0 -16 -10 -28 -79 -28c-68 0 -77 12 -77 28v444c0 16 9 28 71 28c61 0 69 -12 69 -28
v-34z" />
    <glyph glyph-name="ntilde" unicode="&#xf1;" horiz-adv-x="528" 
d="M100 595c0 94 47 126 103 126c62 0 92 -52 124 -52c21 0 28 13 32 45h40c18 0 29 -11 29 -32c0 -94 -47 -126 -103 -126c-62 0 -92 52 -124 52c-22 0 -28 -13 -32 -45h-40c-18 0 -29 11 -29 32zM484 28v320c0 120 -55 161 -151 161c-49 0 -99 -18 -147 -71v34
c0 16 -8 28 -69 28c-62 0 -71 -12 -71 -28v-444c0 -16 9 -28 77 -28c69 0 79 12 79 28v320c25 26 47 37 72 37c38 0 54 -20 54 -60v-297c0 -16 9 -28 77 -28c69 0 79 12 79 28z" />
    <glyph glyph-name="o" unicode="o" horiz-adv-x="516" 
d="M258 110c47 0 77 30 77 135c0 108 -30 141 -77 141c-46 0 -77 -33 -77 -141c0 -105 31 -135 77 -135zM491 247c0 -161 -89 -261 -233 -261c-140 0 -233 100 -233 262s93 261 233 261c144 0 233 -99 233 -262z" />
    <glyph glyph-name="oacute" unicode="&#xf3;" horiz-adv-x="516" 
d="M237 667c8 19 26 34 63 34c70 0 83 -13 83 -13l-55 -110c-11 -20 -26 -28 -57 -28c-40 0 -61 5 -78 15zM258 110c47 0 77 30 77 135c0 108 -30 141 -77 141c-46 0 -77 -33 -77 -141c0 -105 31 -135 77 -135zM491 247c0 -161 -89 -261 -233 -261c-140 0 -233 100 -233 262
s93 261 233 261c144 0 233 -99 233 -262z" />
    <glyph glyph-name="obreve" unicode="&#x14f;" horiz-adv-x="516" 
d="M258 110c47 0 77 30 77 135c0 108 -30 141 -77 141c-46 0 -77 -33 -77 -141c0 -105 31 -135 77 -135zM491 247c0 -161 -89 -261 -233 -261c-140 0 -233 100 -233 262s93 261 233 261c144 0 233 -99 233 -262zM318 729c10 3 23 5 49 5c45 0 58 -8 58 -20v-16
c0 -84 -53 -148 -166 -148c-112 0 -166 64 -166 148v16c0 12 13 20 58 20c26 0 39 -2 49 -5v-33c0 -29 19 -50 59 -50s59 21 59 50v33z" />
    <glyph glyph-name="ocircumflex" unicode="&#xf4;" horiz-adv-x="516" 
d="M196 695c0 0 32 6 65 6c39 0 58 -6 71 -24l59 -79c7 -9 10 -17 10 -24c0 -13 -8 -24 -53 -24h-58l-34 83l-28 -65c-6 -14 -19 -21 -55 -21c-32 0 -54 9 -66 21zM258 110c47 0 77 30 77 135c0 108 -30 141 -77 141c-46 0 -77 -33 -77 -141c0 -105 31 -135 77 -135z
M491 247c0 -161 -89 -261 -233 -261c-140 0 -233 100 -233 262s93 261 233 261c144 0 233 -99 233 -262z" />
    <glyph glyph-name="odieresis" unicode="&#xf6;" horiz-adv-x="516" 
d="M153 702c42 0 76 -34 76 -76c0 -41 -34 -75 -76 -75c-41 0 -75 34 -75 75c0 42 34 76 75 76zM362 702c42 0 76 -34 76 -76c0 -41 -34 -75 -76 -75c-41 0 -75 34 -75 75c0 42 34 76 75 76zM258 110c47 0 77 30 77 135c0 108 -30 141 -77 141c-46 0 -77 -33 -77 -141
c0 -105 31 -135 77 -135zM491 247c0 -161 -89 -261 -233 -261c-140 0 -233 100 -233 262s93 261 233 261c144 0 233 -99 233 -262z" />
    <glyph glyph-name="ograve" unicode="&#xf2;" horiz-adv-x="516" 
d="M131 688c0 0 13 13 83 13c37 0 55 -15 63 -34l44 -102c-17 -10 -38 -15 -78 -15c-31 0 -46 8 -57 28zM258 110c47 0 77 30 77 135c0 108 -30 141 -77 141c-46 0 -77 -33 -77 -141c0 -105 31 -135 77 -135zM491 247c0 -161 -89 -261 -233 -261c-140 0 -233 100 -233 262
s93 261 233 261c144 0 233 -99 233 -262z" />
    <glyph glyph-name="ohungarumlaut" unicode="&#x151;" horiz-adv-x="516" 
d="M335 667c8 19 26 34 63 34c70 0 83 -13 83 -13l-55 -110c-11 -20 -26 -28 -57 -28c-40 0 -61 5 -78 15zM137 667c8 19 26 34 63 34c61 0 83 -13 83 -13l-55 -110c-11 -20 -26 -28 -57 -28c-40 0 -61 5 -78 15zM258 110c47 0 77 30 77 135c0 108 -30 141 -77 141
c-46 0 -77 -33 -77 -141c0 -105 31 -135 77 -135zM491 247c0 -161 -89 -261 -233 -261c-140 0 -233 100 -233 262s93 261 233 261c144 0 233 -99 233 -262z" />
    <glyph glyph-name="omacron" unicode="&#x14d;" horiz-adv-x="516" 
d="M362 551h-245c-4 14 -8 39 -8 53c0 54 11 66 45 66h245c4 -13 8 -39 8 -53c0 -53 -11 -66 -45 -66zM258 110c47 0 77 30 77 135c0 108 -30 141 -77 141c-46 0 -77 -33 -77 -141c0 -105 31 -135 77 -135zM491 247c0 -161 -89 -261 -233 -261c-140 0 -233 100 -233 262
s93 261 233 261c144 0 233 -99 233 -262z" />
    <glyph glyph-name="oslash" unicode="&#xf8;" horiz-adv-x="516" 
d="M25 248c0 162 93 261 233 261c33 0 63 -5 89 -15l29 50c11 20 24 29 39 29c24 0 41 -14 59 -36l-52 -92c44 -45 69 -113 69 -198c0 -161 -89 -261 -233 -261c-32 0 -61 5 -88 15l-34 -61c-11 -20 -24 -29 -39 -29c-24 0 -41 14 -59 36l57 102c-45 45 -70 113 -70 199z
M181 245c0 -16 0 -29 2 -42l101 178c-8 3 -17 5 -26 5c-46 0 -77 -33 -77 -141zM335 245c0 16 -1 30 -2 43l-99 -175c7 -2 15 -3 24 -3c47 0 77 30 77 135z" />
    <glyph glyph-name="oslashacute" unicode="&#x1ff;" horiz-adv-x="516" 
d="M25 248c0 162 93 261 233 261c33 0 63 -5 89 -15l29 50c11 20 24 29 39 29c24 0 41 -14 59 -36l-52 -92c44 -45 69 -113 69 -198c0 -161 -89 -261 -233 -261c-32 0 -61 5 -88 15l-34 -61c-11 -20 -24 -29 -39 -29c-24 0 -41 14 -59 36l57 102c-45 45 -70 113 -70 199z
M237 667c8 19 26 34 63 34c70 0 83 -13 83 -13l-55 -110c-11 -20 -26 -28 -57 -28c-40 0 -61 5 -78 15zM181 245c0 -16 0 -29 2 -42l101 178c-8 3 -17 5 -26 5c-46 0 -77 -33 -77 -141zM335 245c0 16 -1 30 -2 43l-99 -175c7 -2 15 -3 24 -3c47 0 77 30 77 135z" />
    <glyph glyph-name="otilde" unicode="&#xf5;" horiz-adv-x="516" 
d="M258 110c47 0 77 30 77 135c0 108 -30 141 -77 141c-46 0 -77 -33 -77 -141c0 -105 31 -135 77 -135zM491 247c0 -161 -89 -261 -233 -261c-140 0 -233 100 -233 262s93 261 233 261c144 0 233 -99 233 -262zM94 583c0 94 47 126 103 126c62 0 92 -52 124 -52
c21 0 28 13 32 45h40c18 0 29 -11 29 -32c0 -94 -47 -126 -103 -126c-62 0 -92 52 -124 52c-22 0 -28 -13 -32 -45h-40c-18 0 -29 11 -29 32z" />
    <glyph glyph-name="oe" unicode="&#x153;" horiz-adv-x="781" 
d="M731 73c0 -51 -55 -85 -160 -85c-70 0 -122 18 -160 52c-39 -34 -91 -52 -153 -52c-140 0 -233 98 -233 260s93 261 233 261c62 0 113 -18 152 -52c37 34 88 52 151 52c134 0 197 -89 197 -240v-64h-266c6 -70 35 -95 101 -95c64 0 107 28 107 28c16 -11 31 -33 31 -65z
M258 110c47 0 77 30 77 135c0 108 -30 141 -77 141c-46 0 -77 -33 -77 -141c0 -105 31 -135 77 -135zM561 385c-35 0 -62 -27 -68 -89h128c0 59 -22 89 -60 89z" />
    <glyph glyph-name="p" unicode="p" horiz-adv-x="522" 
d="M187 447c34 44 77 62 127 62c111 0 182 -81 182 -256c0 -162 -76 -265 -234 -265c-23 0 -42 3 -59 9v-162c0 -16 -10 -28 -79 -28c-68 0 -77 12 -77 28v637c0 16 9 28 71 28c61 0 69 -12 69 -28v-25zM335 238c0 116 -29 147 -75 147c-21 0 -43 -12 -57 -27v-245
c14 -10 27 -14 47 -14c47 0 85 26 85 139z" />
    <glyph glyph-name="thorn" unicode="&#xfe;" horiz-adv-x="523" 
d="M125 651c69 0 79 -12 79 -28v-164c28 32 67 50 111 50c111 0 182 -81 182 -256c0 -162 -76 -265 -234 -265c-23 0 -42 3 -59 9v-162c0 -16 -10 -28 -79 -28c-68 0 -77 12 -77 28v788c0 16 9 28 77 28zM204 113c14 -10 27 -14 47 -14c47 0 85 26 85 139
c0 116 -29 147 -75 147c-21 0 -43 -12 -57 -27v-245z" />
    <glyph glyph-name="q" unicode="q" horiz-adv-x="522" 
d="M319 20c-29 -19 -66 -32 -106 -32c-111 0 -187 79 -187 254c0 162 79 267 233 267c42 0 73 -13 91 -31l20 31h28c68 0 77 -12 77 -28v-646c0 -16 -9 -28 -77 -28c-69 0 -79 12 -79 28v185zM319 363c-10 12 -28 22 -55 22c-46 0 -77 -35 -77 -138c0 -114 33 -137 73 -137
c24 0 42 8 59 22v231z" />
    <glyph glyph-name="r" unicode="r" horiz-adv-x="363" 
d="M202 439c23 44 52 64 95 64c18 0 46 -3 50 -3c0 0 6 -24 6 -51c0 -56 -14 -71 -39 -71c-5 0 -12 1 -19 1c-34 0 -67 -10 -93 -41v-310c0 -16 -10 -28 -79 -28c-68 0 -77 12 -77 28v444c0 16 9 28 77 28c69 0 79 -12 79 -28v-33z" />
    <glyph glyph-name="racute" unicode="&#x155;" horiz-adv-x="363" 
d="M141 667c8 19 26 34 63 34c70 0 83 -13 83 -13l-55 -110c-11 -20 -26 -28 -57 -28c-40 0 -61 5 -78 15zM202 439c23 44 52 64 95 64c18 0 46 -3 50 -3c0 0 6 -24 6 -51c0 -56 -14 -71 -39 -71c-5 0 -12 1 -19 1c-34 0 -67 -10 -93 -41v-310c0 -16 -10 -28 -79 -28
c-68 0 -77 12 -77 28v444c0 16 9 28 77 28c69 0 79 -12 79 -28v-33z" />
    <glyph glyph-name="rcaron" unicode="&#x159;" horiz-adv-x="363" 
d="M26 683c12 12 34 21 66 21c36 0 49 -7 55 -21l28 -65l34 83h58c45 0 53 -11 53 -24c0 -7 -3 -15 -10 -24l-59 -79c-13 -18 -32 -24 -71 -24c-33 0 -65 6 -65 6zM202 439c23 44 52 64 95 64c18 0 46 -3 50 -3c0 0 6 -24 6 -51c0 -56 -14 -71 -39 -71c-5 0 -12 1 -19 1
c-34 0 -67 -10 -93 -41v-310c0 -16 -10 -28 -79 -28c-68 0 -77 12 -77 28v444c0 16 9 28 77 28c69 0 79 -12 79 -28v-33z" />
    <glyph glyph-name="rcommaaccent" unicode="&#x157;" horiz-adv-x="363" 
d="M202 439c23 44 52 64 95 64c18 0 46 -3 50 -3c0 0 6 -24 6 -51c0 -56 -14 -71 -39 -71c-5 0 -12 1 -19 1c-34 0 -67 -10 -93 -41v-310c0 -16 -10 -28 -79 -28c-68 0 -77 12 -77 28v444c0 16 9 28 77 28c69 0 79 -12 79 -28v-33zM72 -183c12 -11 29 -17 46 -17
c14 0 23 7 31 20c20 31 36 67 36 92c0 39 -26 66 -66 66s-65 -27 -65 -66c0 -25 14 -42 36 -49z" />
    <glyph glyph-name="s" unicode="s" horiz-adv-x="422" 
d="M171 101c36 0 51 12 51 38c0 77 -191 44 -191 207c0 97 56 163 201 163c54 0 125 -6 147 -6c5 -13 8 -38 8 -53c0 -48 -14 -67 -50 -67c-19 0 -71 2 -87 2c-37 0 -49 -13 -49 -36c0 -67 190 -22 190 -203c0 -98 -67 -160 -214 -160c-117 0 -144 24 -144 61
c0 28 9 58 17 67c0 0 62 -13 121 -13z" />
    <glyph glyph-name="sacute" unicode="&#x15b;" horiz-adv-x="422" 
d="M181 667c8 19 26 34 63 34c70 0 83 -13 83 -13l-55 -110c-11 -20 -26 -28 -57 -28c-40 0 -61 5 -78 15zM171 101c36 0 51 12 51 38c0 77 -191 44 -191 207c0 97 56 163 201 163c54 0 125 -6 147 -6c5 -13 8 -38 8 -53c0 -48 -14 -67 -50 -67c-19 0 -71 2 -87 2
c-37 0 -49 -13 -49 -36c0 -67 190 -22 190 -203c0 -98 -67 -160 -214 -160c-117 0 -144 24 -144 61c0 28 9 58 17 67c0 0 62 -13 121 -13z" />
    <glyph glyph-name="scaron" unicode="&#x161;" horiz-adv-x="422" 
d="M55 683c12 12 34 21 66 21c36 0 49 -7 55 -21l28 -65l34 83h58c45 0 53 -11 53 -24c0 -7 -3 -15 -10 -24l-59 -79c-13 -18 -32 -24 -71 -24c-33 0 -65 6 -65 6zM171 101c36 0 51 12 51 38c0 77 -191 44 -191 207c0 97 56 163 201 163c54 0 125 -6 147 -6
c5 -13 8 -38 8 -53c0 -48 -14 -67 -50 -67c-19 0 -71 2 -87 2c-37 0 -49 -13 -49 -36c0 -67 190 -22 190 -203c0 -98 -67 -160 -214 -160c-117 0 -144 24 -144 61c0 28 9 58 17 67c0 0 62 -13 121 -13z" />
    <glyph glyph-name="scedilla" unicode="&#x15f;" horiz-adv-x="422" 
d="M158 -17c0 1 0 2 1 3c-102 3 -126 26 -126 61c0 28 9 58 17 67c0 0 62 -13 121 -13c36 0 51 12 51 38c0 77 -191 44 -191 207c0 97 56 163 201 163c54 0 125 -6 147 -6c5 -13 8 -38 8 -53c0 -48 -14 -67 -50 -67c-19 0 -71 2 -87 2c-37 0 -49 -13 -49 -36
c0 -67 190 -22 190 -203c0 -86 -52 -144 -163 -157l-12 -25c6 1 18 2 28 2c51 0 80 -23 80 -65c0 -44 -29 -78 -108 -78c-76 0 -98 16 -98 44c0 16 10 26 18 30c0 0 25 -12 64 -12s44 8 44 16s-5 16 -37 16h-38c-19 0 -28 14 -28 28z" />
    <glyph glyph-name="scircumflex" unicode="&#x15d;" horiz-adv-x="422" 
d="M144 695c0 0 32 6 65 6c39 0 58 -6 71 -24l59 -79c7 -9 10 -17 10 -24c0 -13 -8 -24 -53 -24h-58l-34 83l-28 -65c-6 -14 -19 -21 -55 -21c-32 0 -54 9 -66 21zM171 101c36 0 51 12 51 38c0 77 -191 44 -191 207c0 97 56 163 201 163c54 0 125 -6 147 -6
c5 -13 8 -38 8 -53c0 -48 -14 -67 -50 -67c-19 0 -71 2 -87 2c-37 0 -49 -13 -49 -36c0 -67 190 -22 190 -203c0 -98 -67 -160 -214 -160c-117 0 -144 24 -144 61c0 28 9 58 17 67c0 0 62 -13 121 -13z" />
    <glyph glyph-name="scommaaccent" unicode="&#x219;" horiz-adv-x="422" 
d="M171 101c36 0 51 12 51 38c0 77 -191 44 -191 207c0 97 56 163 201 163c54 0 125 -6 147 -6c5 -13 8 -38 8 -53c0 -48 -14 -67 -50 -67c-19 0 -71 2 -87 2c-37 0 -49 -13 -49 -36c0 -67 190 -22 190 -203c0 -98 -67 -160 -214 -160c-117 0 -144 24 -144 61
c0 28 9 58 17 67c0 0 62 -13 121 -13zM163 -183c12 -11 29 -17 46 -17c14 0 23 7 31 20c20 31 36 67 36 92c0 39 -26 66 -66 66s-65 -27 -65 -66c0 -25 14 -42 36 -49z" />
    <glyph glyph-name="germandbls" unicode="&#xdf;" horiz-adv-x="577" 
d="M352 101c40 0 56 14 56 41c0 69 -149 52 -149 191c0 97 89 127 89 191c0 39 -15 68 -68 68c-52 0 -77 -29 -77 -113v-451c0 -16 -10 -28 -79 -28c-68 0 -77 12 -77 28v487c0 129 65 201 237 201c156 0 227 -78 227 -184c0 -110 -93 -127 -93 -189c0 -65 146 -39 146 -197
c0 -98 -58 -158 -194 -158c-91 0 -118 21 -118 59c0 29 14 55 30 68c24 -9 51 -14 70 -14z" />
    <glyph glyph-name="longs" unicode="&#x17f;" horiz-adv-x="309" 
d="M242 28c0 -16 -10 -28 -79 -28c-68 0 -77 12 -77 28v357h-70c-4 13 -7 37 -7 52c0 51 11 63 41 63h36v69c0 92 40 147 156 147c22 0 101 -4 107 -4c5 -12 9 -39 9 -54c0 -46 -6 -65 -43 -65c-18 0 -32 2 -46 2c-19 0 -27 -8 -27 -24v-543z" />
    <glyph glyph-name="t" unicode="t" horiz-adv-x="388" 
d="M250 596v-96h106c4 -13 7 -37 7 -52c0 -51 -11 -63 -41 -63h-72v-238c0 -26 13 -37 49 -37c18 0 41 3 55 5c8 -16 13 -33 13 -61c0 -43 -20 -60 -112 -60c-121 0 -161 57 -161 142v249h-70c-4 13 -7 37 -7 52c0 51 11 63 41 63h36v96c0 16 9 28 77 28c69 0 79 -12 79 -28
z" />
    <glyph glyph-name="tbar" unicode="&#x167;" horiz-adv-x="388" 
d="M94 596c0 16 9 28 77 28c69 0 79 -12 79 -28v-96h96c4 -13 7 -37 7 -52c0 -51 -11 -63 -41 -63h-62v-67h89c3 -9 5 -26 5 -36c0 -33 -7 -42 -28 -42h-66v-93c0 -26 13 -37 49 -37c18 0 41 3 55 5c8 -16 13 -33 13 -61c0 -43 -20 -60 -112 -60c-121 0 -161 57 -161 142
v104h-71c-3 9 -5 25 -5 36c0 33 8 42 29 42h47v67h-70c-4 13 -7 37 -7 52c0 51 11 63 41 63h36v96z" />
    <glyph glyph-name="tcaron" unicode="&#x165;" horiz-adv-x="388" 
d="M290 650c0 39 25 66 65 66s66 -27 66 -66c0 -25 -16 -61 -36 -92c-8 -13 -17 -20 -31 -20c-17 0 -34 6 -46 17l18 46c-22 7 -36 24 -36 49zM250 596c0 16 -10 28 -79 28c-68 0 -77 -12 -77 -28v-96h-36c-30 0 -41 -12 -41 -63c0 -15 3 -39 7 -52h70v-249
c0 -85 40 -142 161 -142c92 0 112 17 112 60c0 28 -5 45 -13 61c-14 -2 -37 -5 -55 -5c-36 0 -49 11 -49 37v238h72c30 0 41 12 41 63c0 15 -3 39 -7 52h-106v96z" />
    <glyph glyph-name="tcedilla" horiz-adv-x="388" 
d="M250 596v-96h106c4 -13 7 -37 7 -52c0 -51 -11 -63 -41 -63h-72v-238c0 -26 13 -37 49 -37c18 0 41 3 55 5c8 -16 13 -33 13 -61c0 -43 -20 -60 -112 -60h-2l-14 -30c6 1 18 2 28 2c51 0 80 -23 80 -65c0 -44 -29 -78 -108 -78c-76 0 -98 16 -98 44c0 16 10 26 18 30
c0 0 25 -12 64 -12s44 8 44 16s-5 16 -37 16h-38c-19 0 -28 14 -28 28l17 38c3 7 7 13 11 17c-72 17 -98 68 -98 136v249h-70c-4 13 -7 37 -7 52c0 51 11 63 41 63h36v96c0 16 9 28 77 28c69 0 79 -12 79 -28z" />
    <glyph glyph-name="tcommaaccent" unicode="&#x163;" horiz-adv-x="388" 
d="M250 596v-96h106c4 -13 7 -37 7 -52c0 -51 -11 -63 -41 -63h-72v-238c0 -26 13 -37 49 -37c18 0 41 3 55 5c8 -16 13 -33 13 -61c0 -43 -20 -60 -112 -60c-121 0 -161 57 -161 142v249h-70c-4 13 -7 37 -7 52c0 51 11 63 41 63h36v96c0 16 9 28 77 28c69 0 79 -12 79 -28
zM146 -183l18 46c-22 7 -36 24 -36 49c0 39 25 66 65 66s66 -27 66 -66c0 -25 -16 -61 -36 -92c-8 -13 -17 -20 -31 -20c-17 0 -34 6 -46 17z" />
    <glyph glyph-name="u" unicode="u" horiz-adv-x="513" 
d="M467 472v-444c0 -16 -9 -28 -71 -28c-61 0 -69 12 -69 28v34c-37 -51 -82 -74 -135 -74c-89 0 -146 41 -146 161v323c0 16 10 28 79 28c68 0 77 -12 77 -28v-300c0 -40 13 -57 43 -57c22 0 44 13 66 41v316c0 16 10 28 79 28c68 0 77 -12 77 -28z" />
    <glyph glyph-name="uacute" unicode="&#xfa;" horiz-adv-x="513" 
d="M230 667c8 19 26 34 63 34c70 0 83 -13 83 -13l-55 -110c-11 -20 -26 -28 -57 -28c-40 0 -61 5 -78 15zM467 472c0 16 -9 28 -77 28c-69 0 -79 -12 -79 -28v-316c-22 -28 -44 -41 -66 -41c-30 0 -43 17 -43 57v300c0 16 -9 28 -77 28c-69 0 -79 -12 -79 -28v-323
c0 -120 57 -161 146 -161c53 0 98 23 135 74v-34c0 -16 8 -28 69 -28c62 0 71 12 71 28v444z" />
    <glyph glyph-name="ubreve" unicode="&#x16d;" horiz-adv-x="513" 
d="M467 472c0 16 -9 28 -77 28c-69 0 -79 -12 -79 -28v-316c-22 -28 -44 -41 -66 -41c-30 0 -43 17 -43 57v300c0 16 -9 28 -77 28c-69 0 -79 -12 -79 -28v-323c0 -120 57 -161 146 -161c53 0 98 23 135 74v-34c0 -16 8 -28 69 -28c62 0 71 12 71 28v444zM317 729
c10 3 23 5 49 5c45 0 58 -8 58 -20v-16c0 -84 -53 -148 -166 -148c-112 0 -166 64 -166 148v16c0 12 13 20 58 20c26 0 39 -2 49 -5v-33c0 -29 19 -50 59 -50s59 21 59 50v33z" />
    <glyph glyph-name="ucircumflex" unicode="&#xfb;" horiz-adv-x="513" 
d="M194 695c0 0 32 6 65 6c39 0 58 -6 71 -24l59 -79c7 -9 10 -17 10 -24c0 -13 -8 -24 -53 -24h-58l-34 83l-28 -65c-6 -14 -19 -21 -55 -21c-32 0 -54 9 -66 21zM467 472c0 16 -9 28 -77 28c-69 0 -79 -12 -79 -28v-316c-22 -28 -44 -41 -66 -41c-30 0 -43 17 -43 57v300
c0 16 -9 28 -77 28c-69 0 -79 -12 -79 -28v-323c0 -120 57 -161 146 -161c53 0 98 23 135 74v-34c0 -16 8 -28 69 -28c62 0 71 12 71 28v444z" />
    <glyph glyph-name="udieresis" unicode="&#xfc;" horiz-adv-x="513" 
d="M152 702c42 0 76 -34 76 -76c0 -41 -34 -75 -76 -75c-41 0 -75 34 -75 75c0 42 34 76 75 76zM361 702c42 0 76 -34 76 -76c0 -41 -34 -75 -76 -75c-41 0 -75 34 -75 75c0 42 34 76 75 76zM467 472c0 16 -9 28 -77 28c-69 0 -79 -12 -79 -28v-316c-22 -28 -44 -41 -66 -41
c-30 0 -43 17 -43 57v300c0 16 -9 28 -77 28c-69 0 -79 -12 -79 -28v-323c0 -120 57 -161 146 -161c53 0 98 23 135 74v-34c0 -16 8 -28 69 -28c62 0 71 12 71 28v444z" />
    <glyph glyph-name="ugrave" unicode="&#xf9;" horiz-adv-x="513" 
d="M467 472c0 16 -9 28 -77 28c-69 0 -79 -12 -79 -28v-316c-22 -28 -44 -41 -66 -41c-30 0 -43 17 -43 57v300c0 16 -9 28 -77 28c-69 0 -79 -12 -79 -28v-323c0 -120 57 -161 146 -161c53 0 98 23 135 74v-34c0 -16 8 -28 69 -28c62 0 71 12 71 28v444zM122 688
c0 0 13 13 83 13c37 0 55 -15 63 -34l44 -102c-17 -10 -38 -15 -78 -15c-31 0 -46 8 -57 28z" />
    <glyph glyph-name="uhungarumlaut" unicode="&#x171;" horiz-adv-x="513" 
d="M467 472c0 16 -9 28 -77 28c-69 0 -79 -12 -79 -28v-316c-22 -28 -44 -41 -66 -41c-30 0 -43 17 -43 57v300c0 16 -9 28 -77 28c-69 0 -79 -12 -79 -28v-323c0 -120 57 -161 146 -161c53 0 98 23 135 74v-34c0 -16 8 -28 69 -28c62 0 71 12 71 28v444zM335 667
c8 19 26 34 63 34c70 0 83 -13 83 -13l-55 -110c-11 -20 -26 -28 -57 -28c-40 0 -61 5 -78 15zM137 667c8 19 26 34 63 34c61 0 83 -13 83 -13l-55 -110c-11 -20 -26 -28 -57 -28c-40 0 -61 5 -78 15z" />
    <glyph glyph-name="umacron" unicode="&#x16b;" horiz-adv-x="513" 
d="M363 551h-245c-4 14 -8 39 -8 53c0 54 11 66 45 66h245c4 -13 8 -39 8 -53c0 -53 -11 -66 -45 -66zM467 472v-444c0 -16 -9 -28 -71 -28c-61 0 -69 12 -69 28v34c-37 -51 -82 -74 -135 -74c-89 0 -146 41 -146 161v323c0 16 10 28 79 28c68 0 77 -12 77 -28v-300
c0 -40 13 -57 43 -57c22 0 44 13 66 41v316c0 16 10 28 79 28c68 0 77 -12 77 -28z" />
    <glyph glyph-name="uni021B" unicode="&#x21b;" horiz-adv-x="388" 
d="M250 596v-96h106c4 -13 7 -37 7 -52c0 -51 -11 -63 -41 -63h-72v-238c0 -26 13 -37 49 -37c18 0 41 3 55 5c8 -16 13 -33 13 -61c0 -43 -20 -60 -112 -60c-121 0 -161 57 -161 142v249h-70c-4 13 -7 37 -7 52c0 51 11 63 41 63h36v96c0 16 9 28 77 28c69 0 79 -12 79 -28
zM146 -183l18 46c-22 7 -36 24 -36 49c0 39 25 66 65 66s66 -27 66 -66c0 -25 -16 -61 -36 -92c-8 -13 -17 -20 -31 -20c-17 0 -34 6 -46 17z" />
    <glyph glyph-name="uogonek" unicode="&#x173;" horiz-adv-x="513" 
d="M467 472v-444c0 -16 -9 -28 -71 -28h-6c-14 -23 -23 -45 -23 -64c0 -16 9 -29 41 -29c23 0 37 5 53 11c7 -5 16 -21 16 -38c0 -33 -27 -42 -90 -42c-76 0 -109 37 -109 86c0 45 21 80 51 92c-2 4 -2 8 -2 12v34c-37 -51 -82 -74 -135 -74c-89 0 -146 41 -146 161v323
c0 16 10 28 79 28c68 0 77 -12 77 -28v-300c0 -40 13 -57 43 -57c22 0 44 13 66 41v316c0 16 10 28 79 28c68 0 77 -12 77 -28z" />
    <glyph glyph-name="uring" unicode="&#x16f;" horiz-adv-x="513" 
d="M364 663c0 -69 -48 -112 -108 -112s-108 43 -108 112c0 72 48 113 108 113s108 -41 108 -113zM229 663c0 -23 10 -36 27 -36s27 13 27 36c0 27 -10 36 -27 36s-27 -9 -27 -36zM467 472v-444c0 -16 -9 -28 -71 -28c-61 0 -69 12 -69 28v34c-37 -51 -82 -74 -135 -74
c-89 0 -146 41 -146 161v323c0 16 10 28 79 28c68 0 77 -12 77 -28v-300c0 -40 13 -57 43 -57c22 0 44 13 66 41v316c0 16 10 28 79 28c68 0 77 -12 77 -28z" />
    <glyph glyph-name="utilde" unicode="&#x169;" horiz-adv-x="513" 
d="M467 472c0 16 -9 28 -77 28c-69 0 -79 -12 -79 -28v-316c-22 -28 -44 -41 -66 -41c-30 0 -43 17 -43 57v300c0 16 -9 28 -77 28c-69 0 -79 -12 -79 -28v-323c0 -120 57 -161 146 -161c53 0 98 23 135 74v-34c0 -16 8 -28 69 -28c62 0 71 12 71 28v444zM93 583
c0 94 47 126 103 126c62 0 92 -52 124 -52c21 0 28 13 32 45h40c18 0 29 -11 29 -32c0 -94 -47 -126 -103 -126c-62 0 -92 52 -124 52c-22 0 -28 -13 -32 -45h-40c-18 0 -29 11 -29 32z" />
    <glyph glyph-name="v" unicode="v" horiz-adv-x="465" 
d="M237 106l70 394h75c47 0 62 -11 62 -41c0 -12 -4 -39 -16 -88l-76 -300c-11 -43 -31 -71 -89 -71h-129l-126 483c27 14 66 19 97 19c34 0 62 -12 67 -47z" />
    <glyph glyph-name="w" unicode="w" horiz-adv-x="730" 
d="M17 486c29 11 60 16 91 16c34 0 59 -12 63 -47l43 -342l66 351c26 8 55 11 91 11c63 0 81 -18 88 -54l56 -308l58 387h72c47 0 64 -10 64 -38c0 -15 -6 -45 -16 -92l-63 -294c-9 -43 -27 -76 -107 -76h-107l-53 315l-44 -245c-9 -49 -28 -70 -101 -70h-107z" />
    <glyph glyph-name="wacute" unicode="&#x1e83;" horiz-adv-x="730" 
d="M336 614c8 19 26 34 63 34c70 0 83 -13 83 -13l-55 -110c-11 -20 -26 -28 -57 -28c-40 0 -61 5 -78 15zM17 486c29 11 60 16 91 16c34 0 59 -12 63 -47l43 -342l66 351c26 8 55 11 91 11c63 0 81 -18 88 -54l56 -308l58 387h72c47 0 64 -10 64 -38c0 -15 -6 -45 -16 -92
l-63 -294c-9 -43 -27 -76 -107 -76h-107l-53 315l-44 -245c-9 -49 -28 -70 -101 -70h-107z" />
    <glyph glyph-name="wcircumflex" unicode="&#x175;" horiz-adv-x="730" 
d="M300 677c0 0 32 6 65 6c39 0 58 -6 71 -24l59 -79c7 -9 10 -17 10 -24c0 -13 -8 -24 -53 -24h-58l-34 83l-28 -65c-6 -14 -19 -21 -55 -21c-32 0 -54 9 -66 21zM17 486c29 11 60 16 91 16c34 0 59 -12 63 -47l43 -342l66 351c26 8 55 11 91 11c63 0 81 -18 88 -54
l56 -308l58 387h72c47 0 64 -10 64 -38c0 -15 -6 -45 -16 -92l-63 -294c-9 -43 -27 -76 -107 -76h-107l-53 315l-44 -245c-9 -49 -28 -70 -101 -70h-107z" />
    <glyph glyph-name="wdieresis" unicode="&#x1e85;" horiz-adv-x="730" 
d="M260 702c42 0 76 -34 76 -76c0 -41 -34 -75 -76 -75c-41 0 -75 34 -75 75c0 42 34 76 75 76zM469 702c42 0 76 -34 76 -76c0 -41 -34 -75 -76 -75c-41 0 -75 34 -75 75c0 42 34 76 75 76zM17 486c29 11 60 16 91 16c34 0 59 -12 63 -47l43 -342l66 351c26 8 55 11 91 11
c63 0 81 -18 88 -54l56 -308l58 387h72c47 0 64 -10 64 -38c0 -15 -6 -45 -16 -92l-63 -294c-9 -43 -27 -76 -107 -76h-107l-53 315l-44 -245c-9 -49 -28 -70 -101 -70h-107z" />
    <glyph glyph-name="wgrave" unicode="&#x1e81;" horiz-adv-x="730" 
d="M230 673c0 0 13 13 83 13c37 0 55 -15 63 -34l44 -102c-17 -10 -38 -15 -78 -15c-31 0 -46 8 -57 28zM17 486c29 11 60 16 91 16c34 0 59 -12 63 -47l43 -342l66 351c26 8 55 11 91 11c63 0 81 -18 88 -54l56 -308l58 387h72c47 0 64 -10 64 -38c0 -15 -6 -45 -16 -92
l-63 -294c-9 -43 -27 -76 -107 -76h-107l-53 315l-44 -245c-9 -49 -28 -70 -101 -70h-107z" />
    <glyph glyph-name="x" unicode="x" horiz-adv-x="454" 
d="M231 304l58 196h108c23 0 32 -10 32 -25c0 -11 -6 -32 -19 -60l-74 -158l89 -184c9 -19 13 -33 13 -44c0 -17 -11 -29 -38 -29h-115l-62 194l-53 -160c-12 -33 -31 -40 -67 -40c-34 0 -65 5 -89 26l107 237l-107 219c22 14 68 27 106 27c41 0 56 -10 66 -43z" />
    <glyph glyph-name="y" unicode="y" horiz-adv-x="466" 
d="M8 483c27 14 65 19 96 19c34 0 63 -12 68 -47l65 -328l69 373h75c47 0 64 -11 64 -41c0 -14 -4 -38 -14 -75l-132 -523c-10 -39 -30 -54 -62 -54c-41 0 -86 14 -112 31l42 150c-23 9 -37 29 -46 61z" />
    <glyph glyph-name="yacute" unicode="&#xfd;" horiz-adv-x="466" 
d="M8 483c27 14 65 19 96 19c34 0 63 -12 68 -47l65 -328l69 373h75c47 0 64 -11 64 -41c0 -14 -4 -38 -14 -75l-132 -523c-10 -39 -30 -54 -62 -54c-41 0 -86 14 -112 31l42 150c-23 9 -37 29 -46 61zM208 667c8 19 26 34 63 34c70 0 83 -13 83 -13l-55 -110
c-11 -20 -26 -28 -57 -28c-40 0 -61 5 -78 15z" />
    <glyph glyph-name="ycircumflex" unicode="&#x177;" horiz-adv-x="466" 
d="M170 695c0 0 32 6 65 6c39 0 58 -6 71 -24l59 -79c7 -9 10 -17 10 -24c0 -13 -8 -24 -53 -24h-58l-34 83l-28 -65c-6 -14 -19 -21 -55 -21c-32 0 -54 9 -66 21zM8 483c27 14 65 19 96 19c34 0 63 -12 68 -47l65 -328l69 373h75c47 0 64 -11 64 -41c0 -14 -4 -38 -14 -75
l-132 -523c-10 -39 -30 -54 -62 -54c-41 0 -86 14 -112 31l42 150c-23 9 -37 29 -46 61z" />
    <glyph glyph-name="ydieresis" unicode="&#xff;" horiz-adv-x="466" 
d="M128 703c42 0 76 -34 76 -76c0 -41 -34 -75 -76 -75c-41 0 -75 34 -75 75c0 42 34 76 75 76zM337 703c42 0 76 -34 76 -76c0 -41 -34 -75 -76 -75c-41 0 -75 34 -75 75c0 42 34 76 75 76zM8 483c27 14 65 19 96 19c34 0 63 -12 68 -47l65 -328l69 373h75
c47 0 64 -11 64 -41c0 -14 -4 -38 -14 -75l-132 -523c-10 -39 -30 -54 -62 -54c-41 0 -86 14 -112 31l42 150c-23 9 -37 29 -46 61z" />
    <glyph glyph-name="ygrave" unicode="&#x1ef3;" horiz-adv-x="466" 
d="M8 483c27 14 65 19 96 19c34 0 63 -12 68 -47l65 -328l69 373h75c47 0 64 -11 64 -41c0 -14 -4 -38 -14 -75l-132 -523c-10 -39 -30 -54 -62 -54c-41 0 -86 14 -112 31l42 150c-23 9 -37 29 -46 61zM104 688c0 0 13 13 83 13c37 0 55 -15 63 -34l44 -102
c-17 -10 -38 -15 -78 -15c-31 0 -46 8 -57 28z" />
    <glyph glyph-name="z" unicode="z" horiz-adv-x="411" 
d="M72 500h293c10 -13 16 -36 16 -55c0 -31 -9 -57 -27 -85l-149 -234c-2 -3 -3 -5 -3 -7s1 -4 4 -4h175c4 -12 7 -37 7 -52c0 -52 -10 -63 -41 -63h-256c-45 0 -68 28 -68 64c0 31 5 50 28 86l124 196c15 23 17 29 17 35c0 3 -1 4 -1 4h-153s-8 20 -8 52c0 51 11 63 42 63z
" />
    <glyph glyph-name="zacute" unicode="&#x17a;" horiz-adv-x="411" 
d="M186 652c8 19 26 34 63 34c70 0 83 -13 83 -13l-55 -110c-11 -20 -26 -28 -57 -28c-40 0 -61 5 -78 15zM72 500h293c10 -13 16 -36 16 -55c0 -31 -9 -57 -27 -85l-149 -234c-2 -3 -3 -5 -3 -7s1 -4 4 -4h175c4 -12 7 -37 7 -52c0 -52 -10 -63 -41 -63h-256
c-45 0 -68 28 -68 64c0 31 5 50 28 86l124 196c15 23 17 29 17 35c0 3 -1 4 -1 4h-153s-8 20 -8 52c0 51 11 63 42 63z" />
    <glyph glyph-name="zcaron" unicode="&#x17e;" horiz-adv-x="411" 
d="M60 683c12 12 34 21 66 21c36 0 49 -7 55 -21l28 -65l34 83h58c45 0 53 -11 53 -24c0 -7 -3 -15 -10 -24l-59 -79c-13 -18 -32 -24 -71 -24c-33 0 -65 6 -65 6zM72 500h293c10 -13 16 -36 16 -55c0 -31 -9 -57 -27 -85l-149 -234c-2 -3 -3 -5 -3 -7s1 -4 4 -4h175
c4 -12 7 -37 7 -52c0 -52 -10 -63 -41 -63h-256c-45 0 -68 28 -68 64c0 31 5 50 28 86l124 196c15 23 17 29 17 35c0 3 -1 4 -1 4h-153s-8 20 -8 52c0 51 11 63 42 63z" />
    <glyph glyph-name="zdotaccent" unicode="&#x17c;" horiz-adv-x="411" 
d="M72 500h293c10 -13 16 -36 16 -55c0 -31 -9 -57 -27 -85l-149 -234c-2 -3 -3 -5 -3 -7s1 -4 4 -4h175c4 -12 7 -37 7 -52c0 -52 -10 -63 -41 -63h-256c-45 0 -68 28 -68 64c0 31 5 50 28 86l124 196c15 23 17 29 17 35c0 3 -1 4 -1 4h-153s-8 20 -8 52c0 51 11 63 42 63z
M206 722c48 0 86 -38 86 -86c0 -47 -38 -85 -86 -85c-47 0 -85 38 -85 85c0 48 38 86 85 86z" />
    <glyph glyph-name="fi" unicode="&#xfb01;" horiz-adv-x="617" 
d="M16 385c-4 13 -7 37 -7 52c0 51 11 63 41 63h36v69c0 92 40 147 156 147c22 0 101 -4 107 -4c5 -12 9 -39 9 -54c0 -46 -6 -65 -43 -65c-18 0 -32 2 -46 2c-19 0 -27 -8 -27 -24v-71h250c69 0 79 -12 79 -28v-444c0 -16 -10 -28 -79 -28c-68 0 -77 12 -77 28v357h-173
v-357c0 -16 -10 -28 -79 -28c-68 0 -77 12 -77 28v357h-70zM407 652c0 48 38 86 85 86c48 0 86 -38 86 -86c0 -47 -38 -85 -86 -85c-47 0 -85 38 -85 85z" />
    <glyph glyph-name="fl" unicode="&#xfb02;" horiz-adv-x="631" 
d="M86 569c0 92 40 147 156 147c22 0 101 -4 107 -4c5 -12 9 -39 9 -54c0 -46 -6 -65 -43 -65c-18 0 -32 2 -46 2c-19 0 -27 -8 -27 -24v-71h89c4 -13 7 -37 7 -52c0 -51 -11 -63 -41 -63h-55v-357c0 -16 -10 -28 -79 -28c-68 0 -77 12 -77 28v357h-70c-4 13 -7 37 -7 52
c0 51 11 63 41 63h36v69zM406 690c0 16 9 28 77 28c69 0 79 -12 79 -28v-546c0 -24 6 -33 23 -33c9 0 20 1 20 1s7 -21 7 -65c0 -34 -28 -53 -84 -53c-100 0 -122 43 -122 132v564z" />
    <glyph glyph-name="A.alt" horiz-adv-x="555" 
d="M503 0h-113l-23 89h-193l-13 -50c-8 -32 -23 -44 -66 -44c-36 0 -79 10 -98 25l188 614c28 11 57 17 92 17c70 0 90 -12 100 -43l164 -524c8 -27 10 -37 10 -48c0 -24 -14 -36 -48 -36zM271 462l-69 -265h137z" />
    <glyph glyph-name="Aacute.alt" horiz-adv-x="555" 
d="M390 0h113c34 0 48 12 48 36c0 11 -2 21 -10 48l-164 524c-10 31 -30 43 -100 43c-35 0 -64 -6 -92 -17l-188 -614c19 -15 62 -25 98 -25c43 0 58 12 66 44l13 50h193zM252 803c8 19 26 34 63 34c70 0 83 -13 83 -13l-55 -110c-11 -20 -26 -28 -57 -28
c-40 0 -61 5 -78 15zM202 197l69 265l68 -265h-137z" />
    <glyph glyph-name="Abreve.alt" horiz-adv-x="555" 
d="M390 0h113c34 0 48 12 48 36c0 11 -2 21 -10 48l-164 524c-10 31 -30 43 -100 43c-35 0 -64 -6 -92 -17l-188 -614c19 -15 62 -25 98 -25c43 0 58 12 66 44l13 50h193zM337 865c10 3 23 5 49 5c45 0 58 -8 58 -20v-16c0 -84 -53 -148 -166 -148c-112 0 -166 64 -166 148
v16c0 12 13 20 58 20c26 0 39 -2 49 -5v-33c0 -29 19 -50 59 -50s59 21 59 50v33zM202 197l69 265l68 -265h-137z" />
    <glyph glyph-name="Acircumflex.alt" horiz-adv-x="555" 
d="M390 0h113c34 0 48 12 48 36c0 11 -2 21 -10 48l-164 524c-10 31 -30 43 -100 43c-35 0 -64 -6 -92 -17l-188 -614c19 -15 62 -25 98 -25c43 0 58 12 66 44l13 50h193zM214 831c0 0 32 6 65 6c39 0 58 -6 71 -24l59 -79c7 -9 10 -17 10 -24c0 -13 -8 -24 -53 -24h-58
l-34 83l-28 -65c-6 -14 -19 -21 -55 -21c-32 0 -54 9 -66 21zM202 197l69 265l68 -265h-137z" />
    <glyph glyph-name="Adieresis.alt" horiz-adv-x="555" 
d="M390 0h113c34 0 48 12 48 36c0 11 -2 21 -10 48l-164 524c-10 31 -30 43 -100 43c-35 0 -64 -6 -92 -17l-188 -614c19 -15 62 -25 98 -25c43 0 58 12 66 44l13 50h193zM202 197l69 265l68 -265h-137zM382 837c42 0 76 -34 76 -76c0 -41 -34 -75 -76 -75
c-41 0 -75 34 -75 75c0 42 34 76 75 76zM173 837c42 0 76 -34 76 -76c0 -41 -34 -75 -76 -75c-41 0 -75 34 -75 75c0 42 34 76 75 76z" />
    <glyph glyph-name="Agrave.alt" horiz-adv-x="555" 
d="M390 0h113c34 0 48 12 48 36c0 11 -2 21 -10 48l-164 524c-10 31 -30 43 -100 43c-35 0 -64 -6 -92 -17l-188 -614c19 -15 62 -25 98 -25c43 0 58 12 66 44l13 50h193zM142 824c0 0 13 13 83 13c37 0 55 -15 63 -34l44 -102c-17 -10 -38 -15 -78 -15c-31 0 -46 8 -57 28z
M202 197l69 265l68 -265h-137z" />
    <glyph glyph-name="Amacron.alt" horiz-adv-x="555" 
d="M503 0h-113l-23 89h-193l-13 -50c-8 -32 -23 -44 -66 -44c-36 0 -79 10 -98 25l188 614c28 11 57 17 92 17c70 0 90 -12 100 -43l164 -524c8 -27 10 -37 10 -48c0 -24 -14 -36 -48 -36zM379 686h-245c-4 14 -8 39 -8 53c0 54 11 66 45 66h245c4 -13 8 -39 8 -53
c0 -53 -11 -66 -45 -66zM271 462l-69 -265h137z" />
    <glyph glyph-name="Aogonek.alt" horiz-adv-x="555" 
d="M95 -5c-36 0 -79 10 -98 25l188 614c28 11 57 17 92 17c70 0 90 -12 100 -43l164 -524c8 -27 10 -37 10 -48c0 -24 -14 -36 -48 -36h-73c-14 -23 -23 -45 -23 -64c0 -16 9 -29 41 -29c23 0 37 5 53 11c7 -5 16 -21 16 -38c0 -33 -27 -42 -90 -42c-76 0 -109 37 -109 86
c0 52 28 91 66 96l-17 69h-193l-13 -50c-8 -32 -23 -44 -66 -44zM271 462l-69 -265h137z" />
    <glyph glyph-name="Aring.alt" horiz-adv-x="555" 
d="M503 0h-113l-23 89h-193l-13 -50c-8 -32 -23 -44 -66 -44c-36 0 -79 10 -98 25l187 610c-9 17 -14 36 -14 59c0 72 48 113 108 113s108 -41 108 -113c0 -25 -7 -46 -17 -64c3 -5 6 -11 8 -17l164 -524c8 -27 10 -37 10 -48c0 -24 -14 -36 -48 -36zM271 462l-69 -265h137z
M251 689c0 -23 10 -36 27 -36s27 13 27 36c0 27 -10 36 -27 36s-27 -9 -27 -36z" />
    <glyph glyph-name="Atilde.alt" horiz-adv-x="555" 
d="M390 0h113c34 0 48 12 48 36c0 11 -2 21 -10 48l-164 524c-10 31 -30 43 -100 43c-35 0 -64 -6 -92 -17l-188 -614c19 -15 62 -25 98 -25c43 0 58 12 66 44l13 50h193zM114 718c0 94 47 126 103 126c62 0 92 -52 124 -52c21 0 28 13 32 45h40c18 0 29 -11 29 -32
c0 -94 -47 -126 -103 -126c-62 0 -92 52 -124 52c-22 0 -28 -13 -32 -45h-40c-18 0 -29 11 -29 32zM202 197l69 265l68 -265h-137z" />
    <glyph glyph-name="B.alt" horiz-adv-x="578" 
d="M548 179c0 -114 -75 -185 -273 -185c-180 0 -223 21 -223 73v526c0 36 8 61 213 61c191 0 269 -78 269 -206c0 -50 -14 -96 -51 -138c45 -28 65 -73 65 -131zM364 430c0 57 -27 93 -88 93c-26 0 -43 -1 -53 -2v-176c13 2 30 4 71 4c16 0 32 -1 47 -2c16 22 23 52 23 83z
M282 237c-26 0 -45 -1 -59 -3v-110c16 -3 33 -4 64 -4c58 0 90 18 90 59c0 42 -31 58 -95 58z" />
    <glyph glyph-name="E.alt" 
d="M413 0h-277c-57 0 -82 14 -82 41v575c0 19 8 35 82 35h315c5 -15 9 -44 9 -61c0 -61 -13 -75 -49 -75h-186v-162h190c4 -13 8 -38 8 -53c0 -53 -12 -65 -43 -65h-155v-104h226c5 -14 9 -42 9 -59c0 -59 -13 -72 -47 -72z" />
    <glyph glyph-name="Eacute.alt" 
d="M224 803c8 19 26 34 63 34c70 0 83 -13 83 -13l-55 -110c-11 -20 -26 -28 -57 -28c-40 0 -61 5 -78 15zM413 0c34 0 47 13 47 72c0 17 -4 45 -9 59h-226v104h155c31 0 43 12 43 65c0 15 -4 40 -8 53h-190v162h186c36 0 49 14 49 75c0 17 -4 46 -9 61h-315
c-74 0 -82 -16 -82 -35v-575c0 -27 25 -41 82 -41h277z" />
    <glyph glyph-name="Ebreve.alt" 
d="M305 865c10 3 23 5 49 5c45 0 58 -8 58 -20v-16c0 -84 -53 -148 -166 -148c-112 0 -166 64 -166 148v16c0 12 13 20 58 20c26 0 39 -2 49 -5v-33c0 -29 19 -50 59 -50s59 21 59 50v33zM413 0c34 0 47 13 47 72c0 17 -4 45 -9 59h-226v104h155c31 0 43 12 43 65
c0 15 -4 40 -8 53h-190v162h186c36 0 49 14 49 75c0 17 -4 46 -9 61h-315c-74 0 -82 -16 -82 -35v-575c0 -27 25 -41 82 -41h277z" />
    <glyph glyph-name="Ecaron.alt" 
d="M98 813c12 12 34 21 66 21c36 0 49 -7 55 -21l28 -65l34 83h58c45 0 53 -11 53 -24c0 -7 -3 -15 -10 -24l-59 -79c-13 -18 -32 -24 -71 -24c-33 0 -65 6 -65 6zM413 0c34 0 47 13 47 72c0 17 -4 45 -9 59h-226v104h155c31 0 43 12 43 65c0 15 -4 40 -8 53h-190v162h186
c36 0 49 14 49 75c0 17 -4 46 -9 61h-315c-74 0 -82 -16 -82 -35v-575c0 -27 25 -41 82 -41h277z" />
    <glyph glyph-name="Ecircumflex.alt" 
d="M187 831c0 0 32 6 65 6c39 0 58 -6 71 -24l59 -79c7 -9 10 -17 10 -24c0 -13 -8 -24 -53 -24h-58l-34 83l-28 -65c-6 -14 -19 -21 -55 -21c-32 0 -54 9 -66 21zM413 0c34 0 47 13 47 72c0 17 -4 45 -9 59h-226v104h155c31 0 43 12 43 65c0 15 -4 40 -8 53h-190v162h186
c36 0 49 14 49 75c0 17 -4 46 -9 61h-315c-74 0 -82 -16 -82 -35v-575c0 -27 25 -41 82 -41h277z" />
    <glyph glyph-name="Edieresis.alt" 
d="M145 837c42 0 76 -34 76 -76c0 -41 -34 -75 -76 -75c-41 0 -75 34 -75 75c0 42 34 76 75 76zM354 837c42 0 76 -34 76 -76c0 -41 -34 -75 -76 -75c-41 0 -75 34 -75 75c0 42 34 76 75 76zM413 0c34 0 47 13 47 72c0 17 -4 45 -9 59h-226v104h155c31 0 43 12 43 65
c0 15 -4 40 -8 53h-190v162h186c36 0 49 14 49 75c0 17 -4 46 -9 61h-315c-74 0 -82 -16 -82 -35v-575c0 -27 25 -41 82 -41h277z" />
    <glyph glyph-name="Edotaccent.alt" 
d="M251 857c48 0 86 -38 86 -86c0 -47 -38 -85 -86 -85c-47 0 -85 38 -85 85c0 48 38 86 85 86zM413 0c34 0 47 13 47 72c0 17 -4 45 -9 59h-226v104h155c31 0 43 12 43 65c0 15 -4 40 -8 53h-190v162h186c36 0 49 14 49 75c0 17 -4 46 -9 61h-315c-74 0 -82 -16 -82 -35
v-575c0 -27 25 -41 82 -41h277z" />
    <glyph glyph-name="Egrave.alt" 
d="M131 824c0 0 13 13 83 13c37 0 55 -15 63 -34l44 -102c-17 -10 -38 -15 -78 -15c-31 0 -46 8 -57 28zM413 0c34 0 47 13 47 72c0 17 -4 45 -9 59h-226v104h155c31 0 43 12 43 65c0 15 -4 40 -8 53h-190v162h186c36 0 49 14 49 75c0 17 -4 46 -9 61h-315
c-74 0 -82 -16 -82 -35v-575c0 -27 25 -41 82 -41h277z" />
    <glyph glyph-name="Emacron.alt" 
d="M359 686h-245c-4 14 -8 39 -8 53c0 54 11 66 45 66h245c4 -13 8 -39 8 -53c0 -53 -11 -66 -45 -66zM413 0h-277c-57 0 -82 14 -82 41v575c0 19 8 35 82 35h315c5 -15 9 -44 9 -61c0 -61 -13 -75 -49 -75h-186v-162h190c4 -13 8 -38 8 -53c0 -53 -12 -65 -43 -65h-155
v-104h226c5 -14 9 -42 9 -59c0 -59 -13 -72 -47 -72z" />
    <glyph glyph-name="Eogonek.alt" 
d="M413 0h-115c-14 -23 -23 -45 -23 -64c0 -16 9 -29 41 -29c23 0 37 5 53 11c7 -5 16 -21 16 -38c0 -33 -27 -42 -90 -42c-76 0 -109 37 -109 86c0 32 10 59 27 76h-77c-57 0 -82 14 -82 41v575c0 19 8 35 82 35h315c5 -15 9 -44 9 -61c0 -61 -13 -75 -49 -75h-186v-162
h190c4 -13 8 -38 8 -53c0 -53 -12 -65 -43 -65h-155v-104h226c5 -14 9 -42 9 -59c0 -59 -13 -72 -47 -72z" />
    <glyph glyph-name="F.alt" horiz-adv-x="477" 
d="M225 515v-197h205c4 -13 8 -38 8 -53c0 -53 -12 -65 -43 -65h-170v-172c0 -16 -10 -28 -86 -28c-75 0 -85 12 -85 28v588c0 19 8 35 82 35h310c5 -15 9 -44 9 -61c0 -61 -13 -75 -49 -75h-181z" />
    <glyph glyph-name="G.alt" horiz-adv-x="554" 
d="M297 200c-4 13 -8 38 -8 53c0 53 12 65 43 65h147c39 0 56 -18 56 -109c0 -126 -85 -215 -238 -215c-172 0 -267 116 -267 333c0 243 122 330 281 330c62 0 141 -6 167 -6c5 -15 9 -44 9 -61c0 -54 -7 -76 -49 -76c-21 0 -93 2 -111 2c-73 0 -117 -35 -117 -193
c0 -143 42 -197 100 -197c52 0 79 33 83 74h-96z" />
    <glyph glyph-name="Gbreve.alt" horiz-adv-x="554" 
d="M297 200c-4 13 -8 38 -8 53c0 53 12 65 43 65h147c39 0 56 -18 56 -109c0 -126 -85 -215 -238 -215c-172 0 -267 116 -267 333c0 243 122 330 281 330c62 0 141 -6 167 -6c5 -15 9 -44 9 -61c0 -54 -7 -76 -49 -76c-21 0 -93 2 -111 2c-73 0 -117 -35 -117 -193
c0 -143 42 -197 100 -197c52 0 79 33 83 74h-96zM336 865c10 3 23 5 49 5c45 0 58 -8 58 -20v-16c0 -84 -53 -148 -166 -148c-112 0 -166 64 -166 148v16c0 12 13 20 58 20c26 0 39 -2 49 -5v-33c0 -29 19 -50 59 -50s59 21 59 50v33z" />
    <glyph glyph-name="Gcircumflex.alt" horiz-adv-x="554" 
d="M219 831c0 0 32 6 65 6c39 0 58 -6 71 -24l59 -79c7 -9 10 -17 10 -24c0 -13 -8 -24 -53 -24h-58l-34 83l-28 -65c-6 -14 -19 -21 -55 -21c-32 0 -54 9 -66 21zM297 200c-4 13 -8 38 -8 53c0 53 12 65 43 65h147c39 0 56 -18 56 -109c0 -126 -85 -215 -238 -215
c-172 0 -267 116 -267 333c0 243 122 330 281 330c62 0 141 -6 167 -6c5 -15 9 -44 9 -61c0 -54 -7 -76 -49 -76c-21 0 -93 2 -111 2c-73 0 -117 -35 -117 -193c0 -143 42 -197 100 -197c52 0 79 33 83 74h-96z" />
    <glyph glyph-name="Gcommaaccent.alt" horiz-adv-x="554" 
d="M240 -190c12 -11 29 -17 46 -17c14 0 23 7 31 20c20 31 36 67 36 92c0 39 -26 66 -66 66s-65 -27 -65 -66c0 -25 14 -42 36 -49zM297 200c-4 13 -8 38 -8 53c0 53 12 65 43 65h147c39 0 56 -18 56 -109c0 -126 -85 -215 -238 -215c-172 0 -267 116 -267 333
c0 243 122 330 281 330c62 0 141 -6 167 -6c5 -15 9 -44 9 -61c0 -54 -7 -76 -49 -76c-21 0 -93 2 -111 2c-73 0 -117 -35 -117 -193c0 -143 42 -197 100 -197c52 0 79 33 83 74h-96z" />
    <glyph glyph-name="Gdotaccent.alt" horiz-adv-x="554" 
d="M297 200c-4 13 -8 38 -8 53c0 53 12 65 43 65h147c39 0 56 -18 56 -109c0 -126 -85 -215 -238 -215c-172 0 -267 116 -267 333c0 243 122 330 281 330c62 0 141 -6 167 -6c5 -15 9 -44 9 -61c0 -54 -7 -76 -49 -76c-21 0 -93 2 -111 2c-73 0 -117 -35 -117 -193
c0 -143 42 -197 100 -197c52 0 79 33 83 74h-96zM277 857c48 0 86 -38 86 -86c0 -47 -38 -85 -86 -85c-47 0 -85 38 -85 85c0 48 38 86 85 86z" />
    <glyph glyph-name="H.alt" horiz-adv-x="628" 
d="M55 623c0 16 11 28 85 28s86 -12 86 -28v-315h176v315c0 16 11 28 85 28s86 -12 86 -28v-595c0 -16 -10 -28 -86 -28c-75 0 -85 12 -85 28v162h-176v-162c0 -16 -10 -28 -86 -28c-75 0 -85 12 -85 28v595z" />
    <glyph glyph-name="Hbar.alt" horiz-adv-x="660" 
d="M418 623c0 16 11 28 85 28s86 -12 86 -28v-79h45c3 -9 5 -26 5 -36c0 -34 -7 -42 -28 -42h-22v-438c0 -16 -10 -28 -86 -28c-75 0 -85 12 -85 28v162h-176v-162c0 -16 -10 -28 -86 -28c-75 0 -85 12 -85 28v438h-45c-3 9 -5 25 -5 36c0 33 7 42 28 42h22v79
c0 16 11 28 85 28s86 -12 86 -28v-79h176v79zM418 308v158h-176v-158h176z" />
    <glyph glyph-name="Hcircumflex.alt" horiz-adv-x="628" 
d="M256 831c0 0 32 6 65 6c39 0 58 -6 71 -24l59 -79c7 -9 10 -17 10 -24c0 -13 -8 -24 -53 -24h-58l-34 83l-28 -65c-6 -14 -19 -21 -55 -21c-32 0 -54 9 -66 21zM55 623c0 16 11 28 85 28s86 -12 86 -28v-315h176v315c0 16 11 28 85 28s86 -12 86 -28v-595
c0 -16 -10 -28 -86 -28c-75 0 -85 12 -85 28v162h-176v-162c0 -16 -10 -28 -86 -28c-75 0 -85 12 -85 28v595z" />
    <glyph glyph-name="P.alt" horiz-adv-x="565" 
d="M271 523c-22 0 -36 -1 -47 -3v-258c13 -3 24 -4 51 -4c50 0 95 31 95 127c0 111 -37 138 -99 138zM224 145v-117c0 -16 -10 -28 -86 -28c-75 0 -85 12 -85 28v560c0 48 21 66 214 66c199 0 280 -87 280 -261c0 -157 -80 -254 -256 -254c-34 0 -50 2 -67 6z" />
    <glyph glyph-name="R.alt" horiz-adv-x="580" 
d="M53 588c0 48 21 66 214 66c199 0 280 -87 280 -261c0 -91 -27 -161 -83 -205l78 -152c-22 -22 -79 -42 -122 -42c-34 0 -52 8 -70 50l-41 95h-18c-34 0 -50 2 -67 6v-117c0 -16 -10 -28 -86 -28c-75 0 -85 12 -85 28v560zM370 385c0 111 -37 138 -99 138
c-22 0 -36 -1 -47 -3v-258c13 -3 24 -4 51 -4c50 0 95 31 95 127z" />
    <glyph glyph-name="Racute.alt" horiz-adv-x="580" 
d="M53 588c0 48 21 66 214 66c199 0 280 -87 280 -261c0 -91 -27 -161 -83 -205l78 -152c-22 -22 -79 -42 -122 -42c-34 0 -52 8 -70 50l-41 95h-18c-34 0 -50 2 -67 6v-117c0 -16 -10 -28 -86 -28c-75 0 -85 12 -85 28v560zM370 385c0 111 -37 138 -99 138
c-22 0 -36 -1 -47 -3v-258c13 -3 24 -4 51 -4c50 0 95 31 95 127zM251 803c8 19 26 34 63 34c70 0 83 -13 83 -13l-55 -110c-11 -20 -26 -28 -57 -28c-40 0 -61 5 -78 15z" />
    <glyph glyph-name="Rcaron.alt" horiz-adv-x="580" 
d="M53 588c0 48 21 66 214 66c199 0 280 -87 280 -261c0 -91 -27 -161 -83 -205l78 -152c-22 -22 -79 -42 -122 -42c-34 0 -52 8 -70 50l-41 95h-18c-34 0 -50 2 -67 6v-117c0 -16 -10 -28 -86 -28c-75 0 -85 12 -85 28v560zM370 385c0 111 -37 138 -99 138
c-22 0 -36 -1 -47 -3v-258c13 -3 24 -4 51 -4c50 0 95 31 95 127zM134 819c12 12 34 21 66 21c36 0 49 -7 55 -21l28 -65l34 83h58c45 0 53 -11 53 -24c0 -7 -3 -15 -10 -24l-59 -79c-13 -18 -32 -24 -71 -24c-33 0 -65 6 -65 6z" />
    <glyph glyph-name="Rcommaaccent.alt" horiz-adv-x="580" 
d="M53 588c0 48 21 66 214 66c199 0 280 -87 280 -261c0 -91 -27 -161 -83 -205l78 -152c-22 -22 -79 -42 -122 -42c-34 0 -52 8 -70 50l-41 95h-18c-34 0 -50 2 -67 6v-117c0 -16 -10 -28 -86 -28c-75 0 -85 12 -85 28v560zM370 385c0 111 -37 138 -99 138
c-22 0 -36 -1 -47 -3v-258c13 -3 24 -4 51 -4c50 0 95 31 95 127zM242 -183c12 -11 29 -17 46 -17c14 0 23 7 31 20c20 31 36 67 36 92c0 39 -26 66 -66 66s-65 -27 -65 -66c0 -25 14 -42 36 -49z" />
    <glyph glyph-name="S.alt" horiz-adv-x="478" 
d="M197 126c58 0 75 21 75 45c0 93 -240 45 -240 267c0 147 65 219 240 219c62 0 132 -6 158 -6c5 -15 9 -44 9 -61c0 -54 -7 -76 -49 -76c-21 0 -80 3 -98 3c-60 0 -80 -25 -80 -69c0 -103 240 -59 240 -258c0 -115 -66 -196 -241 -196c-149 0 -177 24 -177 67
c0 33 10 69 21 80c0 0 59 -15 142 -15z" />
    <glyph glyph-name="Sacute.alt" horiz-adv-x="478" 
d="M207 803c8 19 26 34 63 34c70 0 83 -13 83 -13l-55 -110c-11 -20 -26 -28 -57 -28c-40 0 -61 5 -78 15zM197 126c58 0 75 21 75 45c0 93 -240 45 -240 267c0 147 65 219 240 219c62 0 132 -6 158 -6c5 -15 9 -44 9 -61c0 -54 -7 -76 -49 -76c-21 0 -80 3 -98 3
c-60 0 -80 -25 -80 -69c0 -103 240 -59 240 -258c0 -115 -66 -196 -241 -196c-149 0 -177 24 -177 67c0 33 10 69 21 80c0 0 59 -15 142 -15z" />
    <glyph glyph-name="Scaron.alt" horiz-adv-x="478" 
d="M92 819c12 12 34 21 66 21c36 0 49 -7 55 -21l28 -65l34 83h58c45 0 53 -11 53 -24c0 -7 -3 -15 -10 -24l-59 -79c-13 -18 -32 -24 -71 -24c-33 0 -65 6 -65 6zM197 126c58 0 75 21 75 45c0 93 -240 45 -240 267c0 147 65 219 240 219c62 0 132 -6 158 -6
c5 -15 9 -44 9 -61c0 -54 -7 -76 -49 -76c-21 0 -80 3 -98 3c-60 0 -80 -25 -80 -69c0 -103 240 -59 240 -258c0 -115 -66 -196 -241 -196c-149 0 -177 24 -177 67c0 33 10 69 21 80c0 0 59 -15 142 -15z" />
    <glyph glyph-name="Scedilla.alt" horiz-adv-x="478" 
d="M176 -17c1 4 3 8 6 11c-124 3 -148 27 -148 67c0 33 10 69 21 80c0 0 59 -15 142 -15c58 0 75 21 75 45c0 93 -240 45 -240 267c0 147 65 219 240 219c62 0 132 -6 158 -6c5 -15 9 -44 9 -61c0 -54 -7 -76 -49 -76c-21 0 -80 3 -98 3c-60 0 -80 -25 -80 -69
c0 -103 240 -59 240 -258c0 -107 -57 -184 -203 -194l-15 -32c6 1 18 2 28 2c51 0 80 -23 80 -65c0 -44 -29 -78 -108 -78c-76 0 -98 16 -98 44c0 16 10 26 18 30c0 0 25 -12 64 -12s44 8 44 16s-5 16 -37 16h-38c-19 0 -28 14 -28 28z" />
    <glyph glyph-name="Scircumflex.alt" horiz-adv-x="478" 
d="M181 831c0 0 32 6 65 6c39 0 58 -6 71 -24l59 -79c7 -9 10 -17 10 -24c0 -13 -8 -24 -53 -24h-58l-34 83l-28 -65c-6 -14 -19 -21 -55 -21c-32 0 -54 9 -66 21zM197 126c58 0 75 21 75 45c0 93 -240 45 -240 267c0 147 65 219 240 219c62 0 132 -6 158 -6
c5 -15 9 -44 9 -61c0 -54 -7 -76 -49 -76c-21 0 -80 3 -98 3c-60 0 -80 -25 -80 -69c0 -103 240 -59 240 -258c0 -115 -66 -196 -241 -196c-149 0 -177 24 -177 67c0 33 10 69 21 80c0 0 59 -15 142 -15z" />
    <glyph glyph-name="Scommaaccent.alt" horiz-adv-x="478" 
d="M197 126c58 0 75 21 75 45c0 93 -240 45 -240 267c0 147 65 219 240 219c62 0 132 -6 158 -6c5 -15 9 -44 9 -61c0 -54 -7 -76 -49 -76c-21 0 -80 3 -98 3c-60 0 -80 -25 -80 -69c0 -103 240 -59 240 -258c0 -115 -66 -196 -241 -196c-149 0 -177 24 -177 67
c0 33 10 69 21 80c0 0 59 -15 142 -15zM191 -183c12 -11 29 -17 46 -17c14 0 23 7 31 20c20 31 36 67 36 92c0 39 -26 66 -66 66s-65 -27 -65 -66c0 -25 14 -42 36 -49z" />
    <glyph glyph-name="a.alt" horiz-adv-x="521" 
d="M348 474l16 26h41c60 0 70 -12 70 -28v-444c0 -16 -9 -28 -71 -28c-61 0 -69 12 -69 28v31c-35 -48 -74 -71 -135 -71c-96 0 -174 79 -174 254c0 162 84 267 224 267c46 0 75 -11 98 -35zM187 247c0 -102 26 -132 66 -132c22 0 44 13 66 41v204c-10 12 -26 25 -53 25
c-46 0 -79 -35 -79 -138z" />
    <glyph glyph-name="aacute.alt" horiz-adv-x="521" 
d="M219 667c8 19 26 34 63 34c70 0 83 -13 83 -13l-55 -110c-11 -20 -26 -28 -57 -28c-40 0 -61 5 -78 15zM348 474c-23 24 -52 35 -98 35c-140 0 -224 -105 -224 -267c0 -175 78 -254 174 -254c61 0 100 23 135 71v-31c0 -16 8 -28 69 -28c62 0 71 12 71 28v444
c0 16 -10 28 -70 28h-41zM187 247c0 103 33 138 79 138c27 0 43 -13 53 -25v-204c-22 -28 -44 -41 -66 -41c-40 0 -66 30 -66 132z" />
    <glyph glyph-name="abreve.alt" horiz-adv-x="521" 
d="M348 474c-23 24 -52 35 -98 35c-140 0 -224 -105 -224 -267c0 -175 78 -254 174 -254c61 0 100 23 135 71v-31c0 -16 8 -28 69 -28c62 0 71 12 71 28v444c0 16 -10 28 -70 28h-41zM187 247c0 103 33 138 79 138c27 0 43 -13 53 -25v-204c-22 -28 -44 -41 -66 -41
c-40 0 -66 30 -66 132zM321 729c10 3 23 5 49 5c45 0 58 -8 58 -20v-16c0 -84 -53 -148 -166 -148c-112 0 -166 64 -166 148v16c0 12 13 20 58 20c26 0 39 -2 49 -5v-33c0 -29 19 -50 59 -50s59 21 59 50v33z" />
    <glyph glyph-name="acircumflex.alt" horiz-adv-x="521" 
d="M203 695c0 0 32 6 65 6c39 0 58 -6 71 -24l59 -79c7 -9 10 -17 10 -24c0 -13 -8 -24 -53 -24h-58l-34 83l-28 -65c-6 -14 -19 -21 -55 -21c-32 0 -54 9 -66 21zM348 474c-23 24 -52 35 -98 35c-140 0 -224 -105 -224 -267c0 -175 78 -254 174 -254c61 0 100 23 135 71
v-31c0 -16 8 -28 69 -28c62 0 71 12 71 28v444c0 16 -10 28 -70 28h-41zM187 247c0 103 33 138 79 138c27 0 43 -13 53 -25v-204c-22 -28 -44 -41 -66 -41c-40 0 -66 30 -66 132z" />
    <glyph glyph-name="adieresis.alt" horiz-adv-x="521" 
d="M156 702c42 0 76 -34 76 -76c0 -41 -34 -75 -76 -75c-41 0 -75 34 -75 75c0 42 34 76 75 76zM365 702c42 0 76 -34 76 -76c0 -41 -34 -75 -76 -75c-41 0 -75 34 -75 75c0 42 34 76 75 76zM348 474c-23 24 -52 35 -98 35c-140 0 -224 -105 -224 -267
c0 -175 78 -254 174 -254c61 0 100 23 135 71v-31c0 -16 8 -28 69 -28c62 0 71 12 71 28v444c0 16 -10 28 -70 28h-41zM187 247c0 103 33 138 79 138c27 0 43 -13 53 -25v-204c-22 -28 -44 -41 -66 -41c-40 0 -66 30 -66 132z" />
    <glyph glyph-name="agrave.alt" horiz-adv-x="521" 
d="M348 474c-23 24 -52 35 -98 35c-140 0 -224 -105 -224 -267c0 -175 78 -254 174 -254c61 0 100 23 135 71v-31c0 -16 8 -28 69 -28c62 0 71 12 71 28v444c0 16 -10 28 -70 28h-41zM187 247c0 103 33 138 79 138c27 0 43 -13 53 -25v-204c-22 -28 -44 -41 -66 -41
c-40 0 -66 30 -66 132zM136 688c0 0 13 13 83 13c37 0 55 -15 63 -34l44 -102c-17 -10 -38 -15 -78 -15c-31 0 -46 8 -57 28z" />
    <glyph glyph-name="amacron.alt" horiz-adv-x="521" 
d="M348 474l16 26h41c60 0 70 -12 70 -28v-444c0 -16 -9 -28 -71 -28c-61 0 -69 12 -69 28v31c-35 -48 -74 -71 -135 -71c-96 0 -174 79 -174 254c0 162 84 267 224 267c46 0 75 -11 98 -35zM187 247c0 -102 26 -132 66 -132c22 0 44 13 66 41v204c-10 12 -26 25 -53 25
c-46 0 -79 -35 -79 -138zM364 551h-245c-4 14 -8 39 -8 53c0 54 11 66 45 66h245c4 -13 8 -39 8 -53c0 -53 -11 -66 -45 -66z" />
    <glyph glyph-name="aogonek.alt" horiz-adv-x="521" 
d="M348 474l16 26h41c60 0 70 -12 70 -28v-444c0 -16 -9 -28 -71 -28h-4c-14 -23 -23 -45 -23 -64c0 -16 9 -29 41 -29c23 0 37 5 53 11c7 -5 16 -21 16 -38c0 -33 -27 -42 -90 -42c-76 0 -109 37 -109 86c0 44 20 78 50 91c-3 4 -3 8 -3 13v31c-35 -48 -74 -71 -135 -71
c-96 0 -174 79 -174 254c0 162 84 267 224 267c46 0 75 -11 98 -35zM187 247c0 -102 26 -132 66 -132c22 0 44 13 66 41v204c-10 12 -26 25 -53 25c-46 0 -79 -35 -79 -138z" />
    <glyph glyph-name="aring.alt" horiz-adv-x="521" 
d="M368 663c0 -69 -48 -112 -108 -112s-108 43 -108 112c0 72 48 113 108 113s108 -41 108 -113zM233 663c0 -23 10 -36 27 -36s27 13 27 36c0 27 -10 36 -27 36s-27 -9 -27 -36zM348 474l16 26h41c60 0 70 -12 70 -28v-444c0 -16 -9 -28 -71 -28c-61 0 -69 12 -69 28v31
c-35 -48 -74 -71 -135 -71c-96 0 -174 79 -174 254c0 162 84 267 224 267c46 0 75 -11 98 -35zM187 247c0 -102 26 -132 66 -132c22 0 44 13 66 41v204c-10 12 -26 25 -53 25c-46 0 -79 -35 -79 -138z" />
    <glyph glyph-name="atilde.alt" horiz-adv-x="521" 
d="M348 474c-23 24 -52 35 -98 35c-140 0 -224 -105 -224 -267c0 -175 78 -254 174 -254c61 0 100 23 135 71v-31c0 -16 8 -28 69 -28c62 0 71 12 71 28v444c0 16 -10 28 -70 28h-41zM187 247c0 103 33 138 79 138c27 0 43 -13 53 -25v-204c-22 -28 -44 -41 -66 -41
c-40 0 -66 30 -66 132zM97 583c0 94 47 126 103 126c62 0 92 -52 124 -52c21 0 28 13 32 45h40c18 0 29 -11 29 -32c0 -94 -47 -126 -103 -126c-62 0 -92 52 -124 52c-22 0 -28 -13 -32 -45h-40c-18 0 -29 11 -29 32z" />
    <glyph glyph-name="d.alt" horiz-adv-x="522" 
d="M319 690c0 16 8 28 76 28c69 0 80 -12 80 -28v-662c0 -16 -9 -28 -71 -28c-61 0 -69 12 -69 28v31c-35 -48 -74 -71 -135 -71c-96 0 -174 79 -174 254c0 162 77 267 242 267c17 0 39 -3 51 -9v190zM319 373c-12 8 -26 12 -53 12c-46 0 -79 -35 -79 -138
c0 -102 26 -132 66 -132c22 0 44 13 66 41v217z" />
    <glyph glyph-name="dcaron.alt" horiz-adv-x="522" 
d="M498 620c0 39 25 66 65 66s66 -27 66 -66c0 -25 -16 -61 -36 -92c-8 -13 -17 -20 -31 -20c-17 0 -34 6 -46 17l18 46c-22 7 -36 24 -36 49zM319 690c0 16 8 28 76 28c69 0 80 -12 80 -28v-662c0 -16 -9 -28 -71 -28c-61 0 -69 12 -69 28v31c-35 -48 -74 -71 -135 -71
c-96 0 -174 79 -174 254c0 162 77 267 242 267c17 0 39 -3 51 -9v190zM319 373c-12 8 -26 12 -53 12c-46 0 -79 -35 -79 -138c0 -102 26 -132 66 -132c22 0 44 13 66 41v217z" />
    <glyph glyph-name="dcroat.alt" horiz-adv-x="522" 
d="M319 690c0 16 8 28 76 28c69 0 80 -12 80 -28v-39h50c3 -11 6 -31 6 -45c0 -41 -9 -52 -35 -52h-21v-526c0 -16 -9 -28 -71 -28c-61 0 -69 12 -69 28v25c-34 -44 -76 -65 -135 -65c-96 0 -174 79 -174 254c0 162 77 267 242 267c17 0 39 -3 51 -9v54h-66
c-3 11 -6 31 -6 45c0 41 9 52 35 52h37v39zM319 373c-12 8 -26 12 -53 12c-46 0 -79 -35 -79 -138c0 -102 26 -132 66 -132c22 0 44 13 66 41v217z" />
    <glyph glyph-name="e.alt" horiz-adv-x="463" 
d="M443 341c0 -82 -46 -139 -186 -139c-31 0 -54 2 -73 6c9 -73 44 -98 99 -98c64 0 107 28 107 28c16 -11 31 -33 31 -65c0 -51 -55 -85 -160 -85c-163 0 -235 103 -235 259c0 166 80 262 225 262c130 0 192 -74 192 -168zM184 294c13 -2 31 -4 56 -4c46 0 61 16 61 44
c0 32 -16 51 -50 51s-59 -24 -67 -91z" />
    <glyph glyph-name="eacute.alt" horiz-adv-x="463" 
d="M212 666c8 19 26 34 63 34c70 0 83 -13 83 -13l-55 -110c-11 -20 -26 -28 -57 -28c-40 0 -61 5 -78 15zM443 341c0 94 -62 168 -192 168c-145 0 -225 -96 -225 -262c0 -156 72 -259 235 -259c105 0 160 34 160 85c0 32 -15 54 -31 65c0 0 -43 -28 -107 -28
c-55 0 -90 25 -99 98c19 -4 42 -6 73 -6c140 0 186 57 186 139zM184 294c8 67 33 91 67 91s50 -19 50 -51c0 -28 -15 -44 -61 -44c-25 0 -43 2 -56 4z" />
    <glyph glyph-name="ebreve.alt" horiz-adv-x="463" 
d="M302 729c10 3 23 5 49 5c45 0 58 -8 58 -20v-16c0 -84 -53 -148 -166 -148c-112 0 -166 64 -166 148v16c0 12 13 20 58 20c26 0 39 -2 49 -5v-33c0 -29 19 -50 59 -50s59 21 59 50v33zM443 341c0 94 -62 168 -192 168c-145 0 -225 -96 -225 -262c0 -156 72 -259 235 -259
c105 0 160 34 160 85c0 32 -15 54 -31 65c0 0 -43 -28 -107 -28c-55 0 -90 25 -99 98c19 -4 42 -6 73 -6c140 0 186 57 186 139zM184 294c8 67 33 91 67 91s50 -19 50 -51c0 -28 -15 -44 -61 -44c-25 0 -43 2 -56 4z" />
    <glyph glyph-name="ecaron.alt" horiz-adv-x="463" 
d="M86 683c12 12 34 21 66 21c36 0 49 -7 55 -21l28 -65l34 83h58c45 0 53 -11 53 -24c0 -7 -3 -15 -10 -24l-59 -79c-13 -18 -32 -24 -71 -24c-33 0 -65 6 -65 6zM443 341c0 94 -62 168 -192 168c-145 0 -225 -96 -225 -262c0 -156 72 -259 235 -259c105 0 160 34 160 85
c0 32 -15 54 -31 65c0 0 -43 -28 -107 -28c-55 0 -90 25 -99 98c19 -4 42 -6 73 -6c140 0 186 57 186 139zM184 294c8 67 33 91 67 91s50 -19 50 -51c0 -28 -15 -44 -61 -44c-25 0 -43 2 -56 4z" />
    <glyph glyph-name="ecircumflex.alt" horiz-adv-x="463" 
d="M181 695c0 0 32 6 65 6c39 0 58 -6 71 -24l59 -79c7 -9 10 -17 10 -24c0 -13 -8 -24 -53 -24h-58l-34 83l-28 -65c-6 -14 -19 -21 -55 -21c-32 0 -54 9 -66 21zM443 341c0 94 -62 168 -192 168c-145 0 -225 -96 -225 -262c0 -156 72 -259 235 -259c105 0 160 34 160 85
c0 32 -15 54 -31 65c0 0 -43 -28 -107 -28c-55 0 -90 25 -99 98c19 -4 42 -6 73 -6c140 0 186 57 186 139zM184 294c8 67 33 91 67 91s50 -19 50 -51c0 -28 -15 -44 -61 -44c-25 0 -43 2 -56 4z" />
    <glyph glyph-name="edieresis.alt" horiz-adv-x="463" 
d="M141 702c42 0 76 -34 76 -76c0 -41 -34 -75 -76 -75c-41 0 -75 34 -75 75c0 42 34 76 75 76zM350 702c42 0 76 -34 76 -76c0 -41 -34 -75 -76 -75c-41 0 -75 34 -75 75c0 42 34 76 75 76zM443 341c0 94 -62 168 -192 168c-145 0 -225 -96 -225 -262
c0 -156 72 -259 235 -259c105 0 160 34 160 85c0 32 -15 54 -31 65c0 0 -43 -28 -107 -28c-55 0 -90 25 -99 98c19 -4 42 -6 73 -6c140 0 186 57 186 139zM184 294c8 67 33 91 67 91s50 -19 50 -51c0 -28 -15 -44 -61 -44c-25 0 -43 2 -56 4z" />
    <glyph glyph-name="edotaccent.alt" horiz-adv-x="463" 
d="M232 722c48 0 86 -38 86 -86c0 -47 -38 -85 -86 -85c-47 0 -85 38 -85 85c0 48 38 86 85 86zM443 341c0 94 -62 168 -192 168c-145 0 -225 -96 -225 -262c0 -156 72 -259 235 -259c105 0 160 34 160 85c0 32 -15 54 -31 65c0 0 -43 -28 -107 -28c-55 0 -90 25 -99 98
c19 -4 42 -6 73 -6c140 0 186 57 186 139zM184 294c8 67 33 91 67 91s50 -19 50 -51c0 -28 -15 -44 -61 -44c-25 0 -43 2 -56 4z" />
    <glyph glyph-name="egrave.alt" horiz-adv-x="463" 
d="M117 688c0 0 13 13 83 13c37 0 55 -15 63 -34l44 -102c-17 -10 -38 -15 -78 -15c-31 0 -46 8 -57 28zM443 341c0 94 -62 168 -192 168c-145 0 -225 -96 -225 -262c0 -156 72 -259 235 -259c105 0 160 34 160 85c0 32 -15 54 -31 65c0 0 -43 -28 -107 -28
c-55 0 -90 25 -99 98c19 -4 42 -6 73 -6c140 0 186 57 186 139zM184 294c8 67 33 91 67 91s50 -19 50 -51c0 -28 -15 -44 -61 -44c-25 0 -43 2 -56 4z" />
    <glyph glyph-name="emacron.alt" horiz-adv-x="463" 
d="M335 551h-245c-4 14 -8 39 -8 53c0 54 11 66 45 66h245c4 -13 8 -39 8 -53c0 -53 -11 -66 -45 -66zM443 341c0 -82 -46 -139 -186 -139c-31 0 -54 2 -73 6c9 -73 44 -98 99 -98c64 0 107 28 107 28c16 -11 31 -33 31 -65c0 -51 -55 -85 -160 -85
c-163 0 -235 103 -235 259c0 166 80 262 225 262c130 0 192 -74 192 -168zM184 294c13 -2 31 -4 56 -4c46 0 61 16 61 44c0 32 -16 51 -50 51s-59 -24 -67 -91z" />
    <glyph glyph-name="eogonek.alt" horiz-adv-x="463" 
d="M443 341c0 -82 -46 -139 -186 -139c-31 0 -54 2 -73 6c9 -73 44 -98 99 -98c64 0 107 28 107 28c16 -11 31 -33 31 -65c0 -48 -47 -80 -138 -84c-10 -19 -17 -37 -17 -53s9 -29 41 -29c23 0 37 5 53 11c7 -5 16 -21 16 -38c0 -33 -27 -42 -90 -42c-76 0 -109 37 -109 86
c0 28 8 52 22 70c-120 23 -173 118 -173 253c0 166 80 262 225 262c130 0 192 -74 192 -168zM184 294c13 -2 31 -4 56 -4c46 0 61 16 61 44c0 32 -16 51 -50 51s-59 -24 -67 -91z" />
    <glyph glyph-name="f.alt" horiz-adv-x="358" 
d="M86 569c0 92 40 147 156 147c22 0 101 -4 107 -4c5 -12 9 -39 9 -54c0 -46 -6 -65 -43 -65c-18 0 -32 2 -46 2c-19 0 -27 -8 -27 -24v-71h89c4 -13 7 -37 7 -52c0 -51 -11 -63 -41 -63h-55v-450c0 -16 -10 -28 -79 -28c-68 0 -77 12 -77 28v450h-70c-4 13 -7 37 -7 52
c0 51 11 63 41 63h36v69z" />
    <glyph glyph-name="g.alt" horiz-adv-x="522" 
d="M26 242c0 162 84 267 224 267c46 0 75 -11 98 -35l16 26h41c60 0 70 -12 70 -28v-466c0 -135 -64 -199 -228 -199c-117 0 -148 24 -148 61c0 28 9 58 17 67c0 0 45 -13 123 -13c62 0 80 18 80 56v69c-28 -39 -60 -59 -119 -59c-96 0 -174 79 -174 254zM319 360
c-10 12 -26 25 -53 25c-46 0 -79 -35 -79 -138c0 -102 26 -132 66 -132c22 0 44 13 66 41v204z" />
    <glyph glyph-name="gbreve.alt" horiz-adv-x="522" 
d="M26 242c0 162 84 267 224 267c46 0 75 -11 98 -35l16 26h41c60 0 70 -12 70 -28v-466c0 -135 -64 -199 -228 -199c-117 0 -148 24 -148 61c0 28 9 58 17 67c0 0 45 -13 123 -13c62 0 80 18 80 56v69c-28 -39 -60 -59 -119 -59c-96 0 -174 79 -174 254zM319 360
c-10 12 -26 25 -53 25c-46 0 -79 -35 -79 -138c0 -102 26 -132 66 -132c22 0 44 13 66 41v204zM321 729c10 3 23 5 49 5c45 0 58 -8 58 -20v-16c0 -84 -53 -148 -166 -148c-112 0 -166 64 -166 148v16c0 12 13 20 58 20c26 0 39 -2 49 -5v-33c0 -29 19 -50 59 -50
s59 21 59 50v33z" />
    <glyph glyph-name="gcircumflex.alt" horiz-adv-x="522" 
d="M200 695c0 0 32 6 65 6c39 0 58 -6 71 -24l59 -79c7 -9 10 -17 10 -24c0 -13 -8 -24 -53 -24h-58l-34 83l-28 -65c-6 -14 -19 -21 -55 -21c-32 0 -54 9 -66 21zM26 242c0 162 84 267 224 267c46 0 75 -11 98 -35l16 26h41c60 0 70 -12 70 -28v-466
c0 -135 -64 -199 -228 -199c-117 0 -148 24 -148 61c0 28 9 58 17 67c0 0 45 -13 123 -13c62 0 80 18 80 56v69c-28 -39 -60 -59 -119 -59c-96 0 -174 79 -174 254zM319 360c-10 12 -26 25 -53 25c-46 0 -79 -35 -79 -138c0 -102 26 -132 66 -132c22 0 44 13 66 41v204z" />
    <glyph glyph-name="gcommaaccent.alt" horiz-adv-x="522" 
d="M226 707c8 13 17 20 31 20c17 0 34 -6 46 -17l-18 -46c22 -7 36 -24 36 -49c0 -39 -25 -66 -65 -66s-66 27 -66 66c0 25 16 61 36 92zM26 242c0 162 84 267 224 267c46 0 75 -11 98 -35l16 26h41c60 0 70 -12 70 -28v-466c0 -135 -64 -199 -228 -199
c-117 0 -148 24 -148 61c0 28 9 58 17 67c0 0 45 -13 123 -13c62 0 80 18 80 56v69c-28 -39 -60 -59 -119 -59c-96 0 -174 79 -174 254zM319 360c-10 12 -26 25 -53 25c-46 0 -79 -35 -79 -138c0 -102 26 -132 66 -132c22 0 44 13 66 41v204z" />
    <glyph glyph-name="gdotaccent.alt" horiz-adv-x="522" 
d="M26 242c0 162 84 267 224 267c46 0 75 -11 98 -35l16 26h41c60 0 70 -12 70 -28v-466c0 -135 -64 -199 -228 -199c-117 0 -148 24 -148 61c0 28 9 58 17 67c0 0 45 -13 123 -13c62 0 80 18 80 56v69c-28 -39 -60 -59 -119 -59c-96 0 -174 79 -174 254zM319 360
c-10 12 -26 25 -53 25c-46 0 -79 -35 -79 -138c0 -102 26 -132 66 -132c22 0 44 13 66 41v204zM261 722c48 0 86 -38 86 -86c0 -47 -38 -85 -86 -85c-47 0 -85 38 -85 85c0 48 38 86 85 86z" />
    <glyph glyph-name="t.alt" horiz-adv-x="333" 
d="M241 596v-96h77c4 -13 7 -37 7 -52c0 -51 -11 -63 -41 -63h-43v-357c0 -16 -10 -28 -79 -28c-68 0 -77 12 -77 28v357h-70c-4 13 -7 37 -7 52c0 51 11 63 41 63h36v96c0 16 9 28 77 28c69 0 79 -12 79 -28z" />
    <glyph glyph-name="tcaron.alt" horiz-adv-x="333" 
d="M281 650c0 39 25 66 65 66s66 -27 66 -66c0 -25 -16 -61 -36 -92c-8 -13 -17 -20 -31 -20c-17 0 -34 6 -46 17l18 46c-22 7 -36 24 -36 49zM241 500v96c0 16 -10 28 -79 28c-68 0 -77 -12 -77 -28v-96h-36c-30 0 -41 -12 -41 -63c0 -15 3 -39 7 -52h70v-357
c0 -16 9 -28 77 -28c69 0 79 12 79 28v357h43c30 0 41 12 41 63c0 15 -3 39 -7 52h-77z" />
    <glyph glyph-name="tcommaaccent.alt" horiz-adv-x="333" 
d="M241 596v-96h77c4 -13 7 -37 7 -52c0 -51 -11 -63 -41 -63h-43v-357c0 -16 -10 -28 -79 -28c-68 0 -77 12 -77 28v357h-70c-4 13 -7 37 -7 52c0 51 11 63 41 63h36v96c0 16 9 28 77 28c69 0 79 -12 79 -28zM113 -183l18 46c-22 7 -36 24 -36 49c0 39 25 66 65 66
s66 -27 66 -66c0 -25 -16 -61 -36 -92c-8 -13 -17 -20 -31 -20c-17 0 -34 6 -46 17z" />
    <glyph glyph-name="u.alt" horiz-adv-x="511" 
d="M309 472c0 16 10 28 79 28c68 0 77 -12 77 -28v-444c0 -16 -9 -28 -71 -28c-61 0 -69 12 -69 28v31c-35 -48 -74 -71 -135 -71c-89 0 -146 41 -146 161v231c0 53 -10 99 -10 99c20 14 48 21 85 21c64 0 81 -13 81 -90v-238c0 -40 13 -57 43 -57c22 0 44 13 66 41v316z
" />
    <glyph glyph-name="uacute.alt" horiz-adv-x="511" 
d="M231 667c8 19 26 34 63 34c70 0 83 -13 83 -13l-55 -110c-11 -20 -26 -28 -57 -28c-40 0 -61 5 -78 15zM309 472c0 16 10 28 79 28c68 0 77 -12 77 -28v-444c0 -16 -9 -28 -71 -28c-61 0 -69 12 -69 28v31c-35 -48 -74 -71 -135 -71c-89 0 -146 41 -146 161v231
c0 53 -10 99 -10 99c20 14 48 21 85 21c64 0 81 -13 81 -90v-238c0 -40 13 -57 43 -57c22 0 44 13 66 41v316z" />
    <glyph glyph-name="ubreve.alt" horiz-adv-x="511" 
d="M316 729c10 3 23 5 49 5c45 0 58 -8 58 -20v-16c0 -84 -53 -148 -166 -148c-112 0 -166 64 -166 148v16c0 12 13 20 58 20c26 0 39 -2 49 -5v-33c0 -29 19 -50 59 -50s59 21 59 50v33zM309 472c0 16 10 28 79 28c68 0 77 -12 77 -28v-444c0 -16 -9 -28 -71 -28
c-61 0 -69 12 -69 28v31c-35 -48 -74 -71 -135 -71c-89 0 -146 41 -146 161v231c0 53 -10 99 -10 99c20 14 48 21 85 21c64 0 81 -13 81 -90v-238c0 -40 13 -57 43 -57c22 0 44 13 66 41v316z" />
    <glyph glyph-name="ucircumflex.alt" horiz-adv-x="511" 
d="M189 695c0 0 32 6 65 6c39 0 58 -6 71 -24l59 -79c7 -9 10 -17 10 -24c0 -13 -8 -24 -53 -24h-58l-34 83l-28 -65c-6 -14 -19 -21 -55 -21c-32 0 -54 9 -66 21zM309 472c0 16 10 28 79 28c68 0 77 -12 77 -28v-444c0 -16 -9 -28 -71 -28c-61 0 -69 12 -69 28v31
c-35 -48 -74 -71 -135 -71c-89 0 -146 41 -146 161v231c0 53 -10 99 -10 99c20 14 48 21 85 21c64 0 81 -13 81 -90v-238c0 -40 13 -57 43 -57c22 0 44 13 66 41v316z" />
    <glyph glyph-name="udieresis.alt" horiz-adv-x="511" 
d="M148 702c42 0 76 -34 76 -76c0 -41 -34 -75 -76 -75c-41 0 -75 34 -75 75c0 42 34 76 75 76zM357 702c42 0 76 -34 76 -76c0 -41 -34 -75 -76 -75c-41 0 -75 34 -75 75c0 42 34 76 75 76zM309 472c0 16 10 28 79 28c68 0 77 -12 77 -28v-444c0 -16 -9 -28 -71 -28
c-61 0 -69 12 -69 28v31c-35 -48 -74 -71 -135 -71c-89 0 -146 41 -146 161v231c0 53 -10 99 -10 99c20 14 48 21 85 21c64 0 81 -13 81 -90v-238c0 -40 13 -57 43 -57c22 0 44 13 66 41v316z" />
    <glyph glyph-name="ugrave.alt" horiz-adv-x="511" 
d="M123 688c0 0 13 13 83 13c37 0 55 -15 63 -34l44 -102c-17 -10 -38 -15 -78 -15c-31 0 -46 8 -57 28zM309 472c0 16 10 28 79 28c68 0 77 -12 77 -28v-444c0 -16 -9 -28 -71 -28c-61 0 -69 12 -69 28v31c-35 -48 -74 -71 -135 -71c-89 0 -146 41 -146 161v231
c0 53 -10 99 -10 99c20 14 48 21 85 21c64 0 81 -13 81 -90v-238c0 -40 13 -57 43 -57c22 0 44 13 66 41v316z" />
    <glyph glyph-name="uhungarumlaut.alt" horiz-adv-x="511" 
d="M334 667c8 19 26 34 63 34c70 0 83 -13 83 -13l-55 -110c-11 -20 -26 -28 -57 -28c-40 0 -61 5 -78 15zM136 667c8 19 26 34 63 34c61 0 83 -13 83 -13l-55 -110c-11 -20 -26 -28 -57 -28c-40 0 -61 5 -78 15zM309 472c0 16 10 28 79 28c68 0 77 -12 77 -28v-444
c0 -16 -9 -28 -71 -28c-61 0 -69 12 -69 28v31c-35 -48 -74 -71 -135 -71c-89 0 -146 41 -146 161v231c0 53 -10 99 -10 99c20 14 48 21 85 21c64 0 81 -13 81 -90v-238c0 -40 13 -57 43 -57c22 0 44 13 66 41v316z" />
    <glyph glyph-name="umacron.alt" horiz-adv-x="511" 
d="M354 552h-245c-4 14 -8 39 -8 53c0 54 11 66 45 66h245c4 -13 8 -39 8 -53c0 -53 -11 -66 -45 -66zM309 472c0 16 10 28 79 28c68 0 77 -12 77 -28v-444c0 -16 -9 -28 -71 -28c-61 0 -69 12 -69 28v31c-35 -48 -74 -71 -135 -71c-89 0 -146 41 -146 161v231
c0 53 -10 99 -10 99c20 14 48 21 85 21c64 0 81 -13 81 -90v-238c0 -40 13 -57 43 -57c22 0 44 13 66 41v316z" />
    <glyph glyph-name="uring.alt" horiz-adv-x="511" 
d="M364 663c0 -69 -48 -112 -108 -112s-108 43 -108 112c0 72 48 113 108 113s108 -41 108 -113zM229 663c0 -23 10 -36 27 -36s27 13 27 36c0 27 -10 36 -27 36s-27 -9 -27 -36zM309 472c0 16 10 28 79 28c68 0 77 -12 77 -28v-444c0 -16 -9 -28 -71 -28
c-61 0 -69 12 -69 28v31c-35 -48 -74 -71 -135 -71c-89 0 -146 41 -146 161v231c0 53 -10 99 -10 99c20 14 48 21 85 21c64 0 81 -13 81 -90v-238c0 -40 13 -57 43 -57c22 0 44 13 66 41v316z" />
    <glyph glyph-name="utilde.alt" horiz-adv-x="511" 
d="M92 583c0 94 47 126 103 126c62 0 92 -52 124 -52c21 0 28 13 32 45h40c18 0 29 -11 29 -32c0 -94 -47 -126 -103 -126c-62 0 -92 52 -124 52c-22 0 -28 -13 -32 -45h-40c-18 0 -29 11 -29 32zM309 472c0 16 10 28 79 28c68 0 77 -12 77 -28v-444c0 -16 -9 -28 -71 -28
c-61 0 -69 12 -69 28v31c-35 -48 -74 -71 -135 -71c-89 0 -146 41 -146 161v231c0 53 -10 99 -10 99c20 14 48 21 85 21c64 0 81 -13 81 -90v-238c0 -40 13 -57 43 -57c22 0 44 13 66 41v316z" />
    <glyph glyph-name="v.alt" horiz-adv-x="507" 
d="M235 -12c-130 0 -191 66 -191 163v321c0 16 10 28 79 28c68 0 77 -12 77 -28v-312c0 -29 16 -48 49 -48c37 0 73 35 73 178c0 95 -27 185 -27 185c21 16 51 25 88 25c70 0 95 -57 95 -216c0 -213 -103 -296 -243 -296z" />
    <glyph glyph-name="w.alt" horiz-adv-x="775" 
d="M590 290c0 95 -27 185 -27 185c21 16 51 25 88 25c70 0 95 -57 95 -216c0 -213 -100 -296 -238 -296c-63 0 -110 19 -140 53c-38 -37 -72 -53 -147 -53c-107 0 -177 62 -177 163v321c0 16 10 28 79 28c68 0 77 -12 77 -28v-312c0 -29 13 -48 51 -48c39 0 61 35 61 71v289
c0 16 10 28 79 28c68 0 77 -12 77 -28v-312c0 -29 16 -48 49 -48c37 0 73 35 73 178z" />
    <glyph glyph-name="wacute.alt" horiz-adv-x="775" 
d="M375 667c8 19 26 34 63 34c70 0 83 -13 83 -13l-55 -110c-11 -20 -26 -28 -57 -28c-40 0 -61 5 -78 15zM590 290c0 -143 -36 -178 -73 -178c-33 0 -49 19 -49 48v312c0 16 -9 28 -77 28c-69 0 -79 -12 -79 -28v-289c0 -36 -22 -71 -61 -71c-38 0 -51 19 -51 48v312
c0 16 -9 28 -77 28c-69 0 -79 -12 -79 -28v-321c0 -101 70 -163 177 -163c75 0 109 16 147 53c30 -34 77 -53 140 -53c138 0 238 83 238 296c0 159 -25 216 -95 216c-37 0 -67 -9 -88 -25c0 0 27 -90 27 -185z" />
    <glyph glyph-name="wgrave.alt" horiz-adv-x="775" 
d="M590 290c0 -143 -36 -178 -73 -178c-33 0 -49 19 -49 48v312c0 16 -9 28 -77 28c-69 0 -79 -12 -79 -28v-289c0 -36 -22 -71 -61 -71c-38 0 -51 19 -51 48v312c0 16 -9 28 -77 28c-69 0 -79 -12 -79 -28v-321c0 -101 70 -163 177 -163c75 0 109 16 147 53
c30 -34 77 -53 140 -53c138 0 238 83 238 296c0 159 -25 216 -95 216c-37 0 -67 -9 -88 -25c0 0 27 -90 27 -185zM263 688c0 0 13 13 83 13c37 0 55 -15 63 -34l44 -102c-17 -10 -38 -15 -78 -15c-31 0 -46 8 -57 28z" />
    <glyph glyph-name="y.alt" horiz-adv-x="512" 
d="M309 472c0 16 10 28 79 28c68 0 77 -12 77 -28v-466c0 -135 -64 -199 -228 -199c-117 0 -148 24 -148 61c0 28 9 58 17 67c0 0 45 -13 123 -13c62 0 80 18 80 56v69c-28 -39 -60 -59 -119 -59c-89 0 -146 41 -146 161v323c0 16 10 28 79 28c68 0 77 -12 77 -28v-300
c0 -40 13 -57 43 -57c22 0 44 13 66 41v316z" />
    <glyph glyph-name="yacute.alt" horiz-adv-x="512" 
d="M234 667c8 19 26 34 63 34c70 0 83 -13 83 -13l-55 -110c-11 -20 -26 -28 -57 -28c-40 0 -61 5 -78 15zM309 472c0 16 10 28 79 28c68 0 77 -12 77 -28v-466c0 -135 -64 -199 -228 -199c-117 0 -148 24 -148 61c0 28 9 58 17 67c0 0 45 -13 123 -13c62 0 80 18 80 56v69
c-28 -39 -60 -59 -119 -59c-89 0 -146 41 -146 161v323c0 16 10 28 79 28c68 0 77 -12 77 -28v-300c0 -40 13 -57 43 -57c22 0 44 13 66 41v316z" />
    <glyph glyph-name="ycircumflex.alt" horiz-adv-x="512" 
d="M196 695c0 0 32 6 65 6c39 0 58 -6 71 -24l59 -79c7 -9 10 -17 10 -24c0 -13 -8 -24 -53 -24h-58l-34 83l-28 -65c-6 -14 -19 -21 -55 -21c-32 0 -54 9 -66 21zM309 472c0 16 10 28 79 28c68 0 77 -12 77 -28v-466c0 -135 -64 -199 -228 -199c-117 0 -148 24 -148 61
c0 28 9 58 17 67c0 0 45 -13 123 -13c62 0 80 18 80 56v69c-28 -39 -60 -59 -119 -59c-89 0 -146 41 -146 161v323c0 16 10 28 79 28c68 0 77 -12 77 -28v-300c0 -40 13 -57 43 -57c22 0 44 13 66 41v316z" />
    <glyph glyph-name="ydieresis.alt" horiz-adv-x="512" 
d="M151 702c42 0 76 -34 76 -76c0 -41 -34 -75 -76 -75c-41 0 -75 34 -75 75c0 42 34 76 75 76zM360 702c42 0 76 -34 76 -76c0 -41 -34 -75 -76 -75c-41 0 -75 34 -75 75c0 42 34 76 75 76zM309 472c0 16 10 28 79 28c68 0 77 -12 77 -28v-466c0 -135 -64 -199 -228 -199
c-117 0 -148 24 -148 61c0 28 9 58 17 67c0 0 45 -13 123 -13c62 0 80 18 80 56v69c-28 -39 -60 -59 -119 -59c-89 0 -146 41 -146 161v323c0 16 10 28 79 28c68 0 77 -12 77 -28v-300c0 -40 13 -57 43 -57c22 0 44 13 66 41v316z" />
    <glyph glyph-name="ygrave.alt" horiz-adv-x="512" 
d="M309 472c0 16 10 28 79 28c68 0 77 -12 77 -28v-466c0 -135 -64 -199 -228 -199c-117 0 -148 24 -148 61c0 28 9 58 17 67c0 0 45 -13 123 -13c62 0 80 18 80 56v69c-28 -39 -60 -59 -119 -59c-89 0 -146 41 -146 161v323c0 16 10 28 79 28c68 0 77 -12 77 -28v-300
c0 -40 13 -57 43 -57c22 0 44 13 66 41v316zM129 688c0 0 13 13 83 13c37 0 55 -15 63 -34l44 -102c-17 -10 -38 -15 -78 -15c-31 0 -46 8 -57 28z" />
    <glyph glyph-name="Delta" unicode="&#x394;" horiz-adv-x="599" 
d="M527 0h-437c-36 0 -59 9 -69 20l188 614s37 17 92 17c70 0 90 -12 100 -43l164 -524c8 -27 10 -37 10 -48c0 -24 -14 -36 -48 -36zM203 108h183l-91 354z" />
    <glyph glyph-name="Omega" unicode="&#x3a9;" horiz-adv-x="621" 
d="M275 230v-230h-191c-34 0 -47 14 -47 71c0 17 4 46 8 60h102v39c-75 42 -112 119 -112 221c0 160 91 266 274 266s277 -106 277 -266c0 -100 -37 -175 -110 -218v-42h102c4 -14 8 -43 8 -60c0 -57 -13 -71 -47 -71h-191v230c36 20 59 57 59 141c0 109 -35 144 -96 144
s-97 -35 -97 -144c0 -85 24 -121 61 -141z" />
    <glyph glyph-name="mu" unicode="&#x3bc;" horiz-adv-x="501" 
d="M184 -110c0 -16 -9 -28 -68 -28s-67 12 -67 28v490c0 53 -10 99 -10 99c20 14 48 21 85 21c64 0 81 -13 81 -90v-238c0 -40 17 -60 47 -60c21 0 39 10 54 23v337c0 16 10 28 79 28c68 0 77 -12 77 -28v-444c0 -16 -9 -28 -77 -28c-69 0 -79 12 -79 28v14
c-27 -31 -58 -54 -117 -54h-5v-98z" />
    <glyph glyph-name="pi" unicode="&#x3c0;" horiz-adv-x="586" 
d="M81 28v353h-50c-3 13 -7 39 -7 55c0 52 12 64 43 64h488c4 -12 7 -39 7 -55c0 -51 -12 -64 -43 -64h-17v-246c0 -53 16 -112 16 -112c-21 -16 -46 -23 -87 -23c-65 0 -85 23 -85 93v288h-109v-353c0 -16 -10 -28 -79 -28c-68 0 -77 12 -77 28z" />
    <glyph glyph-name="zero" unicode="0" horiz-adv-x="591" 
d="M290 657c182 0 269 -128 269 -328c0 -212 -87 -335 -270 -335c-170 0 -257 127 -257 333c0 199 86 330 258 330zM395 324c0 151 -31 201 -92 201c-63 0 -91 -50 -91 -201c0 -144 28 -198 91 -198c61 0 92 55 92 198z" />
    <glyph glyph-name="one" unicode="1" horiz-adv-x="466" 
d="M446 126c4 -14 8 -41 8 -57c0 -56 -12 -69 -46 -69h-364c-4 14 -8 41 -8 57c0 56 12 69 46 69h88v391s-71 -3 -95 -3c-42 0 -49 22 -49 76c0 17 4 46 9 61c51 0 170 6 232 6c61 0 74 -13 74 -34v-497h105z" />
    <glyph glyph-name="two" unicode="2" horiz-adv-x="485" 
d="M48 651c26 0 102 6 164 6c172 0 234 -87 234 -188c0 -180 -231 -276 -231 -328c0 -4 0 -6 1 -10h229c7 -15 12 -39 12 -61c0 -48 -22 -70 -61 -70h-352c-10 20 -16 46 -16 75c0 211 239 246 239 372c0 45 -20 69 -74 69c-18 0 -84 -2 -105 -2c-42 0 -49 22 -49 76
c0 17 4 46 9 61z" />
    <glyph glyph-name="three" unicode="3" horiz-adv-x="481" 
d="M41 651h328c50 0 68 -18 68 -79c0 -57 -21 -98 -60 -141l-72 -82c3 1 8 1 11 1c81 0 138 -59 138 -151c0 -126 -67 -205 -251 -205c-145 0 -172 24 -172 67c0 33 10 69 21 80c0 0 61 -15 144 -15c63 0 83 26 83 71c0 51 -36 74 -100 74c-11 0 -31 -1 -45 -1
c-22 0 -33 13 -33 41v22l118 129c29 32 32 37 32 53h-170c-36 0 -49 14 -49 75c0 17 4 46 9 61z" />
    <glyph glyph-name="four" unicode="4" horiz-adv-x="545" 
d="M279 251v240l-121 -240h121zM523 251c4 -13 8 -38 8 -52c0 -52 -11 -64 -42 -64h-46v-107c0 -16 -10 -28 -82 -28s-82 12 -82 28v107h-247s-21 14 -21 54c0 31 8 56 28 93l197 369s32 2 93 2c92 0 114 -15 114 -46v-356h80z" />
    <glyph glyph-name="five" unicode="5" horiz-adv-x="478" 
d="M71 651h355c5 -15 9 -44 9 -61c0 -61 -13 -75 -49 -75h-177l-4 -121h15c160 0 229 -65 229 -190c0 -126 -67 -210 -251 -210c-145 0 -173 24 -173 67c0 33 10 69 21 80c0 0 62 -15 145 -15c63 0 82 28 82 71c0 51 -37 74 -101 74h-117z" />
    <glyph glyph-name="six" unicode="6" horiz-adv-x="527" 
d="M33 305c0 210 79 352 287 352c62 0 112 -6 138 -6c5 -15 9 -44 9 -61c0 -54 -7 -76 -49 -76c-21 0 -64 2 -82 2c-78 0 -118 -23 -128 -140c25 10 54 16 87 16c123 0 209 -52 209 -187c0 -132 -88 -211 -231 -211c-153 0 -240 84 -240 311zM268 284c-26 0 -47 -6 -62 -14
c3 -135 28 -152 67 -152c46 0 65 31 65 82c0 52 -19 84 -70 84z" />
    <glyph glyph-name="seven" unicode="7" horiz-adv-x="459" 
d="M26 651h372c38 0 52 -10 52 -60c0 -28 -7 -56 -50 -156l-169 -396c-13 -31 -30 -44 -73 -44c-36 0 -78 10 -95 25l182 440c10 24 15 38 15 55h-194c-36 0 -49 14 -49 75c0 17 4 46 9 61z" />
    <glyph glyph-name="eight" unicode="8" horiz-adv-x="546" 
d="M502 486c0 -67 -34 -118 -82 -146c54 -29 97 -73 97 -155c0 -103 -82 -191 -249 -191c-163 0 -237 88 -237 191c0 72 37 127 87 155c-42 30 -73 72 -73 140c0 100 65 177 222 177s235 -69 235 -171zM199 189c0 -35 25 -63 68 -63c47 0 67 30 67 63c0 41 -36 64 -83 85
c-20 -12 -52 -39 -52 -85zM345 466c0 31 -24 59 -67 59c-44 0 -63 -28 -63 -56c0 -41 37 -61 85 -80c21 14 45 37 45 77z" />
    <glyph glyph-name="nine" unicode="9" horiz-adv-x="527" 
d="M23 446c0 132 87 211 230 211c153 0 241 -84 241 -311c0 -243 -109 -352 -278 -352c-62 0 -121 6 -147 6c-5 15 -9 44 -9 61c0 54 7 76 49 76c21 0 65 -2 83 -2c82 0 116 24 126 140c-25 -10 -54 -16 -86 -16c-131 0 -209 61 -209 187zM259 367c26 0 46 6 62 14
c-3 133 -27 152 -67 152c-46 0 -65 -31 -65 -82c0 -52 19 -84 70 -84z" />
    <glyph glyph-name="fraction" unicode="&#x2044;" horiz-adv-x="392" 
d="M271 687c10 28 26 37 45 37c30 0 63 -18 80 -38l-275 -749c-10 -28 -26 -37 -45 -37c-30 0 -63 18 -80 38z" />
    <glyph glyph-name="onehalf" unicode="&#xbd;" horiz-adv-x="955" 
d="M540 687c10 28 26 37 45 37c30 0 63 -18 80 -38l-275 -749c-10 -28 -26 -37 -45 -37c-30 0 -63 18 -80 38zM34 651c41 0 128 5 178 5c49 0 59 -10 59 -28v-314h76c3 -11 6 -33 6 -46c0 -44 -9 -55 -36 -55h-274c-3 11 -6 33 -6 46c0 44 10 55 37 55h60v230s-49 -2 -68 -2
c-34 0 -39 18 -39 61c0 13 3 37 7 48zM626 436c21 0 80 8 124 8c117 0 171 -51 171 -145c0 -135 -151 -143 -151 -189c0 -4 1 -7 2 -9h149c5 -12 9 -30 9 -47c0 -37 -17 -54 -47 -54h-258c-8 16 -15 40 -15 63c0 153 174 141 174 224c0 32 -10 45 -51 45
c-15 0 -55 -3 -74 -3c-34 0 -40 17 -40 61c0 14 3 34 7 46z" />
    <glyph glyph-name="onethird" unicode="&#x2153;" horiz-adv-x="971" 
d="M541 687c10 28 26 37 45 37c30 0 63 -18 80 -38l-275 -749c-10 -28 -26 -37 -45 -37c-30 0 -63 18 -80 38zM35 651c41 0 128 5 178 5c49 0 59 -10 59 -28v-314h76c3 -11 6 -33 6 -46c0 -44 -9 -55 -36 -55h-274c-3 11 -6 33 -6 46c0 44 10 55 37 55h60v230s-49 -2 -68 -2
c-34 0 -39 18 -39 61c0 13 3 37 7 48zM629 438h252c38 0 52 -12 52 -53c0 -39 -16 -67 -46 -96l-56 -55c3 1 6 1 9 1c62 0 106 -38 106 -105c0 -82 -52 -136 -193 -136c-110 0 -134 19 -134 54c0 26 10 56 20 64c0 0 41 -12 102 -12c46 0 63 16 63 41c0 28 -17 40 -56 40
c-17 0 -38 -1 -50 -1c-17 0 -24 9 -24 28v15l76 72c23 21 25 25 25 36h-107c-35 0 -48 11 -48 59c0 14 4 36 9 48z" />
    <glyph glyph-name="onequarter" unicode="&#xbc;" horiz-adv-x="996" 
d="M545 687c10 28 26 37 45 37c30 0 63 -18 80 -38l-275 -749c-10 -28 -26 -37 -45 -37c-30 0 -63 18 -80 38zM48 213c-3 11 -6 33 -6 46c0 44 10 55 37 55h60v230s-49 -2 -68 -2c-34 0 -39 18 -39 61c0 13 3 37 7 48c41 0 128 5 178 5c49 0 59 -10 59 -28v-314h76
c3 -11 6 -33 6 -46c0 -44 -9 -55 -36 -55h-274zM760 191v140l-70 -140h70zM897 90v-65c0 -14 -9 -25 -69 -25s-68 11 -68 25v65h-191c-7 6 -14 18 -14 37c0 21 5 36 19 62l133 250h113c62 0 77 -9 77 -30v-218h68c5 -12 9 -30 9 -47c0 -37 -18 -54 -47 -54h-30z" />
    <glyph glyph-name="threequarters" unicode="&#xbe;" horiz-adv-x="993" 
d="M561 687c10 28 26 37 45 37c30 0 63 -18 80 -38l-275 -749c-10 -28 -26 -37 -45 -37c-30 0 -63 18 -80 38zM41 651h252c38 0 52 -12 52 -53c0 -39 -16 -67 -46 -96l-56 -55c3 1 6 1 9 1c62 0 106 -38 106 -105c0 -82 -52 -136 -193 -136c-110 0 -134 19 -134 54
c0 26 10 56 20 64c0 0 41 -12 102 -12c46 0 63 16 63 41c0 28 -17 40 -56 40c-17 0 -38 -1 -50 -1c-17 0 -24 9 -24 28v15l76 72c23 21 25 25 25 36h-107c-35 0 -48 11 -48 59c0 14 4 36 9 48zM934 90h-40v-65c0 -14 -9 -25 -69 -25s-68 11 -68 25v65h-191s-14 11 -14 37
c0 21 5 36 19 62l133 250h113c62 0 77 -9 77 -30v-218h70s7 -22 7 -46c0 -44 -10 -55 -37 -55zM757 191v140l-70 -140h70z" />
    <glyph glyph-name="zerosuperior" unicode="&#x2070;" horiz-adv-x="441" 
d="M268 432c0 85 -16 112 -49 112s-50 -26 -50 -111c0 -87 17 -116 50 -116s49 28 49 115zM38 433c0 134 56 224 181 224s184 -90 184 -224c0 -135 -59 -226 -184 -226s-181 91 -181 226z" />
    <glyph glyph-name="onesuperior" unicode="&#xb9;" horiz-adv-x="380" 
d="M50 213c-3 11 -6 33 -6 46c0 44 10 55 37 55h60v230s-49 -2 -68 -2c-34 0 -39 18 -39 61c0 13 3 37 7 48c41 0 128 5 178 5c49 0 59 -10 59 -28v-314h76c3 -11 6 -33 6 -46c0 -44 -9 -55 -36 -55h-274z" />
    <glyph glyph-name="twosuperior" unicode="&#xb2;" horiz-adv-x="393" 
d="M50 649c21 0 80 8 124 8c117 0 171 -51 171 -145c0 -135 -151 -143 -151 -189c0 -4 1 -7 2 -9h149c5 -12 9 -30 9 -47c0 -37 -17 -54 -47 -54h-258c-8 16 -15 40 -15 63c0 153 174 141 174 224c0 32 -10 45 -51 45c-15 0 -55 -3 -74 -3c-34 0 -40 17 -40 61
c0 14 3 34 7 46z" />
    <glyph glyph-name="threesuperior" unicode="&#xb3;" horiz-adv-x="401" 
d="M45 651h252c38 0 52 -12 52 -53c0 -39 -16 -67 -46 -96l-56 -55c3 1 6 1 9 1c62 0 106 -38 106 -105c0 -82 -52 -136 -193 -136c-110 0 -134 19 -134 54c0 26 10 56 20 64c0 0 41 -12 102 -12c46 0 63 16 63 41c0 28 -17 40 -56 40c-17 0 -38 -1 -50 -1
c-17 0 -24 9 -24 28v15l76 72c23 21 25 25 25 36h-107c-35 0 -48 11 -48 59c0 14 4 36 9 48z" />
    <glyph glyph-name="ordfeminine" unicode="&#xaa;" horiz-adv-x="422" 
d="M249 233v12c-22 -27 -53 -47 -102 -47c-75 0 -121 48 -121 123c0 74 46 125 148 125c23 0 47 -3 75 -9v65c0 33 -15 43 -48 43c-45 0 -71 -4 -93 -4c-43 0 -50 17 -50 58c0 14 4 38 10 50c26 0 105 8 150 8c122 0 168 -40 168 -145v-279c0 -14 -9 -24 -70 -24
c-60 0 -67 10 -67 24zM249 372c-12 2 -28 5 -43 5c-36 0 -50 -17 -50 -45c0 -23 15 -40 41 -40c23 0 40 10 52 21v59z" />
    <glyph glyph-name="ordmasculine" unicode="&#xba;" horiz-adv-x="431" 
d="M269 432c0 85 -22 112 -55 112s-56 -26 -56 -111c0 -87 23 -116 56 -116s55 28 55 115zM404 433c0 -135 -65 -226 -190 -226s-187 91 -187 226c0 134 62 224 187 224s190 -90 190 -224z" />
    <glyph glyph-name="asterisk" unicode="*" horiz-adv-x="413" 
d="M157 511c12 0 32 -14 43 -27c-11 -43 -19 -69 -27 -90c-7 -18 -17 -24 -28 -24c-27 0 -73 31 -79 69c54 53 75 72 91 72zM74 645c75 -42 94 -58 94 -76c0 -13 -8 -32 -13 -41c-14 -2 -26 -2 -67 -2s-61 10 -61 35s15 76 47 84zM256 517c53 -29 93 -61 93 -79
c0 -27 -49 -65 -80 -65h-12c-28 57 -39 86 -39 102c0 17 20 33 38 42zM206 724c32 0 50 -12 57 -22c-10 -52 -16 -73 -23 -97c-4 -13 -14 -19 -34 -19c-12 0 -21 1 -27 2c-10 21 -31 76 -31 109c0 13 15 27 58 27zM342 644c26 0 43 -52 43 -80c0 -15 -3 -22 -8 -30
c-38 -5 -65 -8 -83 -8c-40 0 -47 19 -52 53c28 25 76 65 100 65z" />
    <glyph glyph-name="backslash" unicode="\" horiz-adv-x="438" 
d="M339 -100c-19 0 -35 9 -45 37l-275 749c17 20 50 38 80 38c19 0 35 -9 45 -37l275 -749c-17 -20 -50 -38 -80 -38z" />
    <glyph glyph-name="bullet" unicode="&#x2022;" horiz-adv-x="349" 
d="M296 323c0 -68 -55 -121 -122 -121c-68 0 -121 53 -121 121c0 67 53 122 121 122c67 0 122 -55 122 -122z" />
    <glyph glyph-name="colon" unicode=":" horiz-adv-x="257" 
d="M128 165c48 0 86 -38 86 -86c0 -47 -38 -85 -86 -85c-47 0 -85 38 -85 85c0 48 38 86 85 86zM128 509c48 0 86 -38 86 -86c0 -47 -38 -85 -86 -85c-47 0 -85 38 -85 85c0 48 38 86 85 86z" />
    <glyph glyph-name="comma" unicode="," horiz-adv-x="234" 
d="M20 -129l54 135c-25 16 -43 41 -43 74c0 48 37 85 85 85c47 0 85 -37 85 -85c0 -47 -31 -113 -83 -211c-10 -18 -21 -26 -38 -26c-21 0 -50 14 -60 28z" />
    <glyph glyph-name="ellipsis" unicode="&#x2026;" horiz-adv-x="766" 
d="M202 79c0 -47 -38 -85 -86 -85c-47 0 -85 38 -85 85c0 48 38 86 85 86c48 0 86 -38 86 -86zM468 79c0 -47 -38 -85 -86 -85c-47 0 -85 38 -85 85c0 48 38 86 85 86c48 0 86 -38 86 -86zM735 79c0 -47 -38 -85 -86 -85s-86 38 -86 85c0 48 38 86 86 86s86 -38 86 -86z" />
    <glyph glyph-name="exclam" unicode="!" horiz-adv-x="258" 
d="M217 618l-23 -398h-76c-44 0 -58 13 -60 55l-16 362c18 13 45 20 86 20c67 0 89 -17 89 -39zM43 66c0 47 27 80 85 80c61 0 86 -33 86 -80c0 -45 -25 -78 -86 -78c-58 0 -85 33 -85 78z" />
    <glyph glyph-name="exclamdown" unicode="&#xa1;" horiz-adv-x="250" 
d="M37 -115l23 398h76c44 0 58 -13 60 -55l16 -362c-18 -13 -45 -20 -86 -20c-67 0 -89 17 -89 39zM211 437c0 -47 -27 -80 -85 -80c-61 0 -86 33 -86 80c0 45 25 78 86 78c58 0 85 -33 85 -78z" />
    <glyph glyph-name="numbersign" unicode="#" horiz-adv-x="580" 
d="M474 159h-64l-18 -117c-5 -32 -23 -42 -44 -42c-25 0 -48 12 -60 26l20 133h-93l-18 -117c-5 -32 -23 -42 -44 -42c-25 0 -48 12 -60 26l20 133h-79c-4 14 -8 38 -8 53c0 54 11 66 44 66h62l18 116h-79c-4 14 -8 38 -8 53c0 54 11 66 44 66h61l15 96c5 32 23 42 44 42
c25 0 48 -12 60 -26l-17 -112h93l15 96c5 32 23 42 44 42c25 0 48 -12 60 -26l-17 -112h82c4 -13 8 -39 8 -54c0 -52 -11 -65 -44 -65h-65l-18 -116h82c4 -13 8 -39 8 -54c0 -52 -11 -65 -44 -65zM251 394l-18 -116h94l18 116h-94z" />
    <glyph glyph-name="period" unicode="." horiz-adv-x="233" 
d="M31 79c0 48 38 86 85 86c48 0 86 -38 86 -86c0 -47 -38 -85 -86 -85c-47 0 -85 38 -85 85z" />
    <glyph glyph-name="periodcentered" unicode="&#xb7;" horiz-adv-x="270" 
d="M238 323c0 -61 -46 -101 -103 -101s-103 40 -103 101s46 102 103 102s103 -41 103 -102z" />
    <glyph glyph-name="question" unicode="?" horiz-adv-x="456" 
d="M274 66c0 -45 -25 -78 -86 -78c-58 0 -85 33 -85 78c0 47 27 80 85 80c61 0 86 -33 86 -80zM173 192c-41 0 -54 21 -54 51c0 101 134 103 134 204c0 45 -20 69 -74 69c-18 0 -84 -2 -105 -2c-42 0 -49 22 -49 76c0 17 4 46 9 61c26 0 102 6 164 6c155 0 234 -74 234 -184
c0 -182 -180 -168 -180 -281h-79z" />
    <glyph glyph-name="questiondown" unicode="&#xbf;" horiz-adv-x="452" 
d="M180 437c0 45 25 78 86 78c58 0 85 -33 85 -78c0 -47 -27 -80 -85 -80c-61 0 -86 33 -86 80zM22 30c0 182 180 168 180 281h79c41 0 54 -21 54 -51c0 -101 -134 -103 -134 -204c0 -45 20 -69 74 -69c18 0 84 2 105 2c34 0 49 -12 49 -72c0 -20 -4 -50 -9 -65
c-26 0 -102 -6 -164 -6c-155 0 -234 74 -234 184z" />
    <glyph glyph-name="quotedbl" unicode="&#x22;" horiz-adv-x="464" 
d="M119 428c-42 0 -66 17 -73 61c-8 50 -13 95 -13 187c19 9 55 16 84 16c71 0 86 -16 86 -46c0 -105 -23 -179 -34 -213c0 0 -9 -5 -50 -5zM348 428c-42 0 -66 17 -73 61c-8 50 -13 95 -13 187c19 9 55 16 84 16c72 0 87 -16 87 -46c0 -105 -24 -179 -35 -213
c0 0 -9 -5 -50 -5z" />
    <glyph glyph-name="quotesingle" unicode="'" horiz-adv-x="235" 
d="M46 489c-8 50 -13 95 -13 187c19 9 55 16 84 16c71 0 86 -16 86 -46c0 -105 -23 -179 -34 -213c0 0 -9 -5 -50 -5c-42 0 -66 17 -73 61z" />
    <glyph glyph-name="semicolon" unicode=";" horiz-adv-x="257" 
d="M128 509c48 0 86 -38 86 -86c0 -47 -38 -85 -86 -85c-47 0 -85 38 -85 85c0 48 38 86 85 86zM32 -129c10 -14 39 -28 60 -28c17 0 28 8 38 26c52 98 83 164 83 211c0 48 -38 85 -85 85c-48 0 -85 -37 -85 -85c0 -33 18 -58 43 -74z" />
    <glyph glyph-name="slash" unicode="/" horiz-adv-x="438" 
d="M294 687c10 28 26 37 45 37c30 0 63 -18 80 -38l-275 -749c-10 -28 -26 -37 -45 -37c-30 0 -63 18 -80 38z" />
    <glyph glyph-name="underscore" unicode="_" horiz-adv-x="509" 
d="M51 -162c-3 12 -7 34 -7 47c0 48 10 58 39 58h375c3 -11 7 -34 7 -48c0 -46 -10 -57 -39 -57h-375z" />
    <glyph glyph-name="braceleft" unicode="{" horiz-adv-x="343" 
d="M190 719h124c4 -12 7 -38 7 -54c0 -54 -10 -65 -42 -65h-5c-35 0 -45 -7 -45 -31c0 -27 19 -122 19 -166c0 -47 -19 -81 -65 -100c46 -19 65 -53 65 -99c0 -44 -19 -139 -19 -166c0 -24 10 -31 45 -31h40c4 -12 7 -38 7 -54c0 -54 -10 -65 -42 -65h-89
c-83 0 -115 43 -115 102s20 166 20 208c0 38 -15 55 -43 55h-17c-12 0 -17 9 -17 51c0 36 6 50 6 50h20c43 0 51 20 51 55c0 42 -20 149 -20 208s32 102 115 102z" />
    <glyph glyph-name="braceright" unicode="}" horiz-adv-x="343" 
d="M64 719h89c83 0 115 -43 115 -102s-20 -166 -20 -208c0 -38 15 -55 43 -55h17c12 0 17 -9 17 -51c0 -36 -6 -50 -6 -50h-20c-43 0 -51 -20 -51 -55c0 -42 20 -149 20 -208s-32 -102 -115 -102h-124c-4 12 -7 38 -7 54c0 54 10 65 42 65h5c35 0 45 7 45 31
c0 27 -19 122 -19 166c0 47 19 81 65 100c-46 19 -65 53 -65 99c0 44 19 139 19 166c0 24 -10 31 -45 31h-40c-4 12 -7 38 -7 54c0 54 10 65 42 65z" />
    <glyph glyph-name="bracketleft" unicode="[" horiz-adv-x="333" 
d="M305 719c5 -13 8 -38 8 -53c0 -54 -11 -66 -43 -66h-62v-593h97c5 -13 8 -38 8 -53c0 -54 -11 -66 -43 -66h-181c-29 0 -38 10 -38 39v753c0 29 9 39 38 39h216z" />
    <glyph glyph-name="bracketright" unicode="]" horiz-adv-x="333" 
d="M28 -112c-5 13 -8 38 -8 53c0 54 11 66 43 66h62v593h-97c-5 13 -8 38 -8 53c0 54 11 66 43 66h181c29 0 38 -10 38 -39v-753c0 -29 -9 -39 -38 -39h-216z" />
    <glyph glyph-name="parenleft" unicode="(" horiz-adv-x="304" 
d="M284 657c0 0 -93 -123 -93 -348s93 -348 93 -348s-19 -61 -73 -61c-73 0 -185 181 -185 409s112 409 185 409c54 0 73 -61 73 -61z" />
    <glyph glyph-name="parenright" unicode=")" horiz-adv-x="304" 
d="M93 718c73 0 185 -181 185 -409s-112 -409 -185 -409c-54 0 -73 61 -73 61s93 123 93 348s-93 348 -93 348s19 61 73 61z" />
    <glyph glyph-name="emdash" unicode="&#x2014;" horiz-adv-x="683" 
d="M64 245c-10 11 -18 30 -18 51c0 37 9 58 35 58h538c10 -11 18 -31 18 -52c0 -36 -9 -57 -35 -57h-538z" />
    <glyph glyph-name="endash" unicode="&#x2013;" horiz-adv-x="467" 
d="M64 245c-10 11 -18 30 -18 51c0 37 9 58 35 58h323c10 -11 18 -31 18 -52c0 -36 -9 -57 -35 -57h-323z" />
    <glyph glyph-name="hyphen" unicode="-" horiz-adv-x="380" 
d="M326 369c5 -15 10 -45 10 -63c0 -61 -14 -76 -51 -76h-232c-4 16 -9 45 -9 61c0 64 13 78 51 78h231z" />
    <glyph glyph-name="guillemotleft" unicode="&#xab;" horiz-adv-x="518" 
d="M351 388c13 18 32 31 75 31s58 -12 65 -31l-122 -179s87 -125 107 -155c10 -16 15 -25 15 -36c0 -8 -5 -18 -29 -18h-88l-100 141c-11 16 -20 34 -20 73c0 23 3 32 5 44zM126 388c13 18 32 31 75 31s58 -12 65 -31l-122 -179s87 -125 107 -155c10 -16 15 -25 15 -36
c0 -8 -5 -18 -29 -18h-88l-100 141c-11 16 -20 34 -20 73c0 23 3 32 5 44z" />
    <glyph glyph-name="guillemotright" unicode="&#xbb;" horiz-adv-x="520" 
d="M283 419h88l100 -141c11 -16 20 -34 20 -73c0 -23 -3 -32 -5 -44l-92 -130c-13 -18 -32 -31 -75 -31s-58 12 -65 31l122 179s-87 125 -107 155c-10 16 -15 25 -15 36c0 8 5 18 29 18zM58 419h88l100 -141c11 -16 20 -34 20 -73c0 -23 -3 -32 -5 -44l-92 -130
c-13 -18 -32 -31 -75 -31s-58 12 -65 31l122 179s-87 125 -107 155c-10 16 -15 25 -15 36c0 8 5 18 29 18z" />
    <glyph glyph-name="guilsinglleft" unicode="&#x2039;" horiz-adv-x="293" 
d="M126 388c13 18 32 31 75 31s58 -12 65 -31l-122 -179l107 -156c15 -22 15 -25 15 -35c0 -8 -5 -18 -29 -18h-88l-100 141c-11 16 -20 34 -20 73c0 23 3 32 5 44z" />
    <glyph glyph-name="guilsinglright" unicode="&#x203a;" horiz-adv-x="295" 
d="M58 419h88l100 -141c11 -16 20 -34 20 -73c0 -23 -3 -32 -5 -44l-92 -130c-13 -18 -32 -31 -75 -31s-58 12 -65 31l122 179s-87 125 -107 155c-10 16 -15 25 -15 36c0 8 5 18 29 18z" />
    <glyph glyph-name="quotedblbase" unicode="&#x201e;" horiz-adv-x="502" 
d="M330 -140c-21 0 -34 8 -38 18c0 0 28 83 39 140c-38 10 -58 32 -58 82c0 42 32 89 99 89c65 0 98 -47 98 -95c0 -39 -19 -94 -47 -151c-32 -65 -55 -83 -93 -83zM87 -140c-21 0 -34 8 -38 18c0 0 28 83 39 140c-38 10 -58 32 -58 82c0 42 32 89 99 89c65 0 98 -47 98 -95
c0 -39 -19 -94 -47 -151c-32 -65 -55 -83 -93 -83z" />
    <glyph glyph-name="quotedblleft" unicode="&#x201c;" horiz-adv-x="493" 
d="M167 704c21 0 34 -8 38 -18c0 0 -28 -83 -39 -140c38 -10 58 -31 58 -82c0 -42 -32 -89 -99 -89c-65 0 -98 47 -98 95c0 39 19 94 47 151c32 65 55 83 93 83zM410 704c21 0 34 -8 38 -18c0 0 -28 -83 -39 -140c38 -10 58 -31 58 -82c0 -42 -32 -89 -99 -89
c-65 0 -98 47 -98 95c0 39 19 94 47 151c32 65 55 83 93 83z" />
    <glyph glyph-name="quotedblright" unicode="&#x201d;" horiz-adv-x="493" 
d="M274 613c0 42 32 89 99 89c65 0 98 -47 98 -95c0 -39 -19 -94 -47 -151c-32 -65 -55 -83 -93 -83c-21 0 -34 8 -38 18c0 0 28 83 39 140c-38 10 -58 32 -58 82zM31 613c0 42 32 89 99 89c65 0 98 -47 98 -95c0 -39 -19 -94 -47 -151c-32 -65 -55 -83 -93 -83
c-21 0 -34 8 -38 18c0 0 28 83 39 140c-38 10 -58 32 -58 82z" />
    <glyph glyph-name="quoteleft" unicode="&#x2018;" horiz-adv-x="250" 
d="M167 704c21 0 34 -8 38 -18c0 0 -28 -83 -39 -140c38 -10 58 -31 58 -82c0 -42 -32 -89 -99 -89c-65 0 -98 47 -98 95c0 39 19 94 47 151c32 65 55 83 93 83z" />
    <glyph glyph-name="quoteright" unicode="&#x2019;" horiz-adv-x="250" 
d="M88 373c-21 0 -34 8 -38 18c0 0 28 83 39 140c-38 10 -58 32 -58 82c0 42 32 89 99 89c65 0 98 -47 98 -95c0 -39 -19 -94 -47 -151c-32 -65 -55 -83 -93 -83z" />
    <glyph glyph-name="quotesinglbase" unicode="&#x201a;" horiz-adv-x="259" 
d="M87 -140c-21 0 -34 8 -38 18c0 0 28 83 39 140c-38 10 -58 32 -58 82c0 42 32 89 99 89c65 0 98 -47 98 -95c0 -39 -19 -94 -47 -151c-32 -65 -55 -83 -93 -83z" />
    <glyph glyph-name="florin" unicode="&#x192;" horiz-adv-x="456" 
d="M75 325c-3 11 -6 32 -6 45c0 42 10 52 35 52h42v84c0 92 50 151 166 151c45 0 84 -9 119 -9c6 -15 11 -39 11 -61c0 -29 -10 -57 -52 -57c-18 0 -27 3 -47 3c-29 0 -41 -15 -41 -43v-68h115c3 -10 6 -32 6 -45c0 -41 -10 -52 -35 -52h-86v-244c0 -92 -50 -151 -166 -151
c-85 0 -112 24 -112 70s19 67 19 67s30 -11 64 -11c29 0 39 13 39 38v231h-71z" />
    <glyph glyph-name="Euro" unicode="&#x20ac;" horiz-adv-x="555" 
d="M422 404c0 -32 -7 -51 -31 -51h-125v-30v-31h140c9 -10 16 -28 16 -46c0 -32 -7 -51 -31 -51h-109c19 -51 53 -69 107 -69c57 0 114 15 114 15c11 -11 21 -47 21 -80c0 -43 -43 -67 -164 -67c-147 0 -231 69 -261 201h-57c-9 10 -16 28 -16 47c0 31 7 50 31 50h29v35v26
h-44c-9 10 -16 28 -16 47c0 31 7 50 31 50h42c37 150 146 207 275 207c62 0 112 -6 138 -6c5 -15 9 -44 9 -61c0 -54 -7 -76 -49 -76c-21 0 -64 2 -82 2c-55 0 -90 -16 -108 -66h124c9 -10 16 -28 16 -46z" />
    <glyph glyph-name="cent" unicode="&#xa2;" horiz-adv-x="411" 
d="M24 290c0 139 81 219 215 219c43 0 121 -9 131 -9c5 -11 9 -36 9 -50c0 -44 -6 -62 -43 -62c-18 0 -63 3 -77 3c-52 0 -82 -29 -82 -103c0 -69 35 -97 98 -97c47 0 82 12 82 12c10 -9 19 -41 19 -69c0 -39 -47 -60 -128 -60c-137 0 -224 71 -224 216zM173 43
c0 0 27 5 55 5c36 0 50 -6 50 -27v-106c-13 -6 -37 -11 -56 -11c-48 0 -59 10 -59 30zM163 668c13 6 37 11 56 11c48 0 59 -10 59 -30l-10 -109s-27 -5 -55 -5c-36 0 -50 6 -50 27v106z" />
    <glyph glyph-name="currency" unicode="&#xa4;" horiz-adv-x="555" 
d="M58 77l49 61c-35 37 -56 88 -56 153s21 117 56 153l-74 93c10 31 43 62 77 62c17 0 28 -5 42 -24l53 -74c21 5 43 8 66 8c28 0 55 -4 80 -12l74 102c60 0 92 -26 92 -57c0 -12 -6 -24 -16 -36l-58 -72c30 -36 48 -84 48 -143s-18 -108 -48 -143l83 -102
c-10 -31 -43 -62 -77 -62c-17 0 -28 5 -42 24l-57 78c-24 -8 -51 -12 -79 -12c-23 0 -45 2 -66 8l-71 -98c-60 0 -92 26 -92 57c0 12 6 24 16 36zM348 291c0 64 -34 94 -77 94s-77 -30 -77 -94c0 -63 34 -93 77 -93s77 30 77 93z" />
    <glyph glyph-name="dollar" unicode="$" horiz-adv-x="470" 
d="M178 712v106c13 6 37 11 56 11c48 0 59 -10 59 -30l-10 -109s-27 -5 -55 -5c-36 0 -50 6 -50 27zM293 -59v-106c-13 -6 -37 -11 -56 -11c-48 0 -59 10 -59 30l10 109s27 5 55 5c36 0 50 -6 50 -27zM201 133c50 0 67 17 67 51c0 93 -233 58 -233 274c0 125 67 199 239 199
c62 0 122 -6 148 -6c5 -15 9 -44 9 -61c0 -54 -7 -76 -49 -76c-21 0 -76 3 -94 3c-51 0 -70 -19 -70 -53c0 -94 230 -50 230 -265c0 -126 -67 -205 -237 -205c-145 0 -173 24 -173 67c0 33 10 72 21 83c0 0 59 -11 142 -11z" />
    <glyph glyph-name="sterling" unicode="&#xa3;" horiz-adv-x="502" 
d="M57 365h32c-6 39 -12 79 -12 114c0 104 65 178 225 178c62 0 129 -6 155 -6c5 -15 9 -44 9 -61c0 -54 -7 -76 -49 -76c-21 0 -73 2 -91 2c-53 0 -71 -24 -71 -75c0 -16 2 -45 4 -76h157c9 -10 16 -28 16 -46c0 -32 -7 -51 -31 -51h-136v-10c0 -70 -35 -100 -35 -121
c0 -4 1 -6 1 -6h226c4 -14 8 -42 8 -59c0 -59 -12 -72 -47 -72h-366s-12 25 -12 65c0 65 62 121 62 195v8h-60c-9 10 -16 28 -16 47c0 31 7 50 31 50z" />
    <glyph glyph-name="yen" unicode="&#xa5;" horiz-adv-x="569" 
d="M474 230h-95v-47h110c9 -10 16 -28 16 -46c0 -32 -7 -51 -31 -51h-95v-58c0 -16 -10 -28 -86 -28c-75 0 -85 12 -85 28v58h-123c-9 10 -16 28 -16 47c0 31 7 50 31 50h108v47h-123c-9 10 -16 28 -16 47c0 31 7 50 31 50h63l-140 302c33 18 77 24 112 24
c39 0 60 -13 75 -53l94 -247l103 298h87c34 0 48 -12 48 -36c0 -19 -6 -32 -20 -63l-102 -225h69c9 -10 16 -28 16 -46c0 -32 -7 -51 -31 -51z" />
    <glyph glyph-name="approxequal" unicode="&#x2248;" horiz-adv-x="447" 
d="M330 517h44c20 0 32 -12 32 -35c0 -99 -52 -148 -113 -148c-70 0 -103 80 -139 80c-23 0 -30 -26 -35 -73h-44c-20 0 -32 12 -32 35c0 99 52 148 113 148c70 0 103 -80 139 -80c23 0 30 26 35 73zM330 286h44c20 0 32 -12 32 -35c0 -99 -52 -148 -113 -148
c-70 0 -103 80 -139 80c-23 0 -30 -26 -35 -73h-44c-20 0 -32 12 -32 35c0 99 52 148 113 148c70 0 103 -80 139 -80c23 0 30 26 35 73z" />
    <glyph glyph-name="asciitilde" unicode="~" horiz-adv-x="443" 
d="M293 322c23 0 30 26 35 73h44c20 0 32 -12 32 -35c0 -99 -52 -148 -113 -148c-70 0 -103 80 -139 80c-23 0 -30 -26 -35 -73h-44c-20 0 -32 12 -32 35c0 99 52 148 113 148c70 0 103 -80 139 -80z" />
    <glyph glyph-name="divide" unicode="&#xf7;" horiz-adv-x="473" 
d="M236 195c48 0 86 -38 86 -86c0 -47 -38 -85 -86 -85c-47 0 -85 38 -85 85c0 48 38 86 85 86zM236 601c48 0 86 -38 86 -86c0 -47 -38 -85 -86 -85c-47 0 -85 38 -85 85c0 48 38 86 85 86zM33 253c-3 13 -7 39 -7 55c0 51 12 64 43 64h371c3 -13 7 -39 7 -55
c0 -51 -12 -64 -43 -64h-371z" />
    <glyph glyph-name="equal" unicode="=" horiz-adv-x="512" 
d="M467 419c0 -52 -11 -65 -44 -65h-369c-4 14 -8 38 -8 53c0 54 11 66 44 66h369c4 -13 8 -39 8 -54zM467 219c0 -52 -11 -65 -44 -65h-369c-4 14 -8 38 -8 53c0 54 11 66 44 66h369c4 -13 8 -39 8 -54z" />
    <glyph glyph-name="greater" unicode="&#x3e;" horiz-adv-x="437" 
d="M125 76c-11 -6 -20 -8 -33 -8c-35 0 -51 46 -54 98l248 120l-219 105c-19 9 -28 18 -28 48s22 60 43 76l287 -147c26 -13 44 -36 44 -79c0 -33 -6 -54 -13 -70z" />
    <glyph glyph-name="greaterequal" unicode="&#x2265;" horiz-adv-x="478" 
d="M387 484c26 -13 44 -36 44 -79c0 -33 -6 -54 -13 -70l-275 -143c-11 -6 -20 -8 -33 -8c-35 0 -51 46 -54 98l248 120l-219 105c-19 9 -28 18 -28 48s22 60 43 76zM35 24c-3 13 -7 39 -7 55c0 52 12 64 43 64h371c4 -12 7 -39 7 -55c0 -51 -12 -64 -43 -64h-371z" />
    <glyph glyph-name="infinity" unicode="&#x221e;" horiz-adv-x="978" 
d="M705 509c145 0 243 -84 243 -257c0 -158 -87 -264 -251 -264c-103 0 -167 64 -206 136c-43 -69 -105 -136 -211 -136c-149 0 -251 94 -251 264c0 167 110 257 246 257c117 0 179 -74 214 -137c33 59 97 137 216 137zM697 132c65 0 95 43 95 120c0 71 -30 113 -93 113
c-56 0 -96 -64 -126 -118c43 -73 75 -115 124 -115zM277 365c-53 0 -92 -35 -92 -113c0 -81 39 -120 94 -120c50 0 91 60 125 115c-34 55 -79 118 -127 118z" />
    <glyph glyph-name="integral" unicode="&#x222b;" horiz-adv-x="427" 
d="M127 506c0 92 50 151 166 151c45 0 84 -9 119 -9c6 -15 11 -39 11 -61c0 -29 -10 -57 -52 -57c-18 0 -27 3 -47 3c-29 0 -41 -15 -41 -43v-501c0 -92 -50 -151 -166 -151c-85 0 -112 24 -112 70s19 67 19 67s30 -11 64 -11c29 0 39 13 39 38v504z" />
    <glyph glyph-name="less" unicode="&#x3c;" horiz-adv-x="438" 
d="M370 192c19 -9 28 -18 28 -48s-22 -60 -43 -76l-287 147c-26 13 -44 36 -44 79c0 33 6 54 13 70l275 143c11 6 20 8 33 8c35 0 51 -46 54 -98l-248 -120z" />
    <glyph glyph-name="lessequal" unicode="&#x2264;" horiz-adv-x="481" 
d="M168 413l219 -105c19 -9 28 -18 28 -48s-22 -60 -43 -76l-287 147c-26 13 -44 36 -44 79c0 33 6 54 13 70l275 143c11 6 20 8 33 8c35 0 51 -46 54 -98zM40 24c-3 13 -7 39 -7 55c0 52 12 64 43 64h371c4 -12 7 -39 7 -55c0 -51 -12 -64 -43 -64h-371z" />
    <glyph glyph-name="logicalnot" unicode="&#xac;" horiz-adv-x="553" 
d="M41 251c-4 14 -8 38 -8 53c0 53 11 65 44 65h409c11 -12 20 -33 20 -57v-232c0 -12 -7 -21 -59 -21c-51 0 -58 9 -58 21v171h-348z" />
    <glyph glyph-name="minus" unicode="&#x2212;" horiz-adv-x="512" 
d="M53 253c-3 13 -7 39 -7 55c0 52 12 64 43 64h371c4 -12 7 -39 7 -55c0 -51 -12 -64 -43 -64h-371z" />
    <glyph glyph-name="multiply" unicode="&#xd7;" horiz-adv-x="461" 
d="M147 312l-108 109c-3 3 -5 6 -5 10c0 16 61 78 77 78c5 0 8 -2 11 -5l108 -109l109 109c3 3 6 5 11 5c16 0 77 -62 77 -78c0 -4 -2 -7 -5 -10l-109 -109l109 -108c3 -3 5 -7 5 -11c0 -15 -60 -77 -77 -77c-4 0 -7 2 -10 5l-110 109l-109 -109c-3 -3 -6 -5 -10 -5
c-17 0 -77 62 -77 77c0 4 2 8 5 11z" />
    <glyph glyph-name="notequal" unicode="&#x2260;" horiz-adv-x="493" 
d="M108 154h-64c-3 13 -7 39 -7 55c0 52 12 64 43 64h96l45 81h-177c-3 13 -7 39 -7 55c0 52 12 64 43 64h209l87 154c11 20 24 29 39 29c24 0 41 -14 59 -36l-83 -147h60c4 -12 7 -39 7 -55c0 -51 -12 -64 -43 -64h-92l-45 -81h173c4 -12 7 -39 7 -55
c0 -51 -12 -64 -43 -64h-205l-74 -131c-11 -20 -24 -29 -39 -29c-24 0 -41 14 -59 36z" />
    <glyph glyph-name="partialdiff" unicode="&#x2202;" horiz-adv-x="533" 
d="M214 517c-37 0 -110 -4 -110 -4s-17 20 -17 63c0 61 38 81 139 81c178 0 270 -112 270 -328c0 -242 -88 -335 -240 -335c-159 0 -231 93 -231 215c0 114 57 195 198 195c39 0 70 -4 96 -10c-11 104 -42 123 -105 123zM257 300c-46 0 -66 -28 -66 -91c0 -64 19 -91 65 -91
c44 0 66 31 67 171c-19 7 -40 11 -66 11z" />
    <glyph glyph-name="percent" unicode="%" horiz-adv-x="868" 
d="M24 470c0 112 70 187 170 187c101 0 172 -73 172 -186c0 -120 -71 -189 -172 -189c-100 0 -170 71 -170 188zM251 468c0 73 -19 97 -53 97s-53 -24 -53 -97c0 -69 19 -95 53 -95s53 27 53 95zM544 625c9 15 23 26 49 26c37 0 71 -19 82 -37l-350 -588
c-9 -15 -23 -26 -49 -26c-37 0 -71 19 -82 37zM502 183c0 112 70 186 171 186c100 0 171 -72 171 -185c0 -120 -71 -190 -171 -190c-101 0 -171 72 -171 189zM729 181c0 72 -19 97 -53 97s-53 -25 -53 -97c0 -70 19 -95 53 -95s53 26 53 95z" />
    <glyph glyph-name="perthousand" unicode="&#x2030;" horiz-adv-x="1263" 
d="M544 625c9 15 23 26 49 26c37 0 71 -19 82 -37l-350 -588c-9 -15 -23 -26 -49 -26c-37 0 -71 19 -82 37zM24 470c0 112 70 187 170 187c101 0 172 -73 172 -186c0 -120 -71 -189 -172 -189c-100 0 -170 71 -170 188zM251 468c0 73 -19 97 -53 97s-53 -24 -53 -97
c0 -69 19 -95 53 -95s53 27 53 95zM502 183c0 112 70 186 171 186c100 0 171 -72 171 -185c0 -120 -71 -190 -171 -190c-101 0 -171 72 -171 189zM729 181c0 72 -19 97 -53 97s-53 -25 -53 -97c0 -70 19 -95 53 -95s53 26 53 95zM897 183c0 112 70 186 171 186
c100 0 171 -72 171 -185c0 -120 -71 -190 -171 -190c-101 0 -171 72 -171 189zM1124 181c0 72 -19 97 -53 97s-53 -25 -53 -97c0 -70 19 -95 53 -95s53 26 53 95z" />
    <glyph glyph-name="plus" unicode="+" horiz-adv-x="471" 
d="M438 372c4 -13 8 -39 8 -54c0 -52 -11 -65 -44 -65h-104v-129c0 -12 -8 -22 -63 -22s-62 10 -62 22v129h-140c-4 14 -8 38 -8 53c0 54 11 66 44 66h104v129c0 12 7 22 62 22s63 -10 63 -22v-129h140z" />
    <glyph glyph-name="plusminus" unicode="&#xb1;" horiz-adv-x="496" 
d="M413 346h-103v-129c0 -12 -8 -22 -63 -22s-62 10 -62 22v129h-140c-4 14 -8 39 -8 53c0 54 11 66 45 66h103v129c0 12 7 22 62 22s63 -10 63 -22v-129h140c4 -13 8 -39 8 -53c0 -53 -11 -66 -45 -66zM413 24h-368c-4 14 -8 39 -8 53c0 54 11 66 45 66h368
c4 -13 8 -39 8 -53c0 -53 -11 -66 -45 -66z" />
    <glyph glyph-name="product" unicode="&#x220f;" horiz-adv-x="624" 
d="M224 533v-668c0 -16 -10 -28 -86 -28c-75 0 -85 12 -85 28v758c0 16 11 28 85 28h347c74 0 86 -12 86 -28v-758c0 -16 -10 -28 -86 -28c-75 0 -85 12 -85 28v668h-176z" />
    <glyph glyph-name="radical" unicode="&#x221a;" horiz-adv-x="588" 
d="M193 500c34 0 56 -10 63 -45l64 -342l111 573h83c47 0 64 -11 64 -41c0 -12 -5 -35 -14 -72l-125 -502c-11 -43 -31 -71 -89 -71h-129l-101 385h-91c-10 12 -19 33 -19 55c0 38 9 60 37 60h146z" />
    <glyph glyph-name="summation" unicode="&#x2211;" horiz-adv-x="471" 
d="M96 651h334c5 -15 9 -44 9 -61c0 -61 -13 -75 -49 -75h-171c0 -16 3 -21 32 -53l101 -111c1 -9 1 -13 1 -23c0 -23 -5 -37 -64 -99c-64 -68 -73 -82 -73 -91c0 -3 0 -5 2 -7h212c5 -14 9 -42 9 -59c0 -59 -13 -72 -47 -72h-339c-10 13 -20 36 -20 71c0 57 21 101 60 144
l96 107l-96 109c-38 44 -60 84 -60 141v44c0 23 14 35 63 35z" />
    <glyph glyph-name="ampersand" unicode="&#x26;" horiz-adv-x="595" 
d="M17 184c0 84 44 148 124 165c-43 65 -58 104 -58 151c0 83 61 157 194 157c126 0 183 -74 183 -157c0 -81 -61 -161 -125 -181c6 -8 12 -16 19 -24l59 -72c17 28 32 62 45 102h66c34 0 48 -12 48 -36c0 -49 -29 -111 -76 -166l71 -85c-20 -26 -60 -50 -98 -50
c-35 0 -55 10 -75 35l-7 8c-41 -23 -87 -37 -133 -37c-163 0 -237 89 -237 190zM225 233l-15 19c-18 -16 -25 -35 -25 -61c0 -40 26 -72 85 -72c12 0 26 3 40 8zM234 487c0 -18 5 -37 41 -89c39 35 51 60 51 88c0 26 -23 44 -46 44c-22 0 -46 -17 -46 -43z" />
    <glyph glyph-name="apple" unicode="&#xf8ff;" horiz-adv-x="1725" 
d="M344 376l-4 31l-128 -42v-88h29c0 -7 -3 -61 -3 -87c0 -43 24 -68 78 -68c52 0 71 18 71 18v78s-11 -6 -30 -6v65h46v-9c0 -58 38 -78 98 -78c47 0 60 14 61 15c-1 -3 -11 -38 -77 -38c-49 0 -76 21 -76 21v-88s25 -23 99 -23c110 0 159 45 159 146c0 92 -7 153 -7 153
h-112s2 -108 2 -112c0 -20 -5 -28 -16 -28c-10 0 -17 8 -17 28c0 4 2 112 2 112h-175zM226 743h100s11 -145 11 -325h-123c0 182 12 325 12 325zM517 526c0 20 -9 28 -25 28c-13 0 -22 -8 -22 -28s9 -32 22 -32c16 0 25 12 25 32zM357 530c0 88 38 139 140 139
c85 0 123 -43 123 -119v-132h-80l-10 61c-8 -43 -29 -68 -78 -68c-59 0 -95 38 -95 119zM789 297c5 31 21 88 82 88c49 0 83 -43 83 -119c0 -94 -49 -144 -135 -144c0 0 2 -16 2 -45h-134c0 182 12 299 12 299h82s8 -54 8 -79zM844 246c0 15 -9 22 -20 22
c-15 0 -25 -9 -25 -32c0 -16 4 -28 4 -28s41 2 41 38zM761 665l-4 31l-123 -38v-88h24c0 -6 -2 -64 -2 -91c0 -43 27 -68 78 -68s71 18 71 18v79s-11 -7 -30 -7v69h58c-2 -36 -2 -87 -2 -152h121c0 180 -9 247 -9 247h-182zM1221 264c0 75 -45 121 -119 121
c-85 0 -130 -46 -130 -135c0 -76 42 -128 141 -128c54 0 76 17 76 17v77s-16 -16 -54 -16c-44 0 -46 26 -46 26h127s5 15 5 38zM1082 252c0 20 10 29 24 29c11 0 19 -8 19 -20c0 -6 -1 -9 -1 -9h-42zM1245 339c0 21 19 39 40 39s39 -18 39 -39s-18 -39 -39 -39
s-40 18 -40 39zM1317 339c0 17 -15 32 -32 32s-32 -15 -32 -32s15 -32 32 -32s32 15 32 32zM1270 359h17c9 0 16 -5 16 -12c0 -8 -2 -11 -9 -13l9 -14h-10l-7 12h-8v-12h-8v39zM1294 346c0 4 -2 6 -7 6h-9v-13h9c5 0 7 2 7 7zM829 743c0 34 26 63 62 63s63 -29 63 -63
c0 -36 -27 -65 -63 -65s-62 29 -62 65zM1075 592c3 21 22 77 86 77c53 0 72 -30 77 -121l7 -130h-122c0 47 2 72 2 99c0 20 -6 27 -16 27c-11 0 -18 -7 -18 -27c0 -27 5 -52 5 -99h-120c0 182 12 247 12 247h80s7 -39 7 -73zM1410 526c0 20 -10 28 -26 28
c-14 0 -24 -8 -24 -28s10 -32 24 -32c16 0 26 12 26 32zM1257 537c0 71 29 132 127 132c106 0 129 -61 129 -132c0 -74 -41 -126 -129 -126c-87 0 -127 52 -127 126z" />
    <glyph glyph-name="at" unicode="@" horiz-adv-x="807" 
d="M544 -19c0 -37 -32 -60 -156 -60c-215 0 -359 122 -359 382c0 259 133 396 384 396c252 0 369 -140 369 -346c0 -198 -73 -277 -191 -277c-56 0 -97 19 -121 54c-27 -25 -64 -41 -121 -41c-76 0 -124 45 -124 118c0 70 45 119 141 119c22 0 46 -3 72 -9v63
c0 31 -13 40 -45 40c-26 0 -76 -3 -96 -3c-34 0 -40 16 -40 55c0 12 3 35 8 46c21 0 90 8 141 8c116 0 163 -38 163 -138v-179c0 -29 14 -40 41 -40c37 0 72 41 72 184c0 154 -85 260 -269 260c-185 0 -284 -107 -284 -310c0 -202 104 -296 259 -296c87 0 135 21 135 21
s21 -19 21 -47zM438 255c-10 3 -26 5 -41 5c-37 0 -47 -21 -47 -43s14 -38 39 -38c22 0 38 9 49 19v57z" />
    <glyph glyph-name="bar" unicode="|" horiz-adv-x="219" 
d="M51 -79v776c0 12 7 21 58 21c52 0 59 -9 59 -21v-776c0 -12 -7 -21 -59 -21c-51 0 -58 9 -58 21z" />
    <glyph glyph-name="brokenbar" unicode="&#xa6;" horiz-adv-x="219" 
d="M109 718c52 0 59 -9 59 -21v-324c0 -12 -7 -21 -59 -21c-51 0 -58 9 -58 21v324c0 12 7 21 58 21zM51 -79v324c0 12 7 21 58 21c52 0 59 -9 59 -21v-324c0 -12 -7 -21 -59 -21c-51 0 -58 9 -58 21z" />
    <glyph glyph-name="copyright" unicode="&#xa9;" horiz-adv-x="713" 
d="M28 325c0 197 114 332 328 332c215 0 329 -135 329 -332c0 -196 -114 -331 -329 -331c-214 0 -328 135 -328 331zM385 256c37 0 65 10 65 10c8 -7 16 -32 16 -54c0 -31 -38 -47 -103 -47c-94 0 -152 52 -152 164c0 106 57 166 152 166c23 0 85 -7 93 -7c4 -9 7 -28 7 -39
c0 -35 -5 -49 -34 -49c-15 0 -41 2 -52 2c-37 0 -57 -19 -57 -75c0 -51 24 -71 65 -71zM578 327c0 143 -78 233 -221 233c-136 0 -220 -90 -220 -233c0 -144 84 -234 220 -234c143 0 221 90 221 234z" />
    <glyph glyph-name="dagger" unicode="&#x2020;" horiz-adv-x="490" 
d="M158 637c18 13 45 20 86 20c67 0 89 -17 89 -39c0 -7 -2 -58 -4 -130h115c13 -14 23 -39 23 -66c0 -46 -11 -73 -45 -73h-97c-7 -203 -15 -446 -15 -446h-76c-44 0 -59 13 -60 55l-9 391h-119c-13 14 -23 39 -23 66c0 46 11 73 45 73h94z" />
    <glyph glyph-name="daggerdbl" unicode="&#x2021;" horiz-adv-x="498" 
d="M162 637c18 13 45 20 86 20c67 0 89 -17 89 -39l-4 -130h115c13 -14 23 -39 23 -66c0 -46 -11 -73 -45 -73h-97l-3 -84h122c13 -14 23 -39 23 -66c0 -46 -11 -73 -45 -73h-105l-7 -223h-76c-44 0 -59 13 -60 55l-4 168h-124c-13 14 -23 39 -23 66c0 46 11 73 45 73h99
c-1 28 -2 56 -2 84h-119c-13 14 -23 39 -23 66c0 46 11 73 45 73h94z" />
    <glyph glyph-name="degree" unicode="&#xb0;" horiz-adv-x="342" 
d="M315 492c0 -102 -53 -165 -144 -165s-144 63 -144 165c0 100 51 165 144 165s144 -65 144 -165zM128 490c0 -63 13 -87 43 -87c29 0 44 24 44 87c0 65 -15 87 -44 87c-30 0 -43 -22 -43 -87z" />
    <glyph glyph-name="lozenge" unicode="&#x25ca;" horiz-adv-x="485" 
d="M154 634c0 0 37 17 92 17c70 0 89 -13 100 -43l117 -311l-130 -348s-35 -18 -90 -18c-56 0 -85 13 -97 43l-124 319zM247 445c-1 3 -3 5 -7 5c-3 0 -5 -1 -5 -1l-58 -153l58 -159c1 -3 3 -5 7 -5c2 0 3 0 5 1l61 163z" />
    <glyph glyph-name="paragraph" unicode="&#xb6;" horiz-adv-x="525" 
d="M22 304c0 137 88 205 268 205c78 0 141 -5 181 -9v-608c0 -13 -8 -22 -61 -22c-52 0 -59 9 -59 22v499s-16 3 -61 3v-268s-22 -9 -60 -9c-120 0 -208 54 -208 187z" />
    <glyph glyph-name="registered" unicode="&#xae;" horiz-adv-x="713" 
d="M28 325c0 197 114 332 328 332c215 0 329 -135 329 -332c0 -196 -114 -331 -329 -331c-214 0 -328 135 -328 331zM578 327c0 143 -78 233 -221 233c-136 0 -220 -90 -220 -233c0 -144 84 -234 220 -234c143 0 221 90 221 234zM231 463c0 22 9 36 112 36s149 -53 149 -126
c0 -38 -15 -69 -41 -87l50 -97c-12 -12 -46 -23 -70 -23c-21 0 -31 4 -41 28l-29 67c-12 0 -21 1 -30 2v-75c0 -9 -6 -17 -50 -17s-50 8 -50 17v275zM390 367c0 27 -8 41 -39 41c-18 0 -20 -1 -20 -1v-78s6 -1 21 -1c27 0 38 15 38 39z" />
    <glyph glyph-name="section" unicode="&#xa7;" horiz-adv-x="438" 
d="M28 229c0 60 29 109 85 134c-43 23 -78 59 -78 131c0 105 54 163 199 163c41 0 115 -6 139 -6c4 -14 7 -36 7 -57c0 -95 -69 -61 -140 -61c-39 0 -50 -14 -50 -38c0 -65 221 -82 221 -219c0 -60 -30 -110 -85 -134c42 -24 78 -60 78 -131c0 -98 -62 -163 -198 -163
c-124 0 -153 24 -153 61c0 28 9 58 17 67c0 0 53 -13 122 -13c39 0 57 14 57 41c0 65 -221 88 -221 225zM262 257c0 24 -13 40 -32 52c-33 -9 -53 -29 -53 -61c0 -24 13 -40 32 -53c33 9 53 29 53 62z" />
    <glyph glyph-name="trademark" unicode="&#x2122;" horiz-adv-x="870" 
d="M659 621c5 22 19 30 79 30c62 0 67 -7 69 -35l18 -337c0 -10 -7 -17 -52 -17c-43 0 -59 7 -59 17l-12 246l-46 -212c-8 -28 -20 -34 -56 -34c-37 0 -50 6 -56 34l-49 212l-12 -246c-1 -10 -8 -17 -47 -17c-40 0 -49 7 -49 17l18 338c1 26 8 34 68 34c62 0 74 -8 79 -30
l53 -250zM80 651h263c3 -10 6 -31 6 -42c0 -43 -9 -52 -34 -52h-63v-275c0 -12 -3 -20 -55 -20c-51 0 -54 8 -54 20v275h-91c-3 10 -6 30 -6 42c0 42 9 52 34 52z" />
    <glyph glyph-name="asciicircum" unicode="^" horiz-adv-x="448" 
d="M162 688c0 0 22 6 63 6c49 0 66 -9 77 -31l106 -216c8 -16 12 -25 12 -39c0 -23 -46 -38 -125 -38l-74 198s-45 -129 -59 -160c-11 -25 -22 -38 -50 -38c-31 0 -64 12 -85 32z" />
    <glyph glyph-name="space" unicode=" " horiz-adv-x="184" 
 />
    <glyph glyph-name="ff" unicode="&#xfb00;" horiz-adv-x="685" 
d="M16 385c-4 13 -7 37 -7 52c0 51 11 63 41 63h36v69c0 92 40 147 156 147c22 0 101 -4 107 -4c5 -12 9 -39 9 -54c0 -46 -6 -65 -43 -65c-18 0 -32 2 -46 2c-19 0 -27 -8 -27 -24v-71h146v89c0 92 40 147 156 147c22 0 101 -4 107 -4c5 -12 9 -39 9 -54
c0 -46 -6 -65 -43 -65c-18 0 -32 2 -46 2c-19 0 -27 -8 -27 -24v-91h89c4 -13 7 -37 7 -52c0 -51 -11 -63 -41 -63h-55v-357c0 -16 -10 -28 -79 -28c-68 0 -77 12 -77 28v357h-146v-357c0 -16 -10 -28 -79 -28c-68 0 -77 12 -77 28v357h-70z" />
    <glyph glyph-name="ffi" unicode="&#xfb03;" horiz-adv-x="907" 
d="M86 28c0 -16 9 -28 77 -28c69 0 79 12 79 28v357h146v-357c0 -16 9 -28 77 -28c69 0 79 12 79 28v357h161v-357c0 -16 9 -28 77 -28c69 0 79 12 79 28v444c0 16 -10 28 -79 28h-238v91c0 16 8 24 27 24c14 0 28 -2 46 -2c37 0 43 19 43 65c0 15 -4 42 -9 54
c-6 0 -85 4 -107 4c-116 0 -156 -55 -156 -147v-89h-146v71c0 16 8 24 27 24c14 0 28 -2 46 -2c37 0 43 19 43 65c0 15 -4 42 -9 54c-6 0 -85 4 -107 4c-116 0 -156 -55 -156 -147v-69h-36c-30 0 -41 -12 -41 -63c0 -15 3 -39 7 -52h70v-357zM782 738c48 0 86 -38 86 -86
c0 -47 -38 -85 -86 -85c-47 0 -85 38 -85 85c0 48 38 86 85 86z" />
    <glyph glyph-name="ffl" unicode="&#xfb04;" horiz-adv-x="930" 
d="M388 589c0 92 40 147 156 147c22 0 101 -4 107 -4c5 -12 9 -39 9 -54c0 -46 -6 -65 -43 -65c-18 0 -32 2 -46 2c-19 0 -27 -8 -27 -24v-91h89c4 -13 7 -37 7 -52c0 -51 -11 -63 -41 -63h-55v-357c0 -16 -10 -28 -79 -28c-68 0 -77 12 -77 28v357h-146v-357
c0 -16 -10 -28 -79 -28c-68 0 -77 12 -77 28v357h-70c-4 13 -7 37 -7 52c0 51 11 63 41 63h36v69c0 92 40 147 156 147c22 0 101 -4 107 -4c5 -12 9 -39 9 -54c0 -46 -6 -65 -43 -65c-18 0 -32 2 -46 2c-19 0 -27 -8 -27 -24v-71h146v89zM705 690c0 16 9 28 77 28
c69 0 79 -12 79 -28v-546c0 -24 6 -33 23 -33c9 0 20 1 20 1s7 -21 7 -65c0 -34 -28 -53 -84 -53c-100 0 -122 43 -122 132v564z" />
    <glyph glyph-name="A" unicode="A" horiz-adv-x="555" 
d="M188 144l-27 -105c-8 -32 -23 -44 -66 -44c-36 0 -79 10 -98 25l188 614c28 11 57 17 92 17c70 0 90 -12 100 -43l164 -524c8 -27 10 -37 10 -48c0 -24 -14 -36 -48 -36h-113l-37 144h-165zM216 252h109l-54 210z" />
    <glyph glyph-name="uni00AD" unicode="&#xad;" horiz-adv-x="380" 
d="M326 369c5 -15 10 -45 10 -63c0 -61 -14 -76 -51 -76h-232c-4 16 -9 45 -9 61c0 64 13 78 51 78h231z" />
    </font>
</defs>
</svg>
